<svg xmlns="http://www.w3.org/2000/svg" width="30" height="31" viewBox="0 0 30 31" fill="none"><g clip-path="url(#clip0_1733_3512)"><path d="M14.4162 0.488063C14.4812 0.487442 14.4812 0.487442 14.5475 0.486809C16.3484 0.473508 16.3484 0.473508 17.1102 0.675746C17.1798 0.693675 17.1798 0.693675 17.2508 0.711967C19.2858 1.24826 21.1671 2.37643 22.4422 4.07418C22.4883 4.13332 22.5343 4.19247 22.5818 4.2534C23.4849 5.43879 24.0853 6.87961 24.3172 8.35153C24.3277 8.41792 24.3382 8.48431 24.349 8.55272C24.6299 10.9135 23.8554 13.0408 22.8724 15.1548C22.8039 15.3025 22.7365 15.4506 22.6697 15.5991C22.3828 16.2312 22.0496 16.8366 21.7133 17.4435C21.6237 17.6061 21.5353 17.7693 21.4473 17.9328C20.5534 19.5917 19.565 21.1982 18.5286 22.7715C18.3643 23.0211 18.2049 23.2733 18.0477 23.5273C18.2018 23.6044 18.34 23.6121 18.5114 23.6326C18.5831 23.6415 18.6548 23.6503 18.7287 23.6595C18.767 23.6642 18.8052 23.6689 18.8445 23.6737C20.857 23.9239 23.5989 24.2952 24.9617 25.9882C25.2252 26.4034 25.2955 26.7935 25.2547 27.2773C25.1055 27.9003 24.6686 28.3621 24.1487 28.7092C22.5203 29.7 20.6169 30.0742 18.7508 30.3242C18.6893 30.333 18.6278 30.3419 18.5645 30.351C16.2192 30.6772 13.5925 30.6694 11.2508 30.3242C11.1775 30.3138 11.1042 30.3035 11.0286 30.2928C6.39547 29.6243 6.39547 29.6243 5.16117 28.0727C5.07496 27.9467 4.99609 27.8213 4.92267 27.6875C4.9013 27.6494 4.87992 27.6113 4.8579 27.5721C4.6893 27.1893 4.71677 26.7243 4.86408 26.3398C5.4822 25.1725 6.80353 24.666 8.00112 24.2967C9.31272 23.908 10.6613 23.7196 12.0125 23.5273C11.9834 23.4828 11.9834 23.4828 11.9537 23.4374C11.4785 22.7097 11.0089 21.9788 10.5477 21.2422C10.5175 21.1941 10.4873 21.146 10.4562 21.0965C9.75629 19.981 9.08832 18.8466 8.45672 17.691C8.37225 17.5372 8.28671 17.384 8.20117 17.2308C7.2101 15.4435 6.32954 13.5536 5.80158 11.5742C5.79041 11.5347 5.77924 11.4952 5.76773 11.4546C5.4576 10.3326 5.51493 8.88739 5.80158 7.76559C5.81353 7.71877 5.82548 7.67195 5.8378 7.62371C6.37443 5.58926 7.50273 3.70827 9.20001 2.43356C9.25915 2.38748 9.3183 2.34141 9.37923 2.29394C10.79 1.21915 12.6317 0.499461 14.4162 0.488063ZM13.0672 1.61325C13.0277 1.62299 12.9882 1.63273 12.9475 1.64277C11.6321 1.97102 10.4534 2.59557 9.43439 3.48825C9.36403 3.54795 9.36403 3.54795 9.29225 3.60887C7.74819 4.94014 6.79856 6.92882 6.5633 8.93747C6.49086 9.94769 6.56124 10.8985 6.85626 11.8672C6.8707 11.9148 6.88514 11.9624 6.90001 12.0115C7.00854 12.3594 7.13386 12.6996 7.26642 13.039C7.29783 13.12 7.29783 13.12 7.32988 13.2025C7.97674 14.8459 8.79201 16.4439 9.68582 17.966C9.77821 18.1235 9.86983 18.2814 9.96123 18.4395C10.4749 19.3276 11.0027 20.2055 11.5528 21.0717C11.6599 21.2404 11.7663 21.4096 11.8727 21.5788C12.3503 22.3351 12.845 23.0791 13.3455 23.8203C13.376 23.8654 13.4064 23.9105 13.4378 23.957C14.1696 25.0457 14.1696 25.0457 14.9422 26.1054C15.1471 26.0371 15.1747 25.9891 15.294 25.8157C15.3278 25.767 15.3616 25.7182 15.3964 25.668C15.4314 25.6166 15.4664 25.5652 15.5025 25.5122C15.5359 25.4639 15.5693 25.4156 15.6038 25.3659C17.2989 22.9081 18.9342 20.3918 20.3914 17.7851C20.4276 17.7207 20.4638 17.6563 20.501 17.5899C21.5724 15.6809 22.5789 13.7399 23.2039 11.6328C23.2178 11.5877 23.2317 11.5427 23.246 11.4963C23.586 10.3677 23.548 9.07889 23.2625 7.94137C23.2528 7.90153 23.243 7.86169 23.233 7.82064C22.9046 6.5057 22.2799 5.32723 21.3875 4.30856C21.3477 4.26165 21.3079 4.21475 21.2669 4.16642C19.9428 2.63072 17.9423 1.65761 15.9383 1.43746C15.6306 1.42071 15.3235 1.41749 15.0154 1.41915C14.9742 1.41926 14.933 1.41937 14.8905 1.41948C14.2658 1.4222 13.6745 1.45503 13.0672 1.61325ZM6.09455 26.2226C5.91262 26.4114 5.78109 26.5995 5.68073 26.8415C5.68955 27.1857 5.84004 27.3944 6.0799 27.6252C8.90609 29.9579 14.2469 29.7576 17.6924 29.4306C19.7511 29.2175 22.6112 28.9211 24.1414 27.3359C24.2621 27.1548 24.2986 27.04 24.2907 26.8228C24.2038 26.4666 23.9001 26.24 23.6111 26.0409C21.9202 25.0307 19.3096 24.2972 17.3445 24.4648C17.2287 24.5904 17.1388 24.7054 17.0443 24.8457C17.0165 24.8853 16.9887 24.9248 16.96 24.9656C16.8723 25.091 16.7861 25.2173 16.7 25.3437C16.6466 25.4211 16.5931 25.4985 16.5396 25.5758C16.3146 25.9017 16.0908 26.2283 15.871 26.5577C15.8092 26.6487 15.7474 26.7396 15.6856 26.8305C15.6575 26.8734 15.6294 26.9163 15.6005 26.9605C15.4692 27.1518 15.3824 27.2615 15.1741 27.3712C14.9682 27.3989 14.8857 27.3838 14.7078 27.2773C14.2613 26.8368 13.9188 26.2906 13.5695 25.7729C13.3927 25.5115 13.2138 25.2516 13.0342 24.9922C12.9986 24.9399 12.963 24.8877 12.9263 24.8339C12.8763 24.7618 12.8763 24.7618 12.8253 24.6882C12.7956 24.6451 12.766 24.6019 12.7354 24.5575C12.7096 24.5269 12.6837 24.4963 12.657 24.4648C10.6121 24.4648 7.72931 24.9154 6.09455 26.2226Z" fill="#221E1F"></path><path d="M14.9749 3.29053C15.0328 3.29058 15.0328 3.29058 15.0919 3.29063C15.7353 3.29306 16.3222 3.34855 16.9341 3.54688C16.974 3.55944 17.014 3.572 17.0551 3.58493C17.8888 3.85345 18.6149 4.26097 19.2779 4.83594C19.3252 4.87484 19.3726 4.91374 19.4214 4.95382C20.6045 5.95863 21.376 7.45851 21.563 8.9961C21.6927 11.008 21.2632 12.7519 19.9311 14.296C18.8634 15.498 17.3009 16.3445 15.6798 16.4506C15.4618 16.4574 15.2443 16.4598 15.0261 16.4595C14.9682 16.4594 14.9682 16.4594 14.9091 16.4594C14.2657 16.4569 13.6788 16.4015 13.0669 16.2031C13.027 16.1906 12.987 16.178 12.9459 16.1651C12.1122 15.8966 11.3861 15.489 10.7232 14.9141C10.6758 14.8752 10.6285 14.8363 10.5797 14.7962C9.39669 13.7915 8.62471 12.2914 8.43801 10.7539C8.41975 10.4693 8.41564 10.1858 8.41604 9.90064C8.41607 9.86202 8.41611 9.8234 8.41614 9.78361C8.41857 9.14018 8.47405 8.55333 8.67239 7.94141C8.69122 7.88151 8.69122 7.88151 8.71044 7.82039C8.97895 6.98671 9.38648 6.26059 9.96145 5.59766C10.0003 5.55031 10.0392 5.50295 10.0793 5.45415C11.2967 4.02079 13.118 3.28794 14.9749 3.29053ZM10.6646 6.24219C9.58755 7.55445 9.25547 9.02175 9.37551 10.6953C9.53871 12.1304 10.3665 13.3891 11.4446 14.3135C12.6464 15.2548 14.1515 15.7207 15.6736 15.5414C17.1535 15.3294 18.5429 14.5904 19.4681 13.3966C20.4351 12.0495 20.8356 10.5259 20.5873 8.87525C20.3177 7.42206 19.4557 6.12201 18.2577 5.26189C15.803 3.62418 12.6272 4.02463 10.6646 6.24219Z" fill="#221E1F"></path><path d="M15.175 5.5976C15.5449 5.86318 15.8619 6.21693 16.1821 6.53876C16.2279 6.58427 16.2736 6.62977 16.3207 6.67666C16.5573 6.91361 16.7825 7.15231 16.9915 7.414C16.993 7.37442 16.9945 7.33485 16.996 7.29407C17.0227 6.87393 17.0227 6.87393 17.1416 6.67426C17.3141 6.57692 17.4407 6.56332 17.636 6.55684C17.8377 6.62027 17.8879 6.6998 17.9875 6.88666C17.9923 7.05665 17.9788 7.2222 17.9665 7.3918C17.9377 7.87115 17.9259 8.3013 18.2416 8.69108C18.5196 9.0022 18.8342 9.27603 19.1579 9.53848C19.3235 9.68086 19.333 9.73441 19.3535 9.95551C19.3352 10.1679 19.3352 10.1679 19.2453 10.2975C19.0491 10.4398 18.8789 10.4283 18.6467 10.4169C18.6059 10.4159 18.565 10.4148 18.5229 10.4137C18.4225 10.411 18.3222 10.4068 18.2219 10.4023C18.2233 10.5145 18.2233 10.5145 18.2247 10.6289C18.2279 10.9068 18.2299 11.1847 18.2316 11.4627C18.2325 11.5829 18.2337 11.7031 18.2352 11.8233C18.2373 11.9962 18.2383 12.1691 18.2391 12.3421C18.24 12.3957 18.2409 12.4493 18.2418 12.5045C18.242 12.9958 18.242 12.9958 18.0461 13.2148C17.8038 13.3589 17.548 13.3499 17.2734 13.3496C17.2277 13.3498 17.182 13.3501 17.1349 13.3504C17.0386 13.3507 16.9423 13.3507 16.8459 13.3505C16.699 13.3503 16.552 13.3517 16.4051 13.3531C16.3112 13.3533 16.2174 13.3533 16.1235 13.3533C16.0798 13.3538 16.0361 13.3543 15.9911 13.3549C15.728 13.3526 15.559 13.3201 15.3508 13.1562C15.2125 12.9488 15.2199 12.8626 15.2222 12.6172C15.2226 12.5464 15.223 12.4756 15.2233 12.4026C15.2248 12.2916 15.2248 12.2916 15.2263 12.1784C15.2268 12.1037 15.2274 12.0291 15.2279 11.9522C15.2293 11.7676 15.2312 11.583 15.2336 11.3984C15.079 11.3984 14.9243 11.3984 14.7649 11.3984C14.7667 11.468 14.7667 11.468 14.7686 11.539C14.7735 11.7497 14.7765 11.9603 14.7795 12.1711C14.7815 12.2441 14.7835 12.3171 14.7855 12.3923C14.7866 12.4979 14.7866 12.4979 14.7878 12.6057C14.7896 12.7028 14.7896 12.7028 14.7915 12.8019C14.7587 13.0222 14.6866 13.1173 14.5305 13.2734C14.3137 13.3456 14.1122 13.3415 13.8864 13.3418C13.8406 13.342 13.7947 13.3422 13.7474 13.3424C13.6504 13.3427 13.5534 13.3428 13.4563 13.3428C13.3083 13.343 13.1604 13.344 13.0123 13.3451C12.918 13.3453 12.8236 13.3454 12.7292 13.3455C12.6631 13.3461 12.6631 13.3461 12.5957 13.3468C12.3567 13.3457 12.1599 13.3388 11.9524 13.2148C11.7219 12.957 11.7539 12.6686 11.7594 12.3421C11.7597 12.2865 11.7599 12.231 11.7602 12.1738C11.7612 11.9971 11.7634 11.8204 11.7656 11.6437C11.7665 11.5237 11.7673 11.4036 11.768 11.2836C11.77 10.9898 11.773 10.6961 11.7766 10.4023C11.7159 10.405 11.6552 10.4077 11.5926 10.4105C11.5123 10.4127 11.4321 10.4149 11.3518 10.4169C11.3119 10.4189 11.2719 10.4209 11.2307 10.4229C11.0286 10.4268 10.919 10.4181 10.7547 10.2961C10.6633 10.1679 10.6633 10.1679 10.623 9.97748C10.7299 9.39479 11.4938 8.86021 11.9041 8.45061C11.9847 8.36998 12.0653 8.28934 12.1458 8.20869C12.3138 8.04062 12.4819 7.87265 12.6501 7.70475C12.8659 7.48927 13.0815 7.27352 13.2969 7.0577C13.4629 6.89157 13.6289 6.72557 13.795 6.55963C13.8746 6.48007 13.9542 6.40048 14.0337 6.32084C14.1443 6.21005 14.2551 6.09944 14.366 5.98888C14.3989 5.95586 14.4318 5.92284 14.4657 5.88882C14.7052 5.65066 14.8292 5.54636 15.175 5.5976ZM14.8287 6.92594C14.7832 6.97174 14.7376 7.01754 14.6907 7.06473C14.6133 7.14215 14.6133 7.14215 14.5343 7.22114C14.478 7.2781 14.4216 7.33506 14.3653 7.39203C14.3077 7.44986 14.25 7.50766 14.1924 7.56544C14.0405 7.71776 13.889 7.87044 13.7375 8.02319C13.583 8.17892 13.4281 8.33432 13.2733 8.48975C12.9694 8.7949 12.6658 9.10043 12.3625 9.40619C12.4097 9.45211 12.4568 9.49804 12.5054 9.54535C12.6881 9.7325 12.721 9.80927 12.7261 10.0609C12.7273 10.1114 12.7285 10.1618 12.7297 10.2138C12.7307 10.2683 12.7316 10.3228 12.7327 10.3789C12.7339 10.4347 12.7351 10.4905 12.7363 10.5479C12.7402 10.7264 12.7436 10.9049 12.7471 11.0834C12.7496 11.2043 12.7522 11.3251 12.7547 11.446C12.761 11.7426 12.767 12.0392 12.7727 12.3359C13.1014 12.3359 13.4301 12.3359 13.7688 12.3359C13.7717 12.2286 13.7745 12.1214 13.7775 12.0109C13.7819 11.8702 13.7863 11.7295 13.7908 11.5888C13.7935 11.4828 13.7935 11.4828 13.7963 11.3746C13.7985 11.3066 13.8008 11.2386 13.8031 11.1686C13.805 11.106 13.8068 11.0434 13.8087 10.9789C13.8271 10.8149 13.8549 10.7154 13.9446 10.5781C14.2082 10.4463 14.5687 10.5062 14.862 10.5054C14.9949 10.5048 15.1277 10.503 15.2605 10.5012C15.3449 10.5008 15.4292 10.5005 15.5136 10.5002C15.5905 10.4997 15.6673 10.4992 15.7466 10.4986C15.9368 10.5195 15.9368 10.5195 16.0492 10.5843C16.1441 10.7506 16.1384 10.8936 16.1425 11.0841C16.1446 11.1602 16.1467 11.2363 16.1488 11.3147C16.1502 11.3951 16.1515 11.4755 16.1528 11.5558C16.1548 11.6369 16.1568 11.718 16.1589 11.799C16.1637 11.9975 16.1675 12.196 16.1711 12.3945C16.5192 12.3945 16.8672 12.3945 17.2258 12.3945C17.227 12.3194 17.2282 12.2443 17.2293 12.1669C17.2338 11.8882 17.239 11.6096 17.2444 11.3309C17.2467 11.2103 17.2487 11.0897 17.2505 10.9691C17.2532 10.7957 17.2566 10.6223 17.2602 10.449C17.2608 10.3951 17.2615 10.3412 17.2622 10.2856C17.2634 10.2352 17.2645 10.1848 17.2657 10.1328C17.2665 10.0886 17.2673 10.0444 17.2681 9.99878C17.2869 9.85594 17.3245 9.76205 17.4016 9.64056C17.5554 9.56732 17.5554 9.56732 17.6946 9.52338C17.4167 9.18957 17.1198 8.88054 16.8129 8.57329C16.763 8.52315 16.713 8.47301 16.6616 8.42135C16.5567 8.31614 16.4517 8.21101 16.3466 8.10596C16.1852 7.9444 16.0242 7.78238 15.8633 7.62034C15.7612 7.51804 15.659 7.41577 15.5568 7.31352C15.5085 7.26482 15.4603 7.21613 15.4105 7.16595C15.3659 7.12153 15.3213 7.0771 15.2754 7.03133C15.2361 6.99197 15.1968 6.95261 15.1563 6.91206C15.0112 6.78831 14.9711 6.8015 14.8287 6.92594Z" fill="#221E1F"></path></g><defs><clipPath id="clip0_1733_3512"><rect width="30" height="30" fill="white" transform="translate(0 0.5)"></rect></clipPath></defs></svg>