<svg xmlns="http://www.w3.org/2000/svg" width="20" height="20" viewBox="0 0 20 20" fill="none"><g clip-path="url(#clip0_1720_459)"><path d="M9.98512 -0.0121273C10.0249 -0.0120431 10.0646 -0.0119589 10.1056 -0.0118722C10.6763 -0.00993189 11.2361 -0.000131242 11.7966 0.117267C11.8347 0.125028 11.8728 0.132789 11.912 0.140785C13.4377 0.459931 14.8611 1.07031 16.0935 2.03133C16.1281 2.05761 16.1626 2.0839 16.1982 2.11098C16.8072 2.58378 17.378 3.14233 17.8513 3.75008C17.8961 3.80492 17.8961 3.80492 17.9418 3.86086C19.2945 5.55008 20.0169 7.71803 20.0121 9.87224C20.012 9.98707 20.0129 10.1019 20.0139 10.2167C20.0156 10.7391 19.9685 11.2428 19.8826 11.7579C19.8716 11.8245 19.8716 11.8245 19.8603 11.8925C19.5859 13.4203 18.9225 14.8727 17.9685 16.0938C17.9389 16.1318 17.9092 16.1698 17.8786 16.2089C17.3968 16.8096 16.8577 17.3781 16.2498 17.8516C16.2132 17.8815 16.1767 17.9114 16.139 17.9421C14.8908 18.9416 13.3609 19.5865 11.7966 19.8829C11.765 19.8893 11.7334 19.8957 11.7008 19.9023C10.5274 20.1316 9.17412 20.0889 8.00758 19.8438C7.94809 19.8316 7.94809 19.8316 7.8874 19.8191C6.43647 19.5108 5.0746 18.8818 3.90602 17.9688C3.86805 17.9392 3.83009 17.9095 3.79097 17.879C3.1902 17.3971 2.62174 16.858 2.14821 16.2501C2.10342 16.1952 2.10342 16.1952 2.05772 16.1393C1.05824 14.8911 0.413323 13.3612 0.116957 11.797C0.110562 11.7653 0.104167 11.7337 0.0975781 11.7011C-0.116078 10.6079 -0.111355 9.29327 0.116957 8.20321C0.124718 8.16512 0.132478 8.12704 0.140474 8.08781C0.534496 6.20418 1.39531 4.462 2.74265 3.07934C2.81196 3.00821 2.88062 2.9365 2.94929 2.86476C3.22659 2.57816 3.5161 2.32155 3.83598 2.0835C3.90774 2.03005 3.97891 1.97587 4.05006 1.92162C4.37923 1.67295 4.71887 1.45299 5.07789 1.25008C5.10252 1.2359 5.12714 1.22172 5.15251 1.20711C6.62705 0.362969 8.29772 -0.0185526 9.98512 -0.0121273ZM4.88258 2.53914C4.84492 2.56623 4.80725 2.59332 4.76845 2.62123C4.46904 2.84075 4.18697 3.07815 3.90602 3.32039C3.86055 3.35854 3.86055 3.35854 3.81416 3.39745C3.65881 3.52911 3.52259 3.66776 3.39119 3.82332C3.34348 3.87901 3.29441 3.93355 3.24409 3.9869C2.74144 4.52108 2.33418 5.13451 1.99196 5.78133C1.97525 5.81281 1.95855 5.8443 1.94134 5.87674C1.27703 7.14953 0.958481 8.54323 0.961683 9.97322C0.961705 10.0091 0.961726 10.045 0.961748 10.0819C0.964228 10.9967 1.08792 11.8611 1.36696 12.7345C1.37676 12.7652 1.38656 12.7959 1.39665 12.8276C1.6645 13.6467 2.04642 14.6774 2.69508 15.2735C2.78594 15.0957 2.8755 14.9177 2.95646 14.7352C3.59279 13.3116 4.69466 12.0947 6.05446 11.3282C6.08048 11.3133 6.10651 11.2983 6.13333 11.283C6.64568 10.9912 7.17856 10.781 7.73414 10.586C7.62984 10.4792 7.52417 10.3871 7.40345 10.299C6.61609 9.72208 6.15489 8.89638 5.89821 7.96883C5.88894 7.9361 5.87968 7.90337 5.87013 7.86965C5.63407 6.88724 5.83109 5.84327 6.28883 4.96102C6.30928 4.92084 6.32972 4.88065 6.35078 4.83925C6.84552 3.92941 7.73334 3.25129 8.71626 2.94255C9.83045 2.62334 10.9926 2.72481 12.0237 3.25447C12.2774 3.39841 12.5079 3.56645 12.7341 3.75008C12.7679 3.77737 12.8017 3.80466 12.8365 3.83278C13.6591 4.53341 14.1214 5.57985 14.2079 6.64521C14.2568 7.44169 14.114 8.19342 13.7498 8.90633C13.722 8.96245 13.722 8.96245 13.6936 9.0197C13.5583 9.2818 13.3945 9.50314 13.2029 9.72664C13.1773 9.75837 13.1517 9.79009 13.1254 9.82277C12.8776 10.1181 12.58 10.3289 12.2654 10.547C12.3637 10.6125 12.4329 10.6469 12.5419 10.6846C13.3465 10.9716 14.0901 11.3493 14.7654 11.8751C14.7876 11.8923 14.8098 11.9096 14.8327 11.9273C15.3831 12.361 15.8853 12.8644 16.2888 13.4376C16.3044 13.4592 16.32 13.4809 16.336 13.5032C16.5517 13.8045 16.7364 14.118 16.9089 14.4459C16.9266 14.4794 16.9443 14.513 16.9625 14.5476C17.0778 14.7715 17.176 14.9991 17.2654 15.2345C17.3041 15.2345 17.3427 15.2345 17.3826 15.2345C17.4466 15.1585 17.4997 15.0855 17.5535 15.0025C17.5702 14.9769 17.587 14.9513 17.6042 14.9249C18.4378 13.6148 19.0174 12.0307 19.0325 10.4643C19.0331 10.4147 19.0331 10.4147 19.0337 10.3641C19.044 9.24217 18.9384 8.22325 18.5935 7.14852C18.5842 7.11932 18.5748 7.09012 18.5652 7.06004C18.1738 5.87157 17.4898 4.84615 16.6795 3.90633C16.654 3.87602 16.6286 3.8457 16.6024 3.81447C16.4707 3.65912 16.3321 3.5229 16.1765 3.3915C16.1208 3.34379 16.0663 3.29472 16.013 3.2444C15.4788 2.74175 14.8653 2.33449 14.2185 1.99227C14.187 1.97556 14.1556 1.95886 14.1231 1.94165C13.1073 1.41146 11.9644 1.06744 10.8201 0.976642C10.7883 0.974024 10.7566 0.971406 10.7239 0.968708C8.70456 0.81372 6.53136 1.32971 4.88258 2.53914ZM7.45079 4.90593C6.90192 5.62021 6.64206 6.4831 6.74293 7.38289C6.86459 8.28574 7.33982 9.04512 8.04664 9.60946C8.75679 10.1142 9.61408 10.3438 10.4806 10.2218C11.3368 10.0695 12.0941 9.63096 12.6267 8.93807C13.1631 8.15138 13.3812 7.27778 13.2191 6.33179C13.0631 5.54386 12.5896 4.82132 11.9529 4.33602C10.462 3.36719 8.63893 3.54071 7.45079 4.90593ZM6.67946 12.0704C6.65511 12.0836 6.63076 12.0967 6.60568 12.1103C6.18922 12.3386 5.82914 12.6223 5.46852 12.9298C5.44399 12.9503 5.41947 12.9709 5.3942 12.9921C5.2744 13.0931 5.16181 13.1927 5.0608 13.3131C4.99188 13.3945 4.92317 13.475 4.85008 13.5528C4.59203 13.8287 4.38606 14.1382 4.17946 14.4532C4.1426 14.5084 4.1426 14.5084 4.10499 14.5647C3.93939 14.8292 3.81963 15.1111 3.6985 15.398C3.68158 15.438 3.66466 15.4779 3.64722 15.519C3.60083 15.6317 3.55749 15.7451 3.51539 15.8595C3.50259 15.891 3.4898 15.9226 3.47661 15.9552C3.44571 16.0479 3.42951 16.1135 3.43727 16.211C3.51098 16.3418 3.61199 16.4336 3.72291 16.5333C3.75317 16.5619 3.78343 16.5904 3.8146 16.6199C4.11409 16.8977 4.43291 17.1462 4.76539 17.3829C4.78818 17.3996 4.81096 17.4163 4.83444 17.4336C6.70464 18.8032 9.13353 19.2842 11.4033 18.9526C13.1499 18.6701 14.8204 17.8913 16.1018 16.6647C16.2107 16.5626 16.2107 16.5626 16.3221 16.4739C16.4212 16.3908 16.4954 16.3218 16.5623 16.211C16.5733 16.0371 16.5124 15.9006 16.4451 15.7423C16.4292 15.7032 16.4292 15.7032 16.413 15.6633C16.3267 15.4517 16.2316 15.245 16.1326 15.0391C16.119 15.0106 16.1054 14.9822 16.0913 14.9528C15.8027 14.3564 15.4198 13.8368 14.9607 13.3595C14.9415 13.339 14.9223 13.3186 14.9025 13.2976C13.8264 12.1567 12.404 11.4753 10.8591 11.2501C10.8238 11.2449 10.7885 11.2397 10.7522 11.2344C9.33855 11.0698 7.92026 11.3918 6.67946 12.0704Z" fill="white"></path></g><defs><clipPath id="clip0_1720_459"><rect width="20" height="20" fill="white"></rect></clipPath></defs></svg>