<svg xmlns="http://www.w3.org/2000/svg" width="50" height="50" viewBox="0 0 50 50" fill="none"><g clip-path="url(#clip0_1964_1659)"><path d="M13.3607 2.2766C13.4994 2.39386 13.6356 2.51415 13.7696 2.6367C13.9003 2.75397 13.9003 2.75397 14.0336 2.8736C15.4203 4.18258 16.3696 6.01517 16.4487 7.94257C16.451 8.15351 16.4511 8.36448 16.4491 8.57542C16.4482 8.68675 16.4473 8.79808 16.4464 8.91279C16.4099 10.6969 15.711 12.0567 14.8439 13.5742C15.4562 14.1865 16.0685 14.7988 16.6993 15.4297C17.3723 14.9823 17.3723 14.9823 18.0238 14.5141C19.8027 13.2725 22.0469 12.5 24.2189 12.5C24.1866 11.2109 24.1544 9.92186 24.1212 8.59373C23.7667 8.46483 23.4122 8.33592 23.047 8.20311C22.0797 7.55402 21.3291 6.73683 21.0939 5.56639C20.9632 4.35378 21.067 3.28232 21.7958 2.27049C22.461 1.48092 23.2721 0.872736 24.3234 0.759444C25.5843 0.671987 26.6359 0.824916 27.6304 1.66281C28.4622 2.45691 28.9066 3.30155 28.9523 4.45655C28.9675 5.67865 28.6924 6.61843 27.8321 7.51952C27.2272 8.09701 26.6977 8.29604 25.879 8.59373C25.8468 9.8828 25.8146 11.1719 25.7814 12.5C26.4581 12.5483 26.4581 12.5483 27.1486 12.5976C27.4782 12.6578 27.7907 12.7206 28.1129 12.8052C28.1952 12.8263 28.2776 12.8475 28.3624 12.8693C29.1701 13.0873 29.9151 13.4003 30.6642 13.7695C30.7612 13.8167 30.8583 13.8639 30.9583 13.9126C31.5718 14.2285 32.1118 14.6195 32.6535 15.0436C32.921 15.2539 32.921 15.2539 33.3009 15.4297C33.9132 14.8174 34.5255 14.2051 35.1564 13.5742C34.9952 13.2842 34.8341 12.9941 34.6681 12.6953C33.6112 10.7749 33.2242 8.7015 33.7404 6.53075C34.1098 5.38722 34.662 4.32712 35.4493 3.41795C35.5076 3.34053 35.5659 3.26312 35.626 3.18335C36.4267 2.23411 37.5255 1.60688 38.672 1.17186C38.7805 1.12956 38.889 1.08727 39.0008 1.04369C40.9536 0.406044 43.1386 0.659325 44.9586 1.54418C45.5523 1.84979 46.0875 2.18445 46.5821 2.6367C46.7128 2.75397 46.7128 2.75397 46.8461 2.8736C48.2328 4.18258 49.1821 6.01517 49.2612 7.94257C49.2635 8.15351 49.2636 8.36448 49.2616 8.57542C49.2607 8.68675 49.2598 8.79808 49.2589 8.91279C49.2223 10.6998 48.5809 12.4378 47.3634 13.7695C47.2852 13.8566 47.2071 13.9437 47.1265 14.0335C45.8175 15.4201 43.9849 16.3694 42.0575 16.4486C41.8466 16.4509 41.6356 16.451 41.4247 16.449C41.3133 16.4481 41.202 16.4472 41.0873 16.4463C39.3032 16.4097 37.9434 15.7109 36.4259 14.8437C35.8136 15.456 35.2013 16.0683 34.5704 16.6992C34.768 17.0285 34.9607 17.3199 35.1918 17.6221C36.5791 19.4621 37.5001 21.9021 37.5001 24.2187C38.7892 24.1865 40.0782 24.1543 41.4064 24.1211C41.5353 23.7666 41.6642 23.4121 41.797 23.0469C42.4461 22.0796 43.2633 21.3289 44.4337 21.0937C45.6463 20.9631 46.7178 21.0669 47.7296 21.7956C48.5192 22.4609 49.1274 23.272 49.2407 24.3233C49.3281 25.5842 49.1752 26.6358 48.3373 27.6302C47.5432 28.4621 46.6986 28.9065 45.5436 28.9522C44.3215 28.9673 43.3817 28.6922 42.4806 27.832C41.9031 27.2271 41.7041 26.6975 41.4064 25.8789C40.1173 25.8467 38.8282 25.8144 37.5001 25.7812C37.4679 26.2324 37.4357 26.6836 37.4025 27.1484C37.3423 27.4781 37.2795 27.7905 37.1949 28.1128C37.1738 28.1951 37.1526 28.2774 37.1308 28.3622C36.9128 29.17 36.5998 29.915 36.2306 30.664C36.1834 30.7611 36.1362 30.8582 36.0875 30.9582C35.7716 31.5716 35.3806 32.1117 34.9565 32.6534C34.7462 32.9209 34.7462 32.9209 34.5704 33.3008C35.1827 33.9131 35.795 34.5254 36.4259 35.1562C36.7159 34.9951 37.006 34.834 37.3048 34.668C39.2252 33.6111 41.2986 33.224 43.4694 33.7402C44.5955 34.104 45.7048 34.6471 46.5821 35.4492C46.6693 35.5274 46.7564 35.6055 46.8461 35.6861C48.2328 36.9951 49.1821 38.8277 49.2612 40.7551C49.2635 40.966 49.2636 41.177 49.2616 41.3879C49.2607 41.4993 49.2598 41.6106 49.2589 41.7253C49.2223 43.5123 48.5809 45.2503 47.3634 46.582C47.2852 46.6691 47.2071 46.7562 47.1265 46.846C45.8175 48.2326 43.9849 49.1819 42.0575 49.2611C41.8466 49.2634 41.6356 49.2635 41.4247 49.2615C41.3133 49.2606 41.202 49.2597 41.0873 49.2588C39.3003 49.2222 37.5623 48.5808 36.2306 47.3633C36.1435 47.2851 36.0564 47.2069 35.9666 47.1264C34.58 45.8174 33.6307 43.9848 33.5515 42.0574C33.5492 41.8465 33.5491 41.6355 33.5511 41.4245C33.552 41.3132 33.5529 41.2019 33.5538 41.0872C33.5904 39.303 34.2892 37.9433 35.1564 36.4258C34.5441 35.8135 33.9318 35.2012 33.3009 34.5703C32.9737 34.7666 32.6871 34.9564 32.3879 35.1867C30.2578 36.8002 27.698 37.5444 25.0489 37.5366C24.9805 37.5365 24.9121 37.5365 24.8416 37.5364C22.5713 37.5284 20.6784 36.9158 18.6525 35.9375C18.7246 35.9992 18.7967 36.0608 18.871 36.1244C20.334 37.4026 21.4438 38.9437 22.1071 40.7776C22.1292 40.8384 22.1513 40.8993 22.1741 40.9619C23.0813 43.657 22.6564 46.3423 22.6564 49.2187C15.4376 49.2187 8.21887 49.2187 0.781368 49.2187C0.781368 40.3298 0.781368 40.3298 3.32043 37.4023C3.38526 37.3234 3.45009 37.2445 3.51689 37.1631C4.72421 35.7416 6.30635 34.8043 8.00793 34.082C7.93832 34.0228 7.8687 33.9637 7.79698 33.9027C6.54772 32.8098 5.58735 31.4219 5.44748 29.7203C5.40024 28.5936 5.3871 27.5094 5.85949 26.4648C5.90582 26.3602 5.95214 26.2556 5.99987 26.1478C6.78984 24.5356 8.08851 23.4761 9.76574 22.8515C10.4104 22.6501 10.9975 22.6326 11.67 22.644C11.769 22.6449 11.8679 22.6458 11.9699 22.6467C12.2118 22.649 12.4536 22.6522 12.6954 22.6562C12.7103 22.5552 12.7103 22.5552 12.7255 22.4522C13.0079 20.6125 13.8298 18.8686 14.9717 17.4049C15.1708 17.1509 15.1708 17.1509 15.4298 16.6992C14.8175 16.0869 14.2052 15.4746 13.5743 14.8437C13.2843 15.0049 12.9943 15.166 12.6954 15.332C10.775 16.3889 8.70163 16.7759 6.53088 16.2598C5.40546 15.8962 4.2941 15.3534 3.41809 14.5508C3.32984 14.4703 3.2416 14.3899 3.15068 14.307C2.24809 13.4459 1.61803 12.4924 1.17199 11.3281C1.13347 11.2278 1.09495 11.1274 1.05526 11.0241C0.388758 8.9663 0.677628 6.73897 1.64626 4.84181C1.9247 4.32202 2.25072 3.86382 2.63684 3.41795C2.69512 3.34053 2.75341 3.26312 2.81346 3.18335C3.61424 2.23411 4.71302 1.60688 5.85949 1.17186C5.96801 1.12956 6.07652 1.08727 6.18832 1.04369C8.59176 0.258891 11.3472 0.783505 13.3607 2.2766ZM4.39465 4.00389C3.19517 5.16449 2.45144 6.56498 2.40798 8.24705C2.39116 9.77562 2.6303 11.0739 3.6134 12.3047C3.67785 12.3369 3.74231 12.3691 3.80871 12.4023C3.88525 12.3036 3.96179 12.2049 4.04065 12.1033C4.54102 11.5173 5.20234 11.1311 5.85949 10.7422C5.81468 10.676 5.76986 10.6097 5.72369 10.5415C4.87838 9.25935 4.54246 8.14334 4.84974 6.61238C5.22017 5.47384 6.0033 4.75212 7.03213 4.18967C7.91084 3.81923 9.17124 3.86408 10.0648 4.15648C11.0997 4.61133 11.8589 5.40202 12.2987 6.4453C12.5631 7.37226 12.5572 8.58294 12.1377 9.45509C11.953 9.76744 11.7549 10.0677 11.5403 10.3603C11.4004 10.552 11.4004 10.552 11.4259 10.8398C11.6143 10.979 11.6143 10.979 11.8592 11.1023C12.4774 11.4531 12.9761 11.9017 13.4767 12.4023C14.6439 10.9425 14.8898 9.3321 14.7462 7.51952C14.4944 5.92756 13.5244 4.50764 12.2456 3.5502C9.79851 1.81353 6.62575 2.01963 4.39465 4.00389ZM23.0691 3.43321C22.6851 4.01043 22.6858 4.60166 22.754 5.27342C22.9272 5.92232 23.3836 6.3646 23.9259 6.73827C24.5117 7.02544 25.184 7.04089 25.8119 6.87331C26.4104 6.60912 26.879 6.11242 27.1653 5.52824C27.3515 4.94169 27.3502 4.24775 27.0997 3.68041C26.7598 3.10104 26.2271 2.64338 25.5861 2.44139C24.4411 2.30213 23.7982 2.56969 23.0691 3.43321ZM37.2071 4.00389C36.0077 5.16449 35.2639 6.56498 35.2205 8.24705C35.2037 9.77562 35.4428 11.0739 36.4259 12.3047C36.4904 12.3369 36.5548 12.3691 36.6212 12.4023C36.6977 12.3036 36.7743 12.2049 36.8531 12.1033C37.3535 11.5173 38.0148 11.1311 38.672 10.7422C38.6272 10.676 38.5824 10.6097 38.5362 10.5415C37.6909 9.25935 37.355 8.14334 37.6622 6.61238C38.0327 5.47384 38.8158 4.75212 39.8446 4.18967C40.7233 3.81923 41.9837 3.86408 42.8773 4.15648C43.9122 4.61133 44.6714 5.40202 45.1112 6.4453C45.3756 7.37226 45.3697 8.58294 44.9502 9.45509C44.7655 9.76744 44.5674 10.0677 44.3528 10.3603C44.2129 10.552 44.2129 10.552 44.2384 10.8398C44.4268 10.979 44.4268 10.979 44.6717 11.1023C45.2899 11.4531 45.7886 11.9017 46.2892 12.4023C47.4564 10.9425 47.7023 9.3321 47.5587 7.51952C47.3069 5.92756 46.3369 4.50764 45.0581 3.5502C42.611 1.81353 39.4382 2.01963 37.2071 4.00389ZM6.66287 6.55821C6.27887 7.13543 6.27955 7.72666 6.34777 8.39842C6.52096 9.04732 6.97733 9.4896 7.51965 9.86327C8.10548 10.1504 8.77774 10.1659 9.40564 9.99831C10.0042 9.73412 10.4727 9.23742 10.7591 8.65324C10.9452 8.06669 10.9439 7.37275 10.6935 6.80541C10.3536 6.22604 9.82086 5.76838 9.17981 5.56639C8.03489 5.42713 7.39197 5.69469 6.66287 6.55821ZM39.4754 6.55821C39.0914 7.13543 39.092 7.72666 39.1603 8.39842C39.3335 9.04732 39.7898 9.4896 40.3321 9.86327C40.918 10.1504 41.5902 10.1659 42.2181 9.99831C42.8167 9.73412 43.2852 9.23742 43.5716 8.65324C43.7577 8.06669 43.7564 7.37275 43.506 6.80541C43.1661 6.22604 42.6334 5.76838 41.9923 5.56639C40.8474 5.42713 40.2045 5.69469 39.4754 6.55821ZM5.3674 13.068C5.19118 13.2642 5.08243 13.4304 4.98059 13.6719C6.63624 14.6125 8.12155 15.0093 10.0446 14.682C10.8198 14.4629 11.5145 14.0755 12.2071 13.6719C11.7995 12.7828 11.0246 12.3828 10.1564 12.0117C8.44782 11.3931 6.67636 11.8459 5.3674 13.068ZM38.1799 13.068C38.0037 13.2642 37.8949 13.4304 37.7931 13.6719C39.4487 14.6125 40.9341 15.0093 42.8571 14.682C43.6323 14.4629 44.327 14.0755 45.0196 13.6719C44.612 12.7828 43.8371 12.3828 42.9689 12.0117C41.2603 11.3931 39.4889 11.8459 38.1799 13.068ZM24.4481 14.7579C24.3809 14.8244 24.3137 14.8908 24.2444 14.9593C24.1735 15.0319 24.1027 15.1046 24.0297 15.1794C23.9567 15.2533 23.8838 15.3271 23.8086 15.4032C22.5749 16.553 22.5749 16.553 21.8751 17.9687C23.9376 17.9687 26.0001 17.9687 28.1251 17.9687C27.7316 16.985 26.8893 16.1986 26.172 15.4297C26.0866 15.3379 26.0013 15.2461 25.9134 15.1516C25.8275 15.0621 25.7416 14.9726 25.6532 14.8804C25.575 14.7985 25.4968 14.7167 25.4163 14.6324C25.0204 14.311 24.7719 14.4365 24.4481 14.7579ZM27.6368 14.4531C27.909 14.8209 28.1829 15.1863 28.47 15.5426C28.5359 15.6251 28.5359 15.6251 28.6031 15.7092C28.6967 15.8256 28.7914 15.9411 28.8871 16.0558C29.1327 16.3578 29.3201 16.627 29.4553 16.9937C29.6231 17.4124 29.7623 17.7503 30.1759 17.9687C31.1693 18.1434 32.2037 18.0509 33.2032 17.9687C32.4026 16.5809 30.7838 15.6323 29.358 14.9902C29.2873 14.9583 29.2165 14.9265 29.1436 14.8936C28.6516 14.6828 28.1624 14.5523 27.6368 14.4531ZM17.1022 17.4377C16.8531 17.6625 16.8531 17.6625 16.797 17.9687C18.4845 18.2149 18.4845 18.2149 20.0686 17.8135C20.447 17.4116 20.6703 16.9328 20.8905 16.4313C21.0448 16.1096 21.2439 15.8754 21.4784 15.6067C21.7949 15.2337 22.0859 14.8559 22.3634 14.4531C20.4932 14.4531 18.3669 16.2129 17.1022 17.4377ZM15.4201 19.6764C15.2832 19.8854 15.2099 20.0739 15.1368 20.3125C15.0735 20.4618 15.01 20.6111 14.9465 20.7603C14.8888 20.9158 14.8322 21.0717 14.7767 21.228C14.7473 21.3091 14.7179 21.3902 14.6876 21.4738C14.492 22.0257 14.3436 22.564 14.2579 23.1445C14.3886 23.224 14.3886 23.224 14.5219 23.3051C14.6374 23.3757 14.7528 23.4462 14.8683 23.5168C14.9256 23.5516 14.9828 23.5864 15.0419 23.6223C15.2761 23.7658 15.5026 23.9046 15.7121 24.0829C15.9639 24.2489 16.1057 24.2528 16.4048 24.2473C16.5417 24.2459 16.5417 24.2459 16.6814 24.2445C16.7759 24.242 16.8705 24.2396 16.9679 24.237C17.0639 24.2357 17.16 24.2344 17.259 24.233C17.4956 24.2296 17.7322 24.2248 17.9689 24.2187C17.9828 24.1208 17.9828 24.1208 17.997 24.021C18.1902 22.6845 18.4182 21.3986 18.8478 20.1172C18.9129 19.9219 18.978 19.7266 19.0431 19.5312C18.5653 19.5119 18.0877 19.4977 17.6096 19.4883C17.4471 19.4844 17.2847 19.4791 17.1223 19.4723C16.2295 19.3985 16.2295 19.3985 15.4201 19.6764ZM20.8986 19.5312C20.8203 19.6838 20.7426 19.8366 20.665 19.9894C20.6216 20.0745 20.5783 20.1595 20.5336 20.2472C20.346 20.6436 20.2198 21.0513 20.099 21.4722C20.0742 21.5569 20.0494 21.6416 20.0238 21.7289C19.7855 22.5621 19.629 23.3498 19.629 24.2187C23.1739 24.2187 26.7189 24.2187 30.3712 24.2187C30.2887 23.1025 30.2887 23.1025 30.0599 22.0337C30.0389 21.956 30.0178 21.8782 29.9961 21.7982C29.7011 20.5794 29.7011 20.5794 29.1017 19.5312C28.8461 19.5219 28.5932 19.519 28.3376 19.5201C28.2175 19.5201 28.2175 19.5201 28.0951 19.5201C27.8293 19.5202 27.5635 19.5209 27.2977 19.5217C27.1139 19.5219 26.9302 19.522 26.7464 19.5221C26.2617 19.5225 25.777 19.5235 25.2923 19.5245C24.7981 19.5255 24.3039 19.526 23.8097 19.5265C22.8393 19.5275 21.869 19.5292 20.8986 19.5312ZM30.9571 19.5312C30.9758 19.5865 30.9945 19.6417 31.0137 19.6987C31.5128 21.1978 31.8103 22.6533 32.0314 24.2187C33.2882 24.2187 34.545 24.2187 35.84 24.2187C35.7161 22.7319 35.3929 20.7278 34.3751 19.5312C34.0856 19.4775 33.8771 19.4621 33.5893 19.474C33.514 19.4748 33.4387 19.4757 33.3611 19.4765C33.1211 19.4798 32.8815 19.4871 32.6417 19.4946C32.4788 19.4976 32.3159 19.5002 32.1531 19.5026C31.7543 19.5091 31.3558 19.5192 30.9571 19.5312ZM43.3816 23.7457C42.9976 24.3229 42.9983 24.9142 43.0665 25.5859C43.2397 26.2348 43.6961 26.6771 44.2384 27.0508C44.8242 27.3379 45.4965 27.3534 46.1244 27.1858C46.7229 26.9216 47.1915 26.4249 47.4778 25.8407C47.664 25.2542 47.6627 24.5602 47.4122 23.9929C47.0723 23.4135 46.5396 22.9559 45.8986 22.7539C44.7536 22.6146 44.1107 22.8822 43.3816 23.7457ZM8.16357 25.885C7.20237 27.0535 6.98594 28.3131 7.12902 29.7851C7.35758 30.9959 8.11605 32.0651 9.11267 32.7789C10.2926 33.5311 11.5695 33.6902 12.9373 33.432C14.209 33.0508 15.2469 32.1631 15.8899 31.0131C16.4394 29.9157 16.5089 28.5696 16.1561 27.3926C15.6731 26.163 14.7607 25.1812 13.5743 24.6094C12.9739 24.3621 12.4338 24.2652 11.786 24.2737C11.6647 24.2749 11.6647 24.2749 11.5409 24.2761C10.1774 24.3134 9.09554 24.9003 8.16357 25.885ZM17.1876 25.7812C17.2288 25.8884 17.2699 25.9955 17.3124 26.1059C17.3664 26.2479 17.4205 26.3899 17.4745 26.532C17.5152 26.6376 17.5152 26.6376 17.5567 26.7454C17.5828 26.8143 17.6089 26.8832 17.6358 26.9543C17.6599 27.0172 17.6839 27.0801 17.7087 27.1449C17.8526 27.5861 17.8829 27.9935 17.8807 28.4565C17.8804 28.5739 17.8801 28.6913 17.8798 28.8122C17.879 28.9339 17.8782 29.0555 17.8773 29.1809C17.8769 29.3044 17.8764 29.428 17.876 29.5553C17.8748 29.8598 17.8731 30.1643 17.8712 30.4687C18.2579 30.4687 18.6446 30.4687 19.0431 30.4687C18.9983 30.3349 18.9535 30.2011 18.9073 30.0632C18.4483 28.65 18.1642 27.2533 17.9689 25.7812C17.7111 25.7812 17.4532 25.7812 17.1876 25.7812ZM19.629 25.7812C19.7116 26.8975 19.7116 26.8975 19.9403 27.9663C19.9614 28.044 19.9824 28.1217 20.0041 28.2018C20.2991 29.4206 20.2991 29.4206 20.8986 30.4687C21.1541 30.478 21.4071 30.481 21.6627 30.4798C21.7827 30.4798 21.7827 30.4798 21.9052 30.4799C22.171 30.4798 22.4367 30.479 22.7025 30.4783C22.8863 30.4781 23.0701 30.4779 23.2539 30.4778C23.7385 30.4775 24.2232 30.4765 24.7079 30.4754C25.2021 30.4744 25.6963 30.474 26.1905 30.4735C27.1609 30.4725 28.1313 30.4708 29.1017 30.4687C29.1799 30.3162 29.2577 30.1634 29.3353 30.0105C29.3786 29.9255 29.422 29.8404 29.4666 29.7528C29.6542 29.3563 29.7805 28.9486 29.9012 28.5278C29.9385 28.4007 29.9385 28.4007 29.9764 28.271C30.2147 27.4379 30.3712 26.6501 30.3712 25.7812C26.8263 25.7812 23.2814 25.7812 19.629 25.7812ZM32.0314 25.7812C31.977 26.1498 31.9226 26.5184 31.8666 26.8982C31.7079 27.9249 31.4824 28.8987 31.1525 29.8828C31.0873 30.0781 31.0222 30.2734 30.9571 30.4687C31.4332 30.493 31.9088 30.5106 32.3853 30.5224C32.5471 30.5273 32.7089 30.5339 32.8706 30.5424C33.7907 30.6214 33.7907 30.6214 34.6021 30.2828C34.7646 30.0239 34.8652 29.7822 34.9611 29.4922C34.9949 29.4079 35.0287 29.3237 35.0635 29.2369C35.1615 28.9845 35.246 28.731 35.3273 28.4729C35.3562 28.3833 35.3852 28.2937 35.415 28.2014C35.6735 27.3849 35.84 26.6403 35.84 25.7812C34.5831 25.7812 33.3263 25.7812 32.0314 25.7812ZM17.1876 32.0312C17.1232 32.1601 17.0587 32.289 16.9923 32.4219C18.5084 33.9099 20.2356 35.1451 22.3634 35.5469C22.0912 35.179 21.8174 34.8137 21.5303 34.4574C21.4863 34.4024 21.4424 34.3474 21.3971 34.2908C21.3036 34.1745 21.2092 34.059 21.114 33.9442C20.8701 33.6428 20.6777 33.3665 20.5312 33.0063C20.2861 32.4316 20.2861 32.4316 19.8243 32.0312C18.9607 31.8597 18.0581 31.9484 17.1876 32.0312ZM21.8751 32.0312C22.269 33.0159 23.1117 33.7997 23.8282 34.5703C23.9125 34.6632 23.9967 34.7561 24.0834 34.8518C24.1684 34.9422 24.2534 35.0326 24.3409 35.1257C24.418 35.2087 24.495 35.2916 24.5744 35.3771C24.7892 35.5744 24.7892 35.5744 25.0418 35.5269C25.3155 35.4423 25.4363 35.3563 25.6379 35.1562C25.7004 35.0945 25.7629 35.0328 25.8273 34.9692C25.8927 34.902 25.9581 34.8348 26.0255 34.7656C26.0934 34.6968 26.1613 34.628 26.2313 34.5571C27.4418 33.4223 27.4418 33.4223 28.1251 32.0312C26.0626 32.0312 24.0001 32.0312 21.8751 32.0312ZM29.5884 32.6057C29.4125 32.9203 29.2546 33.2387 29.1097 33.5687C28.9554 33.8903 28.7563 34.1245 28.5218 34.3933C28.2053 34.7662 27.9143 35.1441 27.6368 35.5469C29.3479 35.1662 30.7838 34.356 32.1229 33.2397C32.1749 33.1965 32.2268 33.1532 32.2803 33.1086C32.6308 32.808 32.9208 32.4919 33.2032 32.1289C33.2032 32.0967 33.2032 32.0644 33.2032 32.0312C31.2016 31.7244 31.2016 31.7244 29.5884 32.6057ZM15.4603 33.9355C15.3858 34.0161 15.3113 34.0967 15.2345 34.1797C15.3487 34.2256 15.4628 34.2716 15.5805 34.3189C15.7317 34.3803 15.8829 34.4417 16.0341 34.5032C16.1091 34.5333 16.1842 34.5635 16.2616 34.5945C16.5849 34.7263 16.8818 34.8554 17.1804 35.0384C17.2806 35.0967 17.2806 35.0967 17.3829 35.1562C17.4474 35.124 17.5118 35.0918 17.5782 35.0586C17.5064 35.0008 17.4345 34.943 17.3604 34.8835C17.2651 34.8063 17.1698 34.7291 17.0717 34.6496C16.9776 34.5737 16.8836 34.4978 16.7867 34.4196C16.504 34.1797 16.504 34.1797 16.2427 33.9062C15.9049 33.5865 15.7957 33.6236 15.4603 33.9355ZM9.57043 35.4492C9.77293 36.3022 10.0144 37.1381 10.2765 37.9745C10.3156 38.0998 10.3545 38.2252 10.3935 38.3505C10.4948 38.6761 10.5966 39.0017 10.6984 39.3272C10.8027 39.661 10.9067 39.995 11.0107 40.329C11.2138 40.9811 11.4174 41.6332 11.6212 42.2851C11.6857 42.2851 11.7501 42.2851 11.8165 42.2851C12.0842 41.4228 12.3517 40.5603 12.6187 39.6978C12.7427 39.2973 12.8668 38.8968 12.9911 38.4964C13.111 38.1103 13.2307 37.724 13.3501 37.3377C13.3958 37.1901 13.4416 37.0425 13.4875 36.895C13.5516 36.6888 13.6154 36.4826 13.6791 36.2763C13.7155 36.1587 13.7519 36.0412 13.7895 35.9201C13.8762 35.6609 13.8762 35.6609 13.8673 35.4492C12.5103 35.0983 10.9224 34.9986 9.57043 35.4492ZM37.2071 36.8164C36.0077 37.977 35.2639 39.3775 35.2205 41.0595C35.2037 42.5881 35.4428 43.8864 36.4259 45.1172C36.4904 45.1494 36.5548 45.1816 36.6212 45.2148C36.6977 45.1161 36.7743 45.0174 36.8531 44.9158C37.3535 44.3298 38.0148 43.9436 38.672 43.5547C38.6272 43.4885 38.5824 43.4222 38.5362 43.354C37.6909 42.0718 37.355 40.9558 37.6622 39.4249C38.0327 38.2863 38.8158 37.5646 39.8446 37.0022C40.7233 36.6317 41.9837 36.6766 42.8773 36.969C43.9122 37.4238 44.6714 38.2145 45.1112 39.2578C45.3756 40.1848 45.3697 41.3954 44.9502 42.2676C44.7655 42.5799 44.5674 42.8802 44.3528 43.1728C44.2129 43.3645 44.2129 43.3645 44.2384 43.6523C44.4268 43.7915 44.4268 43.7915 44.6717 43.9148C45.2899 44.2656 45.7886 44.7142 46.2892 45.2148C47.4564 43.755 47.7023 42.1446 47.5587 40.332C47.3069 38.7401 46.3369 37.3201 45.0581 36.3627C42.611 34.626 39.4382 34.8321 37.2071 36.8164ZM18.2618 35.6445C18.2941 35.709 18.3263 35.7734 18.3595 35.8398C18.4239 35.8076 18.4884 35.7754 18.5548 35.7422C18.4581 35.7099 18.3614 35.6777 18.2618 35.6445ZM7.16565 36.3769C7.10598 36.4095 7.04631 36.4421 6.98483 36.4757C6.83738 36.5564 6.69021 36.6375 6.54309 36.7187C6.58532 37.0457 6.63097 37.3715 6.68194 37.6972C6.72008 37.942 6.7436 38.1743 6.75824 38.4228C6.86528 39.4246 7.39117 39.8998 8.12449 40.5496C8.23523 40.649 8.23523 40.649 8.3482 40.7505C8.4164 40.8088 8.4846 40.8671 8.55486 40.9271C8.69152 41.1133 8.69152 41.1133 8.67276 41.3597C8.56995 41.6748 8.43693 41.9674 8.2948 42.2668C8.24129 42.3802 8.18779 42.4937 8.13267 42.6105C8.07092 42.7395 8.07092 42.7395 8.00793 42.8711C8.06118 42.9291 8.11443 42.9871 8.16929 43.0469C8.5669 43.484 8.95468 43.9253 9.32629 44.3847C9.89289 45.0841 10.4858 45.7605 11.1329 46.3867C11.0129 45.8144 10.871 45.255 10.6991 44.6962C10.676 44.6203 10.653 44.5444 10.6292 44.4662C10.5537 44.218 10.4777 43.9699 10.4017 43.7218C10.3483 43.547 10.2951 43.3722 10.2418 43.1974C10.1303 42.8318 10.0185 42.4662 9.90662 42.1006C9.76444 41.6362 9.62272 41.1716 9.48115 40.707C9.37112 40.346 9.2609 39.9851 9.15061 39.6242C9.09836 39.4531 9.04616 39.2821 8.99401 39.111C8.67968 38.0806 8.35449 37.0552 8.00793 36.0351C7.68966 36.0351 7.43827 36.2261 7.16565 36.3769ZM15.4298 36.0351C14.7758 38.0478 14.1425 40.0665 13.5196 42.0889C13.4165 42.4236 13.3128 42.7582 13.2088 43.0926C13.081 43.5033 12.9541 43.9142 12.8277 44.3254C12.78 44.4803 12.7319 44.6352 12.6836 44.7899C12.6169 45.0036 12.5513 45.2175 12.486 45.4315C12.4485 45.5527 12.411 45.674 12.3724 45.7988C12.2774 46.0961 12.2774 46.0961 12.4025 46.3867C12.9344 45.807 13.4444 45.2153 13.9386 44.6033C14.2272 44.2552 14.5314 43.9231 14.8397 43.5924C15.0615 43.3333 15.2456 43.0602 15.4298 42.7734C15.3541 42.6322 15.3541 42.6322 15.2768 42.4881C15.2118 42.3635 15.1468 42.2389 15.0819 42.1142C15.0485 42.0523 15.0151 41.9904 14.9806 41.9266C14.7409 41.4615 14.7409 41.4615 14.7654 41.2082C14.8628 40.9691 14.9746 40.879 15.178 40.7215C16.3818 39.7138 16.6961 38.7864 16.8746 37.2443C16.8988 37.002 16.8988 37.002 16.8946 36.7187C16.6874 36.6043 16.4798 36.4905 16.2721 36.3769C16.2132 36.3443 16.1543 36.3117 16.0936 36.2781C15.78 36.0949 15.78 36.0949 15.4298 36.0351ZM4.98059 38.0859C2.34431 40.7993 2.30463 44.1224 2.34387 47.6562C3.11731 47.6562 3.89074 47.6562 4.68762 47.6562C4.68762 46.3672 4.68762 45.0781 4.68762 43.75C5.20324 43.75 5.71887 43.75 6.25012 43.75C6.25012 45.039 6.25012 46.3281 6.25012 47.6562C7.4425 47.6562 8.63488 47.6562 9.8634 47.6562C9.63907 47.2824 9.45738 47.0268 9.1676 46.7163C8.85062 46.3706 8.54671 46.0192 8.25207 45.6543C7.9663 45.3009 7.67336 44.9585 7.36706 44.6228C7.22251 44.4621 7.07806 44.3014 6.93371 44.1406C6.85591 44.0556 6.77812 43.9707 6.69796 43.8831C6.6247 43.7989 6.55143 43.7147 6.47595 43.6279C6.37568 43.5154 6.37568 43.5154 6.27339 43.4006C6.15246 43.164 6.15246 43.164 6.21655 42.8673C6.35435 42.5636 6.50476 42.2749 6.66935 41.9853C6.75034 41.8003 6.75034 41.8003 6.73306 41.605C6.59735 41.3128 6.37152 41.1742 6.12194 40.9729C5.37582 40.3118 5.31998 39.4208 5.21688 38.4746C5.18965 38.2595 5.18965 38.2595 4.98059 38.0859ZM18.3595 38.0859C18.3145 38.2771 18.2698 38.4684 18.2252 38.6596C18.1831 38.8343 18.1831 38.8343 18.1401 39.0125C18.0622 39.3398 18.0622 39.3398 18.0448 39.616C17.9819 40.3169 17.6106 40.6531 17.0976 41.094C16.9177 41.2477 16.9177 41.2477 16.6993 41.5039C16.6937 41.9623 16.9765 42.3373 17.201 42.7246C17.2853 42.9687 17.2853 42.9687 17.2326 43.2091C17.0572 43.5139 16.8387 43.7556 16.5956 44.0063C16.1583 44.4694 15.7499 44.9472 15.3505 45.4437C15.1358 45.7043 14.9129 45.9543 14.6852 46.2036C13.9859 46.8646 13.9859 46.8646 13.5743 47.6562C14.7667 47.6562 15.9591 47.6562 17.1876 47.6562C17.1876 46.3672 17.1876 45.0781 17.1876 43.75C17.7032 43.75 18.2189 43.75 18.7501 43.75C18.7501 45.039 18.7501 46.3281 18.7501 47.6562C19.5236 47.6562 20.297 47.6562 21.0939 47.6562C21.1313 44.2824 21.1115 41.0554 18.7501 38.3789C18.5415 38.2059 18.5415 38.2059 18.3595 38.0859ZM39.4754 39.3707C39.0914 39.9479 39.092 40.5392 39.1603 41.2109C39.3335 41.8598 39.7898 42.3021 40.3321 42.6758C40.918 42.9629 41.5902 42.9784 42.2181 42.8108C42.8167 42.5466 43.2852 42.0499 43.5716 41.4657C43.7577 40.8792 43.7564 40.1852 43.506 39.6179C43.1661 39.0385 42.6334 38.5809 41.9923 38.3789C40.8474 38.2396 40.2045 38.5072 39.4754 39.3707ZM38.1799 45.8805C38.0037 46.0767 37.8949 46.2429 37.7931 46.4844C39.4487 47.425 40.9341 47.8218 42.8571 47.4945C43.6323 47.2754 44.327 46.888 45.0196 46.4844C44.612 45.5953 43.8371 45.1953 42.9689 44.8242C41.2603 44.2056 39.4889 44.6584 38.1799 45.8805Z" fill="black"></path><path d="M27.3438 27.3438C27.8594 27.3438 28.375 27.3438 28.9062 27.3438C28.9062 27.8594 28.9062 28.375 28.9062 28.9062C28.3906 28.9062 27.875 28.9062 27.3438 28.9062C27.3438 28.3906 27.3438 27.875 27.3438 27.3438Z" fill="black"></path><path d="M24.2188 27.3438C24.7344 27.3438 25.25 27.3438 25.7812 27.3438C25.7812 27.8594 25.7812 28.375 25.7812 28.9062C25.2656 28.9062 24.75 28.9062 24.2188 28.9062C24.2188 28.3906 24.2188 27.875 24.2188 27.3438Z" fill="black"></path><path d="M21.0938 27.3438C21.6094 27.3438 22.125 27.3438 22.6562 27.3438C22.6562 27.8594 22.6562 28.375 22.6562 28.9062C22.1406 28.9062 21.625 28.9062 21.0938 28.9062C21.0938 28.3906 21.0938 27.875 21.0938 27.3438Z" fill="black"></path><path d="M27.3438 21.0938C27.8594 21.0938 28.375 21.0938 28.9062 21.0938C28.9062 21.6094 28.9062 22.125 28.9062 22.6562C28.3906 22.6562 27.875 22.6562 27.3438 22.6562C27.3438 22.1406 27.3438 21.625 27.3438 21.0938Z" fill="black"></path><path d="M24.2188 21.0938C24.7344 21.0938 25.25 21.0938 25.7812 21.0938C25.7812 21.6094 25.7812 22.125 25.7812 22.6562C25.2656 22.6562 24.75 22.6562 24.2188 22.6562C24.2188 22.1406 24.2188 21.625 24.2188 21.0938Z" fill="black"></path><path d="M21.0938 21.0938C21.6094 21.0938 22.125 21.0938 22.6562 21.0938C22.6562 21.6094 22.6562 22.125 22.6562 22.6562C22.1406 22.6562 21.625 22.6562 21.0938 22.6562C21.0938 22.1406 21.0938 21.625 21.0938 21.0938Z" fill="black"></path></g><defs><clipPath id="clip0_1964_1659"><rect width="50" height="50" fill="white"></rect></clipPath></defs></svg>