<svg xmlns="http://www.w3.org/2000/svg" width="101" height="101" viewBox="0 0 101 101" fill="none"><g clip-path="url(#clip0_1646_134)"><path d="M20.1563 0.777344C19.0039 1.01172 17.1875 2.02734 16.1914 3.02344C12.4805 6.73438 13.125 12.7695 17.5586 15.6016C18.1055 15.9727 18.9649 16.3633 19.4532 16.5L20.3516 16.7344V18.9219V21.0898L17.2852 21.207C13.7305 21.3242 12.4024 21.6172 10.0196 22.7305C4.6094 25.2695 1.05471 30.4453 0.683621 36.3828C0.175809 44.5078 5.82034 51.7344 13.8672 53.2969C14.8633 53.4922 16.7969 53.5703 20.2149 53.5703H25.1367L26.0156 54.8984C27.2852 56.8125 31.4258 60.875 33.5938 62.3398C35.7422 63.7852 39.1602 65.4648 41.4453 66.168C42.3633 66.4609 43.2227 66.7148 43.3594 66.7539C43.5352 66.8125 43.5938 68.2383 43.5938 72.9648V79.0977L40.8203 79.1953C38.75 79.2734 37.793 79.3906 37.0899 79.6641C35.0586 80.4648 33.3399 82.3008 32.7344 84.3516C32.5 85.1914 32.4414 86.2656 32.5 89.9375C32.5586 94.4492 32.5586 94.4883 33.1055 95.6602C33.8086 97.1836 35.1367 98.5117 36.6406 99.2148L37.8321 99.7617H50.625H63.418L64.6094 99.2148C66.1133 98.5117 67.4414 97.1836 68.1446 95.6602L68.6914 94.4883V89.5078C68.6914 84.5273 68.6914 84.5273 68.1836 83.4531C67.3828 81.793 66.4258 80.8164 64.7656 79.9961C63.3008 79.293 63.2617 79.2734 60.4688 79.1953L57.6563 79.0977V72.9648C57.6563 68.2383 57.7149 66.832 57.9102 66.7734C61.8555 65.6016 64.8047 64.2539 67.7149 62.3008C69.8242 60.875 73.9649 56.793 75.2344 54.8984L76.1133 53.5703H81.0352C84.4531 53.5703 86.3867 53.4922 87.3828 53.2969C93.0469 52.2031 97.832 48.1016 99.668 42.7695C102.402 34.8008 98.8086 26.2852 91.2305 22.7305C88.8477 21.6172 87.5195 21.3242 83.9844 21.207L80.8985 21.0898V18.9219V16.7539L82.0313 16.4219C85.8008 15.2695 88.1445 11.0312 87.2656 7.00781C86.6797 4.44922 85.0586 2.45703 82.5391 1.28516L81.3867 0.738281L51.0156 0.71875C34.3164 0.699219 20.4297 0.738281 20.1563 0.777344ZM81.0352 3.82422C82.207 4.25391 83.3203 5.23047 83.9258 6.32422C84.4141 7.20312 84.4922 7.59375 84.4922 8.74609C84.4922 10.8555 83.4766 12.4961 81.6406 13.4141L80.625 13.9219H50.6446C22.0313 13.9219 20.6055 13.9023 19.8633 13.5508C17.8516 12.6328 16.7578 10.9531 16.7578 8.74609C16.7578 6.61719 17.6758 5.13281 19.5899 4.17578L20.8008 3.57031L50.6055 3.58984C72.9102 3.58984 80.5664 3.64844 81.0352 3.82422ZM77.8516 28.5703C77.8516 39.7617 77.8321 40.2695 77.4219 42.3984C76.2696 48.1602 73.5352 53.1992 69.375 57.1445C58.8281 67.1836 42.4219 67.1836 31.875 57.1445C29.6289 55.0156 27.9102 52.7305 26.543 50.0742C24.4922 46.1094 23.7305 43.2383 23.4766 38.6289C23.2617 34.957 23.2227 17.1641 23.418 16.9883C23.4766 16.9102 35.7617 16.8711 50.7031 16.8906L77.8711 16.9492L77.8516 28.5703ZM20.3516 27.1836V30.2891L17.6758 30.3672C15.2344 30.4453 14.8828 30.5039 13.8867 30.9727C12.5782 31.5977 10.9375 33.2578 10.3516 34.5664C10 35.3086 9.9219 35.875 9.90237 37.3594C9.90237 39.0195 9.96096 39.332 10.4688 40.3672C11.1914 41.8516 12.4414 43.1016 13.8672 43.7656C14.9024 44.2539 15.1953 44.293 18.125 44.3516L21.2696 44.4297L21.6992 45.9727C21.9336 46.832 22.4219 48.2188 22.7735 49.0781L23.4375 50.6406H19.4141C14.8047 50.6406 13.418 50.4258 11.2696 49.3906C5.15628 46.4805 2.18753 39.7227 4.21878 33.3555C5.68362 28.7266 9.84378 25.0938 14.5899 24.293C15.1367 24.1953 16.6407 24.1172 17.9688 24.0977L20.3516 24.0781V27.1836ZM88.2227 24.6641C92.4414 25.9727 95.7031 29.1953 97.0313 33.3555C99.0625 39.7031 96.0938 46.4805 89.9805 49.3906C87.832 50.4258 86.4453 50.6406 81.836 50.6406H77.8125L78.4766 49.0781C78.8281 48.2188 79.3164 46.832 79.5508 45.9727L79.9805 44.4297L83.125 44.3516C86.0547 44.293 86.3477 44.2539 87.3828 43.7656C88.8086 43.1016 90.0586 41.8516 90.7813 40.3672C91.2891 39.332 91.3477 39.0195 91.3477 37.3594C91.3477 35.7188 91.2891 35.3672 90.8008 34.3906C90.4688 33.707 89.8047 32.8672 89.082 32.2031C87.5 30.7383 86.1914 30.3281 83.125 30.3281H80.8985V27.1836V24.0195L83.8867 24.1367C86.1914 24.2148 87.168 24.332 88.2227 24.6641ZM20.4297 36.9102C20.5078 38.9414 20.6055 40.7773 20.6836 41.0117C20.7813 41.4609 20.7813 41.4609 18.3203 41.4609C16.2696 41.4609 15.7227 41.4023 15.1172 41.0898C11.9336 39.4492 11.9727 35.1133 15.1758 33.6289C15.7813 33.3555 16.4258 33.2578 18.125 33.2578H20.293L20.4297 36.9102ZM86.0742 33.6289C89.2774 35.1133 89.3164 39.4492 86.1328 41.0898C85.5274 41.4023 84.9805 41.4609 82.9492 41.4609H80.4883L80.6055 40.8164C80.7031 40.2891 80.8008 37.8086 80.8789 34.0781L80.8985 33.2578H83.1055C84.8242 33.2578 85.4688 33.3359 86.0742 33.6289ZM54.6875 75.5234L54.7266 79.1562H50.625H46.5235V75.582C46.5235 73.6094 46.5625 71.9492 46.6016 71.9102C46.6406 71.8711 48.4766 71.8516 50.6641 71.8711L54.6289 71.8906L54.6875 75.5234ZM63.8086 82.7695C64.5117 83.1992 64.9219 83.6484 65.3125 84.4102L65.8594 85.4453V89.5273C65.8594 93.9805 65.7617 94.5469 64.7266 95.6406C64.4336 95.9531 63.8477 96.3633 63.418 96.5586C62.6758 96.8906 61.9141 96.9297 50.625 96.9297C39.336 96.9297 38.5742 96.8906 37.8321 96.5586C37.4024 96.3633 36.8164 95.9531 36.5235 95.6406C35.4883 94.5469 35.3906 93.9805 35.3906 89.5469C35.3906 85.543 35.3906 85.4648 35.8985 84.4492C36.4453 83.3555 37.4414 82.5547 38.5547 82.2812C38.9063 82.1836 44.5313 82.125 51.0352 82.1445L62.8711 82.1836L63.8086 82.7695Z" fill="black"></path><path d="M49.043 20.2306C47.9297 20.6408 46.9922 21.2853 46.4453 22.0275C46.1524 22.3986 45.2344 24.1173 44.375 25.8751C43.5157 27.6134 42.6953 29.0978 42.5782 29.1759C42.4414 29.2345 40.8399 29.4884 39.0039 29.7423C34.8438 30.3087 33.9258 30.6212 32.7735 31.9298C31.3672 33.4728 30.9961 35.1525 31.6016 37.1837C31.875 38.1212 32.2266 38.5509 34.8828 41.2658L37.8711 44.2931L37.2071 48.1017C36.6797 51.2658 36.6016 52.0666 36.7578 52.8478C37.1289 54.6251 38.0274 55.8556 39.5703 56.6564C40.3907 57.0861 40.8203 57.1837 42.0313 57.1837H43.4961L47.0703 55.3283L50.625 53.4728L54.1602 55.2892C56.8555 56.6759 57.9297 57.1447 58.6914 57.2228C61.3868 57.4962 63.9454 55.6017 64.4727 52.9064C64.6485 52.0666 64.5899 51.3439 64.043 48.1017L63.3789 44.2931L66.3672 41.2658C69.0235 38.5509 69.375 38.1212 69.6485 37.1837C70.0391 35.8556 70.0391 35.172 69.668 33.9025C69.2969 32.633 67.9297 31.0705 66.7969 30.6212C66.3282 30.4455 64.2969 30.0353 62.2852 29.7423C60.2735 29.4494 58.5743 29.1564 58.5157 29.1173C58.4571 29.0587 57.7149 27.5744 56.8555 25.8361C55.9961 24.0783 55.0391 22.34 54.7266 21.9494C53.5157 20.4064 50.7813 19.5861 49.043 20.2306ZM51.7188 23.2189C52.3047 23.5119 52.6172 24.0001 54.4336 27.5939C56.1329 30.9728 56.5625 31.6759 57.0118 31.8517C57.3047 31.9494 59.2774 32.2814 61.3672 32.5744C63.4571 32.8673 65.4297 33.2384 65.7227 33.3947C66.3868 33.7267 67.0313 34.7423 67.0313 35.465C67.0313 36.4025 66.5625 37.008 63.4375 40.0353C60.7813 42.6134 60.3907 43.0626 60.3907 43.59C60.3907 43.9416 60.6836 45.9533 61.0547 48.0822C61.4258 50.2111 61.6797 52.1642 61.6211 52.4181C61.3086 53.6486 60.0196 54.5275 58.8672 54.2931C58.5743 54.2345 56.6602 53.297 54.6094 52.2228C52.5586 51.1291 50.7618 50.2501 50.625 50.2501C50.4883 50.2501 48.6914 51.1291 46.6407 52.2228C44.5899 53.297 42.6758 54.2345 42.3828 54.2931C41.2305 54.5275 39.9414 53.6486 39.6289 52.4181C39.5703 52.1642 39.8243 50.2111 40.1953 48.0822C40.5664 45.9533 40.8594 43.922 40.8594 43.59C40.8594 43.0431 40.4883 42.6134 37.8125 40.0353C34.6875 37.008 34.2188 36.4025 34.2188 35.465C34.2188 34.7423 34.8438 33.7267 35.5274 33.3947C35.8203 33.2384 37.793 32.8673 39.8828 32.5939C41.9727 32.3009 43.9453 31.9689 44.2383 31.8517C44.7071 31.6759 45.1172 30.9923 46.8164 27.5939C48.5743 24.0783 48.9258 23.5119 49.4922 23.2384C50.3125 22.8283 50.8789 22.8283 51.7188 23.2189Z" fill="black"></path><path d="M41.8945 35.7385C41.2695 35.8557 40.6641 36.715 40.6641 37.4963C40.6641 38.9416 42.3828 39.6447 43.5156 38.6486C44.8242 37.5353 43.6328 35.4064 41.8945 35.7385Z" fill="black"></path><path d="M58.3399 35.7967C57.1289 36.2655 56.7774 37.8475 57.7344 38.6483C58.8867 39.6444 60.586 38.9413 60.586 37.4764C60.586 36.3046 59.3555 35.3866 58.3399 35.7967Z" fill="black"></path><path d="M46.0547 41.0898C45.4102 41.5977 45.3516 42.6328 45.9375 43.2188C46.3086 43.5898 46.5821 43.6094 50.625 43.6094C54.668 43.6094 54.9414 43.5898 55.3125 43.2188C55.8985 42.6328 55.8399 41.5977 55.1953 41.0898C54.7071 40.6992 54.4336 40.6797 50.625 40.6797C46.8164 40.6797 46.543 40.6992 46.0547 41.0898Z" fill="black"></path><path d="M42.9883 84.7617C42.6953 84.8008 41.9922 85.1133 41.4258 85.4648C38.125 87.4375 38.418 92.3008 41.9336 93.9219C42.9102 94.3906 42.9492 94.3906 50.625 94.3906C58.3008 94.3906 58.3399 94.3906 59.3164 93.9219C62.8125 92.3008 63.125 87.4375 59.8438 85.4844C59.2969 85.1523 58.4961 84.8203 58.1055 84.7422C57.3047 84.625 43.8477 84.625 42.9883 84.7617ZM58.6524 88.2969C59.4336 89.1562 59.4336 90.1133 58.6524 90.8945L58.086 91.4609H50.625H43.1641L42.5977 90.8945C41.6406 89.9375 42.0117 88.2773 43.2813 87.75C43.4961 87.6523 46.9336 87.5938 50.8789 87.6133L58.086 87.6523L58.6524 88.2969Z" fill="black"></path></g><defs><clipPath id="clip0_1646_134"><rect width="100" height="100" fill="white" transform="translate(0.625 0.25)"></rect></clipPath></defs></svg>