<svg xmlns="http://www.w3.org/2000/svg" width="30" height="31" viewBox="0 0 30 31" fill="none"><path d="M2.24609 7.47499V23.2344H9.93359C9.93359 23.2344 15.4695 23.6141 15.4695 18.3594C15.4695 18.3594 15.3523 15.6312 12.9008 14.6656C13.4776 14.254 13.9414 13.7037 14.2495 13.0655C14.5575 12.4273 14.6998 11.7218 14.6633 11.0141C14.6633 11.0141 15.057 7.48437 10.3836 7.47499C5.71016 7.46562 2.24609 7.47499 2.24609 7.47499Z" stroke="#141515" stroke-width="0.8"></path><path d="M5.6582 10.1141V13.6954H8.85977C8.85977 13.6954 11.2504 13.8641 11.2504 11.9047C11.2504 9.94537 8.8457 10.1141 8.8457 10.1141H5.6582Z" stroke="#141515" stroke-width="0.8"></path><path d="M5.6582 16.4844V20.0703H9.5957C9.5957 20.0703 12.0004 20.2391 12.0004 18.275C12.0004 16.3109 9.5957 16.4844 9.5957 16.4844H5.6582Z" stroke="#141515" stroke-width="0.8"></path><path d="M20.0345 18.261H28.2423C28.2423 18.261 28.4063 11.4781 22.8516 11.4781C17.297 11.4781 16.697 15.6969 16.9079 18.261C17.1188 20.825 18.7829 23.5578 22.561 23.5344C26.3391 23.511 27.7829 20.9328 28.0454 19.7844H25.1579C25.1579 19.7844 24.7876 21.125 22.772 21.125C20.7563 21.125 20.1048 19.7563 20.0345 18.261Z" stroke="#141515" stroke-width="0.8"></path><path d="M25.0973 16.25C25.0973 15.5775 24.8301 14.9325 24.3545 14.4569C23.8789 13.9813 23.2339 13.7141 22.5613 13.7141C21.8888 13.7141 21.2437 13.9813 20.7681 14.4569C20.2926 14.9325 20.0254 15.5775 20.0254 16.25H25.0973Z" stroke="#141515" stroke-width="0.8"></path><path d="M26.0297 8H19.2656V9.84219H26.0297V8Z" stroke="#141515" stroke-width="0.8"></path></svg>