<svg xmlns="http://www.w3.org/2000/svg" width="50" height="50" viewBox="0 0 50 50" fill="none"><g clip-path="url(#clip0_1964_1765)"><path d="M24.6621 14.7916C24.804 14.7909 24.9459 14.79 25.0878 14.789C25.471 14.7868 25.8541 14.7871 26.2373 14.788C26.5581 14.7885 26.8789 14.7878 27.1997 14.7871C27.957 14.7854 28.7143 14.7857 29.4716 14.7874C30.2508 14.789 31.03 14.7875 31.8092 14.7843C32.4802 14.7817 33.1511 14.781 33.8221 14.7818C34.222 14.7823 34.6219 14.7821 35.0218 14.7801C35.398 14.7783 35.7741 14.7789 36.1503 14.7813C36.2877 14.7818 36.4251 14.7814 36.5625 14.7802C37.5026 14.7724 38.2644 14.8693 38.9785 15.5234C39.5807 16.1439 39.7794 16.8053 39.7792 17.653C39.7777 17.7451 39.7762 17.8372 39.7746 17.932C39.7742 18.0285 39.7738 18.1249 39.7734 18.2243C39.7718 18.5297 39.7681 18.8351 39.7643 19.1405C39.7629 19.3487 39.7615 19.5569 39.7603 19.765C39.7571 20.273 39.7522 20.781 39.746 21.289C39.8356 21.2883 39.9252 21.2877 40.0175 21.287C40.8651 21.2811 41.7127 21.2767 42.5603 21.2738C42.996 21.2723 43.4317 21.2702 43.8673 21.2669C44.2884 21.2637 44.7095 21.2619 45.1306 21.2612C45.2906 21.2606 45.4506 21.2596 45.6106 21.258C46.9845 21.2449 48.0718 21.3832 49.1187 22.3453C49.8273 23.0916 50.0596 23.9163 50.0495 24.9263C50.0505 25.0701 50.0505 25.0701 50.0514 25.2168C50.0529 25.5354 50.0517 25.8539 50.0505 26.1726C50.051 26.402 50.0517 26.6315 50.0526 26.861C50.0543 27.4824 50.0536 28.1038 50.0524 28.7253C50.0515 29.3104 50.0522 29.8955 50.0528 30.4807C50.0539 31.7102 50.0526 32.9397 50.0505 34.1693C50.0488 35.2227 50.0491 36.2761 50.0509 37.3296C50.053 38.5549 50.0538 39.7802 50.0526 41.0056C50.052 41.6535 50.0519 42.3014 50.0532 42.9493C50.0543 43.5585 50.0535 44.1676 50.0513 44.7768C50.0508 45 50.0509 45.2232 50.0518 45.4464C50.0528 45.7519 50.0515 46.0572 50.0495 46.3626C50.0508 46.4941 50.0508 46.4941 50.0522 46.6283C50.0404 47.5873 49.6762 48.4199 49.0234 49.121C48.1196 49.9636 47.1798 50.0433 45.9813 50.0378C45.8419 50.0382 45.7025 50.0387 45.563 50.0394C45.1816 50.0408 44.8003 50.0404 44.4189 50.0396C44.0069 50.0392 43.5949 50.0404 43.1829 50.0414C42.3765 50.0431 41.57 50.0432 40.7636 50.0427C40.108 50.0423 39.4524 50.0424 38.7969 50.0429C38.7035 50.043 38.6101 50.0431 38.5139 50.0431C38.3242 50.0433 38.1345 50.0434 37.9448 50.0436C36.1667 50.0449 34.3885 50.0444 32.6104 50.0433C30.9844 50.0423 29.3584 50.0436 27.7323 50.0459C26.0618 50.0483 24.3912 50.0492 22.7207 50.0486C21.7832 50.0482 20.8457 50.0485 19.9081 50.0502C19.1101 50.0516 18.3121 50.0517 17.5141 50.05C17.1071 50.0491 16.7002 50.0489 16.2932 50.0504C15.9202 50.0518 15.5473 50.0513 15.1744 50.0494C14.9764 50.0489 14.7784 50.0503 14.5805 50.0517C13.4505 50.0426 12.666 49.7705 11.8427 48.9886C11.3125 48.3709 10.9261 47.588 10.9246 46.7641C10.9242 46.684 10.9239 46.6039 10.9235 46.5214C10.9236 46.4339 10.9236 46.3464 10.9237 46.2562C10.9234 46.1629 10.9231 46.0695 10.9228 45.9733C10.922 45.6597 10.9219 45.346 10.9217 45.0324C10.9213 44.8078 10.9208 44.5832 10.9202 44.3587C10.919 43.7479 10.9183 43.1371 10.9179 42.5263C10.9176 42.1447 10.9172 41.7631 10.9168 41.3815C10.9156 40.3242 10.9146 39.267 10.9142 38.2098C10.9142 38.1421 10.9142 38.0745 10.9142 38.0048C10.9142 37.937 10.9141 37.8692 10.9141 37.7993C10.9141 37.6619 10.914 37.5245 10.914 37.3871C10.914 37.3189 10.9139 37.2508 10.9139 37.1806C10.9135 36.0771 10.9118 34.9736 10.9096 33.8701C10.9072 32.7363 10.906 31.6025 10.9059 30.4688C10.9058 29.8325 10.9052 29.1963 10.9035 28.5601C10.9019 27.9613 10.9017 27.3626 10.9025 26.7638C10.9026 26.5444 10.9022 26.325 10.9012 26.1055C10.9 25.8052 10.9005 25.505 10.9016 25.2047C10.9008 25.1185 10.9 25.0323 10.8992 24.9436C10.9079 23.8361 11.2731 22.9905 12.0117 22.1679C13.0475 21.2362 14.3354 21.2471 15.6505 21.2604C15.811 21.2609 15.9715 21.2613 16.132 21.2616C16.5508 21.2627 16.9697 21.2656 17.3885 21.2689C17.8173 21.2719 18.2462 21.2732 18.675 21.2747C19.5138 21.2778 20.3526 21.2828 21.1913 21.289C21.1898 21.1698 21.1883 21.0507 21.1867 20.928C21.1814 20.4821 21.178 20.0362 21.1753 19.5902C21.1738 19.398 21.1718 19.2057 21.1692 19.0135C21.1657 18.7356 21.164 18.4578 21.1627 18.18C21.1612 18.0953 21.1597 18.0106 21.1582 17.9234C21.1579 17.0935 21.3087 16.31 21.8871 15.686C21.9902 15.57 21.9902 15.57 22.0954 15.4517C22.884 14.8114 23.6769 14.7865 24.6621 14.7916ZM23.1079 16.8395C22.9042 17.1607 22.8392 17.4016 22.8404 17.7746C22.8404 17.8528 22.8404 17.9309 22.8404 18.0115C22.8409 18.0954 22.8414 18.1794 22.842 18.2658C22.8421 18.3521 22.8422 18.4384 22.8424 18.5273C22.8429 18.8029 22.8442 19.0785 22.8454 19.3542C22.8459 19.541 22.8463 19.7279 22.8467 19.9147C22.8478 20.3728 22.8495 20.8309 22.8515 21.289C23.3994 21.289 23.9472 21.289 24.5117 21.289C24.5117 20.1933 24.5117 19.0976 24.5117 17.9687C28.4755 17.9687 32.4394 17.9687 36.5234 17.9687C36.5234 19.0644 36.5234 20.1601 36.5234 21.289C37.039 21.289 37.5546 21.289 38.0859 21.289C38.098 20.7156 38.1068 20.1423 38.1127 19.5688C38.1152 19.3738 38.1185 19.1789 38.1227 18.984C38.1287 18.7033 38.1314 18.4226 38.1336 18.1419C38.1361 18.0552 38.1386 17.9685 38.1412 17.8791C38.1414 17.4728 38.1253 17.1782 37.8754 16.847C37.4424 16.4643 37.0207 16.3818 36.4527 16.3814C36.2891 16.3805 36.2891 16.3805 36.1221 16.3797C36.0038 16.3801 35.8856 16.3805 35.7637 16.3809C35.638 16.3806 35.5124 16.3802 35.3829 16.3799C35.0393 16.379 34.6957 16.3793 34.352 16.3799C33.9917 16.3804 33.6314 16.38 33.2711 16.3797C32.666 16.3793 32.0609 16.3798 31.4558 16.3807C30.7573 16.3818 30.0588 16.3814 29.3603 16.3803C28.7596 16.3795 28.1589 16.3793 27.5581 16.3798C27.1998 16.3801 26.8415 16.3802 26.4831 16.3795C26.0834 16.3789 25.6837 16.3798 25.284 16.3809C25.1659 16.3805 25.0478 16.3801 24.9262 16.3797C23.9301 16.358 23.9301 16.358 23.1079 16.8395ZM26.1718 19.6288C26.1718 20.1767 26.1718 20.7245 26.1718 21.289C29.04 21.289 31.9081 21.289 34.8632 21.289C34.8632 20.7411 34.8632 20.1933 34.8632 19.6288C31.9951 19.6288 29.1269 19.6288 26.1718 19.6288ZM13.1812 23.4031C13.1377 23.4587 13.0941 23.5144 13.0493 23.5717C12.9817 23.6544 12.9817 23.6544 12.9127 23.7388C12.6539 24.1426 12.573 24.4945 12.5708 24.9711C12.5698 25.0806 12.5689 25.1901 12.568 25.303C12.568 25.4204 12.5681 25.5378 12.5682 25.6587C12.5678 25.7802 12.5674 25.9017 12.567 26.0268C12.5663 26.3491 12.5666 26.6714 12.5671 26.9937C12.5671 27.1908 12.5661 27.3878 12.5648 27.5848C12.5624 27.9641 12.562 28.3434 12.5621 28.7227C12.5612 28.8399 12.5603 28.9571 12.5594 29.0778C12.5631 29.7395 12.5898 30.2246 13.0447 30.7414C13.0986 30.7864 13.1524 30.8313 13.2079 30.8776C13.2608 30.9233 13.3137 30.969 13.3682 31.0161C13.9981 31.4326 14.6847 31.5492 15.4154 31.6847C15.5303 31.7066 15.6452 31.7286 15.7635 31.7512C16.0768 31.8109 16.3901 31.8698 16.7035 31.9285C17.032 31.9901 17.3604 32.0526 17.6888 32.115C18.2397 32.2195 18.7907 32.3234 19.3417 32.427C20.0491 32.5599 20.7564 32.6937 21.4635 32.8279C22.072 32.9434 22.6807 33.0584 23.2893 33.1734C23.4848 33.2103 23.6803 33.2473 23.8757 33.2843C24.2394 33.3531 24.6032 33.4215 24.967 33.4898C25.0754 33.5103 25.1838 33.5309 25.2954 33.552C25.3943 33.5705 25.4931 33.589 25.5949 33.608C25.6809 33.6242 25.7669 33.6404 25.8555 33.6571C26.0855 33.6989 26.0855 33.6989 26.3671 33.6913C26.3685 33.5688 26.3685 33.5688 26.3699 33.4437C26.3742 33.1372 26.3803 32.8308 26.3874 32.5243C26.3915 32.3277 26.3936 32.1312 26.3957 31.9347C26.4295 30.591 26.4295 30.591 26.8554 30.078C27.5344 29.6339 28.1314 29.6315 28.9279 29.639C29.0509 29.6388 29.1739 29.6387 29.3006 29.6385C29.5598 29.6387 29.8188 29.6396 30.078 29.6419C30.4085 29.6446 30.739 29.6444 31.0696 29.6431C31.3872 29.6423 31.7048 29.6437 32.0224 29.6451C32.1993 29.6446 32.1993 29.6446 32.3797 29.6442C33.1093 29.6524 33.6414 29.6916 34.2162 30.1757C34.5137 30.5419 34.4905 30.8992 34.5035 31.3548C34.5065 31.455 34.5065 31.455 34.5096 31.5572C34.516 31.7701 34.5218 31.983 34.5275 32.196C34.5317 32.3405 34.536 32.485 34.5403 32.6295C34.5508 32.9834 34.5606 33.3374 34.5703 33.6913C35.2645 33.6337 35.9413 33.5315 36.6252 33.4005C36.7282 33.3811 36.8313 33.3617 36.9374 33.3418C37.2753 33.278 37.6131 33.2137 37.9508 33.1493C38.1875 33.1043 38.4241 33.0594 38.6608 33.0145C39.1558 32.9205 39.6507 32.8261 40.1457 32.7316C40.7775 32.6109 41.4095 32.4913 42.0415 32.3721C42.5301 32.2797 43.0185 32.1866 43.5069 32.0933C43.7397 32.0489 43.9726 32.0048 44.2055 31.961C44.5323 31.8994 44.8588 31.8368 45.1854 31.7739C45.2801 31.7563 45.3748 31.7387 45.4723 31.7205C46.9594 31.4415 46.9594 31.4415 48.1445 30.5663C48.522 29.9539 48.4531 29.2064 48.4538 28.5133C48.4542 28.4097 48.4545 28.3062 48.4548 28.1995C48.4553 27.981 48.4556 27.7625 48.4555 27.544C48.4557 27.2112 48.4575 26.8784 48.4594 26.5456C48.4597 26.3328 48.4599 26.1199 48.4599 25.9071C48.461 25.7589 48.461 25.7589 48.4621 25.6077C48.4595 24.7973 48.3938 24.0823 47.8515 23.4374C47.3647 23.0895 46.9244 22.937 46.3302 22.9363C46.2161 22.9359 46.102 22.9356 45.9845 22.9352C45.8586 22.9352 45.7327 22.9353 45.603 22.9354C45.4683 22.9352 45.3337 22.9349 45.1991 22.9345C44.8282 22.9338 44.4574 22.9336 44.0866 22.9335C43.687 22.9333 43.2873 22.9326 42.8877 22.9319C42.0134 22.9306 41.1392 22.93 40.2649 22.9296C39.7191 22.9293 39.1733 22.9289 38.6275 22.9285C37.1166 22.9273 35.6058 22.9263 34.0949 22.9259C33.9982 22.9259 33.9014 22.9259 33.8018 22.9259C33.7048 22.9258 33.6078 22.9258 33.5079 22.9258C33.3114 22.9258 33.115 22.9257 32.9185 22.9257C32.821 22.9257 32.7235 22.9256 32.6231 22.9256C31.044 22.9252 29.4648 22.9235 27.8857 22.9212C26.2648 22.9189 24.6439 22.9177 23.0231 22.9176C22.1128 22.9175 21.2026 22.9169 20.2924 22.9152C19.5173 22.9137 18.7421 22.9132 17.967 22.914C17.5715 22.9144 17.1761 22.9143 16.7806 22.9129C16.4184 22.9117 16.0562 22.9118 15.6939 22.913C15.5012 22.9132 15.3085 22.9121 15.1158 22.9109C14.401 22.9149 13.7594 22.9321 13.1812 23.4031ZM28.0273 31.2499C28.0211 32.0108 28.0153 32.7715 28.0121 33.5324C28.0106 33.8868 28.0085 34.2411 28.0052 34.5955C28.002 34.9375 28.0002 35.2794 27.9995 35.6213C27.9987 35.8139 27.9964 36.0065 27.9941 36.1991C27.9939 37.1993 28.1099 37.9592 28.8139 38.6985C29.3078 39.1369 29.8453 39.3288 30.5023 39.3714C31.1151 39.3336 31.6528 39.1166 32.1227 38.7267C32.1892 38.6441 32.2557 38.5616 32.3242 38.4765C32.3947 38.3959 32.4652 38.3153 32.5378 38.2323C32.8623 37.7847 32.9344 37.4198 32.9323 36.8708C32.9322 36.6831 32.9322 36.6831 32.9322 36.4917C32.9312 36.3561 32.9302 36.2206 32.9292 36.085C32.9288 35.9456 32.9285 35.8062 32.9283 35.6668C32.9276 35.3009 32.9257 34.935 32.9235 34.5691C32.9212 34.1295 32.9203 33.69 32.9191 33.2504C32.9172 32.5835 32.9135 31.9167 32.9101 31.2499C31.2988 31.2499 29.6874 31.2499 28.0273 31.2499ZM12.5976 32.5194C12.5885 34.3904 12.5816 36.2614 12.5774 38.1323C12.5753 39.0011 12.5726 39.8698 12.5681 40.7386C12.5642 41.496 12.5617 42.2533 12.5608 43.0107C12.5603 43.4116 12.5591 43.8124 12.5563 44.2133C12.5536 44.591 12.5528 44.9687 12.5534 45.3464C12.5533 45.4846 12.5525 45.6229 12.551 45.7611C12.5419 46.6486 12.5666 47.3081 13.2018 47.9797C13.9957 48.456 14.7707 48.4793 15.6793 48.474C15.8124 48.4742 15.9456 48.4746 16.0787 48.4751C16.4426 48.4762 16.8066 48.4754 17.1705 48.4743C17.5637 48.4734 17.9569 48.4742 18.3502 48.4749C19.1197 48.4758 19.8893 48.4751 20.6588 48.474C21.5553 48.4726 22.4518 48.4728 23.3483 48.473C24.9481 48.4733 26.5478 48.4722 28.1475 48.4702C29.6992 48.4684 31.2509 48.4677 32.8026 48.4682C34.4932 48.4688 36.1837 48.4688 37.8742 48.4677C38.0545 48.4676 38.2348 48.4675 38.4151 48.4674C38.5038 48.4673 38.5925 48.4672 38.6839 48.4672C39.3086 48.4668 39.9333 48.4668 40.558 48.467C41.3194 48.4672 42.0807 48.4667 42.8421 48.4653C43.2304 48.4646 43.6188 48.4642 44.0071 48.4646C44.3628 48.465 44.7185 48.4645 45.0742 48.4633C45.2634 48.4629 45.4526 48.4634 45.6418 48.464C46.8052 48.4681 46.8052 48.4681 47.7905 47.9125C47.8853 47.8268 47.8853 47.8268 47.982 47.7393C48.4352 47.2351 48.4498 46.6313 48.4492 45.9776C48.4493 45.8585 48.4495 45.7394 48.4496 45.6166C48.4492 45.4859 48.4489 45.3552 48.4485 45.2245C48.4485 45.0859 48.4485 44.9473 48.4486 44.8086C48.4486 44.4334 48.448 44.0582 48.4473 43.6829C48.4467 43.2903 48.4467 42.8978 48.4466 42.5052C48.4463 41.7623 48.4455 41.0194 48.4445 40.2766C48.4434 39.4306 48.4428 38.5846 48.4424 37.7387C48.4413 35.9989 48.4396 34.2592 48.4374 32.5194C48.0399 32.6509 48.0399 32.6509 47.6448 32.7892C47.0264 33.0093 46.3995 33.1341 45.7553 33.2546C45.6365 33.2773 45.5176 33.3001 45.3951 33.3235C45.1384 33.3725 44.8817 33.4213 44.6249 33.4698C44.219 33.5463 43.8132 33.6238 43.4075 33.7013C42.7662 33.8237 42.1249 33.9456 41.4835 34.0672C40.333 34.2853 39.1826 34.5042 38.0323 34.7237C37.6287 34.8006 37.2251 34.8773 36.8214 34.9536C36.5123 35.0122 36.2034 35.0711 35.8944 35.1299C35.7823 35.151 35.6702 35.1721 35.5548 35.1938C35.4531 35.2133 35.3514 35.2327 35.2466 35.2527C35.1579 35.2695 35.0692 35.2864 34.9778 35.3037C34.7625 35.3433 34.7625 35.3433 34.5703 35.4491C34.5689 35.5428 34.5689 35.5428 34.5675 35.6383C34.5382 37.2323 34.4774 38.5899 33.3408 39.8158C32.5299 40.5656 31.5446 40.9015 30.4527 40.9244C29.2968 40.8789 28.3886 40.4991 27.5577 39.6922C26.6639 38.6933 26.4604 37.64 26.4087 36.3391C26.4046 36.244 26.4004 36.1489 26.3962 36.051C26.3861 35.8178 26.3764 35.5847 26.3671 35.3515C26.3051 35.3398 26.243 35.3282 26.1791 35.3162C24.6625 35.032 23.1461 34.7466 21.63 34.46C20.8968 34.3214 20.1635 34.1832 19.4301 34.0459C18.7901 33.9261 18.1503 33.8056 17.5106 33.6842C17.1725 33.6201 16.8344 33.5563 16.4961 33.4934C16.1166 33.4228 15.7374 33.3506 15.3583 33.2783C15.2485 33.2581 15.1387 33.238 15.0256 33.2172C14.1886 33.0555 13.3995 32.8033 12.5976 32.5194Z" fill="black"></path><path d="M2.59966 -0.0260524C2.74242 -0.0267161 2.74242 -0.0267161 2.88807 -0.0273932C3.20728 -0.0286305 3.52647 -0.0284696 3.84568 -0.0283084C4.07443 -0.0288927 4.30318 -0.0295573 4.53194 -0.0302962C5.15359 -0.0320231 5.77524 -0.0324794 6.3969 -0.032604C6.85037 -0.032766 7.30385 -0.0333322 7.75733 -0.0339392C8.97692 -0.0355612 10.1965 -0.0362912 11.4161 -0.0361522C11.52 -0.0361405 11.52 -0.0361405 11.6259 -0.0361285C11.6952 -0.0361205 11.7645 -0.0361126 11.836 -0.0361043C12.9592 -0.036025 14.0823 -0.0378936 15.2055 -0.0406477C16.3594 -0.0434547 17.5133 -0.044802 18.6671 -0.0446333C19.3147 -0.0445685 19.9623 -0.045141 20.6098 -0.0472072C21.219 -0.0490975 21.828 -0.0491138 22.4371 -0.0476922C22.6606 -0.0474879 22.884 -0.0479498 23.1075 -0.0491298C23.4128 -0.0506375 23.718 -0.0497306 24.0232 -0.0482253C24.1114 -0.0492299 24.1996 -0.0502345 24.2905 -0.0512695C24.9627 -0.0439558 25.4529 0.136436 25.9846 0.54814C26.0334 0.5984 26.0822 0.648659 26.1326 0.700442C26.1882 0.756893 26.2439 0.813345 26.3013 0.871507C26.3853 0.959796 26.3853 0.959796 26.4709 1.04987C26.5601 1.14127 26.5601 1.14127 26.651 1.23452C27.0079 1.60295 27.3535 1.97944 27.6851 2.3709C27.8931 2.60915 28.1192 2.82727 28.3447 3.04877C28.5846 3.29293 28.805 3.55249 29.0283 3.81171C29.1931 3.99716 29.364 4.17194 29.541 4.34577C29.7787 4.57922 30.0013 4.81944 30.2185 5.07208C30.4547 5.34633 30.6991 5.6055 30.957 5.85944C31.9337 6.82666 32.6204 7.60031 32.6357 9.01366C32.6364 9.15177 32.6364 9.15177 32.637 9.29267C32.6376 9.38836 32.6381 9.48405 32.6387 9.58264C32.6396 9.78456 32.6402 9.98648 32.6406 10.1884C32.6416 10.497 32.6446 10.8056 32.6477 11.1142C32.6483 11.3106 32.6488 11.5071 32.6492 11.7036C32.6504 11.7956 32.6516 11.8877 32.6529 11.9826C32.6512 12.4605 32.6439 12.7996 32.3242 13.1837C32.0186 13.3365 31.6786 13.3494 31.3476 13.2813C31.1421 13.1339 31.1421 13.1339 30.957 12.8907C30.9229 12.6085 30.9113 12.3647 30.9189 12.0835C30.9194 12.006 30.92 11.9285 30.9205 11.8487C30.9227 11.6019 30.9276 11.3552 30.9326 11.1085C30.9345 10.9409 30.9363 10.7733 30.9379 10.6057C30.9422 10.1954 30.949 9.78527 30.957 9.37506C30.9007 9.37593 30.8443 9.3768 30.7863 9.37769C30.1953 9.38639 29.6043 9.39225 29.0133 9.39652C28.7933 9.39848 28.5733 9.40113 28.3533 9.40453C28.0354 9.40932 27.7177 9.4115 27.3998 9.41321C27.2543 9.41623 27.2543 9.41623 27.1059 9.41932C26.1793 9.41961 25.3147 9.16985 24.5884 8.57627C23.7647 7.73642 23.6105 6.72378 23.6107 5.59027C23.6117 5.48851 23.6127 5.38674 23.6137 5.28189C23.614 5.1749 23.6143 5.0679 23.6145 4.95766C23.6156 4.61941 23.6181 4.28118 23.6206 3.94293C23.6216 3.71215 23.6224 3.48136 23.6232 3.25057C23.6254 2.68789 23.6286 2.12523 23.6328 1.56256C20.8655 1.57075 18.0981 1.58004 15.3308 1.59064C14.046 1.59554 12.7611 1.60008 11.4762 1.60376C10.3565 1.60698 9.23682 1.61087 8.11712 1.61557C7.52408 1.61804 6.93104 1.62017 6.33799 1.62148C5.78003 1.62273 5.22209 1.62489 4.66413 1.62774C4.45915 1.62862 4.25416 1.62918 4.04917 1.62938C3.76965 1.62971 3.49016 1.63122 3.21065 1.63303C3.12924 1.63284 3.04783 1.63265 2.96395 1.63245C2.38392 1.63598 2.38392 1.63598 1.85544 1.85553C1.65305 2.24644 1.63566 2.57958 1.63555 3.01564C1.63526 3.08233 1.63498 3.14903 1.63469 3.21775C1.63397 3.44172 1.63465 3.66566 1.63532 3.88962C1.6351 4.05163 1.63479 4.21363 1.6344 4.37564C1.63358 4.82119 1.63399 5.26674 1.63459 5.7123C1.63503 6.19267 1.63435 6.67303 1.63381 7.1534C1.63294 8.09458 1.63313 9.03577 1.6337 9.97695C1.63414 10.7417 1.6342 11.5065 1.63399 12.2712C1.63396 12.38 1.63393 12.4887 1.6339 12.6008C1.63383 12.8217 1.63377 13.0426 1.63371 13.2635C1.63315 15.336 1.63379 17.4086 1.63484 19.4811C1.63571 21.2604 1.63556 23.0396 1.63466 24.8189C1.63362 26.8839 1.6332 28.9489 1.6338 31.0139C1.63387 31.234 1.63393 31.4541 1.63399 31.6742C1.63402 31.7825 1.63405 31.8908 1.63408 32.0024C1.63425 32.7664 1.63396 33.5305 1.6335 34.2945C1.63296 35.2254 1.6331 36.1562 1.63414 37.087C1.63466 37.5621 1.63486 38.0373 1.63421 38.5124C1.63363 38.9471 1.63395 39.3817 1.63499 39.8164C1.63521 39.9739 1.6351 40.1314 1.63462 40.2889C1.63403 40.5026 1.63464 40.7162 1.63555 40.9298C1.63559 41.108 1.63559 41.108 1.63564 41.2898C1.66003 41.6005 1.71185 41.8145 1.85544 42.0899C2.23071 42.3115 2.5828 42.3092 3.0115 42.3086C3.07667 42.3088 3.14184 42.309 3.20898 42.3092C3.34975 42.3095 3.49053 42.3095 3.63131 42.309C3.85422 42.3085 4.07708 42.3094 4.29999 42.3107C4.93348 42.3143 5.56695 42.3161 6.20045 42.315C6.58855 42.3145 6.97659 42.3163 7.36468 42.3195C7.51236 42.3203 7.66004 42.3202 7.80772 42.3191C8.01417 42.3177 8.22041 42.3193 8.42685 42.3216C8.54421 42.3216 8.66158 42.3217 8.7825 42.3218C9.082 42.3829 9.082 42.3829 9.31635 42.6178C9.47839 42.8805 9.51943 42.9756 9.47262 43.274C9.46457 43.3387 9.45651 43.4034 9.44821 43.4701C9.34378 43.7301 9.22633 43.8036 8.98434 43.9454C8.66457 43.9832 8.66457 43.9832 8.28005 43.9848C8.17469 43.9858 8.17469 43.9858 8.06721 43.9869C7.83528 43.9886 7.60342 43.9883 7.37149 43.9877C7.20971 43.9882 7.04793 43.9887 6.88615 43.9893C6.54694 43.9901 6.20775 43.9899 5.86855 43.9889C5.43531 43.9878 5.00215 43.9898 4.56893 43.9926C4.23464 43.9944 3.90037 43.9944 3.56607 43.9938C3.40645 43.9938 3.24682 43.9944 3.0872 43.9956C1.39461 44.0067 1.39461 44.0067 0.65991 43.3629C0.60729 43.2993 0.55467 43.2357 0.500456 43.1702C0.446325 43.1069 0.392195 43.0436 0.336424 42.9783C0.0240916 42.525 -0.0245453 42.1382 -0.0251562 41.5929C-0.0254986 41.5239 -0.025841 41.455 -0.0261937 41.384C-0.0271041 41.1525 -0.0266224 40.921 -0.0261481 40.6895C-0.0265129 40.522 -0.0269623 40.3546 -0.027489 40.1872C-0.0286857 39.7266 -0.0286576 39.266 -0.0284276 38.8054C-0.0283878 38.3089 -0.0294652 37.8123 -0.030392 37.3158C-0.0320154 36.3428 -0.0325511 35.3698 -0.0326599 34.3968C-0.0327527 33.606 -0.0331538 32.8152 -0.0337734 32.0244C-0.0354937 29.7832 -0.0363943 27.5419 -0.0362479 25.3007C-0.0362401 25.1798 -0.0362323 25.059 -0.0362243 24.9344C-0.0362163 24.8134 -0.0362083 24.6924 -0.0362001 24.5677C-0.0361207 22.6062 -0.0379898 20.6447 -0.0407434 18.6832C-0.0435474 16.6699 -0.0448979 14.6566 -0.0447291 12.6433C-0.0446642 11.5127 -0.0452028 10.3821 -0.0473029 9.25148C-0.0490794 8.28889 -0.0495077 7.32631 -0.04818 6.36372C-0.0475413 5.87252 -0.0475345 5.38135 -0.0492255 4.89015C-0.0507577 4.44046 -0.0504862 3.99081 -0.0487794 3.54112C-0.0484787 3.37847 -0.0488377 3.21582 -0.049924 3.05318C-0.0602749 1.39348 -0.0602749 1.39348 0.582472 0.660006C0.646044 0.607386 0.709616 0.554766 0.775114 0.500552C0.838434 0.446421 0.901754 0.392291 0.966993 0.33652C1.49694 -0.0286209 1.97683 -0.0281724 2.59966 -0.0260524ZM25.2929 2.92975C25.2881 3.40579 25.2846 3.88182 25.2822 4.35788C25.2812 4.51966 25.2799 4.68143 25.2782 4.8432C25.2758 5.07641 25.2747 5.3096 25.2739 5.54282C25.2729 5.61456 25.2718 5.6863 25.2708 5.76021C25.2706 6.51254 25.4492 6.98005 25.9765 7.51959C26.3833 7.73534 26.7673 7.74066 27.2175 7.73398C27.2883 7.7337 27.3591 7.73343 27.4321 7.73314C27.657 7.73206 27.8818 7.72961 28.1067 7.72711C28.2597 7.72613 28.4127 7.72524 28.5658 7.72444C28.9397 7.7223 29.3136 7.71893 29.6875 7.71491C29.3712 7.27963 29.0587 6.86677 28.6682 6.4942C28.3318 6.17205 28.0261 5.8324 27.7214 5.48083C27.4247 5.14351 27.1155 4.81832 26.8066 4.49225C26.3673 4.02848 25.938 3.55977 25.5239 3.07318C25.4799 3.02585 25.4359 2.97852 25.3906 2.92975C25.3584 2.92975 25.3261 2.92975 25.2929 2.92975Z" fill="black"></path><path d="M35.8521 -0.0423298C35.9286 -0.0428417 36.0052 -0.0433536 36.084 -0.0438811C36.2456 -0.0445072 36.4071 -0.0443786 36.5686 -0.0435458C36.8156 -0.042714 37.0623 -0.0455254 37.3093 -0.0486241C37.4664 -0.0487815 37.6236 -0.0487251 37.7808 -0.0484334C37.8912 -0.050079 37.8912 -0.050079 38.004 -0.0517578C38.3294 -0.0474431 38.5367 -0.0254738 38.8087 0.159229C39.0007 0.443777 39.0628 0.680316 39.1312 1.01663C39.1563 1.13742 39.1815 1.2582 39.2075 1.38265C39.2321 1.50847 39.2568 1.63429 39.2822 1.76393C39.3084 1.89013 39.3346 2.01633 39.3616 2.14635C39.5508 3.07164 39.5508 3.07164 39.5508 3.41798C39.6696 3.43812 39.7885 3.45827 39.9109 3.47902C40.4536 3.59428 40.9163 3.8398 41.4047 4.097C41.6866 4.22344 41.6866 4.22344 41.9361 4.14812C42.2723 3.95527 42.594 3.7466 42.9138 3.52785C42.9766 3.48542 43.0393 3.443 43.104 3.39929C43.3943 3.20299 43.6835 3.0056 43.9709 2.80496C44.3295 2.57935 44.5048 2.55763 44.9219 2.63673C45.0984 2.76429 45.0984 2.76429 45.2831 2.93199C45.3513 2.99387 45.4195 3.05575 45.4898 3.11951C45.8419 3.45092 46.1862 3.78926 46.5271 4.13209C46.5973 4.2019 46.6675 4.2717 46.7398 4.34362C46.8398 4.44379 46.8398 4.44379 46.9418 4.54599C47.0017 4.60607 47.0617 4.66616 47.1235 4.72807C47.3158 4.93742 47.3605 5.05435 47.3942 5.33906C47.3549 5.75197 47.1854 6.03089 46.9666 6.37208C46.9075 6.46819 46.9075 6.46819 46.8472 6.56623C46.6083 6.95047 46.3498 7.31202 46.0754 7.67213C45.8334 7.9979 45.8334 7.9979 45.8252 8.39235C45.8816 8.49104 45.938 8.58974 45.9961 8.69142C46.0812 8.8676 46.1645 9.0447 46.2463 9.22243C46.3105 9.36065 46.3105 9.36065 46.376 9.50166C46.5092 9.82603 46.5588 10.1011 46.582 10.4492C46.6533 10.4588 46.7245 10.4684 46.7979 10.4782C47.4649 10.5737 48.1258 10.6908 48.7854 10.8277C48.8609 10.8422 48.9364 10.8568 49.0142 10.8718C49.0859 10.8872 49.1575 10.9026 49.2313 10.9184C49.2949 10.9315 49.3584 10.9446 49.4238 10.9581C49.6974 11.0717 49.8234 11.1857 50 11.4258C50.0377 11.7033 50.0526 11.9422 50.0484 12.2193C50.0486 12.2958 50.0487 12.3724 50.0489 12.4512C50.0487 12.6128 50.0476 12.7743 50.0456 12.9358C50.0427 13.1828 50.0435 13.4295 50.0448 13.6765C50.0442 13.8336 50.0434 13.9908 50.0423 14.148C50.0426 14.2216 50.0429 14.2953 50.0432 14.3712C50.0379 14.6676 50.0158 14.9065 49.8928 15.178C49.6222 15.4024 49.3831 15.4174 49.0368 15.4648C48.9026 15.486 48.7684 15.5077 48.6343 15.5299C48.5304 15.5469 48.5304 15.5469 48.4243 15.5642C47.3891 15.7097 47.3891 15.7097 46.4911 16.1808C46.2558 16.5513 46.1931 16.9526 46.1331 17.3816C46.0682 17.7057 45.9085 17.9626 45.7397 18.2434C45.6861 18.3347 45.6325 18.426 45.5772 18.52C45.4078 18.7533 45.2662 18.8952 45.0195 19.043C44.6326 19.0914 44.4262 19.1071 44.104 18.8782C43.9204 18.6169 43.8551 18.4841 43.8477 18.1641C44.0105 17.7545 44.197 17.3603 44.3896 16.9639C44.7005 16.3214 44.9397 15.6962 45.1153 15.0009C45.2354 14.6936 45.3264 14.6243 45.6055 14.4531C45.9008 14.3661 45.9008 14.3661 46.2418 14.2964C46.3639 14.2709 46.486 14.2454 46.6118 14.2191C46.7402 14.1933 46.8686 14.1676 46.9971 14.1419C47.127 14.1151 47.257 14.0882 47.3869 14.0612C47.7044 13.9956 48.0221 13.9313 48.3398 13.8672C48.3721 13.416 48.4043 12.9649 48.4375 12.5C48.3313 12.4884 48.225 12.4769 48.1155 12.4649C47.5902 12.3987 47.075 12.294 46.5576 12.1826C46.4619 12.1639 46.3663 12.1451 46.2677 12.1258C45.8644 12.0382 45.5805 11.9765 45.2641 11.7046C45.0757 11.3469 44.9568 10.9887 44.8425 10.6018C44.6206 9.88228 44.3379 9.25383 43.9575 8.60483C43.8437 8.28983 43.835 8.12492 43.9482 7.81006C44.2019 7.29379 44.5513 6.82999 44.8793 6.3593C44.9361 6.27553 44.9928 6.19175 45.0512 6.10544C45.1299 5.99229 45.1299 5.99229 45.2101 5.87686C45.3325 5.67106 45.3325 5.67106 45.2875 5.45179C45.2023 5.24278 45.1027 5.11244 44.9463 4.94996C44.8985 4.89797 44.8506 4.84598 44.8013 4.79242C44.6298 4.66407 44.6298 4.66407 44.4013 4.71205C44.1183 4.79144 43.9418 4.89741 43.7042 5.06898C43.6243 5.12551 43.5443 5.18203 43.462 5.24026C43.3798 5.29956 43.2976 5.35885 43.2129 5.41994C43.0497 5.53768 42.8859 5.65469 42.7216 5.77089C42.6495 5.82294 42.5774 5.87499 42.5032 5.92863C42.2615 6.06841 42.074 6.12337 41.7969 6.15236C41.5552 6.06678 41.3421 5.97259 41.1133 5.85939C40.3155 5.47271 39.5303 5.15619 38.6833 4.89999C38.3822 4.78641 38.2786 4.73772 38.0859 4.4922C37.9989 4.23206 37.9989 4.23206 37.9292 3.9219C37.9037 3.81006 37.8782 3.69821 37.8519 3.58297C37.8264 3.46608 37.8009 3.3492 37.7747 3.22877C37.748 3.11227 37.7214 2.99576 37.694 2.87572C37.5 2.01085 37.5 2.01085 37.5 1.56251C37.0488 1.59474 36.5977 1.62697 36.1328 1.66017C36.0962 1.85189 36.0595 2.04362 36.0218 2.24115C35.9844 2.42799 35.9471 2.61483 35.9093 2.8016C35.8709 2.99403 35.8345 3.18684 35.7981 3.37964C35.7608 3.56234 35.7608 3.56234 35.7227 3.74872C35.7007 3.86071 35.6788 3.97271 35.6561 4.08811C35.5246 4.45716 35.3591 4.63523 35.0586 4.88283C34.6876 4.95239 34.5276 4.91336 34.198 4.73024C33.9167 4.41676 33.9157 4.22688 33.8867 3.80861C33.9152 3.52829 33.9723 3.25774 34.0343 2.98311C34.0509 2.90674 34.0675 2.83036 34.0845 2.75168C34.1196 2.59135 34.1554 2.43116 34.1917 2.27109C34.2469 2.02614 34.2991 1.78068 34.3512 1.53505C34.3858 1.37886 34.4205 1.22271 34.4555 1.0666C34.4709 0.993359 34.4862 0.920116 34.5021 0.844653C34.5697 0.555528 34.6362 0.331427 34.827 0.100793C35.1644 -0.0460389 35.4904 -0.0437375 35.8521 -0.0423298Z" fill="black"></path><path d="M38.092 6.83585C39.772 7.19645 41.1952 8.151 42.1871 9.55459C43.1573 11.0846 43.4865 12.7972 43.1396 14.5751C42.8255 15.8919 42.8255 15.8919 42.3462 16.3207C42.0161 16.4307 41.8348 16.4141 41.5039 16.3085C41.272 16.1559 41.272 16.1559 41.1133 15.9179C41.0484 15.3712 41.1495 14.9735 41.3345 14.4611C41.7333 13.3304 41.4851 12.0862 41.0034 11.0229C40.396 9.8967 39.3765 9.01755 38.1443 8.64631C37.6859 8.55118 37.2193 8.51024 36.7534 8.46892C36.3851 8.38959 36.2605 8.30414 36.0351 8.00773C35.9221 7.65366 35.9047 7.4938 36.0595 7.15324C36.5693 6.4979 37.3637 6.71665 38.092 6.83585Z" fill="black"></path><path d="M9.23938 10.4354C9.33426 10.4349 9.42914 10.4343 9.5269 10.4338C9.63135 10.4336 9.73581 10.4335 9.84343 10.4334C10.008 10.4327 10.008 10.4327 10.176 10.432C10.5403 10.4305 10.9047 10.4299 11.2691 10.4293C11.5216 10.4288 11.7741 10.4282 12.0266 10.4276C12.4889 10.4267 12.9512 10.4261 13.4135 10.4258C14.0937 10.4254 14.7739 10.4237 15.4542 10.4208C16.0434 10.4185 16.6326 10.4177 17.2218 10.4176C17.4724 10.4173 17.723 10.4165 17.9737 10.4152C18.3241 10.4135 18.6746 10.4137 19.025 10.4143C19.1289 10.4134 19.2328 10.4125 19.3398 10.4116C20.2271 10.4167 20.2271 10.4167 20.6055 10.7421C20.7583 11.0477 20.7713 11.3877 20.7032 11.7187C20.5079 11.9578 20.3888 12.093 20.0826 12.1585C19.9542 12.1587 19.9542 12.1587 19.8233 12.1589C19.7247 12.16 19.6262 12.1611 19.5246 12.1623C19.417 12.1615 19.3095 12.1607 19.1987 12.1599C19.0849 12.1605 18.9712 12.1612 18.854 12.1619C18.4776 12.1637 18.1011 12.1625 17.7247 12.1612C17.4634 12.1615 17.2022 12.1618 16.9409 12.1623C16.3932 12.163 15.8455 12.1621 15.2978 12.1602C14.6647 12.1581 14.0317 12.1588 13.3986 12.161C12.8549 12.1627 12.3111 12.163 11.7674 12.162C11.4427 12.1613 11.1181 12.1614 10.7934 12.1626C10.4315 12.1635 10.0696 12.162 9.7077 12.1599C9.60014 12.1606 9.49258 12.1614 9.38176 12.1623C9.23389 12.1606 9.23389 12.1606 9.08304 12.1589C8.99749 12.1588 8.91194 12.1586 8.8238 12.1585C8.51773 12.0931 8.39904 11.957 8.20318 11.7187C8.13212 11.4511 8.14657 11.2077 8.20318 10.9374C8.51117 10.5371 8.74829 10.4372 9.23938 10.4354Z" fill="black"></path><path d="M9.79691 6.87047C9.90859 6.86962 10.0203 6.86876 10.1353 6.86788C10.5045 6.86573 10.8735 6.86716 11.2427 6.86881C11.4992 6.86848 11.7557 6.868 12.0122 6.86739C12.5497 6.8665 13.0872 6.86767 13.6248 6.87C14.2457 6.87266 14.8665 6.87179 15.4875 6.86911C16.0855 6.86662 16.6835 6.86689 17.2815 6.86832C17.5357 6.86864 17.7899 6.86824 18.0441 6.86711C18.3992 6.86587 18.7542 6.86775 19.1093 6.87047C19.2146 6.86949 19.3198 6.8685 19.4282 6.86748C20.1383 6.87757 20.1383 6.87757 20.5243 7.16038C20.7619 7.50783 20.7768 7.69277 20.7031 8.10553C20.5028 8.39854 20.3436 8.5683 19.9873 8.63891C19.6937 8.65762 19.4036 8.65976 19.1093 8.65699C18.9418 8.65828 18.9418 8.65828 18.7709 8.65959C18.4018 8.66173 18.0327 8.66031 17.6636 8.65866C17.4071 8.65899 17.1506 8.65946 16.8941 8.66008C16.3566 8.66096 15.819 8.6598 15.2815 8.65747C14.6606 8.65481 14.0397 8.65567 13.4188 8.65836C12.8208 8.66085 12.2228 8.66058 11.6247 8.65915C11.3706 8.65883 11.1164 8.65923 10.8622 8.66036C10.5071 8.6616 10.152 8.65971 9.79691 8.65699C9.63906 8.65848 9.63906 8.65848 9.47803 8.65999C8.76795 8.6499 8.76795 8.6499 8.38199 8.36708C8.14439 8.01964 8.12942 7.8347 8.20313 7.42194C8.62428 6.80607 9.11469 6.86407 9.79691 6.87047Z" fill="black"></path><path d="M9.23252 14.012C9.29577 14.0114 9.35901 14.0107 9.42418 14.01C9.63264 14.0083 9.84097 14.0094 10.0494 14.0107C10.1946 14.0104 10.3398 14.0101 10.485 14.0096C10.7891 14.009 11.0931 14.0098 11.3972 14.0117C11.7867 14.0139 12.1761 14.0126 12.5656 14.0103C12.8653 14.0089 13.1651 14.0093 13.4648 14.0103C13.6084 14.0106 13.752 14.0103 13.8956 14.0093C14.0965 14.0084 14.2971 14.0099 14.4979 14.012C14.6121 14.0124 14.7263 14.0127 14.844 14.013C15.1983 14.073 15.3112 14.1713 15.5273 14.4532C15.6422 14.813 15.6577 14.9691 15.4968 15.3138C15.332 15.5274 15.332 15.5274 15.1367 15.6251C14.9314 15.636 14.7257 15.6406 14.5201 15.6424C14.4253 15.6433 14.4253 15.6433 14.3285 15.6443C14.1191 15.6462 13.9096 15.6474 13.7001 15.6484C13.6286 15.6488 13.5571 15.6492 13.4834 15.6496C13.1049 15.6516 12.7265 15.653 12.348 15.6539C11.957 15.655 11.566 15.6584 11.175 15.6622C10.8744 15.6648 10.5738 15.6656 10.2732 15.6659C10.1291 15.6664 9.98494 15.6676 9.84081 15.6694C9.63904 15.6717 9.4374 15.6717 9.23562 15.671C9.12084 15.6716 9.00606 15.6721 8.88781 15.6727C8.53349 15.6153 8.42001 15.5146 8.20312 15.2345C8.15125 15.0391 8.15125 15.0391 8.1543 14.8438C8.15279 14.7472 8.15279 14.7472 8.15125 14.6485C8.30073 14.0858 8.71146 14.0135 9.23252 14.012Z" fill="black"></path><path d="M5.76171 10.5712C5.97475 10.7577 6.07453 10.8604 6.15233 11.1328C6.13833 11.4688 6.09947 11.659 5.89675 11.9293C5.58242 12.1725 5.37418 12.1615 4.98046 12.1582C4.80221 12.1597 4.80221 12.1597 4.62035 12.1612C4.29687 12.1093 4.29687 12.1093 4.0615 11.9354C3.85207 11.6431 3.85605 11.4713 3.8742 11.1232C3.91883 10.8645 4.00749 10.7243 4.19921 10.5468C4.71229 10.3758 5.26018 10.3623 5.76171 10.5712Z" fill="black"></path><path d="M5.56636 6.93368C5.93384 7.12103 6.02058 7.22426 6.15229 7.61117C6.15229 7.96912 6.07727 8.11831 5.85932 8.39853C5.40231 8.7032 4.929 8.66228 4.39448 8.59384C4.0771 8.39853 4.0771 8.39853 3.9062 8.10556C3.83581 7.80433 3.85544 7.64412 3.9062 7.32431C4.28942 6.77686 4.9635 6.85197 5.56636 6.93368Z" fill="black"></path><path d="M4.98047 14.0138C5.15872 14.0123 5.15872 14.0123 5.34058 14.0107C5.71602 14.071 5.82891 14.1535 6.05469 14.4532C6.16952 14.8131 6.18504 14.9691 6.02417 15.3138C5.85938 15.5275 5.85938 15.5275 5.66406 15.6251C5.44069 15.6422 5.21666 15.6512 4.99268 15.6556C4.87208 15.6593 4.75148 15.6629 4.62723 15.6667C4.29688 15.6251 4.29688 15.6251 4.06113 15.4523C3.89794 15.2228 3.85309 15.1212 3.85742 14.8439C3.85591 14.7472 3.85591 14.7472 3.85437 14.6486C4.01067 14.0601 4.43734 14.0092 4.98047 14.0138Z" fill="black"></path><path d="M30.4688 35.8826C30.8403 35.9522 30.9973 36.0465 31.25 36.3281C31.3538 36.6638 31.3538 36.6638 31.3477 37.0117C31.1752 37.2853 31.0517 37.4527 30.7617 37.5977C30.3698 37.6499 30.2208 37.6299 29.895 37.3962C29.6875 37.1094 29.6875 37.1094 29.6265 36.7676C29.719 36.2492 29.9429 35.9812 30.4688 35.8826Z" fill="black"></path></g><defs><clipPath id="clip0_1964_1765"><rect width="50" height="50" fill="white"></rect></clipPath></defs></svg>