<svg xmlns="http://www.w3.org/2000/svg" width="100" height="100" viewBox="0 0 100 100" fill="none"><path d="M54.2741 7.2728C54.8205 7.64654 55.3631 8.0229 55.8923 8.42079C56.9843 9.22394 58.0888 9.7228 59.4849 9.52147C59.618 9.50435 59.7512 9.48723 59.8885 9.46959C60.3838 9.37693 60.3838 9.37693 60.9779 9.17586C63.2749 8.58209 65.9089 8.75818 67.9688 9.96093C69.5996 11.1294 70.6451 12.6376 71.6919 14.3188C72.4959 15.4341 73.4809 16.0694 74.8047 16.4062C75.219 16.472 75.6341 16.5327 76.0498 16.5893C78.5229 16.941 80.33 17.995 81.9267 19.9081C82.8516 21.1554 83.2837 22.5137 83.474 24.0456C83.6904 25.7671 84.0438 26.834 85.2905 28.0517C85.7911 28.4394 86.3272 28.741 86.8774 29.0527C88.8702 30.2334 90.2745 31.9122 90.9288 34.1623C91.0812 34.8785 91.0615 35.5982 91.0645 36.3281C91.0652 36.4941 91.066 36.6601 91.0668 36.8312C91.0561 37.994 90.8772 39.0049 90.5502 40.123C90.2534 41.359 90.5569 42.4535 91.1514 43.5493C91.4382 43.995 91.7569 44.3997 92.0898 44.812C93.7762 46.9037 93.9397 49.1603 93.75 51.7578C93.4838 53.3653 92.5388 54.616 91.5792 55.8923C90.7761 56.9843 90.2772 58.0888 90.4785 59.4848C90.5042 59.6846 90.5042 59.6846 90.5304 59.8884C90.6229 60.3836 90.6229 60.3836 90.8249 60.9764C91.3665 63.0843 91.2922 65.6536 90.2344 67.5781C89.2861 69.1691 87.8926 70.3936 86.2915 71.3013C85.0158 72.0362 84.1775 72.9371 83.7059 74.3439C83.5683 74.9092 83.4898 75.4734 83.4106 76.0498C83.0675 78.4466 82.0846 80.2447 80.2124 81.7993C78.7843 82.8351 77.3756 83.2161 75.6592 83.4839C73.9767 83.7496 72.7975 84.1938 71.7178 85.5881C71.4384 86.0062 71.1952 86.4399 70.9473 86.8774C69.7666 88.8702 68.0878 90.2745 65.8377 90.9288C65.1214 91.0812 64.4018 91.0615 63.6719 91.0644C63.5059 91.0652 63.3399 91.066 63.1688 91.0668C62.0059 91.0561 60.9951 90.8772 59.877 90.5502C58.6517 90.256 57.5627 90.5505 56.4751 91.1384C55.9672 91.4619 55.496 91.8227 55.0171 92.1875C52.8862 93.7478 50.8211 94.0099 48.2422 93.75C46.6329 93.4749 45.3874 92.5414 44.1077 91.5792C43.0157 90.776 41.9112 90.2772 40.5151 90.4785C40.382 90.4956 40.2488 90.5127 40.1115 90.5304C39.6163 90.6229 39.6163 90.6229 39.0236 90.8249C36.9294 91.3629 34.3269 91.3071 32.4219 90.2344C30.8404 89.2235 29.6353 87.9304 28.7109 86.3037C27.9685 85.0251 27.0697 84.1798 25.6561 83.7059C25.0908 83.5683 24.5266 83.4898 23.9502 83.4106C21.4958 83.0592 19.5877 81.9834 18.0229 80.0415C17.1447 78.7953 16.7131 77.4604 16.526 75.9544C16.3096 74.2329 15.9562 73.166 14.7095 71.9482C14.2089 71.5606 13.6728 71.259 13.1226 70.9473C11.1298 69.7666 9.72546 68.0878 9.07116 65.8377C8.91881 65.1214 8.93854 64.4018 8.93555 63.6719C8.93463 63.5054 8.93372 63.339 8.93278 63.1675C8.94091 62.2134 9.02547 61.382 9.30176 60.4614C9.65158 59.2216 9.64874 58.243 9.17969 57.0312C8.77351 56.3409 8.30373 55.6975 7.83543 55.0485C6.29256 52.9038 5.95449 50.848 6.25 48.2422C6.57714 46.7934 7.22393 45.6533 8.15201 44.5C9.09426 43.269 9.57031 42.1942 9.57031 40.625C9.45474 40.0576 9.29462 39.5142 9.13162 38.9587C8.61881 36.5993 8.77049 34.0915 10.0166 32.0007C10.974 30.614 12.2497 29.5257 13.7085 28.6987C14.9842 27.9638 15.8225 27.0629 16.2941 25.6561C16.4317 25.0908 16.5102 24.5266 16.5894 23.9502C16.941 21.4771 17.995 19.67 19.9081 18.0733C21.1554 17.1484 22.5137 16.7163 24.0456 16.526C25.7671 16.3096 26.834 15.9562 28.0518 14.7095C28.4394 14.2089 28.741 13.6728 29.0527 13.1225C30.2334 11.1298 31.9122 9.72544 34.1623 9.07115C34.8786 8.9188 35.5982 8.93846 36.3281 8.93553C36.4941 8.93476 36.6601 8.93399 36.8312 8.9332C37.9941 8.9439 39.0049 9.12274 40.123 9.44976C41.3483 9.74399 42.4373 9.44951 43.5249 8.86153C44.0328 8.53804 44.504 8.1773 44.9829 7.81249C47.6235 5.87893 51.4344 5.4079 54.2741 7.2728ZM30.6641 23.4375C30.4976 23.5634 30.3312 23.6893 30.1598 23.819C26.3389 26.8005 23.2919 30.242 21.0937 34.5703C21.0319 34.6905 20.9701 34.8107 20.9064 34.9346C17.0186 42.576 16.1757 51.836 18.8171 59.9914C20.0539 63.6666 21.7534 67.1062 24.2187 70.1172C24.3036 70.2216 24.3885 70.326 24.476 70.4336C27.0904 73.6379 30.0369 76.2083 33.5937 78.3203C33.7077 78.388 33.8216 78.4557 33.939 78.5254C36.5144 80.0301 39.2775 81.0236 42.1509 81.7993C42.3604 81.8564 42.3604 81.8564 42.5741 81.9146C45.0101 82.5379 47.4386 82.6909 49.939 82.6782C50.1572 82.6777 50.1572 82.6777 50.3799 82.6771C53.8763 82.6628 57.0391 82.1673 60.3516 81.0547C60.5467 80.9901 60.5467 80.9901 60.7457 80.9243C65.2598 79.4079 69.1569 76.8302 72.6562 73.6328C72.8164 73.4868 72.9765 73.3407 73.1415 73.1903C77.3635 69.1479 80.3689 63.5893 81.7993 57.959C81.8374 57.8092 81.8755 57.6595 81.9147 57.5053C83.4022 51.2816 82.7773 44.6716 80.6641 38.6719C80.6193 38.543 80.5746 38.4142 80.5285 38.2814C77.6426 30.1348 71.6417 24.082 63.9596 20.3446C53.6584 15.494 39.8323 16.4714 30.6641 23.4375Z" fill="#9B51E0"></path><path d="M23.6328 35.9375C41.0352 35.9375 58.4375 35.9375 76.3672 35.9375C78.1969 40.0543 78.1969 40.0543 78.5767 41.394C78.6231 41.5563 78.6696 41.7186 78.7175 41.8859C80.2286 47.3575 80.1368 53.1586 78.5767 58.606C78.5362 58.7486 78.4958 58.8913 78.4541 59.0383C77.9129 60.7932 77.1242 62.3592 76.3672 64.0625C58.9648 64.0625 41.5625 64.0625 23.6328 64.0625C19.9988 56.2753 19.011 48.0044 21.9032 39.7713C22.4248 38.47 23.0399 37.2079 23.6328 35.9375ZM26.1719 42.1875C26.0663 42.2838 25.9608 42.3802 25.8521 42.4794C25.4993 42.8015 25.1517 43.1287 24.8047 43.457C24.6898 43.5612 24.5748 43.6653 24.4564 43.7726C23.8566 44.3538 23.6495 44.603 23.5336 45.459C23.5799 46.1177 23.5799 46.1177 24.0478 46.582C24.594 46.9242 24.594 46.9242 25.2197 46.8628C25.7907 46.6766 25.9744 46.5226 26.3672 46.0938C26.3679 46.2408 26.3686 46.3879 26.3693 46.5395C26.3767 47.9275 26.3879 49.3154 26.4031 50.7034C26.4108 51.4169 26.4171 52.1303 26.4201 52.8439C26.4231 53.5329 26.4298 54.2217 26.4391 54.9106C26.4434 55.3006 26.4438 55.6907 26.4442 56.0807C26.4481 56.3191 26.4519 56.5576 26.4559 56.8033C26.4576 57.0128 26.4593 57.2222 26.4611 57.4381C26.587 58.1454 26.8472 58.474 27.3437 58.9844C27.8112 59.2113 27.8112 59.2113 28.3203 59.1797C29.0454 58.8377 29.0454 58.8377 29.4922 58.2031C29.5154 57.6899 29.527 57.1817 29.5299 56.6682C29.5315 56.5097 29.533 56.3512 29.5347 56.1879C29.5395 55.6621 29.5428 55.1363 29.5456 54.6104C29.5466 54.431 29.5477 54.2516 29.5487 54.0667C29.554 53.1171 29.5577 52.1674 29.5606 51.2178C29.5638 50.2365 29.5726 49.2554 29.5825 48.2742C29.5891 47.52 29.5913 46.7659 29.5924 46.0117C29.5938 45.65 29.5967 45.2882 29.6014 44.9266C29.6076 44.4201 29.6076 43.914 29.6061 43.4076C29.6094 43.2583 29.6126 43.109 29.6159 42.9552C29.6068 42.1855 29.5158 41.8281 29.0456 41.2079C27.7743 40.2781 27.0848 41.3145 26.1719 42.1875ZM33.5327 43.2495C32.3896 44.6566 32.1966 46.1708 32.1869 47.9393C32.1858 48.098 32.1847 48.2567 32.1835 48.4203C32.1817 48.7557 32.1804 49.091 32.1796 49.4264C32.1777 49.9339 32.1717 50.4413 32.1655 50.9487C32.1503 53.3338 32.2236 55.4252 33.9798 57.2334C35.3011 58.4843 36.6191 59.1729 38.4766 59.1797C40.2575 59.0449 41.8151 58.2864 43.042 56.9824C44.1183 55.5565 44.4559 54.051 44.4397 52.2949C44.4404 52.1116 44.4412 51.9282 44.442 51.7393C44.4425 51.3546 44.4411 50.9699 44.4378 50.5852C44.4336 50.0014 44.4378 49.418 44.4427 48.8342C44.4422 48.4578 44.4412 48.0815 44.4397 47.7051C44.4413 47.5333 44.4429 47.3615 44.4445 47.1846C44.4181 45.4111 43.8413 43.8431 42.6132 42.5438C39.6278 40.0452 36.1006 40.4555 33.5327 43.2495ZM48.6885 42.91C47.3262 44.3922 47.0415 45.9671 47.0306 47.9393C47.0295 48.098 47.0284 48.2567 47.0273 48.4203C47.0254 48.7557 47.0241 49.091 47.0234 49.4264C47.0215 49.9339 47.0154 50.4413 47.0093 50.9487C46.992 53.6214 47.2305 55.5727 49.1531 57.563C50.3866 58.7092 51.8409 59.174 53.5156 59.1797C55.2007 59.0432 56.7434 58.2075 57.8857 56.9702C58.9594 55.5452 59.3007 54.2026 59.2972 52.4376C59.2989 52.2462 59.3005 52.0548 59.3022 51.8577C59.3045 51.4551 59.3047 51.0524 59.303 50.6498C59.3018 50.0401 59.3109 49.4312 59.3208 48.8216C59.3359 46.46 59.2743 44.5729 57.6215 42.7344C56.4808 41.6152 55.0075 40.9138 53.4088 40.802C51.4591 40.8765 50.05 41.5609 48.6885 42.91ZM62.8906 44.1406C62.5753 44.7712 62.579 45.4121 62.6953 46.0938C63.0344 46.6846 63.4445 47.1519 64.0625 47.4609C65.0632 47.5795 65.0632 47.5795 65.9813 47.2565C66.7241 46.6449 66.97 46.3152 67.0654 45.3613C67.0607 44.7069 66.9445 44.3654 66.5283 43.8599C65.8389 43.1869 65.4437 43.0868 64.4737 43.0939C63.7469 43.2179 63.3978 43.6211 62.8906 44.1406ZM68.3945 48.8985C67.9143 49.3743 67.4323 49.848 66.9487 50.3202C66.3613 50.8937 65.7774 51.4705 65.1957 52.0498C64.9745 52.269 64.752 52.487 64.5284 52.7038C64.2166 53.0067 63.9094 53.3135 63.6028 53.6217C63.4271 53.7949 63.2514 53.9682 63.0704 54.1467C62.5953 54.8318 62.5985 55.2373 62.6953 56.0547C63.0864 56.6413 63.3317 56.7997 64.0137 56.9702C65.7704 56.5986 67.284 54.4242 68.5356 53.17C68.7562 52.9495 68.9768 52.7291 69.1975 52.5087C69.6566 52.0499 70.1153 51.5907 70.5738 51.1313C71.1621 50.542 71.7512 49.9535 72.3405 49.3653C72.7948 48.9118 73.2486 48.4578 73.7022 48.0036C73.9194 47.7863 74.1368 47.5691 74.3543 47.352C74.6567 47.0501 74.9585 46.7476 75.2601 46.4448C75.4319 46.2729 75.6037 46.1009 75.7807 45.9237C76.2496 45.4252 76.3542 45.2367 76.4282 44.5557C76.4156 43.9365 76.4156 43.9365 76.0498 43.4814C75.6007 43.1347 75.6007 43.1347 75.0488 43.0298C72.7099 43.5246 70.0889 47.2182 68.3945 48.8985ZM72.2656 53.5156C71.9503 54.1462 71.954 54.7871 72.0703 55.4688C72.4094 56.0596 72.8195 56.5269 73.4375 56.8359C74.4382 56.9545 74.4382 56.9545 75.3563 56.6315C76.0991 56.0199 76.345 55.6902 76.4404 54.7363C76.4357 54.0819 76.3195 53.7404 75.9033 53.2349C75.2139 52.5619 74.8187 52.4618 73.8487 52.4689C73.1219 52.5929 72.7728 52.9961 72.2656 53.5156Z" fill="#9B51E0"></path><path d="M69.5312 27.3438C69.7004 27.4853 69.8696 27.6268 70.0439 27.7726C71.6747 29.1774 73.0474 30.8101 74.2188 32.6172C74.2188 32.7461 74.2188 32.875 74.2188 33.0079C58.2344 33.0079 42.25 33.0079 25.7812 33.0079C26.2521 31.8307 26.9264 31.0407 27.7344 30.0782C27.8504 29.9377 27.9665 29.7972 28.0861 29.6525C28.8736 28.7219 29.7203 27.9187 30.6641 27.1485C30.8468 26.9974 31.0296 26.8464 31.218 26.6907C42.2438 17.7765 58.7971 18.267 69.5312 27.3438Z" fill="#9B51E0"></path><path d="M25.7812 66.9922C41.7656 66.9922 57.75 66.9922 74.2188 66.9922C72.8978 70.2947 69.3605 73.1473 66.4062 75C66.2961 75.0693 66.186 75.1387 66.0725 75.2101C59.2323 79.4472 50.8857 80.8206 43.0398 78.9808C40.6993 78.4 38.4945 77.6191 36.3281 76.5625C36.1388 76.4706 35.9495 76.3787 35.7544 76.284C33.44 75.0898 31.3633 73.4807 29.4922 71.6797C29.397 71.5895 29.3018 71.4994 29.2037 71.4065C27.9138 70.1812 26.6657 68.9462 25.7812 67.3828C25.7812 67.2539 25.7812 67.125 25.7812 66.9922Z" fill="#9B51E0"></path><path d="M54.8965 44.1925C55.6076 44.7816 56.177 45.343 56.3022 46.2959C56.3037 46.4363 56.3052 46.5768 56.3067 46.7215C56.3092 46.8819 56.3117 47.0423 56.3143 47.2075C56.3147 47.3793 56.3152 47.551 56.3156 47.7279C56.3169 47.9061 56.3182 48.0843 56.3195 48.2679C56.3215 48.6445 56.3224 49.0211 56.3224 49.3977C56.3232 49.9722 56.3303 50.5463 56.3377 51.1207C56.3389 51.4872 56.3397 51.8536 56.34 52.2201C56.3428 52.391 56.3456 52.562 56.3485 52.7381C56.3405 53.8107 56.1849 54.4238 55.4687 55.2734C54.6177 55.9891 53.8387 56.3035 52.7344 56.25C51.7138 55.9386 51.0726 55.5059 50.3906 54.6875C49.942 53.8305 49.9371 52.9934 49.9344 52.0469C49.9331 51.8873 49.9318 51.7276 49.9304 51.5631C49.9285 51.2261 49.9275 50.8891 49.9276 50.5521C49.9268 50.0402 49.9197 49.5287 49.9123 49.0169C49.9111 48.6882 49.9103 48.3595 49.91 48.0308C49.9072 47.8796 49.9044 47.7284 49.9015 47.5726C49.9105 46.484 50.1596 45.6302 50.7812 44.7265C51.9808 43.7519 53.494 43.3351 54.8965 44.1925Z" fill="#9B51E0"></path><path d="M40.0879 44.2749C40.7703 44.8488 41.3184 45.4017 41.4793 46.3118C41.5093 46.7983 41.5145 47.2788 41.51 47.7662C41.5107 47.9438 41.5115 48.1214 41.5123 48.3045C41.5128 48.6787 41.5114 49.053 41.5081 49.4273C41.5039 49.9983 41.5081 50.5689 41.5131 51.1399C41.5125 51.5046 41.5115 51.8692 41.51 52.2339C41.5116 52.4036 41.5132 52.5733 41.5148 52.7482C41.4984 53.8145 41.3347 54.4283 40.625 55.2735C39.7739 55.9891 38.995 56.3035 37.8906 56.25C36.8701 55.9387 36.2289 55.506 35.5469 54.6875C35.0983 53.8305 35.0933 52.9934 35.0906 52.047C35.0893 51.8874 35.088 51.7277 35.0867 51.5632C35.0847 51.2262 35.0838 50.8892 35.0839 50.5522C35.083 50.0403 35.0759 49.5288 35.0685 49.017C35.0674 48.6883 35.0666 48.3596 35.0662 48.0309C35.0634 47.8797 35.0606 47.7285 35.0577 47.5727C35.0667 46.4841 35.3159 45.6303 35.9375 44.7266C37.2685 43.6452 38.551 43.4769 40.0879 44.2749Z" fill="#9B51E0"></path></svg>