<svg xmlns="http://www.w3.org/2000/svg" width="50" height="50" viewBox="0 0 50 50" fill="none"><g clip-path="url(#clip0_1964_1722)"><path d="M21.0998 -0.0548271C21.4843 0.000104554 21.4843 0.000104552 21.7223 0.18321C21.9865 0.542426 21.9841 0.758746 21.9821 1.20326C21.9818 1.326 21.9815 1.44874 21.9812 1.57519C21.9803 1.70397 21.9795 1.83275 21.9787 1.96544C21.9782 2.09628 21.9777 2.22712 21.9773 2.35797C21.9762 2.67879 21.9746 2.9996 21.9726 3.32042C22.1418 3.31812 22.1418 3.31812 22.3144 3.31577C22.7339 3.31046 23.1534 3.3071 23.573 3.30432C23.7543 3.30285 23.9357 3.30085 24.1171 3.29832C24.3782 3.29475 24.6392 3.2931 24.9003 3.29181C25.0215 3.28954 25.0215 3.28954 25.1452 3.28722C25.5983 3.28709 25.9076 3.3094 26.2694 3.61339C26.5558 3.97233 26.4892 4.43864 26.4838 4.87529C26.4836 4.95927 26.4833 5.04325 26.483 5.12978C26.4819 5.39744 26.4795 5.66507 26.477 5.93272C26.476 6.11443 26.4751 6.29614 26.4743 6.47784C26.4721 6.92278 26.4688 7.36768 26.4648 7.8126C26.9804 7.8126 27.496 7.8126 28.0273 7.8126C28.0257 7.69979 28.0242 7.58697 28.0226 7.47074C28.0173 7.05124 28.0139 6.63174 28.0112 6.21222C28.0097 6.03083 28.0077 5.84944 28.0052 5.66805C28.0016 5.40697 27.9999 5.14593 27.9986 4.88482C27.9971 4.80404 27.9956 4.72325 27.9941 4.64001C27.9939 4.18687 28.0162 3.87757 28.3202 3.51573C28.6635 3.28926 28.9652 3.29564 29.37 3.29496C29.4362 3.29458 29.5023 3.29421 29.5705 3.29383C29.7922 3.29282 30.0139 3.29321 30.2356 3.29359C30.3945 3.29317 30.5535 3.29266 30.7125 3.29208C31.1443 3.29077 31.5761 3.29072 32.0078 3.29097C32.3682 3.29107 32.7286 3.29059 33.089 3.29013C33.9392 3.28904 34.7894 3.289 35.6396 3.28959C36.5168 3.29018 37.394 3.28898 38.2713 3.2869C39.0243 3.28518 39.7774 3.28459 40.5305 3.28491C40.9803 3.28509 41.4301 3.28483 41.8799 3.28347C42.3029 3.28224 42.7259 3.28243 43.1488 3.28371C43.3041 3.28394 43.4593 3.28367 43.6145 3.28286C43.8265 3.28184 44.0383 3.28263 44.2503 3.28387C44.3689 3.28386 44.4874 3.28384 44.6096 3.28382C44.9519 3.32395 45.1362 3.40772 45.4101 3.61339C45.5564 3.90597 45.5209 4.20584 45.5197 4.52667C45.5199 4.60191 45.52 4.67716 45.5201 4.75468C45.5203 5.00948 45.5199 5.26426 45.5195 5.51906C45.5195 5.7025 45.5196 5.88595 45.5197 6.0694C45.5199 6.57557 45.5195 7.08174 45.5191 7.58792C45.5186 8.13298 45.5188 8.67805 45.5189 9.22311C45.5189 10.1682 45.5186 11.1132 45.5181 12.0583C45.5173 13.4247 45.517 14.7911 45.5169 16.1575C45.5167 18.3742 45.516 20.5908 45.5151 22.8075C45.5142 24.9613 45.5135 27.1151 45.5131 29.2689C45.5131 29.3353 45.5131 29.4017 45.513 29.47C45.5129 30.1364 45.5128 30.8028 45.5127 31.4693C45.5117 37.0603 45.5099 42.6513 45.5077 48.2423C45.6149 48.2389 45.722 48.2355 45.8324 48.232C45.9744 48.2292 46.1164 48.2266 46.2585 48.224C46.3641 48.2203 46.3641 48.2203 46.4719 48.2165C46.9226 48.2104 47.1993 48.26 47.5585 48.5353C47.7922 48.7689 47.7851 48.8375 47.7904 49.1578C47.7932 49.2331 47.796 49.3084 47.7988 49.3859C47.7348 49.7037 47.6192 49.8027 47.3632 50.0001C47.1013 50.0384 46.8795 50.0526 46.6177 50.0493C46.5039 50.0501 46.5039 50.0501 46.3879 50.051C46.1322 50.0524 45.8766 50.051 45.6209 50.0497C45.4363 50.0502 45.2518 50.0508 45.0672 50.0516C44.5589 50.0532 44.0506 50.0524 43.5423 50.0512C42.9945 50.0503 42.4468 50.0516 41.8991 50.0527C40.8256 50.0545 39.7521 50.0541 38.6786 50.0529C37.8064 50.0521 36.9343 50.0519 36.0621 50.0524C35.9381 50.0524 35.8142 50.0525 35.6865 50.0526C35.4346 50.0527 35.1828 50.0528 34.931 50.0529C32.6353 50.054 30.3396 50.0529 28.0438 50.0508C25.9472 50.049 23.8505 50.0492 21.7539 50.051C19.3994 50.0531 17.0449 50.0539 14.6904 50.0527C14.4395 50.0526 14.1886 50.0525 13.9377 50.0524C13.8143 50.0523 13.6908 50.0523 13.5636 50.0522C12.6921 50.0519 11.8206 50.0524 10.9492 50.0533C9.88764 50.0544 8.82611 50.0541 7.76458 50.0521C7.22261 50.051 6.68065 50.0506 6.13868 50.0519C5.64304 50.0531 5.14745 50.0525 4.65182 50.0504C4.47202 50.0499 4.29222 50.0502 4.11242 50.0511C3.86894 50.0523 3.62559 50.0511 3.38212 50.0493C3.3115 50.0502 3.24088 50.0511 3.16812 50.052C2.83518 50.047 2.66466 50.0218 2.39797 49.8153C2.17594 49.5146 2.19138 49.3005 2.20748 48.9381C2.24601 48.7306 2.24601 48.7306 2.42301 48.4864C2.84069 48.2 3.24284 48.2307 3.72916 48.2362C3.80236 48.2366 3.87557 48.2371 3.95099 48.2375C4.13136 48.2387 4.31173 48.2404 4.4921 48.2423C4.49192 48.1745 4.49173 48.1066 4.49154 48.0367C4.48062 44.0189 4.47224 40.001 4.46717 35.9831C4.46656 35.501 4.46592 35.0189 4.46528 34.5368C4.46515 34.4408 4.46502 34.3448 4.46489 34.2459C4.46276 32.6905 4.45891 31.1351 4.45443 29.5797C4.44987 27.9844 4.44715 26.3891 4.44616 24.7939C4.44549 23.809 4.44337 22.8242 4.43941 21.8393C4.43683 21.1645 4.43604 20.4897 4.43668 19.815C4.43699 19.4253 4.4365 19.0356 4.4339 18.6459C4.43153 18.2894 4.43139 17.933 4.43307 17.5765C4.43337 17.3859 4.43126 17.1953 4.42907 17.0047C4.43005 16.892 4.43102 16.7793 4.43202 16.6632C4.43183 16.5658 4.43165 16.4683 4.43146 16.3679C4.51574 16.0142 4.67797 15.9123 4.98038 15.7228C5.23735 15.6869 5.45222 15.673 5.70815 15.6784C5.77966 15.6784 5.85117 15.6783 5.92485 15.6782C6.16003 15.6785 6.39508 15.6815 6.63024 15.6846C6.79375 15.6853 6.95726 15.6859 7.12078 15.6863C7.55026 15.6878 7.97968 15.6916 8.40914 15.6959C8.84772 15.6999 9.28631 15.7017 9.72491 15.7037C10.5848 15.7079 11.4447 15.7145 12.3046 15.7228C12.3036 15.5886 12.3036 15.5886 12.3026 15.4517C12.2968 14.6083 12.2923 13.7648 12.2894 12.9214C12.2879 12.4878 12.2858 12.0542 12.2825 11.6206C12.2793 11.202 12.2776 10.7835 12.2768 10.3649C12.2763 10.2053 12.2752 10.0457 12.2736 9.88615C12.2715 9.66242 12.2712 9.43875 12.2713 9.21501C12.2704 9.02406 12.2704 9.02406 12.2694 8.82926C12.307 8.47355 12.3848 8.29171 12.5976 8.00792C12.9223 7.77075 13.2314 7.78996 13.6245 7.79353C13.7466 7.79416 13.8687 7.79479 13.9945 7.79544C14.1217 7.79708 14.2488 7.79871 14.3798 7.8004C14.5085 7.80128 14.6371 7.80216 14.7697 7.80307C15.0873 7.80537 15.4049 7.80858 15.7226 7.8126C15.7205 7.69336 15.7185 7.57412 15.7164 7.45126C15.7093 7.00865 15.7048 6.56605 15.7011 6.12341C15.6991 5.93187 15.6965 5.74034 15.6931 5.54882C15.6884 5.27343 15.6861 4.99812 15.6844 4.7227C15.6824 4.63714 15.6804 4.55157 15.6783 4.46341C15.6781 3.86776 15.6781 3.86776 15.9081 3.56236C16.3228 3.27064 16.6903 3.30794 17.1821 3.31088C17.2685 3.31102 17.3549 3.31116 17.444 3.3113C17.7206 3.31185 17.9972 3.31307 18.2738 3.31431C18.4611 3.3148 18.6484 3.31525 18.8357 3.31565C19.2954 3.31673 19.7551 3.31841 20.2148 3.32042C20.2122 3.23718 20.2096 3.15395 20.207 3.06819C20.1987 2.75789 20.1926 2.44764 20.1879 2.13726C20.1855 2.00322 20.1822 1.86919 20.1779 1.7352C20.172 1.54205 20.1695 1.3488 20.1671 1.15558C20.1645 1.03949 20.162 0.923397 20.1593 0.80379C20.2458 0.311533 20.5738 -0.0726025 21.0998 -0.0548271ZM17.4804 5.07823C17.4804 5.98057 17.4804 6.88292 17.4804 7.8126C19.8651 7.8126 22.2499 7.8126 24.7069 7.8126C24.7069 6.91026 24.7069 6.00792 24.7069 5.07823C22.3222 5.07823 19.9374 5.07823 17.4804 5.07823ZM29.7851 5.07823C29.7851 11.9103 29.7851 18.7423 29.7851 25.7814C30.6874 25.7814 31.5898 25.7814 32.5194 25.7814C32.6161 25.5235 32.7128 25.2657 32.8124 25.0001C33.0077 24.8048 33.0077 24.8048 33.3861 24.7682C33.6801 24.7767 33.7746 24.7952 34.027 24.9635C34.1796 25.1954 34.1796 25.1954 34.2773 25.7814C34.8251 25.7814 35.373 25.7814 35.9374 25.7814C36.0341 25.3946 36.0341 25.3946 36.1327 25.0001C36.4282 24.8031 36.4853 24.7796 36.8163 24.7865C36.8828 24.7871 36.9493 24.7877 37.0177 24.7884C37.2069 24.8048 37.2069 24.8048 37.4999 24.9024C37.5995 25.1667 37.6101 25.4192 37.6111 25.6995C37.6116 25.7803 37.6122 25.861 37.6127 25.9441C37.6128 26.0323 37.6129 26.1205 37.613 26.2113C37.6137 26.3524 37.6137 26.3524 37.6145 26.4963C37.616 26.8122 37.6168 27.1281 37.6176 27.4441C37.6186 27.6702 37.6195 27.8964 37.6205 28.1226C37.6232 28.7373 37.6252 29.352 37.6272 29.9668C37.6293 30.609 37.632 31.2511 37.6346 31.8933C37.639 32.9713 37.6429 34.0494 37.6467 35.1275C37.6505 36.2379 37.6545 37.3484 37.6589 38.4588C37.6591 38.5272 37.6594 38.5957 37.6597 38.6662C37.661 39.0096 37.6623 39.353 37.6637 39.6963C37.6748 42.545 37.6852 45.3936 37.6952 48.2423C39.6933 48.2423 41.6913 48.2423 43.7499 48.2423C43.7499 33.9982 43.7499 19.754 43.7499 5.07823C39.1415 5.07823 34.5331 5.07823 29.7851 5.07823ZM14.0624 9.57042C14.0624 11.6007 14.0624 13.631 14.0624 15.7228C14.861 15.7316 14.861 15.7316 15.6756 15.7407C16.0126 15.7446 16.3495 15.7486 16.6864 15.7527C17.2213 15.7592 17.7563 15.7656 18.2912 15.7713C18.7224 15.776 19.1536 15.7811 19.5848 15.7865C19.7495 15.7885 19.9141 15.7903 20.0788 15.792C20.3091 15.7944 20.5394 15.7973 20.7697 15.8004C20.8722 15.8012 20.8722 15.8012 20.9768 15.8021C21.2701 15.8065 21.4966 15.8245 21.7773 15.9181C21.8486 16.1199 21.8486 16.1199 21.8932 16.3636C21.9087 16.4443 21.9242 16.525 21.9401 16.6082C21.9562 16.7016 21.9562 16.7016 21.9726 16.797C22.0937 16.8007 22.0937 16.8007 22.2174 16.8044C22.5834 16.8157 22.9494 16.8277 23.3153 16.8397C23.4425 16.8435 23.5696 16.8474 23.7006 16.8513C23.8227 16.8554 23.9448 16.8595 24.0707 16.8637C24.1832 16.8673 24.2957 16.8709 24.4116 16.8746C24.8855 16.9068 24.8855 16.9068 25.0976 16.9923C25.2156 17.3465 25.272 17.6993 25.1952 18.0665C24.976 18.3517 24.859 18.4476 24.5003 18.5104C24.3254 18.5135 24.3254 18.5135 24.1469 18.5166C24.0204 18.5198 23.8939 18.5229 23.7636 18.5262C23.6304 18.5276 23.4973 18.529 23.3642 18.5304C23.2295 18.5331 23.0948 18.5361 22.9602 18.5392C22.631 18.5461 22.3018 18.5506 21.9726 18.5548C21.9726 19.4571 21.9726 20.3595 21.9726 21.2892C22.8548 21.3174 22.8548 21.3174 23.7372 21.3446C23.8472 21.3484 23.9573 21.3521 24.0707 21.3559C24.1832 21.3595 24.2957 21.3631 24.4116 21.3668C24.8855 21.3989 24.8855 21.3989 25.0976 21.4845C25.2156 21.8387 25.272 22.1915 25.1952 22.5587C24.976 22.8439 24.859 22.9398 24.5003 23.0026C24.3837 23.0047 24.2671 23.0067 24.1469 23.0088C24.0204 23.012 23.8939 23.0151 23.7636 23.0184C23.6304 23.0198 23.4973 23.0212 23.3642 23.0226C23.2295 23.0253 23.0948 23.0282 22.9602 23.0313C22.631 23.0382 22.3018 23.0428 21.9726 23.047C21.9726 23.9493 21.9726 24.8517 21.9726 25.7814C23.9706 25.7814 25.9687 25.7814 28.0273 25.7814C28.0273 20.4317 28.0273 15.0821 28.0273 9.57042C23.4189 9.57042 18.8105 9.57042 14.0624 9.57042ZM6.24991 17.4806C6.24991 27.6319 6.24991 37.7833 6.24991 48.2423C7.50675 48.2423 8.76359 48.2423 10.0585 48.2423C10.0829 47.0065 10.0829 47.0065 10.1052 45.7707C10.1086 45.6154 10.1121 45.4602 10.1157 45.305C10.1168 45.2247 10.1179 45.1445 10.1191 45.0618C10.1383 44.3027 10.1383 44.3027 10.3515 44.0431C10.6869 43.8833 10.9568 43.823 11.3267 43.8209C11.4209 43.82 11.5151 43.8191 11.6121 43.8181C11.7127 43.8182 11.8134 43.8183 11.917 43.8184C12.0214 43.818 12.1258 43.8175 12.2333 43.8171C12.4536 43.8166 12.6739 43.8165 12.8942 43.8169C13.2311 43.8172 13.568 43.8149 13.9049 43.8125C14.1191 43.8123 14.3334 43.8122 14.5476 43.8123C14.6986 43.8109 14.6986 43.8109 14.8525 43.8096C15.4029 43.8131 15.801 43.8286 16.2109 44.2384C16.2265 44.5341 16.2362 44.8278 16.2417 45.1238C16.2448 45.2569 16.2448 45.2569 16.2479 45.3927C16.2543 45.6773 16.2601 45.9618 16.2658 46.2464C16.27 46.4389 16.2743 46.6313 16.2786 46.8238C16.2891 47.2966 16.2988 47.7694 16.3085 48.2423C17.5976 48.2423 18.8866 48.2423 20.2148 48.2423C20.2148 38.0909 20.2148 27.9396 20.2148 17.4806C15.6064 17.4806 10.998 17.4806 6.24991 17.4806ZM21.9726 27.5392C21.9726 34.3712 21.9726 41.2032 21.9726 48.2423C26.581 48.2423 31.1894 48.2423 35.9374 48.2423C35.9374 41.4103 35.9374 34.5782 35.9374 27.5392C31.329 27.5392 26.7206 27.5392 21.9726 27.5392ZM11.8163 45.5079C11.8163 46.4103 11.8163 47.3126 11.8163 48.2423C11.9775 48.2423 12.1386 48.2423 12.3046 48.2423C12.3094 48.134 12.3142 48.0258 12.3191 47.9142C12.3264 47.7713 12.3338 47.6284 12.3412 47.4855C12.3458 47.3786 12.3458 47.3786 12.3504 47.2695C12.3876 46.5878 12.3876 46.5878 12.5976 46.2892C12.8864 46.1207 13.056 46.0921 13.391 46.1122C13.6885 46.1962 13.7776 46.2474 13.9648 46.4845C14.007 46.6791 14.007 46.6791 14.0147 46.8976C14.0199 47.0152 14.0199 47.0152 14.0252 47.1351C14.0274 47.2165 14.0296 47.2978 14.0319 47.3817C14.0369 47.5055 14.0369 47.5055 14.042 47.6317C14.0501 47.8352 14.0564 48.0388 14.0624 48.2423C14.2235 48.2423 14.3847 48.2423 14.5507 48.2423C14.5507 47.3399 14.5507 46.4376 14.5507 45.5079C13.6484 45.5079 12.746 45.5079 11.8163 45.5079Z" fill="black"></path><path d="M32.3302 29.1444C32.7148 29.1993 32.7148 29.1993 32.9528 29.3824C33.2203 29.7463 33.2156 29.97 33.2168 30.4209C33.217 30.4869 33.2173 30.5529 33.2176 30.621C33.2185 30.8432 33.2186 31.0655 33.2188 31.2878C33.2192 31.4467 33.2197 31.6057 33.2202 31.7646C33.2215 32.1972 33.2222 32.6298 33.2226 33.0624C33.2229 33.3326 33.2233 33.6027 33.2237 33.8729C33.225 34.7177 33.226 35.5626 33.2264 36.4075C33.2268 37.3834 33.2285 38.3593 33.2313 39.3353C33.2335 40.0892 33.2344 40.843 33.2346 41.5969C33.2347 42.0474 33.2353 42.4979 33.237 42.9483C33.2386 43.3721 33.2388 43.7959 33.238 44.2197C33.2379 44.3752 33.2383 44.5308 33.2393 44.6863C33.2405 44.8987 33.2399 45.111 33.2389 45.3234C33.2391 45.4422 33.2392 45.561 33.2394 45.6835C33.1992 46.029 33.119 46.209 32.9101 46.4845C32.5694 46.7116 32.4314 46.7125 32.0312 46.6798C31.7047 46.5619 31.6457 46.4922 31.4452 46.1915C31.4198 45.8991 31.4198 45.8991 31.4185 45.533C31.4179 45.4657 31.4174 45.3984 31.4169 45.3291C31.4154 45.103 31.4154 44.877 31.4153 44.651C31.4146 44.4891 31.4137 44.3273 31.4128 44.1654C31.4107 43.7254 31.4098 43.2853 31.4093 42.8453C31.409 42.5704 31.4084 42.2956 31.4077 42.0207C31.4053 41.0622 31.404 40.1036 31.4037 39.145C31.4033 38.2511 31.4004 37.3571 31.3963 36.4632C31.3929 35.696 31.3914 34.9289 31.3913 34.1617C31.3913 33.7034 31.3904 33.2451 31.3876 32.7867C31.3851 32.3556 31.3849 31.9246 31.3864 31.4935C31.3866 31.3353 31.3859 31.1771 31.3844 31.0189C31.3824 30.8028 31.3834 30.587 31.3852 30.3709C31.385 30.25 31.3848 30.1292 31.3846 30.0046C31.4786 29.5132 31.8022 29.1265 32.3302 29.1444Z" fill="black"></path><path d="M25.592 29.1444C25.9765 29.1993 25.9765 29.1993 26.2145 29.3763C26.4855 29.7557 26.4774 30.0728 26.4785 30.5266C26.4788 30.5923 26.4791 30.658 26.4794 30.7257C26.4802 30.9463 26.4803 31.1669 26.4805 31.3876C26.4809 31.5456 26.4814 31.7036 26.482 31.8616C26.4832 32.2911 26.4839 32.7207 26.4843 33.1503C26.4846 33.4186 26.485 33.6869 26.4854 33.9552C26.4868 34.7944 26.4877 35.6336 26.4881 36.4729C26.4885 37.4421 26.4902 38.4112 26.4931 39.3804C26.4952 40.1293 26.4962 40.8783 26.4963 41.6272C26.4964 42.0746 26.497 42.522 26.4987 42.9694C26.5003 43.3902 26.5005 43.811 26.4997 44.2319C26.4996 44.3863 26.5 44.5407 26.501 44.6952C26.5022 44.906 26.5017 45.1168 26.5006 45.3277C26.5008 45.4457 26.5009 45.5637 26.5011 45.6853C26.4608 46.0297 26.38 46.2097 26.1718 46.4845C25.8312 46.7116 25.6931 46.7125 25.2929 46.6798C24.9665 46.5619 24.9074 46.4922 24.7069 46.1915C24.6815 45.8991 24.6815 45.8991 24.6802 45.533C24.6797 45.4657 24.6791 45.3984 24.6786 45.3291C24.6772 45.103 24.6771 44.877 24.677 44.651C24.6763 44.4891 24.6755 44.3273 24.6746 44.1654C24.6724 43.7254 24.6716 43.2853 24.6711 42.8453C24.6707 42.5704 24.6701 42.2956 24.6694 42.0207C24.667 41.0622 24.6657 40.1036 24.6654 39.145C24.665 38.2511 24.6621 37.3571 24.658 36.4632C24.6546 35.696 24.6531 34.9289 24.6531 34.1617C24.653 33.7034 24.6521 33.2451 24.6493 32.7867C24.6468 32.3556 24.6466 31.9246 24.6481 31.4935C24.6483 31.3353 24.6477 31.1771 24.6461 31.0189C24.6441 30.8028 24.6451 30.587 24.6469 30.3709C24.6467 30.25 24.6465 30.1292 24.6463 30.0046C24.7403 29.5132 25.0639 29.1265 25.592 29.1444Z" fill="black"></path><path d="M29.0851 29.1448C29.4222 29.2316 29.5662 29.4233 29.7851 29.6876C29.8463 30.0043 29.8463 30.0043 29.8464 30.3702C29.8475 30.4716 29.8475 30.4716 29.8485 30.5749C29.8503 30.8006 29.8485 31.0261 29.8467 31.2518C29.8472 31.4139 29.8479 31.5759 29.8488 31.738C29.8506 32.1776 29.8494 32.6172 29.8475 33.0569C29.8459 33.5169 29.8467 33.9769 29.8472 34.437C29.8477 35.2094 29.8461 35.9818 29.8434 36.7542C29.8403 37.6475 29.8403 38.5407 29.8419 39.434C29.8435 40.2932 29.8428 41.1523 29.8412 42.0115C29.8405 42.3772 29.8406 42.7429 29.8413 43.1087C29.8421 43.5392 29.8409 43.9697 29.8382 44.4002C29.8375 44.5583 29.8375 44.7164 29.8382 44.8745C29.8391 45.0902 29.8375 45.3056 29.8354 45.5213C29.8351 45.642 29.8348 45.7627 29.8345 45.8871C29.7755 46.2506 29.6865 46.3641 29.3945 46.5821C29.0134 46.6861 28.8028 46.7186 28.4362 46.5638C28.2051 46.3724 28.1331 46.2735 28.0273 45.9962C28.0024 45.6979 28.0024 45.6979 28.0018 45.3408C28.0014 45.275 28.0011 45.2092 28.0007 45.1414C27.9997 44.9211 28.0001 44.7008 28.0005 44.4805C28 44.3224 27.9995 44.1644 27.9989 44.0064C27.9976 43.5772 27.9976 43.1481 27.9978 42.7189C27.9979 42.3607 27.9975 42.0025 27.997 41.6443C27.9959 40.7993 27.9959 39.9542 27.9965 39.1092C27.997 38.2373 27.9958 37.3654 27.9938 36.4935C27.992 35.745 27.9915 34.9965 27.9918 34.248C27.9919 33.8009 27.9917 33.3538 27.9903 32.9067C27.9891 32.4863 27.9893 32.0659 27.9906 31.6455C27.9908 31.4912 27.9905 31.3369 27.9897 31.1826C27.9887 30.972 27.9895 30.7614 27.9907 30.5507C27.9907 30.4329 27.9907 30.315 27.9907 30.1936C28.0734 29.4916 28.3992 29.1859 29.0851 29.1448Z" fill="black"></path><path d="M18.1709 12.2906C18.2408 12.2903 18.3107 12.2899 18.3827 12.2896C18.6139 12.2887 18.845 12.2885 19.0762 12.2884C19.2368 12.2881 19.3975 12.2877 19.5582 12.2874C19.895 12.2868 20.2318 12.2866 20.5686 12.2867C21.0002 12.2867 21.4318 12.2854 21.8634 12.2837C22.1953 12.2826 22.5271 12.2824 22.859 12.2824C23.0181 12.2823 23.1772 12.2819 23.3364 12.2811C23.5589 12.2802 23.7814 12.2805 24.004 12.2811C24.1939 12.2808 24.1939 12.2808 24.3877 12.2806C24.6897 12.3035 24.8523 12.3284 25.0977 12.5001C25.3039 12.8095 25.3253 13.0013 25.3475 13.366C25.2594 13.7025 25.07 13.845 24.8047 14.0626C24.5383 14.1115 24.3324 14.1306 24.0667 14.1273C23.9941 14.1283 23.9215 14.1293 23.8466 14.1304C23.6075 14.133 23.3685 14.1321 23.1293 14.1309C22.9625 14.1315 22.7958 14.1322 22.6291 14.133C22.28 14.1342 21.931 14.1335 21.582 14.1316C21.135 14.1294 20.6882 14.132 20.2412 14.136C19.8971 14.1385 19.5529 14.1383 19.2088 14.1372C19.044 14.1371 18.8792 14.1378 18.7144 14.1395C18.4839 14.1414 18.2537 14.1396 18.0231 14.1369C17.9214 14.1389 17.9214 14.1389 17.8177 14.1409C17.5482 14.1345 17.3428 14.1108 17.1324 13.9349C16.9462 13.7197 16.808 13.543 16.7603 13.2588C16.8142 12.9776 16.8615 12.7419 17.0288 12.5062C17.3958 12.2663 17.7457 12.2918 18.1709 12.2906Z" fill="black"></path><path d="M13.6718 32.6171C13.8854 32.7567 13.8854 32.7567 14.0624 33.0077C14.1206 33.3341 14.1169 33.6535 14.1112 33.9843C14.1127 34.0724 14.1142 34.1605 14.1158 34.2513C14.112 34.8907 14.112 34.8907 13.885 35.2115C13.5815 35.4107 13.3494 35.4428 12.9882 35.4491C12.7162 35.3343 12.5589 35.2415 12.3908 34.9982C12.2674 34.6651 12.2725 34.3408 12.2741 33.9904C12.2725 33.9217 12.2709 33.853 12.2693 33.7823C12.2689 33.3422 12.3297 33.0655 12.5975 32.7147C12.9447 32.442 13.2603 32.5142 13.6718 32.6171Z" fill="black"></path><path d="M16.9921 32.6172C17.2126 32.8019 17.3521 32.9466 17.4804 33.2031C17.4952 33.4588 17.503 33.7102 17.5048 33.9661C17.5068 34.0356 17.5089 34.1052 17.5109 34.1768C17.5142 34.6217 17.4596 34.8996 17.1874 35.2539C16.9263 35.4591 16.7926 35.4491 16.455 35.437C16.0614 35.3386 15.9546 35.29 15.7226 34.9609C15.6644 34.6345 15.6681 34.3151 15.6738 33.9844C15.6723 33.8962 15.6707 33.8081 15.6692 33.7173C15.673 33.0768 15.673 33.0768 15.9026 32.7576C16.2919 32.4981 16.5486 32.4995 16.9921 32.6172Z" fill="black"></path><path d="M40.6249 7.91006C40.8385 8.04967 40.8385 8.04967 41.0155 8.30068C41.0737 8.62709 41.07 8.94651 41.0643 9.27724C41.0659 9.36536 41.0674 9.45348 41.0689 9.54427C41.0651 10.1837 41.0651 10.1837 40.8381 10.5044C40.5346 10.7037 40.3025 10.7358 39.9413 10.7421C39.6693 10.6272 39.512 10.5345 39.3439 10.2912C39.2205 9.9581 39.2256 9.63375 39.2272 9.28335C39.2256 9.21468 39.224 9.14601 39.2224 9.07526C39.222 8.63514 39.2828 8.35849 39.5507 8.00771C39.8978 7.73497 40.2134 7.8072 40.6249 7.91006Z" fill="black"></path><path d="M37.3046 7.91024C37.5628 8.09346 37.5929 8.18927 37.6953 8.49618C37.7097 8.75393 37.7178 9.00742 37.7197 9.26522C37.7217 9.33433 37.7237 9.40344 37.7258 9.47465C37.7291 9.91786 37.673 10.1939 37.4023 10.547C37.1411 10.7521 37.0075 10.7421 36.6699 10.7301C36.2762 10.6317 36.1695 10.5831 35.9374 10.254C35.8793 9.92759 35.8829 9.60816 35.8886 9.27743C35.8871 9.18931 35.8856 9.10119 35.884 9.0104C35.8878 8.36755 35.8878 8.36755 36.1236 8.05062C36.5259 7.77439 36.8383 7.8013 37.3046 7.91024Z" fill="black"></path><path d="M13.366 38.1292C13.7153 38.2206 13.8489 38.3849 14.0625 38.672C14.1328 38.9833 14.1309 39.2817 14.1235 39.5997C14.1264 39.723 14.1264 39.723 14.1293 39.8488C14.1259 40.2783 14.103 40.4733 13.8394 40.8261C13.44 41.1117 13.2744 41.0845 12.793 41.0157C12.5556 40.8331 12.4374 40.6953 12.3047 40.4298C12.2925 40.156 12.2866 39.8857 12.2864 39.6119C12.2852 39.5369 12.284 39.4619 12.2828 39.3846C12.2809 38.6745 12.2809 38.6745 12.5 38.379C12.8094 38.1728 13.0012 38.1513 13.366 38.1292Z" fill="black"></path><path d="M10.2539 32.6173C10.4743 32.802 10.6139 32.9467 10.7422 33.2032C10.7595 33.4571 10.7693 33.706 10.7727 33.9601C10.7755 34.0288 10.7784 34.0975 10.7813 34.1683C10.7873 34.6687 10.6925 34.9623 10.3515 35.3517C10.0221 35.4958 9.68178 35.4845 9.33836 35.3761C9.11341 35.203 8.99489 35.0377 8.95599 34.7547C8.9512 34.4999 8.9481 34.2454 8.94774 33.9906C8.94535 33.902 8.94296 33.8135 8.94049 33.7222C8.93763 33.0732 8.93763 33.0732 9.16365 32.7573C9.55376 32.4989 9.81001 32.4995 10.2539 32.6173Z" fill="black"></path><path d="M40.6249 30.371C40.8385 30.5106 40.8385 30.5106 41.0155 30.7616C41.0737 31.088 41.07 31.4075 41.0643 31.7382C41.0659 31.8263 41.0674 31.9144 41.0689 32.0052C41.0651 32.6446 41.0651 32.6446 40.8381 32.9654C40.5346 33.1646 40.3025 33.1967 39.9413 33.203C39.6693 33.0882 39.512 32.9954 39.3439 32.7521C39.2205 32.419 39.2256 32.0947 39.2272 31.7443C39.2256 31.6756 39.224 31.6069 39.2224 31.5362C39.222 31.0961 39.2828 30.8194 39.5507 30.4686C39.8978 30.1959 40.2134 30.2681 40.6249 30.371Z" fill="black"></path><path d="M13.366 26.8987C13.7153 26.9902 13.8489 27.1544 14.0625 27.4415C14.1328 27.7528 14.1309 28.0513 14.1235 28.3692C14.1264 28.4926 14.1264 28.4926 14.1293 28.6183C14.1259 29.0479 14.103 29.2428 13.8394 29.5957C13.44 29.8812 13.2744 29.854 12.793 29.7853C12.5556 29.6026 12.4374 29.4648 12.3047 29.1993C12.2925 28.9255 12.2866 28.6552 12.2864 28.3815C12.2852 28.3064 12.284 28.2314 12.2828 28.1541C12.2809 27.4441 12.2809 27.4441 12.5 27.1485C12.8094 26.9423 13.0012 26.9209 13.366 26.8987Z" fill="black"></path><path d="M16.8876 21.3047C17.2226 21.4406 17.3185 21.6574 17.4804 21.9726C17.5158 22.2512 17.5311 22.4838 17.5231 22.76C17.5238 22.8278 17.5245 22.8956 17.5252 22.9654C17.5199 23.3992 17.4495 23.6772 17.1874 24.0234C16.9263 24.2286 16.7926 24.2186 16.455 24.2065C16.0614 24.1081 15.9546 24.0595 15.7226 23.7304C15.6644 23.404 15.6681 23.0846 15.6738 22.7539C15.6723 22.6658 15.6707 22.5776 15.6692 22.4869C15.673 21.844 15.673 21.844 15.9088 21.5271C16.2564 21.2884 16.4643 21.2846 16.8876 21.3047Z" fill="black"></path><path d="M13.6718 21.3866C13.8854 21.5262 13.8854 21.5262 14.0624 21.7772C14.1206 22.1037 14.1169 22.4231 14.1112 22.7538C14.1127 22.8419 14.1142 22.93 14.1158 23.0208C14.112 23.6603 14.112 23.6603 13.885 23.981C13.5815 24.1803 13.3494 24.2123 12.9882 24.2186C12.7162 24.1038 12.5589 24.0111 12.3908 23.7678C12.2674 23.4347 12.2725 23.1103 12.2741 22.7599C12.2725 22.6912 12.2709 22.6226 12.2693 22.5518C12.2689 22.1117 12.3297 21.8351 12.5975 21.4843C12.9447 21.2115 13.2603 21.2838 13.6718 21.3866Z" fill="black"></path><path d="M37.3046 19.1406C37.557 19.3257 37.594 19.4227 37.6953 19.7265C37.7097 19.9843 37.7178 20.2378 37.7197 20.4956C37.7217 20.5647 37.7237 20.6338 37.7258 20.705C37.7291 21.1482 37.673 21.4243 37.4023 21.7773C37.1411 21.9825 37.0075 21.9725 36.6699 21.9604C36.2762 21.862 36.1695 21.8134 35.9374 21.4844C35.8793 21.1579 35.8829 20.8385 35.8886 20.5078C35.8871 20.4197 35.8856 20.3316 35.884 20.2408C35.8878 19.6002 35.8878 19.6002 36.1175 19.281C36.5341 19.0032 36.8269 19.0382 37.3046 19.1406Z" fill="black"></path><path d="M33.8867 19.1406C34.1007 19.2799 34.1007 19.2799 34.2773 19.5312C34.3354 19.8577 34.3318 20.1771 34.3261 20.5078C34.3277 20.5959 34.3292 20.684 34.3307 20.7748C34.3269 21.4143 34.3269 21.4143 34.0999 21.735C33.7964 21.9343 33.5643 21.9663 33.2031 21.9727C32.9309 21.8577 32.7736 21.7653 32.6061 21.5214C32.4827 21.1904 32.4835 20.8686 32.4829 20.52C32.4805 20.4522 32.4781 20.3843 32.4756 20.3144C32.4728 19.8112 32.5864 19.5228 32.9101 19.1406C33.2818 19.0167 33.5064 19.0539 33.8867 19.1406Z" fill="black"></path><path d="M37.2071 13.4767C37.4446 13.6593 37.5627 13.7971 37.6954 14.0626C37.7076 14.3364 37.7135 14.6067 37.7137 14.8805C37.7149 14.9555 37.7161 15.0305 37.7174 15.1078C37.7192 15.8179 37.7192 15.8179 37.5001 16.1134C37.1907 16.3197 36.9989 16.3411 36.6342 16.3633C36.2848 16.2718 36.1512 16.1075 35.9376 15.8204C35.8673 15.5091 35.8693 15.2107 35.8766 14.8927C35.8747 14.8105 35.8728 14.7283 35.8708 14.6436C35.8742 14.2141 35.8971 14.0191 36.1608 13.6663C36.5601 13.3807 36.7257 13.4079 37.2071 13.4767Z" fill="black"></path><path d="M33.8866 7.91006C34.1002 8.04967 34.1002 8.04967 34.2772 8.30068C34.3354 8.62709 34.3317 8.94651 34.3261 9.27724C34.3276 9.36536 34.3291 9.45348 34.3306 9.54427C34.3269 10.1837 34.3269 10.1837 34.0998 10.5044C33.7963 10.7037 33.5642 10.7358 33.203 10.7421C32.931 10.6272 32.7737 10.5345 32.6056 10.2912C32.4822 9.9581 32.4873 9.63375 32.4889 9.28335C32.4873 9.21468 32.4858 9.14601 32.4841 9.07526C32.4837 8.63514 32.5445 8.35849 32.8124 8.00771C33.1595 7.73497 33.4752 7.8072 33.8866 7.91006Z" fill="black"></path><path d="M10.2538 21.3868C10.4802 21.5715 10.6122 21.7128 10.7421 21.9728C10.7569 22.2285 10.7647 22.4799 10.7665 22.7357C10.7686 22.8053 10.7706 22.8748 10.7726 22.9465C10.7759 23.3913 10.7214 23.6693 10.4492 24.0236C10.188 24.2287 10.0543 24.2187 9.71674 24.2067C9.3231 24.1082 9.21636 24.0596 8.98431 23.7306C8.92615 23.4042 8.92982 23.0848 8.93549 22.754C8.93398 22.6659 8.93246 22.5778 8.93091 22.487C8.93471 21.8441 8.93471 21.8441 9.17047 21.5272C9.56789 21.2544 9.77965 21.2806 10.2538 21.3868Z" fill="black"></path><path d="M40.6249 19.1405C40.8385 19.2801 40.8385 19.2801 41.0155 19.5311C41.0737 19.8576 41.07 20.177 41.0643 20.5077C41.0659 20.5958 41.0674 20.684 41.0689 20.7747C41.0651 21.4142 41.0651 21.4142 40.8381 21.7349C40.5346 21.9342 40.3025 21.9662 39.9413 21.9726C39.6693 21.8577 39.512 21.765 39.3439 21.5217C39.2205 21.1886 39.2256 20.8642 39.2272 20.5138C39.2256 20.4451 39.224 20.3765 39.2224 20.3057C39.222 19.8656 39.2828 19.589 39.5507 19.2382C39.8978 18.9654 40.2134 19.0377 40.6249 19.1405Z" fill="black"></path><path d="M40.6251 41.6017C40.8353 41.7413 40.8353 41.7413 41.0157 41.9923C41.0742 42.3186 41.0702 42.6382 41.0645 42.9689C41.066 43.057 41.0676 43.1451 41.0691 43.2359C41.0653 43.8753 41.0653 43.8753 40.8383 44.196C40.5348 44.3953 40.3027 44.4274 39.9415 44.4337C39.6677 44.3181 39.5109 44.226 39.3441 43.9794C39.2233 43.6581 39.2284 43.3723 39.2274 43.0299C39.2257 42.9043 39.2241 42.7786 39.2224 42.6492C39.2601 42.2624 39.3467 42.0276 39.5509 41.6993C39.9244 41.4671 40.2088 41.4777 40.6251 41.6017Z" fill="black"></path><path d="M16.9923 38.1837C17.2822 38.3993 17.3662 38.5241 17.4806 38.8673C17.4924 39.1072 17.4977 39.3474 17.4989 39.5875C17.5003 39.7152 17.5017 39.8428 17.5031 39.9743C17.4819 40.3113 17.4462 40.5264 17.2853 40.8204C16.9759 41.0267 16.7841 41.0481 16.4193 41.0703C16.07 40.9788 15.9363 40.8146 15.7228 40.5275C15.6524 40.2162 15.6544 39.9177 15.6617 39.5997C15.6598 39.5175 15.658 39.4353 15.656 39.3506C15.6594 38.9211 15.6823 38.7262 15.9459 38.3733C16.3452 38.0878 16.5109 38.1149 16.9923 38.1837Z" fill="black"></path><path d="M10.254 38.1837C10.5439 38.3993 10.6279 38.5241 10.7423 38.8673C10.7541 39.1072 10.7594 39.3474 10.7606 39.5875C10.762 39.7152 10.7634 39.8428 10.7648 39.9743C10.7436 40.3113 10.7079 40.5264 10.547 40.8204C10.2376 41.0267 10.0458 41.0481 9.68105 41.0703C9.33172 40.9788 9.19807 40.8146 8.98448 40.5275C8.91415 40.2162 8.91614 39.9177 8.92345 39.5997C8.92156 39.5175 8.91967 39.4353 8.91772 39.3506C8.92111 38.9211 8.94401 38.7262 9.20764 38.3733C9.60695 38.0878 9.77262 38.1149 10.254 38.1837Z" fill="black"></path><path d="M33.5808 13.4221C33.9302 13.5136 34.0638 13.6779 34.2774 13.965C34.3477 14.2763 34.3457 14.5747 34.3384 14.8927C34.3413 15.016 34.3413 15.016 34.3441 15.1418C34.3408 15.5713 34.3179 15.7662 34.0542 16.1191C33.6549 16.4047 33.4893 16.3775 33.0079 16.3087C32.718 16.0931 32.634 15.9683 32.5196 15.6251C32.5077 15.3853 32.5024 15.145 32.5013 14.9049C32.4999 14.7772 32.4985 14.6496 32.4971 14.5181C32.5183 14.1812 32.554 13.9661 32.7149 13.672C33.0243 13.4657 33.2161 13.4443 33.5808 13.4221Z" fill="black"></path><path d="M40.3157 35.8831C40.6675 35.9737 40.801 36.1368 41.0157 36.4259C41.086 36.7372 41.084 37.0357 41.0767 37.3536C41.0796 37.4769 41.0796 37.4769 41.0824 37.6027C41.0791 38.0322 41.0562 38.2272 40.7925 38.58C40.3932 38.8656 40.2275 38.8384 39.7462 38.7696C39.4563 38.5541 39.3723 38.4292 39.2579 38.086C39.2435 37.8463 39.2363 37.606 39.2335 37.3658C39.2309 37.2382 39.2284 37.1105 39.2258 36.979C39.2908 36.2537 39.6011 35.9259 40.3157 35.8831Z" fill="black"></path><path d="M16.9923 26.9532C17.2822 27.1688 17.3662 27.2937 17.4806 27.6368C17.4949 27.8766 17.5022 28.1169 17.505 28.3571C17.5075 28.4847 17.51 28.6123 17.5126 28.7439C17.4705 29.2142 17.3209 29.4567 16.9923 29.7853C16.3197 29.8625 16.3197 29.8625 15.9452 29.5964C15.6384 29.1834 15.6502 28.8707 15.6617 28.3693C15.6598 28.2871 15.658 28.2049 15.656 28.1202C15.6594 27.6906 15.6823 27.4957 15.9459 27.1428C16.3452 26.8573 16.5109 26.8845 16.9923 26.9532Z" fill="black"></path><path d="M10.254 26.9532C10.5439 27.1688 10.6279 27.2937 10.7423 27.6368C10.7566 27.8766 10.7639 28.1169 10.7667 28.3571C10.7692 28.4847 10.7717 28.6123 10.7743 28.7439C10.7322 29.2142 10.5826 29.4567 10.254 29.7853C9.58144 29.8625 9.58144 29.8625 9.20688 29.5964C8.90015 29.1834 8.91193 28.8707 8.92345 28.3693C8.92156 28.2871 8.91967 28.2049 8.91772 28.1202C8.92111 27.6906 8.94401 27.4957 9.20764 27.1428C9.60695 26.8573 9.77262 26.8845 10.254 26.9532Z" fill="black"></path><path d="M40.3157 24.6526C40.6675 24.7432 40.801 24.9063 41.0157 25.1954C41.086 25.5067 41.084 25.8052 41.0767 26.1232C41.0796 26.2465 41.0796 26.2465 41.0824 26.3723C41.0791 26.8018 41.0562 26.9967 40.7925 27.3496C40.3932 27.6351 40.2275 27.6079 39.7462 27.5392C39.4563 27.3236 39.3723 27.1987 39.2579 26.8556C39.2435 26.6158 39.2363 26.3756 39.2335 26.1354C39.2309 26.0077 39.2284 25.8801 39.2258 25.7486C39.2908 25.0232 39.6011 24.6954 40.3157 24.6526Z" fill="black"></path><path d="M40.3157 13.4221C40.6675 13.5128 40.801 13.6758 41.0157 13.965C41.086 14.2763 41.084 14.5747 41.0767 14.8927C41.0796 15.016 41.0796 15.016 41.0824 15.1418C41.0791 15.5713 41.0562 15.7662 40.7925 16.1191C40.3932 16.4047 40.2275 16.3775 39.7462 16.3087C39.4563 16.0931 39.3723 15.9683 39.2579 15.6251C39.2435 15.3853 39.2363 15.1451 39.2335 14.9049C39.2309 14.7772 39.2284 14.6496 39.2258 14.5181C39.2908 13.7927 39.6011 13.465 40.3157 13.4221Z" fill="black"></path></g><defs><clipPath id="clip0_1964_1722"><rect width="50" height="50" fill="white"></rect></clipPath></defs></svg>