<svg xmlns="http://www.w3.org/2000/svg" width="60" height="60" viewBox="0 0 60 60" fill="none"><path d="M7.30024 1.81542C7.47929 1.81488 7.65833 1.81413 7.83737 1.8132C8.32635 1.81125 8.81529 1.81221 9.30426 1.81366C9.83278 1.81473 10.3613 1.81309 10.8898 1.8118C11.924 1.80972 12.9581 1.81016 13.9923 1.81152C14.833 1.81258 15.6737 1.81272 16.5144 1.81221C16.6342 1.81214 16.754 1.81207 16.8774 1.812C17.1208 1.81185 17.3641 1.81169 17.6075 1.81154C19.888 1.81021 22.1686 1.81174 24.4491 1.81426C26.4046 1.81635 28.3601 1.81599 30.3156 1.81383C32.5882 1.81132 34.8607 1.81033 37.1332 1.81177C37.3757 1.81192 37.6182 1.81207 37.8606 1.81221C37.9799 1.81229 38.0992 1.81236 38.2221 1.81243C39.0615 1.81284 39.9009 1.81216 40.7403 1.81105C41.7637 1.80974 42.787 1.8101 43.8104 1.81259C44.3323 1.81382 44.8541 1.81431 45.3759 1.81275C45.8542 1.81135 46.3324 1.81213 46.8106 1.81462C46.9831 1.81514 47.1555 1.81488 47.328 1.81374C48.8724 1.8043 50.0729 2.07756 51.2109 3.164C52.2632 4.2663 52.5529 5.37094 52.524 6.85701C52.5176 7.07137 52.509 7.28567 52.5 7.49994C52.6289 7.4945 52.7577 7.48906 52.8905 7.48346C54.3354 7.44039 55.4496 7.59379 56.5938 8.55783C57.5984 9.51686 58.1317 10.5649 58.184 11.9649C58.1866 12.2852 58.1866 12.6049 58.1845 12.9252C58.1851 13.1042 58.1858 13.2833 58.1867 13.4623C58.1887 13.9513 58.1877 14.4402 58.1863 14.9292C58.1852 15.4577 58.1869 15.9862 58.1881 16.5147C58.1902 17.5489 58.1898 18.583 58.1884 19.6172C58.1874 20.4579 58.1872 21.2986 58.1877 22.1393C58.1878 22.2591 58.1879 22.3789 58.1879 22.5023C58.1881 22.7457 58.1882 22.9891 58.1884 23.2324C58.1897 25.513 58.1882 27.7935 58.1857 30.074C58.1836 32.0295 58.184 33.9851 58.1861 35.9406C58.1886 38.2131 58.1896 40.4856 58.1882 42.7582C58.188 43.0006 58.1879 43.2431 58.1877 43.4856C58.1876 43.6645 58.1876 43.6645 58.1875 43.847C58.1871 44.6865 58.1878 45.5259 58.1889 46.3653C58.1902 47.3886 58.1898 48.412 58.1874 49.4354C58.1861 49.9572 58.1856 50.479 58.1872 51.0009C58.1886 51.4791 58.1878 51.9573 58.1853 52.4356C58.1848 52.608 58.1851 52.7805 58.1862 52.9529C58.1956 54.4973 57.9224 55.6978 56.8359 56.8359C55.6177 57.9989 54.3356 58.1953 52.6998 58.1845C52.5207 58.185 52.3417 58.1858 52.1626 58.1867C51.6737 58.1886 51.1847 58.1877 50.6957 58.1862C50.1672 58.1852 49.6387 58.1868 49.1102 58.1881C48.076 58.1902 47.0419 58.1897 46.0077 58.1884C45.167 58.1873 44.3263 58.1872 43.4856 58.1877C43.3658 58.1877 43.246 58.1878 43.1226 58.1879C42.8792 58.188 42.6359 58.1882 42.3925 58.1883C40.112 58.1897 37.8314 58.1881 35.5509 58.1856C33.5954 58.1835 31.6399 58.1839 29.6844 58.1861C27.4118 58.1886 25.1393 58.1895 22.8668 58.1881C22.6243 58.188 22.3818 58.1878 22.1394 58.1877C22.0201 58.1876 21.9008 58.1875 21.7779 58.1874C20.9385 58.187 20.0991 58.1877 19.2597 58.1888C18.2363 58.1901 17.213 58.1898 16.1896 58.1873C15.6677 58.1861 15.1459 58.1856 14.6241 58.1871C14.1458 58.1885 13.6676 58.1877 13.1894 58.1853C13.0169 58.1847 12.8445 58.185 12.672 58.1861C11.1276 58.1956 9.92714 57.9223 8.78906 56.8359C7.73678 55.7336 7.44714 54.6289 7.476 53.1429C7.48239 52.9285 7.49096 52.7142 7.5 52.4999C7.37115 52.5054 7.24229 52.5108 7.10953 52.5164C5.66458 52.5595 4.55038 52.4061 3.40622 51.442C2.40161 50.483 1.86833 49.435 1.81601 48.035C1.81345 47.7146 1.81336 47.395 1.81548 47.0747C1.81494 46.8957 1.81419 46.7166 1.81326 46.5376C1.81131 46.0486 1.81227 45.5597 1.81372 45.0707C1.81479 44.5422 1.81315 44.0137 1.81186 43.4851C1.80978 42.451 1.81022 41.4168 1.81158 40.3827C1.81264 39.542 1.81279 38.7013 1.81228 37.8606C1.8122 37.7408 1.81213 37.621 1.81206 37.4976C1.81191 37.2542 1.81176 37.0108 1.8116 36.7674C1.81027 34.4869 1.8118 32.2064 1.81432 29.9259C1.81641 27.9703 1.81605 26.0148 1.81389 24.0593C1.81138 21.7868 1.81039 19.5142 1.81183 17.2417C1.81198 16.9992 1.81213 16.7568 1.81228 16.5143C1.81235 16.395 1.81242 16.2757 1.81249 16.1528C1.8129 15.3134 1.81222 14.474 1.81111 13.6346C1.8098 12.6112 1.81016 11.5879 1.81265 10.5645C1.81388 10.0427 1.81437 9.52086 1.81282 8.99902C1.81141 8.52076 1.8122 8.04256 1.81468 7.56431C1.8152 7.39186 1.81494 7.2194 1.8138 7.04696C1.80436 5.50255 2.07762 4.30208 3.16406 3.164C4.38231 2.00102 5.66439 1.80458 7.30024 1.81542ZM4.42383 4.8559C3.38513 6.13054 3.75 7.80866 3.75 9.37494C19.2188 9.37494 34.6875 9.37494 50.625 9.37494C50.7989 6.958 50.7989 6.958 49.9219 4.80463C49.0741 3.96294 48.2755 3.73566 47.0847 3.73487C46.8681 3.7343 46.8681 3.7343 46.647 3.73372C46.4877 3.73389 46.3284 3.73408 46.169 3.73427C45.999 3.73405 45.829 3.73378 45.659 3.73347C45.1923 3.73275 44.7256 3.73277 44.259 3.7329C43.7554 3.73293 43.2519 3.73228 42.7484 3.73172C41.7621 3.73075 40.7758 3.73043 39.7895 3.73036C38.9878 3.73031 38.1861 3.73007 37.3844 3.7297C35.1112 3.72866 32.838 3.72812 30.5648 3.72821C30.381 3.72822 30.381 3.72822 30.1935 3.72823C30.0708 3.72823 29.9481 3.72823 29.8217 3.72824C27.8333 3.72829 25.8448 3.72717 23.8563 3.72551C21.8145 3.72383 19.7726 3.72302 17.7307 3.72312C16.5844 3.72316 15.4382 3.72284 14.2919 3.72158C13.3159 3.72051 12.3399 3.72026 11.364 3.72105C10.8662 3.72143 10.3683 3.72144 9.8705 3.72042C9.41444 3.7195 8.95839 3.71967 8.50233 3.72069C8.33768 3.72087 8.17302 3.72066 8.00836 3.72001C6.59698 3.71477 5.425 3.74617 4.42383 4.8559ZM52.5 9.37494C52.5 11.2312 52.5 13.0874 52.5 14.9999C53.7375 14.9999 54.975 14.9999 56.25 14.9999C56.2548 14.5576 56.2597 14.1153 56.2646 13.6596C56.2668 13.5224 56.2689 13.3851 56.2711 13.2438C56.2766 12.1982 56.2334 11.2646 55.5469 10.4296C54.6113 9.50072 53.8163 9.37494 52.5 9.37494ZM3.75 11.2499C3.74517 17.261 3.74033 23.2721 3.73535 29.4653C3.73322 31.3645 3.73109 33.2637 3.72889 35.2205C3.7281 36.9204 3.7281 36.9204 3.72763 38.6202C3.72741 39.3784 3.72655 40.1366 3.72526 40.8947C3.72376 41.7692 3.72309 42.6436 3.72341 43.518C3.72355 43.9653 3.72333 44.4126 3.72206 44.8599C3.72071 45.3391 3.72118 45.8183 3.72182 46.2976C3.72113 46.4367 3.72045 46.5759 3.71975 46.7192C3.72394 47.8827 3.77871 48.9007 4.64539 49.7611C5.44436 50.4819 6.2244 50.6393 7.29029 50.64C7.50695 50.6406 7.50695 50.6406 7.72799 50.6412C7.88731 50.641 8.04664 50.6408 8.20597 50.6406C8.37597 50.6408 8.54597 50.6411 8.71598 50.6414C9.18267 50.6421 9.64936 50.6421 10.116 50.642C10.6196 50.642 11.1231 50.6426 11.6266 50.6432C12.6129 50.6441 13.5992 50.6445 14.5855 50.6445C15.3872 50.6446 16.1889 50.6448 16.9907 50.6452C19.2638 50.6462 21.537 50.6468 23.8102 50.6467C23.994 50.6467 23.994 50.6467 24.1815 50.6467C24.3042 50.6467 24.4269 50.6466 24.5533 50.6466C26.5418 50.6466 28.5302 50.6477 30.5187 50.6494C32.5605 50.6511 34.6024 50.6519 36.6443 50.6518C37.7906 50.6517 38.9368 50.652 40.0831 50.6533C41.0591 50.6544 42.0351 50.6546 43.011 50.6538C43.5089 50.6534 44.0067 50.6534 44.5045 50.6545C44.9606 50.6554 45.4166 50.6552 45.8727 50.6542C46.0373 50.654 46.202 50.6542 46.3666 50.6549C48.0783 50.6752 48.0783 50.6752 49.5703 49.9218C50.5957 48.889 50.643 47.8657 50.6383 46.4632C50.6383 46.2608 50.6383 46.2608 50.6384 46.0542C50.6383 45.6091 50.6374 45.164 50.6364 44.7189C50.6362 44.4098 50.6361 44.1008 50.6359 43.7918C50.6356 43.0622 50.6346 42.3326 50.6334 41.603C50.6321 40.7721 50.6315 39.9411 50.6309 39.1102C50.6297 37.4016 50.6276 35.6929 50.625 33.9843C50.0353 34.4758 49.4929 34.9908 48.962 35.5447C48.7963 35.7163 48.6305 35.8877 48.4647 36.0592C48.3344 36.1942 48.3344 36.1942 48.2015 36.332C47.6361 36.9162 47.0662 37.496 46.4971 38.0765C46.0004 38.5837 45.5053 39.0923 45.0138 39.6045C40.9585 43.8253 40.9585 43.8253 38.551 44.4349C37.9041 44.614 37.2898 44.8816 36.6682 45.1327C36.4152 45.2309 36.162 45.3285 35.9086 45.4257C35.5243 45.5731 35.1403 45.7211 34.7569 45.8708C34.3765 46.0194 33.9954 46.1658 33.614 46.3119C33.4999 46.3569 33.3858 46.4019 33.2682 46.4483C32.6165 46.695 32.1039 46.8218 31.4063 46.7578C31.1506 46.5928 31.084 46.4817 30.9755 46.2025C30.9225 45.8326 31.0196 45.5948 31.1421 45.2412C31.1678 45.1671 31.1934 45.093 31.2198 45.0167C31.6662 43.7492 32.1583 42.4977 32.6434 41.2446C32.7912 40.8629 32.9382 40.4808 33.085 40.0986C33.227 39.7292 33.3698 39.3601 33.5124 38.9909C33.5646 38.8551 33.6167 38.7194 33.6704 38.5795C33.7449 38.3875 33.7449 38.3875 33.821 38.1917C33.864 38.0804 33.907 37.9691 33.9513 37.8544C34.0009 37.7374 34.0505 37.6205 34.1016 37.4999C34.1532 37.3605 34.2048 37.2212 34.258 37.0775C34.6242 36.3627 35.2774 35.8594 35.8684 35.333C36.272 34.9735 36.6712 34.6093 37.0712 34.2459C37.1566 34.1686 37.242 34.0913 37.3299 34.0117C38.4357 33.0091 39.5188 31.9823 40.6026 30.9561C41.6534 29.9613 42.7095 28.9751 43.7914 28.014C44.6541 27.2475 45.4976 26.4645 46.3248 25.6599C46.8349 25.1652 47.3529 24.6902 47.9006 24.2372C49.2863 23.0041 49.5739 22.3069 50.625 20.5078C50.625 17.4527 50.625 14.3976 50.625 11.2499C35.1562 11.2499 19.6875 11.2499 3.75 11.2499ZM52.5 16.8749C52.1431 18.6953 52.1431 18.6953 52.6599 20.4109C53.6262 21.6874 54.8936 22.7834 56.1328 23.789C56.1715 23.789 56.2102 23.789 56.25 23.789C56.25 21.5074 56.25 19.2257 56.25 16.8749C55.0125 16.8749 53.775 16.8749 52.5 16.8749ZM51.4405 22.3743C51.338 22.4774 51.2355 22.5805 51.1299 22.6867C51.0755 22.7413 51.021 22.796 50.9649 22.8522C50.7903 23.0275 50.6161 23.2032 50.4419 23.3788C50.3239 23.4974 50.2059 23.616 50.0878 23.7345C49.7978 24.0258 49.5082 24.3175 49.2188 24.6093C49.6833 25.1661 50.1677 25.6917 50.6827 26.2019C50.7519 26.2709 50.8211 26.34 50.8925 26.4112C51.1107 26.6287 51.3293 26.8458 51.5479 27.0629C51.6971 27.2116 51.8463 27.3603 51.9955 27.509C52.3587 27.8709 52.7222 28.2324 53.0859 28.5937C53.5274 28.2206 53.9637 27.8482 54.3709 27.4374C54.4475 27.3603 54.5242 27.2833 54.6032 27.2039C54.6802 27.126 54.7571 27.048 54.8364 26.9677C54.9166 26.887 54.9967 26.8064 55.0793 26.7233C55.2745 26.5267 55.4693 26.3298 55.6641 26.1328C55.2001 25.5772 54.7169 25.051 54.2043 24.5402C54.1353 24.4711 54.0663 24.4021 53.9953 24.3309C53.8512 24.1867 53.7069 24.0426 53.5625 23.8987C53.3404 23.6773 53.119 23.4552 52.8976 23.233C52.757 23.0926 52.6164 22.9521 52.4757 22.8117C52.4093 22.745 52.3429 22.6784 52.2745 22.6097C51.8833 22.1171 51.8833 22.1171 51.4405 22.3743ZM47.4944 26.422C47.4134 26.5032 47.3324 26.5844 47.2489 26.6681C47.1559 26.7608 47.0629 26.8535 46.9671 26.949C46.8649 27.052 46.7628 27.155 46.6575 27.2611C46.55 27.3686 46.4426 27.476 46.3318 27.5867C46.0364 27.8821 45.7417 28.1781 45.4472 28.4743C45.1395 28.7835 44.8311 29.092 44.5228 29.4005C43.9388 29.9853 43.3554 30.5706 42.7723 31.1561C42.1084 31.8226 41.4439 32.4883 40.7794 33.1541C39.4121 34.5238 38.0456 35.8944 36.6797 37.2656C36.7894 37.3951 36.8993 37.5245 37.0093 37.6537C37.0705 37.7258 37.1316 37.7979 37.1947 37.8721C37.3678 38.0688 37.5469 38.2545 37.7344 38.4374C38.119 38.2691 38.3731 38.062 38.6688 37.7656C38.7602 37.6745 38.8515 37.5835 38.9456 37.4897C39.0448 37.3897 39.1439 37.2898 39.246 37.1868C39.3512 37.0816 39.4565 36.9764 39.5649 36.868C39.853 36.58 40.1404 36.2912 40.4277 36.0023C40.7282 35.7003 41.0294 35.399 41.3304 35.0976C41.9003 34.527 42.4696 33.9558 43.0387 33.3844C43.6866 32.7338 44.3353 32.0839 44.9839 31.434C46.3182 30.0974 47.6515 28.7599 48.9844 27.4218C48.8747 27.2923 48.7648 27.1629 48.6548 27.0336C48.5936 26.9616 48.5324 26.8895 48.4694 26.8153C48.2109 26.5213 48.2109 26.5213 47.9297 26.2499C47.6809 26.2245 47.6809 26.2245 47.4944 26.422ZM53.8119 30.1075C52.1846 31.8078 52.1382 33.7688 52.1361 35.993C52.136 36.0843 52.1359 36.1757 52.1357 36.2698C52.1372 37.413 52.1695 38.5545 52.2127 39.6967C52.26 40.9667 52.2775 42.2372 52.2972 43.5078C52.3002 43.6966 52.3032 43.8854 52.3063 44.0742C52.3077 44.1664 52.3092 44.2586 52.3107 44.3537C52.3199 44.8963 52.3337 45.4386 52.352 45.9811C52.3632 46.3181 52.3726 46.6552 52.3818 46.9923C52.3889 47.2203 52.3985 47.4482 52.4082 47.6762C52.4415 48.9515 52.1624 49.9801 51.3336 50.9683C50.2765 52.0375 49.1772 52.4195 47.6974 52.4312C47.4715 52.4303 47.4715 52.4304 47.2411 52.4295C47.0773 52.4301 46.9135 52.4309 46.7497 52.4318C46.3018 52.4339 45.8539 52.4339 45.406 52.4335C44.9221 52.4334 44.4383 52.4353 43.9545 52.437C43.117 52.4397 42.2794 52.4411 41.4419 52.4416C40.231 52.4424 39.02 52.4451 37.8091 52.4482C35.8443 52.4533 33.8795 52.4568 31.9147 52.4593C30.0065 52.4618 28.0982 52.465 26.1899 52.4692C26.0723 52.4694 25.9546 52.4697 25.8333 52.47C25.2429 52.4713 24.6525 52.4726 24.0621 52.4739C19.1664 52.4848 14.2707 52.4932 9.375 52.4999C9.37428 52.6485 9.37357 52.797 9.37283 52.9501C9.37242 53.0337 9.37202 53.1172 9.3716 53.2033C9.38412 54.066 9.65291 54.7731 10.2704 55.3861C11.0694 56.1069 11.8494 56.2643 12.9153 56.265C13.1319 56.2656 13.1319 56.2656 13.353 56.2662C13.5123 56.266 13.6716 56.2658 13.831 56.2656C14.001 56.2658 14.171 56.2661 14.341 56.2664C14.8077 56.2671 15.2744 56.2671 15.741 56.267C16.2446 56.267 16.7481 56.2676 17.2516 56.2682C18.2379 56.2691 19.2242 56.2695 20.2105 56.2695C21.0122 56.2696 21.8139 56.2698 22.6157 56.2702C24.8888 56.2712 27.162 56.2718 29.4352 56.2717C29.619 56.2717 29.619 56.2717 29.8065 56.2717C29.9292 56.2717 30.0519 56.2716 30.1783 56.2716C32.1668 56.2716 34.1552 56.2727 36.1437 56.2744C38.1855 56.2761 40.2274 56.2769 42.2693 56.2768C43.4156 56.2767 44.5618 56.277 45.7081 56.2783C46.6841 56.2794 47.6601 56.2796 48.636 56.2788C49.1339 56.2784 49.6317 56.2784 50.1295 56.2795C50.5856 56.2804 51.0416 56.2802 51.4977 56.2792C51.6623 56.279 51.827 56.2792 51.9916 56.2799C53.7033 56.3002 53.7033 56.3002 55.1953 55.5468C56.1284 54.607 56.2687 53.6874 56.2641 52.4008C56.2642 52.2978 56.2643 52.1948 56.2644 52.0887C56.2646 51.7443 56.2639 51.3999 56.2633 51.0555C56.2633 50.8083 56.2633 50.5612 56.2634 50.314C56.2634 49.6434 56.2627 48.9728 56.2619 48.3021C56.2612 47.6012 56.2611 46.9002 56.2609 46.1992C56.2606 44.8719 56.2596 43.5447 56.2584 42.2174C56.2571 40.7063 56.2565 39.1952 56.2559 37.6842C56.2547 34.5759 56.2526 31.4676 56.25 28.3593C55.4855 28.3593 54.3284 29.6187 53.8119 30.1075ZM50.2042 29.0001C50.123 29.0813 50.0419 29.1626 49.9583 29.2463C49.8655 29.3389 49.7726 29.4316 49.677 29.5271C49.5744 29.6301 49.4718 29.7331 49.3661 29.8393C49.2587 29.9467 49.1512 30.0541 49.0405 30.1648C48.7449 30.4604 48.4496 30.7564 48.1544 31.0524C47.8462 31.3614 47.5376 31.67 47.2291 31.9787C46.6445 32.5636 46.0602 33.1489 45.476 33.7342C44.8111 34.4005 44.1459 35.0663 43.4806 35.7322C42.1117 37.1023 40.7432 38.4729 39.375 39.8437C39.5519 40.2164 39.7359 40.4646 40.0342 40.7519C40.1082 40.8238 40.1822 40.8957 40.2585 40.9698C40.315 41.0236 40.3715 41.0773 40.4297 41.1328C41.0843 40.5877 41.689 40.0066 42.2898 39.4031C42.3905 39.3025 42.4912 39.2018 42.5949 39.098C42.8687 38.8242 43.1422 38.5501 43.4156 38.2759C43.7022 37.9886 43.9892 37.7016 44.2761 37.4145C44.8183 36.8719 45.3603 36.329 45.9021 35.786C46.5194 35.1674 47.137 34.5491 47.7547 33.9308C49.0244 32.66 50.2936 31.3887 51.5625 30.1171C51.3867 29.7476 51.2045 29.496 50.9106 29.2089C50.8017 29.1011 50.8017 29.1011 50.6905 28.991C50.4461 28.7709 50.4461 28.7709 50.2042 29.0001ZM35.5078 39.1406C35.4061 39.384 35.3064 39.6283 35.2075 39.873C35.1518 40.0089 35.096 40.1449 35.0386 40.285C34.9188 40.6741 34.9025 40.7682 35.0391 41.1328C35.2902 41.4651 35.5884 41.7526 35.8813 42.0483C35.9975 42.1723 35.9975 42.1723 36.116 42.2989C36.5594 42.7721 36.5594 42.7721 37.1663 42.8997C37.2764 42.858 37.3865 42.8163 37.5 42.7734C37.6073 42.7358 37.7145 42.6982 37.825 42.6594C37.9256 42.6172 38.0262 42.5751 38.1299 42.5317C38.2323 42.4892 38.3347 42.4468 38.4402 42.403C38.5549 42.3543 38.5549 42.3543 38.6719 42.3046C38.0744 41.5823 37.4242 40.9223 36.7603 40.2612C36.6526 40.1531 36.545 40.045 36.4341 39.9336C36.3319 39.8316 36.2297 39.7296 36.1244 39.6244C35.9848 39.485 35.9848 39.485 35.8423 39.3427C35.6602 39.1273 35.6602 39.1273 35.5078 39.1406ZM34.1016 43.0078C33.8251 43.5074 33.8251 43.5074 33.75 44.0624C34.2514 44.0137 34.2514 44.0137 34.6729 43.7621C34.7164 43.7066 34.7599 43.651 34.8047 43.5937C34.5727 43.4003 34.3406 43.207 34.1016 43.0078Z" fill="#EBDCF9"></path><path d="M8.62701 14.9405C8.76108 14.9392 8.89515 14.9379 9.03328 14.9365C9.25319 14.9379 9.25319 14.9379 9.47754 14.9394C9.63387 14.9388 9.79019 14.9379 9.94652 14.9369C10.3707 14.9348 10.7949 14.9356 11.2191 14.9371C11.663 14.9383 12.107 14.9372 12.551 14.9364C13.2965 14.9356 14.042 14.9367 14.7876 14.9389C15.6495 14.9415 16.5114 14.9407 17.3733 14.9381C18.1134 14.936 18.8534 14.9357 19.5935 14.9369C20.0355 14.9376 20.4775 14.9377 20.9195 14.9362C21.335 14.9348 21.7505 14.9357 22.166 14.9385C22.3913 14.9394 22.6165 14.938 22.8417 14.9365C23.0428 14.9385 23.0428 14.9385 23.248 14.9405C23.3645 14.9407 23.481 14.9409 23.601 14.9411C23.9951 15.0172 24.134 15.1526 24.375 15.4688C24.4212 15.8143 24.4391 16.1159 24.4357 16.4612C24.4365 16.5611 24.4373 16.661 24.4381 16.764C24.4402 17.094 24.4388 17.4239 24.4373 17.754C24.4376 17.9834 24.438 18.2128 24.4386 18.4422C24.4393 18.9229 24.4383 19.4036 24.4361 19.8844C24.4334 20.5007 24.435 21.117 24.4378 21.7333C24.4395 22.207 24.4389 22.6807 24.4377 23.1545C24.4374 23.3817 24.4378 23.609 24.4389 23.8362C24.4401 24.1538 24.4383 24.4713 24.4357 24.7889C24.4366 24.8829 24.4376 24.9769 24.4385 25.0737C24.4325 25.4679 24.4209 25.7211 24.178 26.0397C23.8415 26.3002 23.6702 26.3089 23.248 26.3096C23.1139 26.3109 22.9799 26.3122 22.8417 26.3136C22.6951 26.3126 22.5485 26.3117 22.3975 26.3107C22.2411 26.3113 22.0848 26.3122 21.9285 26.3132C21.5043 26.3153 21.0801 26.3145 20.6559 26.313C20.212 26.3118 19.768 26.3129 19.324 26.3137C18.5785 26.3145 17.833 26.3134 17.0874 26.3112C16.2255 26.3086 15.3636 26.3094 14.5017 26.312C13.7616 26.3141 13.0216 26.3144 12.2815 26.3132C11.8395 26.3125 11.3975 26.3124 10.9555 26.3139C10.54 26.3153 10.1245 26.3144 9.70897 26.3116C9.48374 26.3107 9.2585 26.3121 9.03328 26.3136C8.83218 26.3116 8.83218 26.3116 8.62701 26.3096C8.51053 26.3094 8.39404 26.3092 8.27402 26.309C7.8799 26.2329 7.74098 26.0975 7.5 25.7813C7.45376 25.4358 7.43586 25.1342 7.43935 24.7889C7.43852 24.689 7.4377 24.5891 7.43686 24.4861C7.43479 24.1561 7.43616 23.8262 7.43774 23.4961C7.43743 23.2667 7.43697 23.0373 7.43638 22.8079C7.43569 22.3272 7.4367 21.8464 7.43889 21.3657C7.44156 20.7494 7.44002 20.1331 7.43721 19.5168C7.43552 19.043 7.43606 18.5694 7.43727 18.0956C7.43759 17.8684 7.4372 17.6411 7.43611 17.4139C7.43492 17.0963 7.43673 16.7788 7.43935 16.4612C7.4384 16.3672 7.43745 16.2732 7.43647 16.1764C7.44248 15.7822 7.45411 15.529 7.69695 15.2103C8.03355 14.9499 8.2048 14.9412 8.62701 14.9405ZM9.375 16.875C9.375 19.35 9.375 21.825 9.375 24.375C13.7062 24.375 18.0375 24.375 22.5 24.375C22.5 21.9 22.5 19.425 22.5 16.875C18.1687 16.875 13.8375 16.875 9.375 16.875Z" fill="#EBDCF9"></path><path d="M7.5 33.75C15.5437 33.75 23.5875 33.75 31.875 33.75C31.875 34.3688 31.875 34.9875 31.875 35.625C23.8312 35.625 15.7875 35.625 7.5 35.625C7.5 35.0063 7.5 34.3875 7.5 33.75Z" fill="#EBDCF9"></path><path d="M11.25 30C19.2937 30 27.3375 30 35.625 30C35.625 30.6188 35.625 31.2375 35.625 31.875C27.5812 31.875 19.5375 31.875 11.25 31.875C11.25 31.2563 11.25 30.6375 11.25 30Z" fill="#EBDCF9"></path><path d="M7.5 45C14.3063 45 21.1125 45 28.125 45C28.125 45.6188 28.125 46.2375 28.125 46.875C21.3187 46.875 14.5125 46.875 7.5 46.875C7.5 46.2563 7.5 45.6375 7.5 45Z" fill="#EBDCF9"></path><path d="M7.5 41.25C14.3063 41.25 21.1125 41.25 28.125 41.25C28.125 41.8688 28.125 42.4875 28.125 43.125C21.3187 43.125 14.5125 43.125 7.5 43.125C7.5 42.5063 7.5 41.8875 7.5 41.25Z" fill="#EBDCF9"></path><path d="M7.5 37.5C14.3063 37.5 21.1125 37.5 28.125 37.5C28.125 38.1188 28.125 38.7375 28.125 39.375C21.3187 39.375 14.5125 39.375 7.5 39.375C7.5 38.7563 7.5 38.1375 7.5 37.5Z" fill="#EBDCF9"></path><path d="M28.125 19.6875C33.6937 19.6875 39.2625 19.6875 45 19.6875C45 20.3063 45 20.925 45 21.5625C39.4312 21.5625 33.8625 21.5625 28.125 21.5625C28.125 20.9438 28.125 20.325 28.125 19.6875Z" fill="#EBDCF9"></path><path d="M31.875 15.9375C36.825 15.9375 41.775 15.9375 46.875 15.9375C46.875 16.5563 46.875 17.175 46.875 17.8125C41.925 17.8125 36.975 17.8125 31.875 17.8125C31.875 17.1938 31.875 16.575 31.875 15.9375Z" fill="#EBDCF9"></path><path d="M28.125 23.4375C32.4562 23.4375 36.7875 23.4375 41.25 23.4375C41.25 24.0563 41.25 24.675 41.25 25.3125C36.9187 25.3125 32.5875 25.3125 28.125 25.3125C28.125 24.6938 28.125 24.075 28.125 23.4375Z" fill="#EBDCF9"></path><path d="M7.5 30C8.11875 30 8.7375 30 9.375 30C9.375 30.6188 9.375 31.2375 9.375 31.875C8.75625 31.875 8.1375 31.875 7.5 31.875C7.5 31.2563 7.5 30.6375 7.5 30Z" fill="#EBDCF9"></path><path d="M28.125 15.9375C28.7438 15.9375 29.3625 15.9375 30 15.9375C30 16.5563 30 17.175 30 17.8125C29.3813 17.8125 28.7625 17.8125 28.125 17.8125C28.125 17.1938 28.125 16.575 28.125 15.9375Z" fill="#EBDCF9"></path><path d="M15 5.625C15.6188 5.625 16.2375 5.625 16.875 5.625C16.875 6.24375 16.875 6.8625 16.875 7.5C16.2563 7.5 15.6375 7.5 15 7.5C15 6.88125 15 6.2625 15 5.625Z" fill="#EBDCF9"></path><path d="M11.25 5.625C11.8688 5.625 12.4875 5.625 13.125 5.625C13.125 6.24375 13.125 6.8625 13.125 7.5C12.5063 7.5 11.8875 7.5 11.25 7.5C11.25 6.88125 11.25 6.2625 11.25 5.625Z" fill="#EBDCF9"></path><path d="M7.5 5.625C8.11875 5.625 8.7375 5.625 9.375 5.625C9.375 6.24375 9.375 6.8625 9.375 7.5C8.75625 7.5 8.1375 7.5 7.5 7.5C7.5 6.88125 7.5 6.2625 7.5 5.625Z" fill="#EBDCF9"></path></svg>