<svg xmlns="http://www.w3.org/2000/svg" width="20" height="20" viewBox="0 0 20 20" fill="none"><g clip-path="url(#clip0_1896_146)"><path d="M17.9165 3.33325H16.111V4.44436H17.7777V16.6666H2.22209V4.44436H3.88876V3.33325H2.0832C1.95334 3.33542 1.82517 3.36316 1.70602 3.41487C1.58687 3.46658 1.47908 3.54126 1.38879 3.63464C1.29851 3.72801 1.22751 3.83826 1.17984 3.95909C1.13217 4.07991 1.10878 4.20894 1.11098 4.33881V16.7721C1.10878 16.902 1.13217 17.031 1.17984 17.1519C1.22751 17.2727 1.29851 17.3829 1.38879 17.4763C1.47908 17.5697 1.58687 17.6444 1.70602 17.6961C1.82517 17.7478 1.95334 17.7755 2.0832 17.7777H17.9165C18.0464 17.7755 18.1746 17.7478 18.2937 17.6961C18.4129 17.6444 18.5207 17.5697 18.6109 17.4763C18.7012 17.3829 18.7722 17.2727 18.8199 17.1519C18.8676 17.031 18.891 16.902 18.8888 16.7721V4.33881C18.891 4.20894 18.8676 4.07991 18.8199 3.95909C18.7722 3.83826 18.7012 3.72801 18.6109 3.63464C18.5207 3.54126 18.4129 3.46658 18.2937 3.41487C18.1746 3.36316 18.0464 3.33542 17.9165 3.33325Z" fill="white"></path><path d="M4.44434 7.77783H5.55545V8.88894H4.44434V7.77783Z" fill="white"></path><path d="M7.77783 7.77783H8.88894V8.88894H7.77783V7.77783Z" fill="white"></path><path d="M11.1113 7.77783H12.2224V8.88894H11.1113V7.77783Z" fill="white"></path><path d="M14.4443 7.77783H15.5554V8.88894H14.4443V7.77783Z" fill="white"></path><path d="M4.44434 10.5557H5.55545V11.6668H4.44434V10.5557Z" fill="white"></path><path d="M7.77783 10.5557H8.88894V11.6668H7.77783V10.5557Z" fill="white"></path><path d="M11.1113 10.5557H12.2224V11.6668H11.1113V10.5557Z" fill="white"></path><path d="M14.4443 10.5557H15.5554V11.6668H14.4443V10.5557Z" fill="white"></path><path d="M4.44434 13.3333H5.55545V14.4444H4.44434V13.3333Z" fill="white"></path><path d="M7.77783 13.3333H8.88894V14.4444H7.77783V13.3333Z" fill="white"></path><path d="M11.1113 13.3333H12.2224V14.4444H11.1113V13.3333Z" fill="white"></path><path d="M14.4443 13.3333H15.5554V14.4444H14.4443V13.3333Z" fill="white"></path><path d="M5.55556 5.55553C5.7029 5.55553 5.84421 5.497 5.94839 5.39281C6.05258 5.28862 6.11111 5.14732 6.11111 4.99997V1.66664C6.11111 1.5193 6.05258 1.37799 5.94839 1.2738C5.84421 1.16962 5.7029 1.11108 5.55556 1.11108C5.40821 1.11108 5.26691 1.16962 5.16272 1.2738C5.05853 1.37799 5 1.5193 5 1.66664V4.99997C5 5.14732 5.05853 5.28862 5.16272 5.39281C5.26691 5.497 5.40821 5.55553 5.55556 5.55553Z" fill="white"></path><path d="M14.4442 5.55553C14.5916 5.55553 14.7329 5.497 14.8371 5.39281C14.9413 5.28862 14.9998 5.14732 14.9998 4.99997V1.66664C14.9998 1.5193 14.9413 1.37799 14.8371 1.2738C14.7329 1.16962 14.5916 1.11108 14.4442 1.11108C14.2969 1.11108 14.1556 1.16962 14.0514 1.2738C13.9472 1.37799 13.8887 1.5193 13.8887 1.66664V4.99997C13.8887 5.14732 13.9472 5.28862 14.0514 5.39281C14.1556 5.497 14.2969 5.55553 14.4442 5.55553Z" fill="white"></path><path d="M7.22217 3.33325H12.7777V4.44436H7.22217V3.33325Z" fill="white"></path></g><defs><clipPath id="clip0_1896_146"><rect width="20" height="20" fill="white"></rect></clipPath></defs></svg>