<svg xmlns="http://www.w3.org/2000/svg" width="60" height="60" viewBox="0 0 60 60" fill="none"><path d="M32.9055 2.38659C32.9855 2.38568 33.0655 2.38477 33.1479 2.38382C33.4159 2.38149 33.6837 2.38334 33.9516 2.38518C34.1437 2.38439 34.3359 2.38334 34.528 2.38207C35.0498 2.3794 35.5715 2.38044 36.0933 2.38229C36.639 2.38377 37.1848 2.3824 37.7306 2.38148C38.6472 2.38041 39.5637 2.38182 40.4803 2.38461C41.5403 2.3878 42.6003 2.38677 43.6603 2.38354C44.5701 2.38088 45.4798 2.3805 46.3896 2.38204C46.9331 2.38295 47.4766 2.38307 48.0201 2.38114C48.5311 2.37945 49.0419 2.38062 49.5529 2.38401C49.7406 2.38478 49.9282 2.38456 50.1158 2.38327C50.3718 2.38167 50.6275 2.38367 50.8835 2.38659C51.0984 2.38693 51.0984 2.38693 51.3177 2.38726C51.6797 2.461 51.6797 2.461 51.9605 2.73496C52.1993 3.13139 52.2023 3.38679 52.1942 3.84757C52.1919 4.07472 52.1919 4.07472 52.1896 4.30647C52.1857 4.46524 52.1817 4.62401 52.1777 4.78278C52.1754 4.94383 52.1732 5.10489 52.1713 5.26595C52.1658 5.65917 52.1581 6.05223 52.1484 6.44537C52.3142 6.44219 52.3142 6.44219 52.4834 6.43894C52.7025 6.43646 52.7025 6.43646 52.9262 6.43393C53.0705 6.43181 53.2149 6.42968 53.3636 6.42749C54.6586 6.48192 55.643 7.19965 56.5137 8.10797C57.4379 9.24844 57.5568 10.6097 57.5555 12.0167C57.556 12.2012 57.556 12.2012 57.5566 12.3895C57.5576 12.8009 57.5577 13.2124 57.5579 13.6238C57.5585 13.9192 57.5591 14.2145 57.5597 14.5098C57.5612 15.3118 57.562 16.1137 57.5625 16.9157C57.5628 17.417 57.5633 17.9184 57.5639 18.4198C57.5653 19.8098 57.5665 21.1999 57.5669 22.5899C57.5669 22.6788 57.5669 22.7676 57.567 22.8592C57.567 22.9483 57.567 23.0374 57.567 23.1291C57.5671 23.3096 57.5671 23.4901 57.5672 23.6706C57.5672 23.7601 57.5672 23.8496 57.5673 23.9419C57.5677 25.3911 57.5698 26.8404 57.5725 28.2897C57.5753 29.78 57.5767 31.2703 57.5769 32.7606C57.577 33.5964 57.5777 34.4322 57.5798 35.268C57.5818 36.0547 57.582 36.8414 57.5809 37.6281C57.5809 37.916 57.5814 38.2039 57.5825 38.4918C57.5977 42.4812 57.5977 42.4812 56.3672 43.9454C55.3246 44.9827 54.1327 45.4841 52.6685 45.4829C52.5929 45.483 52.5173 45.4831 52.4394 45.4832C52.1869 45.4834 51.9345 45.4828 51.682 45.4821C51.5007 45.4821 51.3193 45.4821 51.138 45.4822C50.6463 45.4822 50.1546 45.4815 49.6629 45.4807C49.1488 45.48 48.6347 45.4799 48.1206 45.4798C47.1474 45.4794 46.1742 45.4784 45.2009 45.4773C44.0928 45.4759 42.9847 45.4753 41.8766 45.4747C39.5974 45.4735 37.3182 45.4714 35.039 45.4688C35.0709 45.5863 35.1027 45.7037 35.1355 45.8248C35.1778 45.9822 35.2202 46.1395 35.2625 46.2969C35.2834 46.374 35.3043 46.451 35.3259 46.5304C35.5274 47.2809 35.6834 48.0383 35.8301 48.8013C35.8559 48.9331 35.8817 49.0649 35.9083 49.2007C35.9707 49.5192 36.0325 49.8377 36.0937 50.1563C36.1675 50.1545 36.2413 50.1526 36.3174 50.1507C36.6554 50.1434 36.9934 50.1388 37.3315 50.1343C37.5057 50.1299 37.5057 50.1299 37.6833 50.1254C38.4867 50.1174 39.0855 50.166 39.722 50.701C39.7766 50.7678 39.8313 50.8346 39.8877 50.9034C39.9442 50.9695 40.0007 51.0357 40.0589 51.1039C40.3717 51.6182 40.3327 52.2249 40.3363 52.81C40.337 52.8954 40.3376 52.9807 40.3383 53.0687C40.3394 53.2488 40.3402 53.429 40.3406 53.6091C40.3418 53.8823 40.3454 54.1553 40.3491 54.4284C40.3499 54.6042 40.3505 54.7801 40.3509 54.956C40.3524 55.0364 40.3538 55.1169 40.3553 55.1998C40.3524 55.8465 40.2434 56.5306 39.7907 57.02C39.2728 57.4598 38.9814 57.5538 38.3148 57.5564C38.1637 57.5572 38.0125 57.558 37.8568 57.5589C37.6883 57.5592 37.5198 57.5596 37.3513 57.5599C37.1746 57.5606 36.9979 57.5614 36.8212 57.5622C36.3404 57.5642 35.8595 57.5655 35.3786 57.5664C35.0782 57.567 34.7778 57.5678 34.4775 57.5685C33.5378 57.5707 32.5981 57.5724 31.6584 57.5734C30.5734 57.5745 29.4885 57.5776 28.4035 57.5823C27.5651 57.5859 26.7268 57.5876 25.8884 57.588C25.3875 57.5883 24.8867 57.5893 24.3859 57.5923C23.9146 57.595 23.4433 57.5955 22.972 57.5943C22.7992 57.5942 22.6264 57.595 22.4536 57.5966C22.2173 57.5987 21.981 57.5975 21.7446 57.5963C21.6125 57.5966 21.4804 57.5968 21.3442 57.5971C20.7322 57.5006 20.374 57.2009 20.0024 56.7188C19.6783 56.1426 19.6675 55.637 19.6637 54.9843C19.663 54.8959 19.6623 54.8075 19.6616 54.7164C19.6605 54.5295 19.6598 54.3427 19.6593 54.1558C19.6582 53.8719 19.6546 53.588 19.6509 53.3041C19.6501 53.122 19.6495 52.9399 19.649 52.7578C19.6476 52.6738 19.6461 52.5898 19.6446 52.5032C19.6476 51.8233 19.7867 51.2705 20.2363 50.7468C20.3042 50.6921 20.372 50.6375 20.4419 50.5811C20.5094 50.5246 20.5769 50.4681 20.6465 50.4099C21.0557 50.1476 21.4612 50.1421 21.9378 50.1449C22.1101 50.1454 22.1101 50.1454 22.2857 50.146C22.4643 50.1475 22.4643 50.1475 22.6465 50.149C22.8277 50.1498 22.8277 50.1498 23.0127 50.1506C23.3105 50.152 23.6084 50.1539 23.9062 50.1563C23.9215 50.0768 23.9368 49.9972 23.9526 49.9153C24.0244 49.5438 24.0971 49.1726 24.1699 48.8013C24.2059 48.6138 24.2059 48.6138 24.2427 48.4225C24.3838 47.7065 24.5464 47.001 24.7374 46.2969C24.759 46.2168 24.7806 46.1366 24.8028 46.054C24.8553 45.8589 24.9081 45.6638 24.9609 45.4688C24.8675 45.4692 24.7741 45.4697 24.6778 45.4701C22.3997 45.4805 20.1215 45.4882 17.8433 45.4931C16.7415 45.4955 15.6398 45.4988 14.5381 45.5042C13.5772 45.5089 12.6164 45.5119 11.6556 45.5129C11.1473 45.5135 10.6391 45.5149 10.1309 45.5184C9.65137 45.5216 9.17192 45.5225 8.69241 45.5218C8.51749 45.522 8.34257 45.5229 8.16767 45.5247C6.47406 45.5414 5.02124 45.2424 3.74998 44.0626C2.6268 42.7851 2.44265 41.4171 2.44525 39.7771C2.44498 39.6538 2.44471 39.5304 2.44444 39.4034C2.4437 38.9908 2.44379 38.5783 2.44389 38.1657C2.44354 37.8696 2.44314 37.5736 2.4427 37.2775C2.44177 36.5571 2.4414 35.8367 2.44134 35.1163C2.44128 34.5305 2.44104 33.9447 2.44067 33.3589C2.43964 31.6966 2.4391 30.0343 2.43918 28.372C2.43919 28.2824 2.43919 28.1929 2.4392 28.1007C2.4392 28.011 2.43921 27.9214 2.43921 27.829C2.43926 26.3764 2.43814 24.9238 2.43649 23.4712C2.4348 21.9782 2.43399 20.4852 2.4341 18.9923C2.43413 18.1546 2.43381 17.317 2.43255 16.4794C2.43137 15.6916 2.43141 14.9037 2.43226 14.1158C2.43238 13.827 2.43211 13.5382 2.4314 13.2494C2.43049 12.8544 2.43104 12.4595 2.43194 12.0645C2.43104 11.894 2.43104 11.894 2.43011 11.7201C2.43746 10.2593 2.7566 8.83367 3.79392 7.74176C4.82096 6.81608 5.92537 6.38838 7.30315 6.4031C7.4079 6.4028 7.51264 6.4025 7.62056 6.40219C7.96873 6.40161 8.31685 6.40354 8.66501 6.40546C8.9157 6.40556 9.1664 6.40551 9.41709 6.40531C10.0957 6.40521 10.7743 6.40727 11.4528 6.40973C12.1627 6.41193 12.8726 6.41213 13.5826 6.41255C14.926 6.41364 16.2694 6.41652 17.6128 6.42005C19.1426 6.42399 20.6724 6.42592 22.2022 6.42768C25.3484 6.43135 28.4945 6.43754 31.6406 6.44537C31.6381 6.34549 31.6357 6.24561 31.6332 6.14271C31.6252 5.77034 31.6193 5.39802 31.6149 5.02559C31.6125 4.86475 31.6093 4.70392 31.6052 4.54311C31.5995 4.3113 31.5971 4.07943 31.5948 3.84757C31.5924 3.70826 31.5899 3.56895 31.5874 3.42542C31.7047 2.59078 32.1084 2.38782 32.9055 2.38659ZM33.3984 4.21881C33.3984 8.16334 33.3984 12.1079 33.3984 16.1719C39.0058 16.1719 44.6133 16.1719 50.3906 16.1719C50.3906 12.2274 50.3906 8.28287 50.3906 4.21881C44.7832 4.21881 39.1758 4.21881 33.3984 4.21881ZM4.80466 9.37506C4.2587 10.2019 4.20135 10.9995 4.20463 11.9655C4.20453 12.0729 4.20443 12.1804 4.20433 12.2911C4.20414 12.6523 4.20478 13.0135 4.20542 13.3747C4.20546 13.6376 4.20544 13.9005 4.20538 14.1634C4.20535 14.8679 4.20603 15.5725 4.20686 16.2771C4.20752 16.938 4.20756 17.5989 4.20764 18.2598C4.20825 20.1933 4.20989 22.1267 4.2114 24.0601C4.21382 28.3793 4.21624 32.6984 4.21873 37.1485C21.2344 37.1485 38.25 37.1485 55.7812 37.1485C55.7885 32.8414 55.7957 28.5343 55.8032 24.0967C55.8064 22.737 55.8096 21.3772 55.8129 19.9762C55.8141 18.7569 55.8141 18.7569 55.8148 17.5376C55.8151 16.9947 55.8164 16.4518 55.8183 15.9088C55.8208 15.2158 55.8215 14.5228 55.821 13.8298C55.8211 13.5758 55.8218 13.3218 55.8231 13.0677C55.8249 12.7238 55.8245 12.3799 55.8235 12.036C55.8245 11.9373 55.8256 11.8386 55.8266 11.7369C55.8187 10.671 55.5751 9.76586 54.8327 8.98734C54.2163 8.44033 53.5951 8.18617 52.771 8.19586C52.6545 8.19692 52.538 8.19798 52.418 8.19907C52.3291 8.20043 52.2401 8.20179 52.1484 8.20319C52.1477 8.31666 52.147 8.43013 52.1463 8.54705C52.1396 9.61614 52.1311 10.6852 52.1208 11.7543C52.1156 12.3039 52.111 12.8535 52.1078 13.4032C52.1048 13.9335 52.1 14.4639 52.0941 14.9942C52.0922 15.1966 52.0908 15.399 52.0901 15.6014C52.089 15.8848 52.0857 16.1681 52.0819 16.4515C52.0821 16.5353 52.0822 16.6191 52.0824 16.7054C52.0761 17.0394 52.0536 17.2996 51.9015 17.5997C51.577 17.9111 51.3414 17.8715 50.8968 17.8721C50.8168 17.8728 50.7369 17.8735 50.6545 17.8743C50.3859 17.8762 50.1174 17.8747 49.8488 17.8732C49.6566 17.8738 49.4643 17.8747 49.272 17.8757C48.7492 17.8778 48.2265 17.877 47.7038 17.8755C47.1573 17.8743 46.6109 17.8754 46.0644 17.8762C45.1466 17.877 44.2289 17.8759 43.3111 17.8737C42.2493 17.8711 41.1875 17.8719 40.1257 17.8745C39.2149 17.8767 38.304 17.877 37.3932 17.8757C36.8488 17.875 36.3045 17.8749 35.7601 17.8764C35.2484 17.8778 34.7367 17.8769 34.225 17.8742C34.0369 17.8735 33.8489 17.8737 33.6608 17.8747C33.4045 17.876 33.1485 17.8744 32.8922 17.8721C32.6769 17.8718 32.6769 17.8718 32.4573 17.8715C32.1094 17.8126 32.1094 17.8126 31.8878 17.6302C31.7099 17.2383 31.7063 16.874 31.7071 16.4515C31.7053 16.3177 31.7053 16.3177 31.7035 16.1811C31.7 15.8869 31.6989 15.5928 31.6978 15.2985C31.6958 15.0943 31.6937 14.89 31.6914 14.6857C31.6859 14.1486 31.6824 13.6115 31.6793 13.0744C31.6758 12.5261 31.6704 11.9778 31.6651 11.4295C31.655 10.3541 31.6471 9.27864 31.6406 8.20319C28.385 8.19498 25.1294 8.18877 21.8738 8.18497C20.3621 8.18316 18.8505 8.18069 17.3389 8.17666C16.0214 8.17316 14.704 8.17089 13.3865 8.17011C12.6889 8.16965 11.9912 8.16857 11.2936 8.16602C10.6369 8.16363 9.98027 8.16289 9.32361 8.16342C9.08264 8.16333 8.84166 8.16263 8.60069 8.16128C8.2715 8.15953 7.94238 8.15995 7.61319 8.16091C7.518 8.15989 7.42281 8.15886 7.32474 8.15781C6.26884 8.16611 5.51451 8.59886 4.80466 9.37506ZM4.21873 38.9063C4.12028 41.161 4.12028 41.161 5.15989 42.9268C5.88345 43.5485 6.64165 43.7254 7.57633 43.7264C7.69419 43.7268 7.69419 43.7268 7.81444 43.7271C8.07892 43.7278 8.3434 43.7276 8.60788 43.7275C8.79895 43.7278 8.99002 43.7281 9.18109 43.7285C9.7071 43.7295 10.2331 43.7297 10.7591 43.7298C11.3261 43.73 11.893 43.7309 12.4599 43.7316C13.7001 43.7332 14.9403 43.7339 16.1804 43.7345C16.9546 43.7348 17.7289 43.7353 18.5031 43.7358C20.6462 43.7372 22.7894 43.7384 24.9326 43.7388C25.0698 43.7389 25.207 43.7389 25.3483 43.7389C25.4859 43.7389 25.6234 43.739 25.7651 43.739C26.0438 43.739 26.3225 43.7391 26.6012 43.7392C26.7394 43.7392 26.8777 43.7392 27.0201 43.7392C29.2601 43.7397 31.5002 43.7417 33.7403 43.7445C36.0396 43.7472 38.3388 43.7487 40.6381 43.7488C41.9293 43.7489 43.2205 43.7496 44.5117 43.7517C45.6112 43.7536 46.7106 43.7542 47.8101 43.7532C48.3711 43.7527 48.932 43.7528 49.493 43.7545C50.0067 43.756 50.5205 43.7558 51.0342 43.7544C51.2199 43.7542 51.4055 43.7545 51.5912 43.7556C52.9073 43.7623 53.9914 43.7131 54.993 42.7694C55.9832 41.6425 55.7812 40.3906 55.7812 38.9063C38.7656 38.9063 21.75 38.9063 4.21873 38.9063ZM26.7187 45.4688C26.564 46.1552 26.4094 46.8417 26.25 47.5489C26.201 47.7649 26.1521 47.9809 26.1017 48.2034C26.0632 48.3752 26.0247 48.5471 25.9863 48.7189C25.9661 48.8076 25.9458 48.8963 25.925 48.9877C25.8354 49.3907 25.7812 49.7411 25.7812 50.1563C28.5656 50.1563 31.35 50.1563 34.2187 50.1563C34.1427 49.472 34.0628 48.8652 33.9107 48.2039C33.8776 48.0591 33.8446 47.9142 33.8106 47.7649C33.7688 47.5849 33.7271 47.4048 33.6841 47.2193C33.5511 46.6416 33.4182 46.064 33.2812 45.4688C31.1156 45.4688 28.95 45.4688 26.7187 45.4688ZM21.4453 52.0313C21.4335 52.2984 21.43 52.5659 21.4297 52.8333C21.4296 52.9135 21.4295 52.9937 21.4294 53.0763C21.4293 53.2461 21.4295 53.416 21.43 53.5858C21.4306 53.8466 21.43 54.1074 21.4293 54.3682C21.4293 54.5328 21.4295 54.6975 21.4297 54.8621C21.4299 55.013 21.43 55.1638 21.4301 55.3192C21.4058 55.651 21.4058 55.651 21.5625 55.7813C21.7802 55.7929 21.9984 55.7961 22.2164 55.7962C22.4294 55.7967 22.4294 55.7967 22.6467 55.7972C22.8054 55.797 22.9642 55.7967 23.123 55.7965C23.2891 55.7966 23.4552 55.7968 23.6212 55.7971C24.0735 55.7976 24.5258 55.7974 24.9781 55.7971C25.4503 55.7968 25.9226 55.797 26.3949 55.7972C27.1881 55.7974 27.9814 55.7971 28.7747 55.7966C29.6931 55.796 30.6115 55.7962 31.5299 55.7968C32.317 55.7973 33.1042 55.7974 33.8913 55.7971C34.362 55.7969 34.8328 55.7969 35.3035 55.7973C35.7459 55.7976 36.1884 55.7974 36.6308 55.7967C36.7937 55.7966 36.9565 55.7966 37.1194 55.7969C37.3408 55.7972 37.5621 55.7967 37.7835 55.7962C37.9077 55.7961 38.0319 55.7961 38.1598 55.7961C38.4323 55.8126 38.4323 55.8126 38.5547 55.6641C38.5664 55.397 38.57 55.1295 38.5702 54.8621C38.5703 54.7819 38.5705 54.7017 38.5706 54.6191C38.5706 54.4493 38.5704 54.2794 38.5699 54.1096C38.5693 53.8488 38.5699 53.588 38.5707 53.3272C38.5706 53.1626 38.5705 52.998 38.5702 52.8333C38.57 52.6071 38.57 52.6071 38.5698 52.3762C38.5941 52.0444 38.5941 52.0444 38.4375 51.9141C38.2197 51.9026 38.0016 51.8993 37.7835 51.8992C37.6416 51.8989 37.4996 51.8986 37.3533 51.8982C37.1945 51.8985 37.0357 51.8987 36.877 51.899C36.7109 51.8988 36.5448 51.8986 36.3787 51.8983C35.9264 51.8978 35.4742 51.898 35.0219 51.8984C34.5496 51.8987 34.0773 51.8984 33.6051 51.8982C32.8118 51.898 32.0186 51.8983 31.2253 51.8988C30.3069 51.8995 29.3885 51.8993 28.47 51.8986C27.6829 51.8981 26.8958 51.898 26.1087 51.8983C25.6379 51.8985 25.1672 51.8985 24.6965 51.8982C24.254 51.8978 23.8116 51.898 23.3691 51.8987C23.2063 51.8989 23.0434 51.8988 22.8806 51.8986C22.6592 51.8983 22.4378 51.8987 22.2164 51.8992C22.0922 51.8993 21.9681 51.8993 21.8401 51.8994C21.5677 51.8828 21.5677 51.8828 21.4453 52.0313Z" fill="#EBDCF9"></path><path d="M21.1377 11.726C22.0475 12.3976 22.3851 13.2428 22.8026 14.2556C22.9292 14.6236 22.9292 14.6236 23.0859 14.7656C23.2569 14.7617 23.4278 14.7536 23.5986 14.7436C24.7169 14.7388 25.5803 15.152 26.3814 15.9187C27.1145 16.7616 27.2401 17.6826 27.2209 18.7641C27.1577 19.6232 26.8535 20.3529 26.25 20.9765C26.134 21.0345 26.134 21.0345 26.0156 21.0937C26.1781 21.6142 26.3851 22.0944 26.6162 22.5878C26.963 23.3723 27.1357 24.0341 26.8707 24.8689C26.624 25.4302 26.2995 25.7939 25.7812 26.1328C24.9184 26.4225 24.0584 26.4059 23.156 26.4115C22.9913 26.4134 22.8266 26.4154 22.662 26.4176C22.2295 26.4229 21.797 26.427 21.3644 26.4307C17.9675 26.1638 17.9675 26.1638 14.8828 26.8359C14.9455 26.9713 15.0081 27.1066 15.0727 27.2461C15.3057 27.7495 15.5384 28.2529 15.7711 28.7563C15.8718 28.974 15.9725 29.1917 16.0733 29.4093C16.2183 29.7226 16.3631 30.0359 16.5079 30.3492C16.5528 30.4462 16.5977 30.5431 16.644 30.643C17.1041 31.6397 17.3593 32.3942 17.2265 33.5156C16.9349 34.2821 16.3977 34.7217 15.7031 35.1269C15.0025 35.4029 14.1236 35.4315 13.4207 35.1621C12.6094 34.6805 12.224 33.9888 11.8611 33.1462C11.821 33.055 11.7809 32.9639 11.7395 32.87C11.6121 32.5801 11.4859 32.2898 11.3598 31.9995C11.2331 31.7096 11.1061 31.4199 10.9789 31.1302C10.9001 30.9505 10.8216 30.7706 10.7433 30.5906C10.5806 30.2177 10.4147 29.854 10.2271 29.4925C10.0781 29.1796 10.0781 29.1796 10.0781 28.8281C10.0128 28.8335 9.94759 28.8389 9.88035 28.8445C9.16765 28.8783 8.66931 28.7773 8.08592 28.3593C7.40976 27.6519 7.03027 26.7507 6.63572 25.8691C6.57182 25.7342 6.50792 25.5993 6.44209 25.4603C5.98956 24.4543 5.76176 23.5337 6.10105 22.456C6.65524 21.7052 7.36724 21.2981 8.20768 20.9275C8.30657 20.8825 8.40547 20.8375 8.50735 20.7912C8.82041 20.649 9.13426 20.5087 9.44822 20.3686C9.76285 20.2268 10.0773 20.0847 10.3916 19.9422C10.5864 19.8541 10.7813 19.7664 10.9766 19.6793C11.6881 19.3593 12.2707 19.0633 12.7881 18.4643C13.1928 18.0023 13.6019 17.5459 14.0185 17.0947C14.4355 16.6414 14.8456 16.1831 15.249 15.7177C15.5327 15.3962 15.8229 15.0809 16.1133 14.7656C16.474 14.3737 16.8329 13.9808 17.1826 13.579C17.2456 13.507 17.3086 13.4349 17.3735 13.3607C17.5292 13.1812 17.6837 13.0007 17.8377 12.8196C17.9284 12.7149 18.0192 12.6102 18.1128 12.5024C18.1951 12.4062 18.2774 12.3099 18.3623 12.2108C19.1428 11.4673 20.1395 11.4118 21.1377 11.726ZM19.5854 13.4944C19.5248 13.5634 19.4642 13.6324 19.4018 13.7036C19.3325 13.7803 19.2632 13.857 19.1917 13.9361C19.1233 14.0165 19.0549 14.0968 18.9844 14.1796C18.922 14.2503 18.8596 14.321 18.7953 14.3939C18.6625 14.5447 18.5306 14.6963 18.3993 14.8484C18.1159 15.1721 17.8255 15.4891 17.5342 15.8056C16.9584 16.4315 16.3882 17.0622 15.8203 17.6953C15.6445 17.8906 15.4688 18.0859 15.2929 18.2812C15.1645 18.4239 15.1645 18.4239 15.0334 18.5696C14.5926 19.0594 14.1517 19.5492 13.7109 20.039C14.0173 21.0583 14.4626 22.0106 14.9048 22.976C14.9822 23.1462 15.0597 23.3164 15.1371 23.4867C15.3252 23.9002 15.514 24.3134 15.7031 24.7265C16.8715 24.7193 18.0399 24.7103 19.2083 24.6989C19.7509 24.6936 20.2934 24.689 20.8359 24.6859C21.3595 24.6829 21.883 24.6781 22.4065 24.6722C22.6063 24.6703 22.8061 24.6689 23.0059 24.6682C23.2856 24.6671 23.5653 24.6638 23.845 24.66C23.9277 24.6602 24.0104 24.6603 24.0956 24.6605C24.5725 24.6513 24.8478 24.5924 25.1953 24.2578C25.1279 23.6813 24.9438 23.205 24.6968 22.6858C24.6578 22.602 24.6188 22.5181 24.5787 22.4317C24.4944 22.2508 24.4098 22.07 24.3249 21.8893C24.0972 21.4049 23.8723 20.9192 23.6471 20.4336C23.6007 20.3336 23.5543 20.2336 23.5064 20.1306C22.897 18.8156 22.3129 17.4894 21.7279 16.1634C21.6568 16.0029 21.5853 15.8425 21.5135 15.6822C21.3448 15.3055 21.1807 14.9282 21.0262 14.5454C20.9388 14.3371 20.9388 14.3371 20.8497 14.1247C20.8004 14.0021 20.751 13.8795 20.7001 13.7532C20.5259 13.4413 20.5259 13.4413 20.1486 13.369C19.8106 13.328 19.8106 13.328 19.5854 13.4944ZM23.789 16.5234C24.1922 17.5134 24.624 18.4855 25.0781 19.4531C25.471 19.0008 25.4897 18.6843 25.4709 18.1017C25.39 17.534 25.0773 17.2197 24.6753 16.8383C24.3647 16.6338 24.1503 16.5843 23.789 16.5234ZM11.0257 21.6169C10.9354 21.6583 10.8451 21.6996 10.7521 21.7422C10.5615 21.8297 10.371 21.9174 10.1806 22.0055C9.8883 22.1408 9.59552 22.275 9.30265 22.4091C9.11769 22.4941 8.93275 22.5792 8.74784 22.6643C8.65983 22.7047 8.57182 22.7451 8.48115 22.7867C8.0801 22.9522 8.0801 22.9522 7.73435 23.2031C7.77166 23.9893 8.01581 24.5773 8.36424 25.2758C8.41106 25.3729 8.45789 25.4699 8.50614 25.5699C8.63634 25.8374 8.77062 26.1024 8.90623 26.3671C8.96333 26.4839 9.02043 26.6007 9.07926 26.721C9.23926 26.9697 9.23926 26.9697 9.50226 27.0511C10.0029 27.0792 10.3529 26.8853 10.7982 26.6715C10.8884 26.6298 10.9786 26.588 11.0715 26.5449C11.3588 26.4115 11.6449 26.2758 11.9311 26.1401C12.126 26.0491 12.3209 25.9582 12.5159 25.8675C12.9932 25.6451 13.4695 25.4207 13.9453 25.1953C13.8684 24.691 13.6937 24.2722 13.4834 23.8087C13.4498 23.7341 13.4161 23.6595 13.3814 23.5826C13.2746 23.346 13.1668 23.1097 13.0591 22.8735C12.9861 22.7124 12.9133 22.5514 12.8405 22.3903C12.6625 21.9969 12.4838 21.6038 12.3047 21.2109C11.8218 21.2109 11.4555 21.4174 11.0257 21.6169ZM12.2827 27.832C12.1771 27.8864 12.0715 27.9407 11.9627 27.9968C11.8822 28.0391 11.8017 28.0814 11.7187 28.1249C11.7967 28.6984 12.03 29.1804 12.2708 29.7001C12.3356 29.8416 12.3356 29.8416 12.4018 29.9859C12.4931 30.1847 12.5847 30.3833 12.6766 30.5818C12.8169 30.8851 12.9559 31.189 13.0948 31.4929C13.1838 31.6864 13.2729 31.8798 13.3621 32.0732C13.4242 32.209 13.4242 32.209 13.4875 32.3477C13.7707 32.9714 13.7707 32.9714 14.1797 33.5156C14.6212 33.5924 14.8309 33.5432 15.227 33.3325C15.5135 33.0607 15.5135 33.0607 15.4455 32.6674C15.3509 32.2237 15.2161 31.8602 15.0274 31.4483C14.9952 31.3771 14.9629 31.3059 14.9297 31.2325C14.8271 31.0067 14.7232 30.7817 14.6191 30.5566C14.5511 30.4075 14.4832 30.2585 14.4154 30.1093C14.2833 29.8192 14.1506 29.5294 14.0174 29.2398C13.7571 28.6737 13.4996 28.1064 13.2422 27.539C12.8332 27.539 12.6428 27.6449 12.2827 27.832Z" fill="#EBDCF9"></path><path d="M34.3437 21.8834C34.5712 21.8822 34.5712 21.8822 34.8033 21.8809C34.9724 21.8812 35.1414 21.8815 35.3105 21.8818C35.4877 21.8813 35.665 21.8807 35.8423 21.88C36.3246 21.8784 36.8069 21.8784 37.2892 21.8786C37.6914 21.8788 38.0936 21.8782 38.4957 21.8776C39.4444 21.8763 40.393 21.8763 41.3416 21.877C42.3212 21.8777 43.3008 21.8763 44.2804 21.8738C45.1206 21.8717 45.9607 21.871 46.8009 21.8714C47.3031 21.8716 47.8053 21.8713 48.3074 21.8697C48.7796 21.8682 49.2518 21.8684 49.724 21.8699C49.8975 21.8702 50.071 21.8699 50.2445 21.8689C50.481 21.8677 50.7174 21.8689 50.9538 21.8701C51.0863 21.8701 51.2187 21.8701 51.3552 21.8701C51.6797 21.914 51.6797 21.914 51.8935 22.0779C52.124 22.3919 52.1635 22.5903 52.1664 22.9735C52.1675 23.0726 52.1685 23.1716 52.1695 23.2737C52.1703 23.4371 52.1703 23.4371 52.171 23.6037C52.1725 23.7755 52.1725 23.7755 52.1739 23.9508C52.1768 24.331 52.1788 24.7111 52.1805 25.0913C52.1811 25.221 52.1817 25.3506 52.1823 25.4842C52.1855 26.1702 52.1878 26.8562 52.1894 27.5423C52.1914 28.2516 52.1966 28.9609 52.2026 29.6702C52.2065 30.215 52.2079 30.7598 52.2086 31.3046C52.2094 31.5661 52.2111 31.8276 52.2139 32.0891C52.2176 32.455 52.2177 32.8207 52.2168 33.1866C52.2187 33.2948 52.2206 33.403 52.2226 33.5144C52.2212 33.6645 52.2212 33.6645 52.2197 33.8176C52.2202 33.9473 52.2202 33.9473 52.2208 34.0796C52.1064 34.4847 51.8878 34.6641 51.5625 34.9218C51.2153 34.9946 51.2153 34.9946 50.8234 34.9938C50.6744 34.995 50.5253 34.9961 50.3718 34.9973C50.2075 34.9956 50.0433 34.9938 49.879 34.992C49.7054 34.9923 49.5317 34.9927 49.358 34.9934C48.8871 34.9946 48.4162 34.9921 47.9453 34.9889C47.4524 34.9861 46.9595 34.9865 46.4666 34.9864C45.639 34.9859 44.8114 34.9831 43.9838 34.9789C43.0269 34.974 42.07 34.9719 41.1131 34.9715C40.0943 34.9711 39.0755 34.9689 38.0567 34.966C37.7631 34.9653 37.4695 34.9649 37.1759 34.9645C36.7147 34.9638 36.2535 34.9619 35.7923 34.959C35.623 34.9582 35.4536 34.9577 35.2843 34.9576C35.0533 34.9575 34.8224 34.9557 34.5914 34.9539C34.4621 34.9534 34.3328 34.9528 34.1996 34.9523C33.8677 34.9218 33.6752 34.8691 33.3984 34.6874C33.0826 34.1658 33.131 33.5912 33.1337 33.0008C33.1333 32.8908 33.1329 32.7808 33.1325 32.6674C33.1314 32.3044 33.1321 31.9413 33.1329 31.5783C33.1328 31.3257 33.1325 31.0731 33.1322 30.8205C33.1319 30.2913 33.1324 29.7621 33.1335 29.2329C33.1348 28.5547 33.134 27.8765 33.1326 27.1984C33.1318 26.6768 33.1321 26.1552 33.1327 25.6337C33.1328 25.3836 33.1326 25.1336 33.1321 24.8835C33.1315 24.534 33.1324 24.1845 33.1337 23.835C33.1332 23.7317 33.1328 23.6285 33.1323 23.5221C33.139 22.5466 33.2454 21.8854 34.3437 21.8834ZM37.0312 23.5546C37.5268 23.9511 38.0241 24.303 38.5537 24.6502C39.0274 24.9618 39.4968 25.2785 39.9622 25.6025C40.2459 25.7995 40.5307 25.9948 40.8157 26.19C40.9585 26.2884 41.1009 26.3876 41.2427 26.4876C41.4443 26.6295 41.6476 26.7686 41.8515 26.9073C42.0289 27.0305 42.0289 27.0305 42.21 27.1562C42.5222 27.3349 42.5222 27.3349 42.8121 27.2527C43.262 26.9903 43.6982 26.7117 44.1316 26.423C44.2279 26.3594 44.3243 26.2958 44.4236 26.2303C44.7308 26.0274 45.0375 25.8237 45.3442 25.62C45.5501 25.4839 45.756 25.3478 45.962 25.2117C46.4238 24.9064 46.8856 24.601 47.3464 24.2941C47.4963 24.1947 47.6468 24.0961 47.7978 23.9984C47.9608 23.8924 48.1214 23.7825 48.2812 23.6718C48.2812 23.6331 48.2812 23.5945 48.2812 23.5546C44.5687 23.5546 40.8562 23.5546 37.0312 23.5546ZM34.9219 24.3749C34.9219 27.2753 34.9219 30.1757 34.9219 33.164C40.0265 33.164 45.1312 33.164 50.3906 33.164C50.3906 30.2636 50.3906 27.3632 50.3906 24.3749C49.9652 24.6456 49.5398 24.9163 49.1015 25.1952C48.6122 25.5006 48.6122 25.5006 48.3749 25.6485C47.0776 26.4593 45.8068 27.3085 44.5377 28.1625C44.4633 28.2125 44.3889 28.2624 44.3122 28.3139C44.1718 28.4081 44.0316 28.5026 43.8916 28.5973C43.7156 28.7153 43.5375 28.8304 43.3594 28.9452C43.2423 29.0219 43.2423 29.0219 43.1229 29.1001C42.7759 29.2189 42.5385 29.1555 42.1875 29.0624C41.893 28.909 41.893 28.909 41.5965 28.7099C41.4251 28.5963 41.4251 28.5963 41.2502 28.4804C41.1268 28.3969 41.0035 28.3134 40.8764 28.2275C40.7458 28.1404 40.615 28.0534 40.4842 27.9666C40.1964 27.7754 39.9091 27.5837 39.6221 27.3915C38.8129 26.8507 37.9992 26.3165 37.1859 25.7818C36.9082 25.5991 36.6308 25.4158 36.3534 25.2325C36.1825 25.1198 36.0115 25.0071 35.8406 24.8945C35.7611 24.8418 35.6817 24.7892 35.5998 24.735C35.285 24.4861 35.285 24.4861 34.9219 24.3749Z" fill="#EBDCF9"></path><path d="M39.2578 5.39056C39.5868 5.53292 39.5868 5.53292 39.9289 5.7348C40.0579 5.80985 40.187 5.8849 40.32 5.96222C40.4591 6.04509 40.5982 6.12797 40.7373 6.21087C40.8815 6.29536 41.0259 6.3797 41.1704 6.46387C41.4724 6.64006 41.7741 6.81695 42.0755 6.99428C42.7574 7.39452 43.4451 7.78464 44.1325 8.17557C44.4754 8.37068 44.8181 8.56628 45.1607 8.76199C45.2742 8.82677 45.3877 8.89154 45.5046 8.95828C45.6088 9.01843 45.713 9.07859 45.8203 9.14056C45.9273 9.20199 46.0342 9.26343 46.1444 9.32673C46.4468 9.51777 46.5426 9.61794 46.6406 9.96087C46.6035 10.5673 46.6035 10.5673 46.3783 10.8392C46.1293 11.0519 45.8709 11.2061 45.5864 11.3685C45.4668 11.4371 45.3472 11.5057 45.2239 11.5764C45.0944 11.65 44.9649 11.7235 44.8315 11.7993C44.6271 11.9161 44.4228 12.033 44.2184 12.15C44.0026 12.2733 43.7866 12.3963 43.5707 12.5193C43.1192 12.7764 42.6687 13.0351 42.2181 13.2938C41.9966 13.421 41.775 13.5481 41.5534 13.6751C41.4107 13.757 41.2681 13.8388 41.1254 13.9208C40.9247 14.0359 40.7239 14.1508 40.5231 14.2657C40.4087 14.3312 40.2943 14.3967 40.1764 14.4642C39.2107 14.9987 39.2107 14.9987 38.7085 15.0073C38.3203 14.8827 38.3203 14.8827 38.1231 14.5734C37.9551 14.1448 37.9242 13.8383 37.9232 13.3795C37.9226 13.3028 37.922 13.2261 37.9214 13.147C37.9198 12.8955 37.9208 12.644 37.922 12.3925C37.9218 12.2165 37.9215 12.0406 37.921 11.8646C37.9205 11.4966 37.9212 11.1286 37.9229 10.7606C37.9249 10.2901 37.9237 9.81967 37.9216 9.34918C37.9204 8.98604 37.9208 8.62292 37.9217 8.25978C37.9219 8.08635 37.9216 7.91293 37.9208 7.7395C37.9199 7.49664 37.9213 7.25389 37.9232 7.01104C37.9235 6.87316 37.9238 6.73528 37.9241 6.59322C37.9744 6.16192 38.0957 5.87747 38.3203 5.50775C38.6515 5.34216 38.8896 5.36254 39.2578 5.39056ZM39.7265 7.8515C39.7265 9.39837 39.7265 10.9452 39.7265 12.539C40.1063 12.3871 40.4312 12.25 40.7817 12.0542C40.911 11.9823 40.911 11.9823 41.0429 11.9089C41.133 11.8582 41.2231 11.8075 41.3159 11.7553C41.4087 11.7033 41.5015 11.6512 41.5971 11.5976C41.7841 11.4925 41.9709 11.3873 42.1577 11.2818C42.3956 11.1476 42.6341 11.0144 42.8728 10.8814C42.9995 10.8097 43.1262 10.7379 43.2568 10.664C43.3683 10.6012 43.4798 10.5383 43.5946 10.4736C43.6717 10.4204 43.7487 10.3672 43.8281 10.3124C43.8281 10.2351 43.8281 10.1577 43.8281 10.0781C43.7318 10.0231 43.6354 9.96814 43.5362 9.91152C43.1769 9.70649 42.8176 9.50141 42.4584 9.29628C42.3033 9.20772 42.1481 9.11918 41.993 9.03067C41.7692 8.90302 41.5455 8.77529 41.3218 8.64755C41.2531 8.60835 41.1844 8.56915 41.1135 8.52876C40.8126 8.35679 40.5143 8.18281 40.2201 7.9995C39.9767 7.83213 39.9767 7.83213 39.7265 7.8515Z" fill="#EBDCF9"></path></svg>