<svg xmlns="http://www.w3.org/2000/svg" width="60" height="60" viewBox="0 0 60 60" fill="none"><g clip-path="url(#clip0_1621_1311)"><path d="M30.4688 -9.90778e-05C30.8166 0.258581 30.9174 0.408413 31.0547 0.820213C31.0641 0.993796 31.0673 1.16777 31.0661 1.34161C31.0658 1.44093 31.0654 1.54025 31.065 1.64259C31.064 1.74584 31.063 1.84909 31.062 1.95547C31.0615 2.06008 31.061 2.16469 31.0604 2.27247C31.059 2.53058 31.0571 2.78867 31.0547 3.04678C31.1683 3.04634 31.2818 3.04591 31.3988 3.04547C34.1649 3.03505 36.931 3.02735 39.6971 3.02249C41.0348 3.02007 42.3725 3.01678 43.7102 3.01141C44.8764 3.00673 46.0426 3.00372 47.2088 3.00267C47.8261 3.00206 48.4433 3.00063 49.0605 2.99722C49.6422 2.99402 50.2238 2.99305 50.8054 2.99376C51.0182 2.99363 51.231 2.9927 51.4438 2.9909C54.0471 2.9699 54.0471 2.9699 55.0708 3.88174C55.8687 4.81198 55.9667 5.82495 55.9548 7.01C55.9552 7.15743 55.9556 7.30487 55.956 7.45677C55.9571 7.863 55.9552 8.26917 55.9528 8.67539C55.9508 9.11456 55.9515 9.55374 55.9519 9.99292C55.9521 10.7528 55.9506 11.5127 55.948 12.2726C55.9442 13.3713 55.943 14.47 55.9424 15.5687C55.9414 17.3514 55.9382 19.1342 55.9338 20.9169C55.9295 22.6482 55.9262 24.3794 55.9242 26.1107C55.9241 26.2175 55.9239 26.3243 55.9238 26.4343C55.9232 26.9702 55.9226 27.506 55.922 28.0418C55.9172 32.4836 55.9089 36.9253 55.8984 41.3671C55.9783 41.3654 56.0581 41.3637 56.1404 41.3619C56.298 41.36 56.298 41.36 56.4587 41.3579C56.5627 41.3562 56.6668 41.3545 56.7739 41.3528C57.1806 41.3724 57.4416 41.4864 57.7734 41.7187C58.0263 42.0264 58.0077 42.1936 58.0005 42.5976C57.8906 43.0077 57.8906 43.0077 57.677 43.2637C57.1083 43.5887 56.5701 43.5433 55.9258 43.5404C55.7862 43.5416 55.6467 43.5429 55.5029 43.5441C55.1214 43.547 54.7399 43.5478 54.3583 43.5477C53.9592 43.548 53.5601 43.551 53.1609 43.5537C52.4056 43.5585 51.6503 43.5609 50.8949 43.5624C50.0348 43.5643 49.1747 43.5688 48.3145 43.5735C46.5456 43.5832 44.7767 43.5895 43.0078 43.5937C43.0591 43.7304 43.0591 43.7304 43.1114 43.8698C43.1879 44.0738 43.2644 44.2778 43.3409 44.4819C43.496 44.8955 43.6511 45.3092 43.8063 45.7228C44.124 46.57 44.4417 47.4172 44.7589 48.2646C44.9405 48.7497 45.1222 49.2348 45.304 49.7199C45.3404 49.8172 45.3769 49.9145 45.4144 50.0148C45.8863 51.2741 46.3614 52.5322 46.8404 53.7889C47.0405 54.314 47.2397 54.8396 47.439 55.365C47.546 55.6463 47.6535 55.9273 47.7615 56.2082C47.9108 56.5966 48.0584 56.9855 48.2057 57.3746C48.2495 57.4872 48.2933 57.5997 48.3384 57.7156C48.5573 58.2989 48.7065 58.7807 48.6328 59.414C48.399 59.7574 48.2311 59.9583 47.8157 60.0521C47.4267 60.0739 47.1729 60.0503 46.8648 59.8057C46.6059 59.4887 46.4836 59.2063 46.3416 58.8224C46.3151 58.752 46.2887 58.6815 46.2614 58.6089C46.1736 58.3741 46.0876 58.1388 46.0016 57.9033C45.9391 57.7351 45.8764 57.567 45.8136 57.3988C45.6445 56.9447 45.4769 56.49 45.3095 56.0352C45.135 55.5618 44.959 55.0889 44.7831 54.6159C44.5291 53.9328 44.2756 53.2495 44.0225 52.5659C43.3121 50.6471 42.592 48.7318 41.8726 46.8163C41.2744 45.2211 41.2744 45.2211 40.6641 43.5937C37.493 43.555 34.3219 43.5163 31.0547 43.4765C31.0588 44.6019 31.0628 45.7273 31.067 46.8868C31.0688 47.5992 31.0706 48.3117 31.0719 49.0241C31.0739 50.1552 31.0764 51.2863 31.0812 52.4174C31.0847 53.2412 31.087 54.065 31.0878 54.8888C31.0882 55.3249 31.0893 55.761 31.0919 56.1971C31.0947 56.6842 31.0948 57.1712 31.0946 57.6583C31.0959 57.8026 31.0971 57.9469 31.0984 58.0956C31.0939 59.3341 31.0939 59.3341 30.7031 59.8827C30.3287 60.0699 29.9376 60.0595 29.5312 59.9999C29.1834 59.7412 29.0826 59.5914 28.9453 59.1796C28.9347 58.967 28.931 58.754 28.9312 58.5412C28.931 58.3422 28.931 58.3422 28.9307 58.1393C28.9312 57.9937 28.9316 57.8482 28.932 57.6982C28.932 57.545 28.932 57.3918 28.932 57.2339C28.9319 56.8136 28.9326 56.3933 28.9334 55.973C28.9342 55.5338 28.9342 55.0947 28.9344 54.6555C28.9347 53.8238 28.9357 52.9921 28.9369 52.1604C28.9384 51.0365 28.9391 49.9127 28.9397 48.7888C28.9408 47.0181 28.9432 45.2473 28.9453 43.4765C24.1887 43.5345 24.1887 43.5345 19.3359 43.5937C18.8719 44.8312 18.4078 46.0686 17.9297 47.3437C17.4632 48.5859 17.4632 48.5859 17.2611 49.1241C16.6542 50.7407 16.0497 52.3581 15.4509 53.9777C15.2586 54.4974 15.0656 55.0168 14.8727 55.5362C14.69 56.0282 14.5084 56.5205 14.3277 57.0132C14.2424 57.2449 14.1566 57.4764 14.0705 57.7078C13.9662 57.9882 13.8628 58.2689 13.7605 58.5501C13.7143 58.6732 13.6681 58.7964 13.6206 58.9234C13.5812 59.0301 13.5418 59.1368 13.5012 59.2468C13.3385 59.573 13.1733 59.7703 12.8906 59.9999C12.3082 60.0831 12.088 60.0926 11.6016 59.7582C11.3066 59.3249 11.3312 59.1112 11.3672 58.5937C11.4707 58.2188 11.4707 58.2188 11.6186 57.8301C11.6455 57.7583 11.6724 57.6864 11.7001 57.6123C11.7897 57.3739 11.8813 57.1362 11.9728 56.8986C12.038 56.7263 12.103 56.554 12.1679 56.3817C12.3409 55.9235 12.5155 55.466 12.6905 55.0085C12.8579 54.5701 13.0241 54.1311 13.1902 53.6921C13.3963 53.1479 13.6026 52.6037 13.8095 52.0597C14.502 50.2382 15.1864 48.4136 15.8702 46.5888C15.9123 46.4766 15.9123 46.4766 15.9552 46.3621C16.301 45.4393 16.6467 44.5165 16.9922 43.5937C16.919 43.5935 16.8459 43.5933 16.7705 43.5931C14.9904 43.5888 13.2104 43.5819 11.4303 43.5721C10.5695 43.5674 9.70865 43.5636 8.8478 43.5619C8.09744 43.5604 7.34711 43.5572 6.59677 43.5521C6.1995 43.5494 5.80227 43.5476 5.40499 43.5477C4.96136 43.5475 4.51785 43.5443 4.07424 43.5404C3.94266 43.541 3.81108 43.5416 3.67551 43.5422C2.78919 43.5303 2.78919 43.5303 2.32349 43.2633C2.02321 42.9049 1.99219 42.6509 1.99219 42.1874C2.13744 41.8243 2.25617 41.6572 2.58545 41.4477C2.92109 41.3691 3.19401 41.359 3.53714 41.3621C3.6428 41.3628 3.74846 41.3635 3.85732 41.3643C3.93792 41.3652 4.01852 41.3661 4.10156 41.3671C4.10138 41.2917 4.10121 41.2162 4.10102 41.1385C4.09053 36.6664 4.08249 32.1943 4.07763 27.7221C4.07704 27.185 4.07643 26.6478 4.07581 26.1107C4.07569 26.0037 4.07557 25.8968 4.07544 25.7866C4.0734 24.0559 4.06971 22.3251 4.0654 20.5943C4.06101 18.818 4.05841 17.0417 4.05746 15.2653C4.05682 14.1695 4.05479 13.0737 4.05098 11.9779C4.0485 11.2261 4.04775 10.4744 4.04836 9.7226C4.04866 9.28907 4.0482 8.85557 4.04568 8.42204C4.04297 7.95134 4.04391 7.48071 4.04519 7.01C4.04383 6.87388 4.04246 6.73777 4.04106 6.59753C4.04867 5.55921 4.24062 4.68452 4.9292 3.88174C6.04608 2.8869 7.47078 2.98169 8.86994 2.99356C9.0895 2.99369 9.30905 2.99362 9.5286 2.99335C10.1212 2.99322 10.7138 2.99597 11.3065 2.99925C11.9271 3.00219 12.5477 3.00245 13.1683 3.00301C14.3419 3.00446 15.5156 3.00831 16.6892 3.01302C18.0261 3.01827 19.3629 3.02084 20.6997 3.02319C23.4483 3.02808 26.1968 3.03632 28.9453 3.04678C28.9412 2.8942 28.9372 2.74163 28.933 2.58443C28.9297 2.3821 28.9265 2.17977 28.9233 1.97744C28.9204 1.87713 28.9174 1.77683 28.9144 1.67348C28.9074 1.06528 28.9509 0.641448 29.2969 0.117088C29.6713 -0.0701138 30.0624 -0.0596501 30.4688 -9.90778e-05ZM6.21094 5.74209C6.06826 6.09468 6.07917 6.43956 6.07933 6.81756C6.0791 6.941 6.07886 7.06444 6.07862 7.19161C6.07897 7.327 6.07931 7.46239 6.07966 7.60188C6.07956 7.74549 6.07946 7.88911 6.07935 8.03707C6.07919 8.43669 6.07956 8.83629 6.08015 9.23591C6.08066 9.67309 6.08049 10.1103 6.0804 10.5474C6.08034 11.3964 6.08088 12.2454 6.08163 13.0944C6.08248 14.0762 6.08257 15.0581 6.08266 16.0399C6.08328 18.6327 6.08492 21.2255 6.08643 23.8183C6.08884 29.6094 6.09126 35.4005 6.09375 41.3671C21.8719 41.3671 37.65 41.3671 53.9062 41.3671C53.9135 35.5832 53.9208 29.7994 53.9282 23.8402C53.9314 22.0123 53.9346 20.1844 53.9379 18.301C53.9391 16.666 53.9391 16.666 53.9398 15.031C53.9401 14.3013 53.9414 13.5717 53.9434 12.842C53.9456 12.0007 53.9466 11.1594 53.9461 10.3181C53.9459 9.88763 53.9463 9.4572 53.9482 9.02675C53.9502 8.56588 53.9495 8.10503 53.9485 7.64415C53.9496 7.50979 53.9506 7.37543 53.9516 7.23699C53.9477 6.53318 53.9123 6.00492 53.5547 5.39053C53.1313 5.10829 52.9405 5.12649 52.4368 5.12567C52.3582 5.12523 52.2796 5.12478 52.1986 5.12432C51.9334 5.12311 51.6682 5.12357 51.403 5.12402C51.2117 5.1235 51.0204 5.12288 50.8291 5.12216C50.3019 5.1205 49.7748 5.12031 49.2476 5.12036C48.6796 5.12017 48.1116 5.11864 47.5437 5.11729C46.3011 5.11461 45.0586 5.11368 43.816 5.11309C43.0406 5.11271 42.2652 5.11195 41.4898 5.1111C39.3441 5.1088 37.1984 5.10688 35.0527 5.10654C34.9154 5.10652 34.778 5.1065 34.6364 5.10648C34.3579 5.10643 34.0794 5.10639 33.8009 5.10635C33.6626 5.10633 33.5244 5.10631 33.3819 5.10628C33.2435 5.10626 33.105 5.10624 32.9624 5.10622C30.7182 5.1058 28.4741 5.10264 26.2299 5.09826C23.9274 5.0938 21.625 5.09152 19.3225 5.09149C18.0291 5.09142 16.7357 5.09042 15.4423 5.08704C14.3412 5.08417 13.2401 5.08331 12.139 5.08507C11.5768 5.08592 11.0148 5.0858 10.4527 5.08315C9.93844 5.08075 9.42425 5.08103 8.91 5.08349C8.72365 5.0839 8.5373 5.08331 8.35096 5.08165C8.09812 5.07953 7.84556 5.08101 7.59273 5.0834C7.45218 5.0833 7.31162 5.08321 7.1668 5.08311C6.68453 5.17833 6.51184 5.36052 6.21094 5.74209Z" fill="#EBDCF9"></path><path d="M15 14.5311C15.4149 14.9795 15.6765 15.4795 15.9462 16.0211C15.9895 16.1071 16.0327 16.193 16.0773 16.2816C16.1682 16.4625 16.2587 16.6437 16.3488 16.825C16.4865 17.1012 16.6258 17.3766 16.7654 17.6519C16.8537 17.8285 16.942 18.0051 17.0302 18.1818C17.0717 18.2635 17.1132 18.3452 17.1559 18.4293C17.4313 18.988 17.6614 19.4993 17.4902 20.1268C17.3437 20.3905 17.3437 20.3905 16.9922 20.6249C16.3322 20.6877 16.3322 20.6877 16.0547 20.6249C15.8948 20.4724 15.7381 20.3163 15.5859 20.1561C15.575 21.2544 15.5667 22.3527 15.5616 23.451C15.5592 23.9612 15.5559 24.4714 15.5506 24.9815C15.5454 25.4754 15.5427 25.9693 15.5415 26.4632C15.5406 26.6501 15.5389 26.8369 15.5364 27.0238C15.515 28.6452 15.708 30.2218 16.4868 31.6771C16.527 31.7542 16.5672 31.8312 16.6087 31.9106C17.6207 33.7827 19.2325 35.0358 21.2218 35.7561C22.7573 36.2036 24.2987 36.1593 25.8868 36.1532C26.2938 36.1523 26.7008 36.1543 27.1077 36.156C28.0503 36.1596 28.9929 36.1598 29.9354 36.1596C31.1399 36.1594 32.3443 36.1606 33.5487 36.1653C34.0317 36.167 34.5146 36.167 34.9976 36.1656C35.3677 36.1649 35.7377 36.1664 36.1078 36.1676C36.2408 36.1667 36.3738 36.1658 36.5109 36.1648C36.6332 36.1656 36.7555 36.1664 36.8816 36.1672C36.9875 36.1672 37.0934 36.1671 37.2025 36.167C37.5706 36.2212 37.7885 36.3412 38.0859 36.5624C38.3009 37.037 38.356 37.2713 38.1958 37.7709C37.9347 38.133 37.8004 38.1888 37.3828 38.3202C37.0963 38.3497 37.0963 38.3497 36.7911 38.35C36.6747 38.3506 36.5582 38.3513 36.4383 38.352C36.3119 38.3515 36.1854 38.351 36.0551 38.3505C35.8538 38.3511 35.8538 38.3511 35.6484 38.3518C35.204 38.3528 34.7597 38.3521 34.3153 38.3513C34.0054 38.3515 33.6954 38.3517 33.3855 38.352C32.7348 38.3524 32.0841 38.3519 31.4334 38.3507C30.6859 38.3495 29.9383 38.3499 29.1907 38.3512C28.5458 38.3522 27.901 38.3524 27.2562 38.3518C26.8724 38.3514 26.4887 38.3514 26.105 38.3521C22.6246 38.357 19.4498 38.0591 16.7578 35.6249C16.675 35.5503 16.5922 35.4756 16.5069 35.3987C14.8304 33.8054 13.557 31.305 13.458 28.9779C13.4556 28.8134 13.4538 28.6488 13.4525 28.4843C13.4513 28.3939 13.4502 28.3035 13.449 28.2103C13.4453 27.9136 13.4424 27.6169 13.4395 27.3201C13.4371 27.1136 13.4346 26.907 13.4321 26.7005C13.4256 26.1583 13.4198 25.6162 13.4142 25.0741C13.4083 24.5203 13.4018 23.9665 13.3953 23.4127C13.3827 22.3272 13.3708 21.2416 13.3594 20.1561C13.2711 20.2321 13.1829 20.3081 13.092 20.3864C12.7734 20.6249 12.7734 20.6249 12.3633 20.6908C11.9531 20.6249 11.9531 20.6249 11.6089 20.3832C11.2992 19.9422 11.3154 19.7523 11.3672 19.2186C11.4908 18.8555 11.6568 18.5188 11.8295 18.1768C11.8773 18.0799 11.925 17.9831 11.9742 17.8833C12.0753 17.6796 12.1772 17.4763 12.2798 17.2735C12.4362 16.9634 12.5884 16.6515 12.7405 16.3393C12.8394 16.1411 12.9386 15.9431 13.038 15.7451C13.0831 15.6521 13.1282 15.5591 13.1746 15.4632C13.5706 14.6941 14.0922 14.2154 15 14.5311Z" fill="#EBDCF9"></path><path d="M35.0757 29.6265C35.67 30.105 36.0417 30.6587 36.2109 31.4063C36.3156 32.4105 36.1748 33.2822 35.5655 34.1061C34.8781 34.8575 34.1247 35.177 33.1128 35.2222C32.118 35.1862 31.3976 34.8481 30.7104 34.1309C30.1538 33.4311 29.9299 32.6705 29.967 31.7798C30.0733 30.9533 30.4713 30.2381 31.0547 29.6484C32.3372 28.7346 33.784 28.7118 35.0757 29.6265ZM32.1094 31.6406C32.0117 32.0508 32.0117 32.0508 32.1094 32.4609C32.3573 32.7777 32.5652 32.9797 32.9224 33.1641C33.3018 33.1641 33.548 33.0068 33.8672 32.8125C34.1602 32.373 34.1644 32.1611 34.1016 31.6406C33.7978 31.208 33.6279 31.0748 33.1055 30.9815C32.583 31.0748 32.4131 31.208 32.1094 31.6406Z" fill="#EBDCF9"></path><path d="M22.403 23.2288C23.0974 23.6987 23.546 24.3216 23.7438 25.1418C23.8891 26.0652 23.7908 26.8939 23.2645 27.6805C22.7213 28.3489 22.1343 28.6766 21.3281 28.9453C20.3213 29.0475 19.4584 28.9035 18.6282 28.304C17.9823 27.7226 17.651 27.0167 17.5337 26.1598C17.488 25.1049 17.841 24.2716 18.5495 23.4966C19.6668 22.5144 21.1501 22.5257 22.403 23.2288ZM19.6875 25.4297C19.5899 25.8399 19.5899 25.8399 19.6875 26.25C19.9913 26.6826 20.1611 26.8159 20.6836 26.9092C21.2061 26.8159 21.3759 26.6826 21.6797 26.25C21.7774 25.8399 21.7774 25.8399 21.6797 25.4297C21.3759 24.9971 21.2061 24.8638 20.6836 24.7705C20.1611 24.8638 19.9913 24.9971 19.6875 25.4297Z" fill="#EBDCF9"></path><path d="M26.7188 29.5312C27.3612 30.1259 27.8346 30.7492 27.9272 31.642C27.9651 32.6613 27.8073 33.3961 27.1582 34.1894C26.1869 34.9841 25.4055 35.2681 24.1406 35.1562C23.327 34.9375 22.6097 34.4602 22.115 33.7761C21.6497 32.9605 21.5719 32.0434 21.8115 31.1425C22.1458 30.1967 22.6462 29.6152 23.5547 29.1797C24.5751 28.7593 25.8251 28.8738 26.7188 29.5312ZM23.9063 31.5234C23.737 31.8619 23.7449 32.0855 23.7891 32.4609C24.023 32.7972 24.196 33.0061 24.6062 33.0995C25.0097 33.1214 25.2654 33.0794 25.5981 32.8491C25.808 32.5385 25.8895 32.3679 25.8984 31.9922C25.7175 31.5309 25.6115 31.3321 25.1953 31.0547C24.5975 30.9767 24.3343 31.1075 23.9063 31.5234Z" fill="#EBDCF9"></path><path d="M47.3941 23.2769C48.1721 23.9083 48.5441 24.5503 48.6804 25.5415C48.7308 26.524 48.4863 27.2769 47.8322 28.0162C47.1407 28.6681 46.4816 28.9545 45.5347 28.9967C44.6065 28.9672 43.8601 28.5998 43.1841 27.9708C42.5628 27.2753 42.3912 26.4651 42.4219 25.547C42.5483 24.724 42.8767 24.0206 43.4766 23.4376C44.6795 22.5847 46.1415 22.4371 47.3941 23.2769ZM44.773 25.0856C44.5037 25.4176 44.5037 25.4176 44.458 25.84C44.5513 26.3624 44.6846 26.5323 45.1172 26.8361C45.5274 26.9337 45.5274 26.9337 45.9375 26.8361C46.2543 26.5882 46.4563 26.3802 46.6406 26.0231C46.6406 25.6436 46.4834 25.3974 46.2891 25.0782C45.7416 24.7133 45.3156 24.7046 44.773 25.0856Z" fill="#EBDCF9"></path><path d="M39.8437 15.586C40.089 15.7681 40.3099 15.9644 40.5322 16.1737C40.8392 16.4604 41.1602 16.7252 41.4844 16.9922C41.5764 16.8921 41.6684 16.7919 41.7632 16.6887C41.8874 16.5579 42.0118 16.4271 42.1362 16.2964C42.1964 16.2303 42.2566 16.1642 42.3186 16.0962C42.6578 15.7444 42.8405 15.5988 43.3273 15.4743C43.7753 15.4679 43.9541 15.5363 44.2969 15.8203C44.5335 16.1215 44.5314 16.2817 44.5216 16.6686C44.3826 17.2383 44.1269 17.4782 43.7036 17.8638C43.6371 17.9272 43.5705 17.9905 43.502 18.0558C43.3388 18.2108 43.1735 18.3635 43.0078 18.5157C43.078 18.5975 43.078 18.5975 43.1496 18.6809C43.2694 18.8209 43.3889 18.9611 43.5081 19.1016C43.6392 19.2531 43.7731 19.4022 43.9101 19.5484C44.2946 19.9655 44.5442 20.2631 44.5312 20.8594C44.3702 21.1968 44.209 21.416 43.9453 21.6797C43.5567 21.7561 43.3798 21.783 43.0078 21.6797C42.5755 21.3681 42.2069 21.0065 41.8359 20.625C41.7666 20.5557 41.6973 20.4864 41.6258 20.4149C41.5791 20.3682 41.5325 20.3216 41.4844 20.2735C41.0565 20.4523 40.7928 20.71 40.4736 21.0425C39.8762 21.6628 39.8762 21.6628 39.3384 21.7237C38.9062 21.6797 38.9062 21.6797 38.562 21.438C38.3203 21.0938 38.3203 21.0938 38.2324 20.7056C38.3583 20.0869 38.7006 19.7705 39.1406 19.336C39.2017 19.2734 39.2627 19.2109 39.3256 19.1465C39.4573 19.0124 39.5916 18.8809 39.7266 18.75C39.5557 18.3522 39.3354 18.1029 39.0234 17.8052C38.3349 17.1458 38.3349 17.1458 38.2764 16.5308C38.2851 16.1652 38.3056 16.0745 38.5327 15.7691C38.9972 15.4373 39.3071 15.424 39.8437 15.586Z" fill="#EBDCF9"></path><path d="M44.2236 34.6435C44.9908 35.3036 45.5053 36.0025 45.5859 37.0312C45.5825 38.0644 45.2357 38.8779 44.5308 39.6326C43.7877 40.303 42.9837 40.3963 42.0049 40.3646C41.2002 40.2605 40.5806 39.9287 40.0269 39.3383C39.3609 38.4573 39.2376 37.5354 39.375 36.4452C39.6257 35.6331 40.0682 35.0314 40.7812 34.5702C41.8787 34.0119 43.1742 33.9028 44.2236 34.6435ZM41.6016 36.5624C41.4066 36.9518 41.4066 36.9518 41.3672 37.3827C41.5127 37.7593 41.6782 37.9337 41.9824 38.1957C42.3143 38.3539 42.3143 38.3539 42.7295 38.2616C43.1292 38.1156 43.1292 38.1156 43.3594 37.8295C43.5135 37.396 43.4741 37.122 43.3594 36.6796C43.1558 36.3404 43.0018 36.3265 42.6123 36.2255C42.1288 36.2088 41.9573 36.2372 41.6016 36.5624Z" fill="#EBDCF9"></path><path d="M23.3203 15.5859C23.6075 15.7911 23.8376 16.0361 24.0747 16.2964C24.1381 16.3629 24.2014 16.4295 24.2667 16.498C24.4217 16.6612 24.5743 16.8265 24.7266 16.9922C24.8084 16.922 24.8084 16.922 24.8918 16.8504C25.0317 16.7306 25.172 16.6111 25.3125 16.4919C25.464 16.3608 25.6131 16.2269 25.7593 16.0899C26.1796 15.7025 26.4716 15.4688 27.0703 15.4688C27.521 15.5917 27.6254 15.6569 27.8906 16.0547C27.9659 16.445 27.9954 16.6204 27.8906 16.9922C27.5787 17.4243 27.2174 17.7931 26.8359 18.1641C26.7666 18.2334 26.6973 18.3027 26.6258 18.3742C26.5791 18.4209 26.5325 18.4675 26.4844 18.5156C26.6631 18.9435 26.9209 19.2072 27.2534 19.5264C27.8737 20.1238 27.8737 20.1238 27.9346 20.6616C27.8906 21.0938 27.8906 21.0938 27.6489 21.438C27.3047 21.6797 27.3047 21.6797 26.9165 21.7676C26.2978 21.6417 25.9814 21.2994 25.5469 20.8594C25.4843 20.7983 25.4218 20.7373 25.3574 20.6744C25.2233 20.5427 25.0918 20.4084 24.9609 20.2734C24.5631 20.4443 24.3138 20.6646 24.0161 20.9766C23.3567 21.6651 23.3567 21.6651 22.7417 21.7236C22.3913 21.7133 22.2814 21.6902 21.98 21.4893C21.7516 21.1422 21.688 20.9241 21.6797 20.5078C21.9079 19.951 22.2076 19.5896 22.6392 19.1748C22.7975 19.0212 22.7975 19.0212 22.9591 18.8644C23.0396 18.788 23.1202 18.7116 23.2031 18.6328C23.1605 18.5831 23.1179 18.5334 23.074 18.4822C22.95 18.3375 22.8263 18.1925 22.7028 18.0473C22.5711 17.8949 22.4372 17.7443 22.3009 17.596C21.6671 16.8977 21.6671 16.8977 21.6797 16.4062C21.8167 16.0386 21.931 15.7855 22.2363 15.5347C22.6391 15.434 22.9165 15.4878 23.3203 15.5859Z" fill="#EBDCF9"></path><path d="M31.04 23.4083C31.7688 24.1799 32.0517 24.9529 32.1094 26.0157C32.0648 26.9183 31.628 27.7037 30.9682 28.3132C30.1381 28.9408 29.2657 29.0715 28.2422 28.9454C27.1644 28.5846 26.5293 27.9439 26.0156 26.9532C25.7464 26.1455 25.7782 25.223 26.1328 24.4483C26.6185 23.6093 27.2771 23.0425 28.2175 22.7857C29.2517 22.5811 30.1489 22.8659 31.04 23.4083ZM28.0078 25.4298C27.8725 25.7155 27.8725 25.7155 27.8906 26.0157C28.053 26.3482 28.2152 26.5747 28.4765 26.836C29.126 26.9062 29.126 26.9062 29.6997 26.6529C29.9492 26.2637 30.008 26.0103 30 25.5469C29.7859 25.1279 29.7859 25.1279 29.414 24.8438C28.7255 24.7086 28.4239 24.8791 28.0078 25.4298Z" fill="#EBDCF9"></path><path d="M39.0234 23.2032C39.6782 23.6695 40.115 24.2989 40.3125 25.0782C40.4258 26.1277 40.3189 26.9377 39.7778 27.8468C38.9486 28.6548 38.0704 28.9885 36.931 28.9788C36.1611 28.909 35.4674 28.5535 34.9219 28.0079C34.3153 27.2634 34.0563 26.4238 34.124 25.4632C34.2758 24.5536 34.6928 23.9231 35.3906 23.3204C36.6178 22.5905 37.7383 22.5549 39.0234 23.2032ZM36.3281 25.3126C36.1715 25.7059 36.1715 25.7059 36.2109 26.1329C36.4172 26.5542 36.4172 26.5542 36.7969 26.836C37.1562 26.9291 37.3519 26.8968 37.7344 26.836C38.0935 26.5966 38.1822 26.4328 38.313 26.0231C38.3218 25.5905 38.2319 25.4166 37.9688 25.0782C37.3376 24.6574 36.8317 24.7515 36.3281 25.3126Z" fill="#EBDCF9"></path><path d="M27.4219 8.32031C27.7304 8.55011 27.7304 8.55011 28.0225 8.83301C28.3577 9.1536 28.6847 9.45673 29.0625 9.72656C29.1559 9.62641 29.2492 9.52625 29.3454 9.42307C29.4707 9.29222 29.5962 9.16146 29.7217 9.03076C29.7829 8.96467 29.844 8.89858 29.9071 8.83049C30.3057 8.41961 30.5728 8.21564 31.1719 8.20312C31.5527 8.32031 31.5527 8.32031 31.875 8.55469C32.0581 8.94287 32.0581 8.94287 32.1094 9.375C31.8876 9.93403 31.5806 10.294 31.1499 10.708C30.9915 10.8616 30.9915 10.8616 30.8299 11.0184C30.7494 11.0948 30.6689 11.1712 30.5859 11.25C30.6285 11.2997 30.6711 11.3494 30.715 11.4006C30.8391 11.5454 30.9629 11.6905 31.0863 11.8359C31.2173 11.9874 31.3512 12.1366 31.4882 12.2827C31.8727 12.6998 32.1223 12.9975 32.1094 13.5938C31.9484 13.9311 31.7871 14.1504 31.5234 14.4141C31.1348 14.4904 30.9579 14.5174 30.5859 14.4141C30.1536 14.1024 29.785 13.7408 29.4141 13.3594C29.3447 13.29 29.2754 13.2207 29.2039 13.1493C29.1573 13.1026 29.1106 13.0559 29.0625 13.0078C28.6346 13.1866 28.371 13.4443 28.0518 13.7769C27.4543 14.3971 27.4543 14.3971 26.9165 14.458C26.4844 14.4141 26.4844 14.4141 26.1401 14.1724C25.8984 13.8281 25.8984 13.8281 25.8105 13.4399C25.9364 12.8213 26.2787 12.5049 26.7187 12.0703C26.7798 12.0078 26.8408 11.9452 26.9037 11.8808C27.0355 11.7468 27.1698 11.6152 27.3047 11.4844C27.1338 11.0866 26.9136 10.8372 26.6016 10.5396C25.9131 9.88016 25.9131 9.88016 25.8545 9.26514C25.8632 8.89954 25.8837 8.80887 26.1108 8.50342C26.5747 8.17212 26.8837 8.1767 27.4219 8.32031Z" fill="#EBDCF9"></path><path d="M31.5234 15.5859C31.8591 15.8352 32.157 16.1198 32.4609 16.4063C32.5967 16.5221 32.7333 16.6371 32.8711 16.7505C32.9678 16.8302 33.0645 16.91 33.1641 16.9922C33.2517 16.9019 33.3393 16.8115 33.4296 16.7184C33.5461 16.5997 33.6627 16.481 33.7793 16.3623C33.8369 16.3028 33.8944 16.2433 33.9537 16.1819C34.5201 15.608 34.5201 15.608 34.9219 15.4688C35.4151 15.4776 35.6571 15.5095 36.0278 15.8423C36.2555 16.2521 36.3105 16.4135 36.2109 16.875C35.9675 17.2168 35.681 17.5105 35.3906 17.8125C35.2553 17.9678 35.1209 18.124 34.9878 18.2813C34.8391 18.4553 34.8391 18.4553 34.6875 18.6328C34.7877 18.7316 34.8878 18.8304 34.991 18.9322C35.1218 19.0619 35.2525 19.1916 35.3833 19.3213C35.4494 19.3864 35.5155 19.4515 35.5836 19.5186C36.2018 20.1331 36.2018 20.1331 36.2329 20.6104C36.2113 20.9703 36.1765 21.1507 35.9766 21.4453C35.5262 21.7456 35.3398 21.7586 34.8047 21.6797C34.4566 21.4424 34.1676 21.1534 33.8672 20.8594C33.712 20.7239 33.5558 20.5895 33.3984 20.4565C33.2244 20.3079 33.2244 20.3079 33.0469 20.1563C32.9481 20.2564 32.8493 20.3566 32.7475 20.4597C32.6178 20.5905 32.4881 20.7213 32.3584 20.8521C32.2933 20.9181 32.2282 20.9842 32.1611 21.0523C31.5508 21.6663 31.5508 21.6663 31.0107 21.7163C30.5859 21.6797 30.5859 21.6797 30.3076 21.4966C30.051 21.1117 30 20.8532 30 20.3906C30.3381 19.6838 30.9648 19.1699 31.5234 18.6328C31.4243 18.5168 31.3252 18.4008 31.2231 18.2813C31.1598 18.2065 31.0966 18.1317 31.0313 18.0547C30.8886 17.8908 30.7416 17.7306 30.591 17.574C30.0208 16.9713 30.0208 16.9713 29.9194 16.5015C30.0193 16.093 30.1727 15.882 30.4688 15.5859C30.9069 15.4399 31.0794 15.4519 31.5234 15.5859Z" fill="#EBDCF9"></path><path d="M35.7422 8.32031C36.0211 8.52991 36.2527 8.77522 36.4893 9.03076C36.5532 9.0973 36.6171 9.16385 36.6829 9.23241C36.8394 9.39582 36.9941 9.56102 37.1484 9.72656C37.724 9.4945 38.07 9.02838 38.4805 8.57986C38.8329 8.28346 39.0373 8.22618 39.4922 8.20312C39.9429 8.32605 40.0473 8.39125 40.3125 8.78906C40.3869 9.27654 40.4231 9.55759 40.1495 9.97559C39.9396 10.2166 39.7217 10.4417 39.4922 10.6641C39.4312 10.7265 39.3701 10.7888 39.3073 10.8531C39.1756 10.9874 39.0413 11.1191 38.9062 11.25C39.088 11.7055 39.3797 11.952 39.7412 12.2754C40.398 12.9208 40.398 12.9208 40.4224 13.396C40.2901 13.9161 40.1702 14.112 39.7266 14.4141C39.3384 14.502 39.3384 14.502 38.9062 14.4141C38.5573 14.1754 38.2652 13.894 37.9688 13.5938C37.9062 13.5327 37.8437 13.4717 37.7792 13.4088C37.6452 13.277 37.5137 13.1427 37.3828 13.0078C36.985 13.1787 36.7356 13.3989 36.438 13.7109C35.7812 14.3967 35.7812 14.3967 35.2295 14.458C34.7326 14.4066 34.5543 14.3104 34.2188 13.9453C34.0902 13.6111 34.0806 13.4342 34.1771 13.0902C34.3809 12.6837 34.6697 12.4016 34.9951 12.0923C35.0858 12.004 35.0858 12.004 35.1782 11.914C35.3264 11.77 35.4756 11.6271 35.625 11.4844C35.4488 11.0601 35.2 10.818 34.8633 10.5103C34.4051 10.0595 34.1504 9.78794 34.1016 9.14062C34.2387 8.71314 34.341 8.50717 34.7241 8.26904C35.1223 8.1857 35.3483 8.20886 35.7422 8.32031Z" fill="#EBDCF9"></path></g><defs><clipPath id="clip0_1621_1311"><rect width="60" height="60" fill="white"></rect></clipPath></defs></svg>