<svg xmlns="http://www.w3.org/2000/svg" width="30" height="31" viewBox="0 0 30 31" fill="none"><g clip-path="url(#clip0_1734_3600)"><path d="M15 29.5625C22.7665 29.5625 29.0625 23.2665 29.0625 15.5C29.0625 7.7335 22.7665 1.4375 15 1.4375C7.2335 1.4375 0.9375 7.7335 0.9375 15.5C0.9375 23.2665 7.2335 29.5625 15 29.5625Z" stroke="#141515" stroke-miterlimit="10" stroke-linecap="round" stroke-linejoin="round"></path><path d="M10.4062 2.1875C15.6562 9.875 19.7812 18.4063 22.5 27.4063" stroke="#141515" stroke-miterlimit="10" stroke-linecap="round" stroke-linejoin="round"></path><path d="M1.03125 14.1875C8.90625 14.9375 17.4375 12.3125 25.875 6.59375" stroke="#141515" stroke-miterlimit="10" stroke-linecap="round" stroke-linejoin="round"></path><path d="M5.34375 25.7188C9.84375 19.5312 16.9687 15.5 24.8437 15.5C26.25 15.5 27.6562 15.5937 29.0625 15.875" stroke="#141515" stroke-miterlimit="10" stroke-linecap="round" stroke-linejoin="round"></path></g><defs><clipPath id="clip0_1734_3600"><rect width="30" height="30" fill="white" transform="translate(0 0.5)"></rect></clipPath></defs></svg>