<svg xmlns="http://www.w3.org/2000/svg" width="26" height="26" viewBox="0 0 26 26" fill="none"><g clip-path="url(#clip0_1686_488)"><path d="M15.0728 0.48964C15.1417 0.488924 15.1417 0.488924 15.212 0.488195C15.3633 0.486742 15.5147 0.485695 15.666 0.484773C15.7179 0.484453 15.7698 0.484133 15.8232 0.483803C16.0977 0.482218 16.3721 0.481025 16.6466 0.480074C16.8732 0.479205 17.0999 0.477507 17.3265 0.475077C17.6008 0.47214 17.8751 0.470645 18.1494 0.470173C18.2536 0.469756 18.3579 0.468841 18.4621 0.467407C18.6082 0.465505 18.7543 0.465461 18.9004 0.465844C18.9644 0.464382 18.9644 0.464382 19.0296 0.462891C19.357 0.466723 19.5779 0.575119 19.8226 0.79221C20.0584 1.09619 20.1223 1.34592 20.1228 1.72865C20.1231 1.76948 20.1233 1.81031 20.1236 1.85237C20.1243 1.98758 20.1246 2.12279 20.1249 2.25801C20.1252 2.35204 20.1254 2.44607 20.1257 2.5401C20.1262 2.73739 20.1265 2.93469 20.1267 3.13199C20.127 3.3844 20.1281 3.6368 20.1295 3.8892C20.1304 4.08353 20.1307 4.27785 20.1308 4.47217C20.1309 4.5652 20.1313 4.65823 20.1319 4.75125C20.1328 4.88166 20.1327 5.01203 20.1324 5.14243C20.1328 5.18062 20.1333 5.21881 20.1337 5.25816C20.1312 5.59306 20.0375 5.85435 19.8165 6.11324C19.7912 6.14408 19.766 6.17493 19.74 6.20671C19.3875 6.49644 19.0188 6.52222 18.577 6.52023C18.5193 6.52081 18.4616 6.52138 18.4022 6.52198C18.2187 6.52369 18.0354 6.52414 17.852 6.52442C17.6687 6.52522 17.4855 6.5263 17.3023 6.52791C17.1886 6.52886 17.075 6.52933 16.9614 6.52922C16.6367 6.53133 16.3369 6.56264 16.0214 6.64016C15.978 6.90463 15.9627 7.16261 15.9573 7.43036C15.9558 7.49291 15.9558 7.49291 15.9542 7.55673C15.951 7.68879 15.9482 7.82085 15.9453 7.95291C15.9432 8.04292 15.941 8.13293 15.9389 8.22294C15.9337 8.44258 15.9288 8.66223 15.924 8.88188C15.9601 8.88155 15.9963 8.88123 16.0335 8.88089C16.3762 8.87795 16.7188 8.87573 17.0615 8.8743C17.2376 8.87354 17.4137 8.87252 17.5898 8.87085C17.7601 8.86925 17.9304 8.86838 18.1008 8.86801C18.1966 8.86761 18.2924 8.86647 18.3882 8.86531C18.8477 8.86523 19.3013 8.89157 19.6449 9.23003C19.9127 9.53201 20.0051 9.82621 19.9995 10.2232C20.0001 10.2894 20.0001 10.2894 20.0006 10.3569C20.0014 10.5014 20.0005 10.6458 19.9994 10.7903C19.9995 10.8914 19.9996 10.9926 19.9998 11.0937C19.9999 11.3051 19.9992 11.5165 19.9979 11.7279C19.9962 11.9982 19.9965 12.2685 19.9974 12.5388C19.9979 12.7475 19.9975 12.9562 19.9968 13.1648C19.9965 13.2645 19.9965 13.3641 19.9968 13.4638C19.9971 13.6033 19.9961 13.7427 19.9948 13.8822C19.9953 13.9433 19.9953 13.9433 19.9958 14.0056C19.99 14.3619 19.8706 14.6611 19.6155 14.9156C19.5901 14.9421 19.5647 14.9685 19.5386 14.9958C19.1636 15.2622 18.7641 15.2366 18.3225 15.2314C18.2532 15.2312 18.1838 15.231 18.1144 15.2308C17.933 15.2303 17.7517 15.2288 17.5703 15.2272C17.3847 15.2257 17.1992 15.225 17.0136 15.2243C16.6504 15.2227 16.2872 15.2202 15.924 15.2172C15.9241 15.2644 15.9243 15.3117 15.9245 15.3604C15.9288 16.5115 15.932 17.6626 15.9341 18.8137C15.9351 19.3704 15.9364 19.927 15.9387 20.4837C15.9406 20.969 15.9419 21.4542 15.9423 21.9395C15.9426 22.1964 15.9431 22.4533 15.9446 22.7101C15.9459 22.9521 15.9463 23.1941 15.946 23.4361C15.9461 23.5247 15.9464 23.6133 15.9472 23.7019C15.9551 24.6887 15.9551 24.6887 15.6226 25.0932C15.5864 25.1228 15.5501 25.1525 15.5128 25.183C15.4767 25.2137 15.4405 25.2444 15.4033 25.2759C15.1371 25.4591 14.9047 25.4656 14.5914 25.4652C14.5231 25.4657 14.5231 25.4657 14.4534 25.4662C14.3032 25.4672 14.1529 25.4673 14.0026 25.4675C13.8979 25.4678 13.7932 25.4681 13.6885 25.4684C13.4691 25.469 13.2496 25.4692 13.0302 25.4691C12.7495 25.4691 12.4688 25.4705 12.1881 25.4721C11.9718 25.4732 11.7555 25.4734 11.5393 25.4734C11.4358 25.4735 11.3323 25.4739 11.2289 25.4747C11.0839 25.4756 10.939 25.4753 10.794 25.4748C10.7516 25.4753 10.7092 25.4759 10.6655 25.4764C10.3307 25.473 10.0793 25.3821 9.82225 25.1655C9.79643 25.1351 9.77061 25.1047 9.74401 25.0734C9.70434 25.0285 9.70434 25.0285 9.66387 24.9828C9.47761 24.6942 9.42076 24.4168 9.42489 24.078C9.42477 24.0399 9.42464 24.0017 9.42452 23.9624C9.42428 23.8357 9.42508 23.7089 9.42588 23.5822C9.42592 23.4909 9.4259 23.3996 9.42581 23.3083C9.42577 23.0613 9.42663 22.8142 9.42765 22.5672C9.42857 22.3087 9.42865 22.0502 9.42882 21.7918C9.42928 21.3027 9.43048 20.8135 9.43195 20.3244C9.43358 19.7675 9.43438 19.2105 9.43512 18.6535C9.43665 17.508 9.43922 16.3626 9.44248 15.2172C9.41059 15.2177 9.3787 15.2182 9.34585 15.2188C9.01221 15.2242 8.67858 15.2279 8.34491 15.2305C8.2206 15.2318 8.09629 15.2334 7.97199 15.2355C7.7927 15.2385 7.61346 15.2399 7.43414 15.241C7.35157 15.2428 7.35157 15.2428 7.26733 15.2448C6.87561 15.2449 6.54428 15.1709 6.24492 14.9032C5.93235 14.5503 5.87793 14.1944 5.87634 13.7412C5.87586 13.6811 5.87586 13.6811 5.87537 13.6198C5.87442 13.4876 5.87384 13.3555 5.87336 13.2233C5.87306 13.1553 5.87306 13.1553 5.87276 13.0859C5.87174 12.8458 5.87104 12.6056 5.87059 12.3655C5.87005 12.1186 5.86837 11.8717 5.86644 11.6247C5.86516 11.4339 5.86475 11.2431 5.86458 11.0523C5.86434 10.9613 5.86378 10.8704 5.86287 10.7794C5.85236 9.65699 5.85236 9.65699 6.22915 9.22606C6.60338 8.8937 7.07384 8.8535 7.55312 8.86284C7.60753 8.86312 7.66194 8.86339 7.71799 8.86368C7.88978 8.86476 8.06152 8.8672 8.23329 8.8697C8.35058 8.87067 8.46788 8.87156 8.58518 8.87236C8.87096 8.8745 9.15671 8.87775 9.44248 8.88188C9.44226 8.85269 9.44204 8.8235 9.44182 8.79343C9.43963 8.48502 9.43818 8.17661 9.43712 7.8682C9.43664 7.75364 9.43597 7.63909 9.43512 7.52454C9.42882 6.6546 9.43748 5.80402 9.66787 4.95888C9.68051 4.91188 9.69315 4.86489 9.70618 4.81647C10.1176 3.35275 11.0308 2.04348 12.3695 1.28868C12.4976 1.21904 12.6267 1.15153 12.7563 1.08461C12.8002 1.06111 12.844 1.03762 12.8892 1.01341C13.5539 0.682116 14.333 0.494538 15.0728 0.48964ZM13.8345 2.26638C13.7958 2.28115 13.7571 2.29591 13.7172 2.31113C13.4032 2.43516 13.1246 2.5875 12.8538 2.79026C12.8125 2.82029 12.7712 2.85032 12.7287 2.88125C11.6987 3.66439 11.1625 4.84317 10.9885 6.10364C10.948 6.45154 10.9459 6.79898 10.945 7.14877C10.9446 7.25679 10.9439 7.3648 10.943 7.47282C10.9404 7.77955 10.9381 8.08627 10.9373 8.39301C10.9368 8.5816 10.9354 8.77015 10.9334 8.95872C10.9328 9.03012 10.9325 9.10152 10.9326 9.17292C10.9334 9.88793 10.9334 9.88793 10.7095 10.1489C10.4036 10.4044 10.0692 10.3732 9.68481 10.3736C9.62671 10.3743 9.56862 10.3751 9.50876 10.3759C9.29276 10.3784 9.07674 10.3793 8.86073 10.3804C8.37726 10.3844 7.8938 10.3885 7.39569 10.3926C7.39569 11.4862 7.39569 12.5797 7.39569 13.7064C8.32657 13.7167 8.32657 13.7167 9.25745 13.7253C9.37452 13.7269 9.49159 13.7285 9.60866 13.7302C9.669 13.7305 9.72934 13.7308 9.7915 13.7312C10.4267 13.7417 10.4267 13.7417 10.697 13.9745C10.8891 14.2289 10.9118 14.4121 10.9122 14.722C10.9125 14.781 10.9125 14.781 10.9129 14.8412C10.9137 14.9734 10.9141 15.1056 10.9145 15.2379C10.9149 15.3325 10.9154 15.4271 10.9159 15.5217C10.9173 15.7789 10.9183 16.0361 10.9192 16.2934C10.9203 16.5621 10.9216 16.8308 10.923 17.0994C10.9254 17.6084 10.9276 18.1174 10.9297 18.6263C10.9321 19.2057 10.9348 19.7851 10.9375 20.3644C10.943 21.5564 10.9482 22.7484 10.9532 23.9404C12.095 23.9404 13.2368 23.9404 14.4132 23.9404C14.4139 23.6511 14.4147 23.3618 14.4154 23.0637C14.4178 22.1092 14.4211 21.1548 14.4247 20.2003C14.4269 19.6215 14.4288 19.0426 14.4301 18.4638C14.4312 17.9593 14.4329 17.4548 14.4351 16.9503C14.4363 16.6831 14.4372 16.416 14.4375 16.1488C14.4378 15.8974 14.4388 15.646 14.4402 15.3945C14.4407 15.3022 14.4409 15.21 14.4408 15.1177C14.4407 14.9916 14.4415 14.8656 14.4425 14.7396C14.4422 14.6848 14.4422 14.6848 14.4418 14.629C14.4449 14.3984 14.4955 14.2471 14.6082 14.0476C14.6082 14.0154 14.6082 13.9832 14.6082 13.9501C14.8817 13.8028 15.1267 13.743 15.4374 13.7396C15.4866 13.7389 15.4866 13.7389 15.5369 13.7382C15.6445 13.7367 15.752 13.7358 15.8596 13.735C15.9346 13.7341 16.0096 13.7331 16.0845 13.7321C16.2811 13.7296 16.4777 13.7277 16.6743 13.7259C16.9106 13.7236 17.1469 13.7206 17.3832 13.7177C17.7415 13.7134 18.0998 13.71 18.4581 13.7064C18.4581 12.6129 18.4581 11.5193 18.4581 10.3926C18.2123 10.3913 17.9664 10.3901 17.7132 10.3888C17.557 10.3876 17.4009 10.3863 17.2448 10.3848C16.9972 10.3824 16.7496 10.3803 16.5021 10.3794C16.3023 10.3787 16.1027 10.377 15.903 10.3747C15.8269 10.3739 15.7509 10.3735 15.6749 10.3735C15.568 10.3734 15.4612 10.3721 15.3544 10.3705C15.2937 10.37 15.233 10.3696 15.1704 10.3692C14.8985 10.3293 14.7175 10.2219 14.5395 10.0077C14.4064 9.73978 14.4362 9.43478 14.4395 9.14306C14.4396 9.07883 14.4396 9.0146 14.4396 8.94843C14.4398 8.81275 14.4406 8.6771 14.4419 8.54144C14.4436 8.36903 14.4439 8.19664 14.4439 8.02423C14.4439 7.89026 14.4444 7.7563 14.4451 7.62234C14.4456 7.52833 14.4458 7.43432 14.4459 7.34032C14.453 6.68038 14.5363 6.05152 15.0028 5.54824C15.7043 4.96049 16.6676 5.00787 17.5261 4.99847C17.8819 4.99345 18.2377 4.98842 18.6043 4.98324C18.6043 3.98617 18.6043 2.98909 18.6043 1.9618C18.0095 1.95753 18.0095 1.95753 17.4148 1.95466C17.1715 1.95379 16.9283 1.95278 16.685 1.95077C16.4885 1.94916 16.2919 1.9483 16.0954 1.94793C16.0211 1.94766 15.9469 1.94714 15.8726 1.94634C15.1758 1.93914 14.4889 2.01051 13.8345 2.26638Z" fill="#141515"></path></g><defs><clipPath id="clip0_1686_488"><rect width="24.9513" height="25" fill="white" transform="translate(0.524353 0.5)"></rect></clipPath></defs></svg>