<svg xmlns="http://www.w3.org/2000/svg" width="30" height="31" viewBox="0 0 30 31" fill="none"><path d="M18.0208 8.26323C18.0208 8.2215 18.2353 8.08441 18.9208 8.08441H21.1619C21.3369 8.08679 21.5106 8.05428 21.6729 7.98877C21.8352 7.92326 21.9828 7.82608 22.107 7.70289C22.2313 7.5797 22.3299 7.43298 22.3968 7.27129C22.4638 7.10961 22.4978 6.9362 22.497 6.7612V2.85118C22.5002 2.67692 22.4689 2.50374 22.4049 2.34161C22.341 2.17947 22.2456 2.03158 22.1243 1.90641C22.003 1.78124 21.8582 1.68126 21.6981 1.61223C21.5381 1.5432 21.366 1.50646 21.1917 1.50413H17.8539C16.9276 1.47239 16.0045 1.62932 15.1407 1.9654C14.2769 2.30148 13.4905 2.80969 12.8293 3.45914C12.1888 4.15002 11.6912 4.96061 11.3649 5.84436C11.0386 6.72811 10.8901 7.66762 10.9279 8.60893V12.1554H8.33513C8.16058 12.1546 7.98758 12.1882 7.82602 12.2543C7.66446 12.3203 7.51749 12.4176 7.39352 12.5404C7.26954 12.6633 7.17097 12.8094 7.10345 12.9704C7.03593 13.1313 7.00078 13.304 7 13.4786V17.6926C7 18.0419 7.13878 18.377 7.38581 18.624C7.63284 18.871 7.96789 19.0098 8.31725 19.0098H10.8683V28.159C10.8635 28.509 10.9975 28.8465 11.2411 29.0979C11.4846 29.3492 11.8178 29.4938 12.1677 29.5001H16.5486C16.722 29.5001 16.8938 29.4659 17.054 29.3993C17.2142 29.3327 17.3597 29.2352 17.4821 29.1122C17.6045 28.9893 17.7014 28.8433 17.7673 28.6828C17.8331 28.5223 17.8666 28.3504 17.8658 28.1769V19.0396H20.9831C21.3335 19.0381 21.6692 18.8981 21.917 18.6503C22.1648 18.4025 22.3047 18.0669 22.3063 17.7164V13.4965C22.3063 13.323 22.272 13.1512 22.2055 12.991C22.1389 12.8308 22.0413 12.6853 21.9184 12.5629C21.7954 12.4405 21.6495 12.3436 21.489 12.2778C21.3285 12.2119 21.1566 12.1784 20.9831 12.1792H17.8837V9.07384C17.8505 8.79607 17.8981 8.51462 18.0208 8.26323Z" stroke="#141515" stroke-linecap="round"></path></svg>