<svg xmlns="http://www.w3.org/2000/svg" width="101" height="101" viewBox="0 0 101 101" fill="none"><g clip-path="url(#clip0_1646_111)"><path d="M57.8516 48.2108C58.5494 48.7557 59.1828 49.339 59.8047 49.9686C59.9288 50.0884 60.0529 50.2083 60.1808 50.3317C62.4327 52.6685 63.3225 55.9434 63.3315 59.1102C63.247 62.3543 61.8417 65.4023 59.6094 67.742C59.1049 68.2197 58.5885 68.6742 58.0469 69.1092C58.2266 69.1757 58.4064 69.2421 58.5916 69.3106C61.2208 70.3071 63.5291 71.5499 65.6641 73.4061C65.8265 73.5425 65.9888 73.679 66.1562 73.8196C67.384 74.8795 68.3834 76.0309 69.375 77.3123C70.0129 77.1582 70.0129 77.1582 70.4248 76.5433C72.1255 74.5091 74.4299 73.322 76.7969 72.2342C76.6277 72.0449 76.4585 71.8555 76.2842 71.6605C74.4553 69.5037 73.3798 67.1081 73.4232 64.2332C73.7046 61.1097 74.9657 58.642 77.3828 56.6092C79.679 54.9329 82.2778 54.4429 85.0854 54.7537C87.6533 55.222 89.8427 56.6398 91.4507 58.6722C93.0683 61.0251 93.509 63.5766 93.2031 66.3748C92.7398 68.6834 91.4763 70.5464 89.8828 72.2342C90.0789 72.3243 90.2751 72.4145 90.4771 72.5073C94.8889 74.5896 98.0505 77.7017 100.039 82.1951C100.106 82.3384 100.172 82.4816 100.24 82.6292C100.828 84.0834 100.894 85.8586 100.497 87.3701C99.8337 88.8364 98.6849 89.7954 97.2359 90.4249C96.3076 90.7276 95.3896 90.6954 94.4215 90.6823C94.1983 90.6824 93.9752 90.6825 93.7453 90.6826C93.0129 90.6821 92.2807 90.676 91.5483 90.6699C91.0385 90.6684 90.5287 90.6673 90.0188 90.6665C88.8173 90.6641 87.6159 90.6577 86.4145 90.6498C85.0456 90.6411 83.6768 90.6368 82.3079 90.6329C79.4943 90.6247 76.6807 90.611 73.8672 90.5936C73.8683 90.7061 73.8695 90.8187 73.8707 90.9347C73.8753 91.4492 73.8781 91.9636 73.8809 92.478C73.8828 92.6551 73.8846 92.8322 73.8865 93.0147C73.8916 94.252 73.8206 95.3209 73.2812 96.4529C73.205 96.6161 73.1287 96.7792 73.0501 96.9473C72.113 98.7099 70.6736 99.861 68.8275 100.581C67.5123 100.936 66.1378 100.858 64.7852 100.851C64.4417 100.852 64.0982 100.853 63.7547 100.855C62.8266 100.859 61.8985 100.857 60.9703 100.855C59.9964 100.853 59.0224 100.855 58.0484 100.856C56.4132 100.857 54.7779 100.855 53.1427 100.852C51.2555 100.847 49.3684 100.849 47.4812 100.853C45.8573 100.857 44.2333 100.857 42.6094 100.855C41.6411 100.854 40.6728 100.854 39.7045 100.856C38.7939 100.859 37.8833 100.857 36.9727 100.852C36.6397 100.851 36.3067 100.852 35.9736 100.853C33.3427 100.866 31.2876 100.504 29.3359 98.6014C28.1329 97.1173 27.3513 95.4833 27.3637 93.55C27.3644 93.3769 27.365 93.2038 27.3656 93.0254C27.3673 92.8473 27.3689 92.6692 27.3706 92.4857C27.3715 92.3038 27.3724 92.1218 27.3733 91.9344C27.3756 91.4875 27.3788 91.0405 27.3828 90.5936C27.2086 90.5946 27.2086 90.5946 27.0308 90.5957C24.1991 90.613 21.3673 90.6259 18.5355 90.634C17.166 90.6381 15.7966 90.6435 14.4271 90.6525C13.105 90.6611 11.7829 90.6657 10.4608 90.6677C9.95689 90.6691 9.453 90.6719 8.94912 90.6762C8.24221 90.6819 7.53544 90.6826 6.82851 90.6823C6.62115 90.6851 6.41379 90.6879 6.20015 90.6908C4.70559 90.6825 3.54943 90.3733 2.33017 89.4919C1.13438 88.2446 0.586063 87.2742 0.50293 85.5154C0.611862 81.7441 3.02986 78.2607 5.67261 75.7201C7.41989 74.2228 9.2369 73.1047 11.3672 72.2342C11.2218 72.088 11.2218 72.088 11.0735 71.9389C8.76685 69.501 7.91139 67.02 7.9866 63.7473C8.11381 61.2158 9.30861 58.8502 11.1574 57.1219C13.5229 55.2687 16.027 54.4717 19.0263 54.7049C21.1832 55.0158 22.8204 55.7574 24.4531 57.1951C24.576 57.3019 24.6989 57.4086 24.8254 57.5186C26.8207 59.3738 27.7576 61.9541 27.8589 64.6536C27.7054 67.697 26.5447 69.8971 24.4531 72.0389C25.0455 72.5176 25.6425 72.8318 26.333 73.1497C27.542 73.7439 28.5182 74.4787 29.5312 75.3592C29.6813 75.4856 29.8314 75.612 29.986 75.7422C30.5774 76.2464 31.0504 76.6614 31.4844 77.3123C31.6133 77.3123 31.7422 77.3123 31.875 77.3123C32.159 76.9925 32.4294 76.6605 32.6929 76.3235C35.4545 72.8923 39.0426 70.5269 43.2031 69.1092C43.0639 68.9909 42.9247 68.8725 42.7812 68.7506C39.9917 66.3102 38.2374 63.2882 37.9297 59.5389C37.7751 56.1882 38.7651 52.8988 40.9814 50.334C45.3368 45.5777 52.4691 44.613 57.8516 48.2108ZM43.3984 52.7029C41.8682 54.7355 41.073 57.1607 41.2996 59.7052C41.7552 62.6195 43.191 64.8071 45.5469 66.5701C47.7718 67.9313 50.2074 68.2933 52.7689 67.8328C53.2422 67.6987 53.6867 67.5405 54.1406 67.3514C54.2715 67.3015 54.4025 67.2517 54.5374 67.2003C56.813 66.216 58.5695 64.0802 59.4873 61.8216C60.2496 59.472 60.1203 57.1282 59.1684 54.8491C57.9569 52.4758 56.1257 50.679 53.5791 49.7977C49.7874 48.6587 46.0596 49.8162 43.3984 52.7029ZM13.125 59.9295C12.6723 60.4865 12.3 61.0595 11.9531 61.6873C11.8864 61.8074 11.8197 61.9275 11.7509 62.0512C11.0619 63.5479 11.1196 65.4731 11.6479 67.0096C12.5275 68.8829 13.9507 70.1263 15.8594 70.867C17.4017 71.3811 19.2184 71.2254 20.6812 70.5397C22.5231 69.485 23.6151 68.3068 24.2212 66.265C24.6434 64.5085 24.4646 63.0086 23.6154 61.4081C22.6209 59.8285 21.3746 58.7206 19.5703 58.1717C17.2683 57.6713 14.7998 58.205 13.125 59.9295ZM78.3838 60.2835C77.2096 61.7291 76.6772 63.3478 76.7969 65.2029C77.0938 66.9766 77.7866 68.4847 79.175 69.6661C79.6075 69.9694 80.0412 70.2292 80.5078 70.4764C80.6876 70.5757 80.6876 70.5757 80.871 70.677C82.3653 71.3699 84.2949 71.3094 85.8301 70.7816C87.6865 69.9099 88.9781 68.4806 89.6875 66.5701C90.2227 64.8526 89.9854 63.0563 89.2343 61.4523C88.1877 59.7096 86.7104 58.6612 84.7803 58.1229C82.3201 57.6467 80.094 58.4527 78.3838 60.2835ZM37.5391 76.1404C37.4205 76.2336 37.3019 76.3268 37.1797 76.4227C33.7855 79.1165 31.388 83.8198 30.7612 88.0945C30.6412 89.2226 30.6172 90.3509 30.6055 91.4847C30.6018 91.717 30.5982 91.9493 30.5945 92.1887C30.6055 93.7095 30.745 95.0878 31.8319 96.2333C33.1455 97.426 34.3791 97.6484 36.1363 97.6509C36.2654 97.6514 36.3945 97.6518 36.5275 97.6523C36.9575 97.6535 37.3875 97.6534 37.8174 97.6532C38.1268 97.6538 38.4362 97.6544 38.7455 97.6552C39.5841 97.6569 40.4227 97.6574 41.2612 97.6575C41.7856 97.6576 42.3099 97.658 42.8342 97.6586C44.6647 97.6604 46.4951 97.6612 48.3256 97.661C50.0299 97.6609 51.7342 97.663 53.4386 97.666C54.9036 97.6686 56.3686 97.6696 57.8336 97.6695C58.7078 97.6695 59.582 97.67 60.4562 97.6721C61.2786 97.674 62.101 97.674 62.9234 97.6726C63.2245 97.6724 63.5256 97.6728 63.8266 97.674C66.6821 97.7135 66.6821 97.7135 69.1797 96.4529C70.9441 94.6083 70.6418 92.4347 70.6071 90.0381C70.4571 85.2908 68.3798 80.8923 65.0781 77.5076C64.917 77.3384 64.7559 77.1693 64.5898 76.9949C64.4287 76.8419 64.2676 76.6888 64.1016 76.5311C63.9267 76.3577 63.9267 76.3577 63.7483 76.1809C60.2026 72.8173 54.9384 71.1048 50.107 71.2088C45.4448 71.557 41.08 73.0093 37.5391 76.1404ZM7.11533 79.0221C5.56764 80.7694 3.86595 83.3053 3.88809 85.71C3.97801 86.325 4.29082 86.655 4.72656 87.0779C5.19763 87.3135 5.49069 87.2973 6.01687 87.2967C6.20639 87.297 6.39592 87.2973 6.59119 87.2976C6.79981 87.2969 7.00843 87.2962 7.22338 87.2954C7.44251 87.2955 7.66164 87.2955 7.88741 87.2955C8.6145 87.2954 9.34158 87.2939 10.0687 87.2923C10.5717 87.292 11.0747 87.2917 11.5777 87.2915C12.7682 87.2908 13.9586 87.2893 15.149 87.2873C16.5042 87.2851 17.8593 87.2841 19.2144 87.2831C22.0023 87.281 24.7902 87.2776 27.5781 87.2733C27.7951 86.6257 28.0099 85.9804 28.1931 85.3224C28.9764 82.5578 28.9764 82.5578 29.6091 81.3673C29.7683 80.9009 29.7182 80.6977 29.5312 80.242C27.3109 77.268 24.0052 75.2134 20.3516 74.5779C20.2098 74.5528 20.0681 74.5276 19.922 74.5016C15.1549 73.7899 10.4741 75.6823 7.11533 79.0221ZM72.1094 79.6561C71.9948 79.7797 71.8803 79.9033 71.7622 80.0307C71.4812 80.423 71.4812 80.423 71.5494 80.8829C71.7653 81.5597 72.0184 82.2188 72.2803 82.8787C72.7593 84.1124 73.1076 85.3145 73.3705 86.6133C73.4306 87.0667 73.4306 87.0667 73.6719 87.2733C73.9612 87.2936 74.2515 87.3005 74.5415 87.302C74.7293 87.3034 74.9172 87.3048 75.1107 87.3062C75.3185 87.3068 75.5263 87.3073 75.7404 87.3078C75.9579 87.3091 76.1755 87.3104 76.3996 87.3117C77.123 87.3156 77.8465 87.3178 78.5699 87.3198C78.8164 87.3206 79.0628 87.3214 79.3166 87.3222C80.4862 87.3259 81.6557 87.3287 82.8253 87.3303C84.1756 87.3322 85.5258 87.3374 86.8761 87.3453C88.0453 87.3519 89.2144 87.3542 90.3835 87.355C90.881 87.3559 91.3784 87.3582 91.8759 87.3618C92.5717 87.3666 93.2674 87.3664 93.9632 87.365C94.1694 87.3675 94.3756 87.37 94.5881 87.3726C95.7241 87.3655 95.7241 87.3655 96.7445 86.9013C97.2919 86.2873 97.3845 85.846 97.3711 85.0203C96.9573 82.019 94.5814 79.1742 92.2754 77.3734C89.8965 75.6622 87.1739 74.5182 84.2188 74.3826C84.0931 74.3726 83.9675 74.3625 83.838 74.3521C79.2786 74.1437 75.0867 76.3057 72.1094 79.6561Z" fill="black"></path><path d="M51.4062 13.0546C52.6125 13.6375 52.9077 14.3873 53.3349 15.5814C53.399 15.7511 53.4631 15.9207 53.5291 16.0955C53.665 16.456 53.7993 16.8171 53.9321 17.1787C54.1451 17.7541 54.3653 18.3262 54.5877 18.8979C55.1781 20.4207 55.1781 20.4207 55.4162 21.0456C55.4995 21.263 55.4995 21.263 55.5845 21.4848C55.7031 21.8436 55.7031 21.8436 55.7031 22.2342C55.848 22.2327 55.9929 22.2311 56.1422 22.2295C57.8057 22.2197 59.4622 22.261 61.1231 22.3475C61.4102 22.3616 61.6975 22.3739 61.9848 22.3843C62.4077 22.3998 62.8299 22.4213 63.2524 22.4441C63.5001 22.4553 63.7478 22.4666 64.0031 22.4782C64.8875 22.6678 65.2204 22.9714 65.8594 23.6014C66.0838 24.0504 66.0934 24.3348 66.1035 24.8343C66.1085 24.9826 66.1136 25.1309 66.1188 25.2837C65.9804 26.2903 65.3971 26.839 64.6133 27.4376C64.5008 27.5211 64.3883 27.6047 64.2724 27.6908C64.0285 27.8768 63.7849 28.0632 63.5415 28.25C63.3471 28.3991 63.3471 28.3991 63.1488 28.5511C62.2461 29.2563 61.3702 29.9952 60.4905 30.7288C60.3558 30.8406 60.2211 30.9524 60.0824 31.0676C59.9029 31.2174 59.9029 31.2174 59.7198 31.3702C59.414 31.6092 59.414 31.6092 59.0234 31.8046C59.1248 32.2156 59.2266 32.6266 59.3286 33.0375C59.3615 33.1718 59.3944 33.3061 59.4283 33.4445C59.6613 34.3865 59.9126 35.3219 60.1747 36.2563C60.2384 36.4882 60.3021 36.7202 60.3677 36.9591C60.4953 37.4231 60.6258 37.8863 60.7595 38.3485C61.1097 39.6372 61.2894 40.5098 60.7812 41.7655C60.2746 42.2594 59.7795 42.7327 59.0459 42.7515C57.8421 42.6523 57.0836 42.2963 56.1059 41.6068C55.8964 41.4662 55.8964 41.4662 55.6827 41.3229C55.0688 40.9097 54.462 40.4871 53.8571 40.0611C53.5378 39.8363 53.2176 39.6126 52.8966 39.3903C52.5912 39.1785 52.2882 38.9634 51.9876 38.7448C51.2205 38.1755 51.2205 38.1755 50.3137 38.1324C50.1586 38.2356 50.0035 38.3388 49.8437 38.4452C49.6393 38.5738 49.4349 38.7025 49.2242 38.835C48.9908 38.9933 48.7579 39.1523 48.5254 39.3119C48.2655 39.4864 48.0056 39.6609 47.7456 39.8353C47.323 40.1204 46.9015 40.407 46.482 40.6968C46.0502 40.995 45.6156 41.2888 45.1806 41.5824C45.0485 41.6755 44.9164 41.7687 44.7803 41.8646C43.8422 42.4917 42.9782 42.7996 41.8359 42.7421C41.0731 42.403 40.7451 42.0738 40.2612 41.3993C39.6148 39.6199 40.9908 36.6127 41.4819 34.8807C41.6237 34.3794 41.7647 33.8779 41.9053 33.3762C41.9671 33.1584 42.0288 32.9405 42.0924 32.7161C42.2428 32.2218 42.2428 32.2218 42.2265 31.8046C41.8225 31.4595 41.4167 31.1359 40.9936 30.8158C40.7412 30.6214 40.4889 30.4269 40.2368 30.2321C40.1107 30.1351 39.9845 30.038 39.8546 29.9379C39.1717 29.4069 38.5077 28.8531 37.8412 28.3019C37.2191 27.7972 36.5793 27.318 35.9331 26.8447C35.4341 26.394 35.2367 25.9896 35.1228 25.3303C35.0982 24.5035 35.1223 23.964 35.6592 23.3085C36.4282 22.5761 36.872 22.5843 37.9213 22.5204C38.0578 22.512 38.1942 22.5036 38.3349 22.4949C38.6253 22.4773 38.9157 22.4601 39.2062 22.4432C39.6418 22.4179 40.0772 22.3908 40.5126 22.3636C42.1926 22.2617 43.863 22.2095 45.5469 22.2342C45.5758 22.1291 45.6048 22.0239 45.6347 21.9156C46.0557 20.4488 46.5789 19.0244 47.1247 17.6006C47.2289 17.3274 47.3319 17.0537 47.4337 16.7797C47.5829 16.3779 47.7356 15.9777 47.8891 15.5776C47.9784 15.3415 48.0678 15.1054 48.1598 14.8621C48.8569 13.463 49.8302 12.7584 51.4062 13.0546ZM50.4297 18.5233C50.3293 18.7938 50.3293 18.7938 50.2269 19.0698C49.9775 19.7401 49.7248 20.4092 49.4712 21.078C49.362 21.3673 49.2537 21.657 49.1462 21.947C48.9914 22.3643 48.8335 22.7804 48.6749 23.1963C48.6277 23.3257 48.5804 23.4551 48.5318 23.5885C48.2465 24.326 48.0019 24.7732 47.3047 25.1639C46.6182 25.3928 45.9675 25.4247 45.2516 25.4638C45.1094 25.4722 44.9671 25.4806 44.8206 25.4892C44.3669 25.5158 43.9132 25.5413 43.4595 25.5668C43.1516 25.5846 42.8438 25.6026 42.5359 25.6206C41.7818 25.6645 41.0276 25.7074 40.2734 25.7499C40.8401 26.3269 41.4082 26.8774 42.0373 27.3856C42.1796 27.5014 42.3218 27.6172 42.4684 27.7366C42.6142 27.8544 42.7599 27.9722 42.9101 28.0936C45.4873 30.1768 45.4873 30.1768 45.6899 31.0639C45.7468 31.8706 45.6351 32.4311 45.4126 33.2061C45.3772 33.3333 45.3417 33.4605 45.3052 33.5915C45.193 33.9935 45.0772 34.3944 44.9609 34.7953C44.8451 35.1997 44.73 35.6044 44.6166 36.0095C44.5142 36.3746 44.4092 36.739 44.304 37.1034C44.1211 37.6494 44.1211 37.6494 44.375 38.0546C44.557 37.9317 44.739 37.8088 44.9266 37.6822C45.5833 37.2403 46.2429 36.8029 46.9037 36.3671C47.1591 36.1979 47.4138 36.0275 47.6674 35.8556C47.9959 35.6331 48.3277 35.4155 48.6596 35.1981C48.8507 35.0707 49.0418 34.9433 49.2387 34.8121C49.9895 34.4731 50.6054 34.3757 51.4062 34.5389C52.0231 34.8067 52.5682 35.1562 53.1274 35.5277C53.28 35.6251 53.4325 35.7225 53.5897 35.8228C53.8941 36.0176 54.1977 36.2139 54.5002 36.4118C54.874 36.6561 55.2498 36.8965 55.6276 37.1345C56.1102 37.4387 56.591 37.7452 57.0703 38.0546C56.957 37.5621 56.8429 37.0698 56.7285 36.5775C56.6769 36.353 56.6769 36.353 56.6243 36.1239C56.4517 35.3837 56.27 34.6508 56.0495 33.9232C56.0119 33.7964 55.9743 33.6695 55.9356 33.5388C55.8312 33.1917 55.7223 32.846 55.6131 32.5004C55.4755 31.5913 55.5149 30.8896 55.8984 30.0467C56.3628 29.4978 56.898 29.0833 57.4731 28.6551C57.6228 28.538 57.7724 28.4209 57.9266 28.3002C58.3543 27.9667 58.7858 27.639 59.2187 27.3124C59.5811 27.032 59.9434 26.7513 60.3052 26.4701C60.4383 26.3701 60.5715 26.2702 60.7087 26.1672C60.7971 26.0939 60.8855 26.0207 60.9765 25.9452C60.9765 25.8807 60.9765 25.8163 60.9765 25.7499C60.7874 25.7411 60.5983 25.7323 60.4035 25.7233C59.6979 25.6899 58.9925 25.653 58.2872 25.6152C57.9826 25.5993 57.678 25.5843 57.3734 25.5703C56.9339 25.55 56.4948 25.5263 56.0556 25.5019C55.9206 25.4964 55.7857 25.4909 55.6467 25.4852C54.7584 25.4316 54.1128 25.2487 53.3594 24.7733C52.601 23.5303 52.1509 22.1325 51.6504 20.7694C51.5299 20.4446 51.5299 20.4446 51.407 20.1133C51.2106 19.5836 51.0151 19.0536 50.8203 18.5233C50.6914 18.5233 50.5625 18.5233 50.4297 18.5233Z" fill="black"></path><path d="M85.9766 13.0546C86.8937 13.5503 87.3059 13.957 87.6856 14.9223C87.7797 15.1592 87.8739 15.3961 87.9709 15.6402C88.0878 15.9501 88.2042 16.2601 88.3203 16.5703C88.4002 16.7806 88.4801 16.9909 88.5624 17.2076C89.0092 18.3859 89.4517 19.5657 89.8874 20.7481C89.9618 20.9496 90.0362 21.1511 90.1128 21.3587C90.2735 21.8437 90.2735 21.8437 90.2735 22.2343C90.4335 22.2328 90.5935 22.2312 90.7583 22.2296C92.449 22.2205 94.1319 22.2561 95.82 22.3476C96.0964 22.3617 96.3728 22.374 96.6494 22.3844C99.2541 22.4835 99.2541 22.4835 100.021 23.1048C100.561 23.7607 100.662 24.097 100.686 24.9321C100.697 25.1817 100.697 25.1817 100.708 25.4364C100.52 26.5887 99.516 27.2217 98.6353 27.8862C98.3937 28.0731 98.1524 28.2603 97.9113 28.4477C97.7829 28.5472 97.6546 28.6466 97.5224 28.7491C96.7696 29.3345 96.0218 29.9256 95.2784 30.5229C95.1308 30.6383 94.9832 30.7537 94.8311 30.8727C94.6952 30.9826 94.5593 31.0925 94.4193 31.2057C94.2976 31.3025 94.1759 31.3993 94.0505 31.499C93.7045 31.8366 93.7045 31.8366 93.7891 32.5859C93.9244 33.1386 94.0686 33.6836 94.2232 34.2308C94.3132 34.5593 94.4031 34.8879 94.4929 35.2165C94.6348 35.732 94.7776 36.2472 94.9225 36.7618C95.0623 37.2603 95.1984 37.7596 95.334 38.2591C95.3778 38.4109 95.4215 38.5628 95.4666 38.7192C95.7423 39.7481 95.7653 40.5229 95.5469 41.5703C95.1487 42.1551 94.8491 42.4566 94.1698 42.6765C92.2586 43.0132 90.7286 41.6454 89.2237 40.6181C87.9038 39.7209 86.5729 38.8611 85.1953 38.0546C83.4919 39.1067 81.7998 40.1702 80.1443 41.2967C77.7239 42.9338 77.7239 42.9338 76.4063 42.7421C75.6829 42.3463 75.3021 42.0624 74.8438 41.375C74.4622 39.5198 75.3229 37.4841 75.8326 35.7231C75.975 35.2271 76.1168 34.7309 76.2565 34.2341C76.3431 33.9267 76.4313 33.6198 76.5212 33.3134C76.7693 32.4641 76.7693 32.4641 76.6016 31.6093C76.2138 31.2746 75.8261 30.9645 75.4175 30.6572C75.1691 30.4659 74.9209 30.2744 74.6729 30.0827C74.542 29.9819 74.411 29.8812 74.2762 29.7774C73.5764 29.2358 72.8846 28.6846 72.1949 28.1303C72.0648 28.0275 71.9347 27.9247 71.8007 27.8188C69.9326 26.3141 69.9326 26.3141 69.6428 25.3349C69.6773 24.3608 69.8929 23.7786 70.5469 23.0156C71.1108 22.6711 71.5682 22.5673 72.2237 22.5268C72.3996 22.5151 72.5755 22.5034 72.7567 22.4914C73.039 22.4752 73.039 22.4752 73.3271 22.4586C73.618 22.44 73.618 22.44 73.9149 22.4209C74.5337 22.3815 75.1526 22.3445 75.7715 22.3076C76.1914 22.2813 76.6113 22.2548 77.0311 22.2282C78.0597 22.1634 79.0884 22.1005 80.1172 22.039C80.2009 21.8075 80.2845 21.5759 80.3707 21.3373C80.6828 20.4755 80.9985 19.615 81.3153 18.7548C81.4517 18.3829 81.5871 18.0107 81.7215 17.638C81.9154 17.1013 82.1127 16.566 82.3107 16.0309C82.3697 15.865 82.4288 15.6992 82.4896 15.5283C83.1111 13.8696 84.0562 12.6937 85.9766 13.0546ZM85.1953 18.3281C85.0647 18.6371 84.9346 18.9464 84.8047 19.2558C84.7163 19.466 84.628 19.6763 84.5369 19.8929C84.2923 20.4838 84.0614 21.0791 83.8335 21.6766C83.7661 21.851 83.6988 22.0254 83.6294 22.2051C83.4947 22.5547 83.3619 22.905 83.2312 23.2561C83.1681 23.4187 83.105 23.5813 83.04 23.7488C82.9849 23.8944 82.9297 24.0401 82.8729 24.1902C82.4954 24.8662 82.0093 25.1193 81.2891 25.3593C80.7993 25.4025 80.3127 25.437 79.822 25.4639C79.6797 25.4722 79.5375 25.4806 79.391 25.4893C78.9373 25.5159 78.4836 25.5414 78.0298 25.5668C77.722 25.5847 77.4141 25.6026 77.1063 25.6206C76.3522 25.6646 75.598 25.7075 74.8438 25.75C75.3974 26.313 75.9498 26.8546 76.565 27.3498C76.6984 27.4577 76.8318 27.5656 76.9693 27.6768C77.174 27.8408 77.174 27.8408 77.3828 28.0083C77.5193 28.1184 77.6558 28.2286 77.7964 28.342C78.366 28.8016 78.9367 29.2588 79.5145 29.7081C80.0252 30.1327 80.1681 30.3734 80.3125 31.0234C80.2064 32.6087 79.7864 34.0508 79.3352 35.5678C79.2826 35.7513 79.23 35.9347 79.1758 36.1236C79.1269 36.2884 79.078 36.4531 79.0276 36.6228C78.94 37.1075 78.9842 37.3972 79.1407 37.8593C79.4748 37.651 79.8088 37.4426 80.1428 37.234C80.4284 37.0559 80.7142 36.8782 81.0003 36.7009C81.6416 36.3024 82.2744 35.9002 82.8966 35.4721C84.5954 34.3052 84.5954 34.3052 85.5608 34.4086C87.6856 35.0752 89.6396 36.7874 91.4453 38.0546C91.6808 37.3483 91.5769 37.1134 91.3607 36.412C91.2672 36.0976 91.2672 36.0976 91.1718 35.7769C91.0383 35.3392 90.9041 34.9018 90.769 34.4646C89.9076 31.5547 89.9076 31.5547 90.438 30.2182C90.8053 29.6225 91.3693 29.2524 91.9214 28.8383C92.168 28.649 92.4144 28.4596 92.6607 28.2699C92.7841 28.1755 92.9075 28.0811 93.0346 27.9837C93.5778 27.5647 94.1112 27.1348 94.6436 26.7021C94.8183 26.5606 94.993 26.4191 95.1731 26.2733C95.3581 26.1109 95.3581 26.1109 95.5469 25.9453C95.5469 25.8808 95.5469 25.8164 95.5469 25.75C95.3647 25.7412 95.1826 25.7324 94.9949 25.7234C94.3137 25.6894 93.6327 25.6531 92.9517 25.6152C92.658 25.5994 92.3642 25.5844 92.0703 25.5704C91.6459 25.55 91.2218 25.5263 90.7976 25.502C90.5429 25.4887 90.2882 25.4754 90.0258 25.4617C89.2043 25.3463 88.6635 25.1538 87.9297 24.7734C87.5879 24.2485 87.5879 24.2485 87.3438 23.6015C87.2506 23.3613 87.1575 23.1211 87.0615 22.8737C86.96 22.5955 86.8588 22.3173 86.7578 22.039C86.6325 21.7037 86.5068 21.3686 86.381 21.0335C86.0449 20.1338 85.7162 19.2316 85.3907 18.3281C85.3262 18.3281 85.2617 18.3281 85.1953 18.3281Z" fill="black"></path><path d="M17.3731 13.2498C18.3741 14.1396 18.7764 15.6173 19.2255 16.8508C19.2807 17.0004 19.336 17.1499 19.3929 17.3039C19.5668 17.7752 19.7395 18.2468 19.9121 18.7185C20.0308 19.0408 20.1496 19.363 20.2684 19.6852C20.5575 20.4694 20.8455 21.254 21.1328 22.0388C21.2408 22.0449 21.3487 22.0509 21.4599 22.0571C22.5849 22.1206 23.7096 22.1877 24.8343 22.257C25.2538 22.2823 25.6735 22.3068 26.0931 22.3302C26.6969 22.3642 27.3004 22.4014 27.9039 22.4394C28.0911 22.4492 28.2783 22.459 28.4712 22.4691C29.4232 22.5323 30.1274 22.5926 30.8985 23.2107C31.4393 23.8634 31.6313 24.4866 31.5836 25.3424C30.9629 27.892 26.4673 30.2766 24.4531 31.8045C24.5578 32.2686 24.6636 32.7324 24.7705 33.1961C24.8042 33.3424 24.8379 33.4887 24.8726 33.6394C25.0772 34.5105 25.3007 35.3731 25.5472 36.2333C25.6004 36.4202 25.6536 36.6071 25.7085 36.7997C25.8131 37.1638 25.9199 37.5274 26.0291 37.8901C26.3614 39.0499 26.5596 40.1663 26.4063 41.3748C26.0072 42.0589 25.6059 42.5024 24.8438 42.742C23.7497 42.8335 23.0828 42.6206 22.1826 42.034C22.0007 41.9205 22.0007 41.9205 21.8151 41.8047C20.4599 40.9502 19.1316 40.0508 17.8067 39.1503C17.6384 39.0364 17.4701 38.9225 17.2968 38.8052C17.1466 38.7028 16.9965 38.6005 16.8419 38.4951C16.4315 38.2202 16.4315 38.2202 15.8594 38.0545C15.3041 38.3439 15.3041 38.3439 14.7035 38.7701C14.591 38.8461 14.4785 38.9221 14.3626 39.0004C14.0016 39.2447 13.6427 39.4918 13.2837 39.739C13.0457 39.9012 12.8075 40.0632 12.5692 40.225C12.4533 40.3038 12.3373 40.3825 12.2179 40.4636C12.1036 40.5412 11.9893 40.6188 11.8715 40.6988C11.7583 40.7758 11.6451 40.8527 11.5284 40.932C8.71571 42.8418 8.71571 42.8418 7.26564 42.742C6.70411 42.4978 6.70411 42.4978 6.28907 42.156C6.17628 42.0795 6.06349 42.0029 5.94728 41.9241C5.47212 41.2351 5.45448 40.3657 5.57472 39.5585C5.68905 39.0686 5.81985 38.5867 5.95872 38.1033C6.00668 37.9278 6.05465 37.7522 6.10406 37.5714C6.25663 37.0155 6.41316 36.4608 6.56984 35.906C6.6745 35.5274 6.7789 35.1488 6.88302 34.77C7.13775 33.8457 7.39603 32.9225 7.65626 31.9998C6.581 31.0176 5.50471 30.0532 4.34816 29.1677C4.11559 28.9871 3.88315 28.8063 3.65083 28.6253C3.53722 28.537 3.42361 28.4486 3.30655 28.3576C2.77879 27.945 2.25664 27.5261 1.73585 27.1048C1.56339 26.9655 1.39093 26.8263 1.21324 26.6828C0.769627 26.2909 0.645039 26.1042 0.571606 25.5209C0.511462 23.9942 0.511462 23.9942 1.08888 23.2962C1.84808 22.5912 2.27837 22.585 3.3014 22.5203C3.43309 22.5119 3.56478 22.5035 3.70046 22.4948C3.98086 22.4772 4.2613 22.46 4.54175 22.4431C4.96101 22.4178 5.38013 22.3908 5.79927 22.3635C7.52796 22.2548 9.24385 22.2111 10.9766 22.2341C11.0066 22.1266 11.0365 22.019 11.0674 21.9082C11.4718 20.5064 11.9649 19.1417 12.4817 17.7781C12.6251 17.3986 12.7662 17.0183 12.9072 16.638C12.9998 16.3925 13.0924 16.1471 13.1853 15.9018C13.2675 15.683 13.3497 15.4643 13.4343 15.2389C13.7788 14.4644 14.1579 13.7078 14.834 13.1765C15.7238 12.9294 16.5159 12.9381 17.3731 13.2498ZM15.8594 18.3279C15.7963 18.4954 15.7333 18.6629 15.6684 18.8354C15.4336 19.4587 15.1984 20.0819 14.9629 20.7049C14.8612 20.9743 14.7597 21.2436 14.6583 21.5131C14.5123 21.9011 14.3657 22.2889 14.2191 22.6767C14.1311 22.9099 14.0431 23.1431 13.9525 23.3833C13.8728 23.5842 13.7931 23.785 13.7109 23.992C13.6408 24.2079 13.6408 24.2079 13.5693 24.4282C13.1658 24.9874 12.5928 25.1722 11.9531 25.3591C11.2242 25.4615 11.2242 25.4615 10.4524 25.5018C10.3156 25.5097 10.1789 25.5175 10.0379 25.5256C9.60626 25.5498 9.17453 25.5705 8.74269 25.5911C8.4478 25.607 8.15292 25.6231 7.85806 25.6395C7.13988 25.6789 6.42157 25.7152 5.70314 25.7498C6.4714 26.5264 6.4714 26.5264 7.28242 27.2573C7.38695 27.3462 7.49149 27.4351 7.59918 27.5266C7.76037 27.6622 7.76037 27.6622 7.92482 27.8006C8.03643 27.8951 8.14804 27.9897 8.26304 28.0871C8.8375 28.5698 9.41429 29.0279 10.0366 29.4485C10.5908 29.8549 10.734 30.0165 10.9766 30.6326C11.2122 32.1936 10.737 33.6361 10.2808 35.1126C10.1488 35.5452 10.0183 35.9783 9.88939 36.4119C9.83109 36.6009 9.77279 36.79 9.71272 36.9848C9.56181 37.491 9.56181 37.491 9.8047 38.0545C9.92179 37.9757 10.0389 37.897 10.1595 37.8159C10.696 37.4555 11.233 37.0958 11.77 36.7361C11.9542 36.6122 12.1384 36.4884 12.3281 36.3607C12.8519 36.0103 13.3786 35.6647 13.9063 35.3201C14.0329 35.2334 14.1595 35.1466 14.2899 35.0573C15.1136 34.5267 15.8777 34.3387 16.8359 34.5388C17.3887 34.7764 17.8673 35.0895 18.3618 35.43C18.496 35.5182 18.6302 35.6064 18.7685 35.6973C19.0391 35.8753 19.3089 36.0547 19.5777 36.2355C20.1223 36.5999 20.6761 36.9483 21.2305 37.2976C21.5235 37.4847 21.8165 37.6718 22.1094 37.8591C22.3699 37.1384 22.2345 36.6687 22.0178 35.9457C21.9546 35.7262 21.8914 35.5066 21.8263 35.2804C21.6903 34.8214 21.5535 34.3626 21.4159 33.9041C20.783 31.6954 20.783 31.6954 21.1328 30.4373C21.6633 29.5779 22.4262 29.0146 23.2202 28.4109C23.3406 28.3178 23.461 28.2247 23.585 28.1287C23.9386 27.8554 24.2933 27.5836 24.6484 27.3123C24.9987 27.0441 25.3487 26.7756 25.6983 26.5066C25.8367 26.4014 25.9752 26.2961 26.1179 26.1877C26.213 26.1076 26.3082 26.0276 26.4063 25.9451C26.4063 25.8806 26.4063 25.8162 26.4063 25.7498C26.2172 25.741 26.028 25.7322 25.8332 25.7232C25.1276 25.6898 24.4223 25.653 23.7169 25.6151C23.4123 25.5992 23.1077 25.5842 22.8031 25.5702C22.3637 25.5499 21.9245 25.5262 21.4853 25.5018C21.3504 25.4963 21.2154 25.4908 21.0764 25.4851C20.1881 25.4315 19.5425 25.2486 18.7891 24.7732C17.9155 23.3451 17.434 21.7004 16.871 20.1303C16.7593 19.8246 16.7593 19.8246 16.6452 19.5127C16.5786 19.3273 16.512 19.1419 16.4433 18.9509C16.29 18.4919 16.29 18.4919 15.8594 18.3279Z" fill="black"></path><path d="M37.7344 10.5154C38.0231 10.7804 38.3118 11.0453 38.6009 11.31C38.8047 11.4966 39.0082 11.6834 39.2116 11.8704C40.2174 12.7949 41.2307 13.7053 42.2998 14.5559C43.0522 15.2188 43.0522 15.2188 43.2031 15.7888C43.1887 16.5983 43.1242 17.0149 42.605 17.6443C41.9817 17.9626 41.5585 18.0266 40.867 17.8984C40.2471 17.6549 39.8858 17.2433 39.4456 16.7547C39.1099 16.384 38.7614 16.0645 38.3813 15.74C37.5936 15.0609 36.8283 14.3587 36.0639 13.6536C35.359 13.0049 34.6423 12.3727 33.9113 11.7537C33.4951 11.3625 33.44 11.1238 33.3765 10.552C33.4523 9.77891 33.6669 9.48945 34.2188 8.9529C35.6023 8.26113 36.8127 9.65072 37.7344 10.5154Z" fill="black"></path><path d="M67.2266 9.14827C67.6846 9.57576 67.7959 9.85638 67.9346 10.4666C67.6694 11.8455 66.3611 12.771 65.3314 13.645C64.7843 14.1159 64.2539 14.604 63.7231 15.0931C63.6226 15.1848 63.522 15.2765 63.4184 15.3709C62.9555 15.7932 62.4997 16.2182 62.0531 16.6579C60.8502 17.8151 60.8502 17.8151 59.9512 17.9862C59.2188 17.9373 59.2188 17.9373 58.645 17.6444C58.1206 17.0087 58.0469 16.6087 58.0469 15.7889C58.3697 14.9281 59.0347 14.4294 59.72 13.851C60.2731 13.3787 60.8084 12.8885 61.3428 12.3953C62.0976 11.7013 62.8533 11.0084 63.6133 10.3201C63.7643 10.1832 63.9154 10.0462 64.071 9.9051C65.1809 8.94004 65.7908 8.50675 67.2266 9.14827Z" fill="black"></path><path d="M50.625 0.652588C50.7539 0.650574 50.8828 0.64856 51.0156 0.646484C51.6083 0.803902 51.8149 1.04346 52.1875 1.53149C52.2676 2.11349 52.3018 2.62197 52.2981 3.20386C52.3 3.44652 52.3 3.44652 52.3018 3.69409C52.3032 4.03555 52.3026 4.37703 52.3001 4.71848C52.2974 5.24077 52.304 5.76238 52.3115 6.28461C52.3117 6.61674 52.3113 6.94887 52.3104 7.28101C52.3129 7.43687 52.3155 7.59273 52.3182 7.75331C52.3053 8.51993 52.2617 8.87437 51.7282 9.44241C51.0911 9.80233 50.7603 9.85483 50.0391 9.73462C49.5219 9.44241 49.5219 9.44241 49.0625 8.95337C48.9658 8.35865 48.9298 7.87497 48.9397 7.28101C48.9392 7.11923 48.9387 6.95745 48.9383 6.79077C48.9384 6.4493 48.9411 6.10782 48.9459 5.76638C48.9526 5.24413 48.95 4.72252 48.9462 4.20026C48.9475 3.86812 48.9494 3.53599 48.9519 3.20386C48.9509 3.048 48.95 2.89213 48.949 2.73155C48.964 2.02348 48.9997 1.61376 49.4356 1.04283C49.8781 0.725642 50.0867 0.644177 50.625 0.652588Z" fill="black"></path></g><defs><clipPath id="clip0_1646_111"><rect width="100" height="100" fill="white" transform="translate(0.625 0.75)"></rect></clipPath></defs></svg>