<svg xmlns="http://www.w3.org/2000/svg" width="101" height="101" viewBox="0 0 101 101" fill="none"><g clip-path="url(#clip0_1646_101)"><path d="M56.6116 33.6982C58.1114 34.2568 58.1114 34.2568 59.6641 34.0392C59.9976 33.7219 60.3234 33.3962 60.6406 33.0627C61.2266 32.7697 61.2266 32.7697 61.8125 32.672C62.9173 33.1663 63.1298 33.8728 63.5444 34.9509C65.1702 39.7331 64.7421 44.6269 63.2315 49.372C62.8763 50.4978 62.6103 51.6185 62.3862 52.777C61.7382 56.0555 60.3883 58.9216 58.1016 61.383C57.9581 61.4729 57.8146 61.5627 57.6667 61.6553C57.2581 61.9623 57.2581 61.9623 57.2013 62.5816C57.1922 62.8104 57.1832 63.0393 57.1738 63.2751C57.1628 63.5054 57.1517 63.7358 57.1403 63.9732C57.1352 64.1496 57.1302 64.3261 57.125 64.508C57.2438 64.516 57.3625 64.524 57.4849 64.5322C58.7087 64.6322 59.8235 64.8648 60.9946 65.2282C61.1633 65.2792 61.332 65.3302 61.5058 65.3827C62.743 65.7689 63.8802 66.2478 65.0291 66.851C65.4948 67.0757 65.4948 67.0757 65.9095 67.0257C66.4632 66.782 66.9461 66.4628 67.4522 66.1315C69.9812 64.5396 72.5966 63.7974 75.4844 63.1408C75.6022 61.9648 75.6022 61.9648 75.1548 60.9229C75.0058 60.8048 74.8567 60.6868 74.7031 60.5651C72.2825 58.3808 71.4509 55.2156 70.7992 52.1362C70.5601 51.0139 70.2722 49.9054 69.9828 48.7952C69.358 46.1286 69.1396 42.7236 70.4421 40.2389C71.1575 39.1405 72.1051 38.5579 73.336 38.1408C73.7965 38.0759 74.2499 38.0447 74.7138 38.0164C75.3374 37.9 75.6429 37.4171 76.0703 36.9689C78.2082 35.7602 81.1116 35.4529 83.4724 36.0929C84.5193 36.407 85.5499 36.7676 86.5585 37.1894C87.2365 37.4461 87.867 37.5203 88.5703 37.3595C88.9574 37.085 89.2837 36.7801 89.6262 36.4524C89.9375 36.1877 89.9375 36.1877 90.4624 36.0534C91.1486 36.2574 91.3177 36.5551 91.6953 37.1642C93.8276 41.6475 93.088 46.3991 91.8083 51.0008C91.6538 51.5767 91.5275 52.1575 91.4024 52.7404C90.6865 55.8744 89.5897 58.9273 87.2031 61.1877C87.0742 61.2521 86.9453 61.3166 86.8125 61.383C86.8125 61.9631 86.8125 62.5431 86.8125 63.1408C87.0182 63.1836 87.2239 63.2264 87.4358 63.2705C91.8821 64.2328 95.848 65.9731 98.7128 69.6494C100.134 71.9574 100.238 74.2659 100.217 76.8943C100.217 77.2524 100.217 77.6106 100.218 77.9687C100.219 78.7132 100.216 79.4575 100.21 80.2019C100.204 81.1564 100.205 82.1107 100.209 83.0653C100.211 83.802 100.209 84.5387 100.206 85.2754C100.205 85.6277 100.205 85.9799 100.206 86.3321C100.207 86.822 100.203 87.3116 100.198 87.8014C100.2 88.0192 100.2 88.0192 100.202 88.2414C100.184 89.2224 100.184 89.2224 99.7653 89.6429C99.2082 89.9575 98.8557 89.9708 98.2176 89.9691C97.8832 89.9703 97.8832 89.9703 97.542 89.9715C97.2983 89.9694 97.0545 89.9673 96.8034 89.9651C96.4175 89.9652 96.4175 89.9652 96.0237 89.9654C95.3188 89.9655 94.6139 89.9621 93.909 89.958C93.1721 89.9543 92.4352 89.954 91.6983 89.9533C90.3031 89.9515 88.9079 89.9467 87.5128 89.9408C85.9243 89.9342 84.3358 89.931 82.7474 89.9281C79.48 89.922 76.2127 89.9117 72.9453 89.8986C72.9484 90.0375 72.9515 90.1765 72.9546 90.3196C72.9668 90.9483 72.9744 91.577 72.9819 92.2057C72.9893 92.5337 72.9893 92.5337 72.9968 92.8683C72.9987 93.0779 73.0006 93.2875 73.0025 93.5035C73.0056 93.6968 73.0087 93.8901 73.0118 94.0893C72.9328 94.6797 72.8171 94.808 72.3594 95.172C71.7799 95.2297 71.2414 95.251 70.6616 95.2464C70.4861 95.2474 70.3105 95.2483 70.1296 95.2492C69.539 95.2516 68.9484 95.2497 68.3578 95.2479C67.9353 95.2486 67.5128 95.2497 67.0904 95.251C65.9411 95.2536 64.7919 95.2526 63.6426 95.2507C62.4417 95.2493 61.2409 95.2506 60.04 95.2516C58.023 95.2526 56.0061 95.2512 53.9891 95.2484C51.655 95.2452 49.3208 95.2463 46.9866 95.2495C44.9851 95.2522 42.9835 95.2525 40.982 95.251C39.7854 95.2501 38.5889 95.25 37.3923 95.2519C36.2676 95.2536 35.1429 95.2524 34.0181 95.249C33.6045 95.2483 33.1909 95.2485 32.7773 95.2498C32.2143 95.2514 31.6514 95.2494 31.0884 95.2464C30.9233 95.2477 30.7583 95.2491 30.5882 95.2504C29.475 95.2391 29.475 95.2391 29.0555 94.9055C28.6901 94.4401 28.7382 94.0884 28.7475 93.5035C28.7494 93.2939 28.7513 93.0843 28.7532 92.8683C28.7581 92.6497 28.763 92.431 28.7681 92.2057C28.7707 91.9848 28.7734 91.7639 28.7761 91.5362C28.783 90.9903 28.7926 90.4445 28.8047 89.8986C28.6695 89.8991 28.5344 89.8997 28.3951 89.9002C25.1073 89.9132 21.8195 89.9229 18.5316 89.929C16.9416 89.932 15.3517 89.9361 13.7617 89.9428C12.376 89.9486 10.9904 89.9524 9.60467 89.9537C8.87083 89.9545 8.13703 89.9563 7.40321 89.9606C6.58434 89.9653 5.76552 89.9654 4.94663 89.9651C4.70289 89.9672 4.45915 89.9693 4.20802 89.9715C3.98509 89.9707 3.76215 89.9699 3.53247 89.9691C3.33875 89.9696 3.14502 89.9701 2.94543 89.9707C2.34771 89.8859 2.08007 89.7391 1.65627 89.3127C1.57755 88.781 1.54941 88.3274 1.55518 87.7952C1.55381 87.6408 1.55244 87.4864 1.55103 87.3272C1.54758 86.8153 1.54987 86.3036 1.55251 85.7917C1.55198 85.4347 1.55122 85.0777 1.55024 84.7207C1.54909 83.9708 1.55077 83.221 1.55441 82.4711C1.55884 81.5156 1.55632 80.5603 1.55163 79.6048C1.54878 78.8663 1.54971 78.1279 1.55173 77.3894C1.55224 77.0375 1.55162 76.6857 1.54979 76.3338C1.53576 72.8805 2.24975 70.3714 4.60426 67.7665C7.40074 65.1004 11.2467 63.9088 14.9375 63.1408C15.0081 62.5405 15.0342 61.9814 14.9375 61.383C14.4839 60.9272 14.4839 60.9272 14.1128 60.6818C11.896 58.923 11.0683 55.589 10.4453 52.9845C10.3477 52.6061 10.2501 52.2277 10.1524 51.8493C10.084 51.5653 10.084 51.5653 10.0143 51.2756C9.89941 50.8048 9.77724 50.339 9.64958 49.8717C9.20481 48.1688 9.00223 46.5436 8.99269 44.7814C8.98979 44.5052 8.98979 44.5052 8.98683 44.2235C9.0082 42.48 9.34588 40.8366 10.4728 39.4614C11.4136 38.57 12.4929 38.0859 13.7901 38.0798C14.0398 38.0999 14.2896 38.12 14.5469 38.1408C14.6186 37.9633 14.6186 37.9633 14.6919 37.7822C15.2329 36.8513 16.4162 36.4809 17.3911 36.1388C20.2012 35.5623 22.593 35.8349 25.2525 36.9079C26.261 37.306 26.9482 37.5635 28.0235 37.3595C28.3973 37.0752 28.7276 36.7651 29.0664 36.4402C29.3906 36.1877 29.3906 36.1877 30.0132 36.1388C30.7463 36.4647 31.0308 36.842 31.3438 37.5549C32.6609 41.2906 32.8034 45.4447 31.7344 49.2736C31.6603 49.549 31.5863 49.8244 31.5124 50.0999C31.3514 50.6925 31.1844 51.283 31.0142 51.8729C30.8364 52.4951 30.6753 53.1187 30.5259 53.7482C29.774 56.887 28.5756 59.073 26.2656 61.383C26.2183 61.8148 26.2183 61.8148 26.2412 62.2863C26.2448 62.4459 26.2483 62.6055 26.2519 62.77C26.2564 62.8924 26.261 63.0147 26.2656 63.1408C26.6342 63.2227 26.6342 63.2227 27.0103 63.3063C29.9263 63.9792 32.5319 64.8662 35.0089 66.5816C35.5789 66.9403 35.5789 66.9403 36.2266 67.047C36.713 66.8612 37.1638 66.6635 37.6304 66.4367C39.8562 65.411 42.1595 64.6254 44.625 64.508C44.6885 62.8448 44.6885 62.8448 43.9414 61.4684C43.7839 61.3676 43.7839 61.3676 43.6233 61.2647C40.9673 59.2852 39.9753 55.4676 39.2544 52.4223C39.1259 51.8798 38.9884 51.3398 38.8511 50.7995C38.807 50.6207 38.763 50.442 38.7176 50.2578C38.6031 49.7964 38.4864 49.3358 38.3682 48.8753C38.3329 48.7372 38.2977 48.599 38.2614 48.4566C38.1929 48.188 38.1238 47.9194 38.0542 47.6511C37.6302 45.9802 37.5527 44.385 37.5449 42.6696C37.5389 42.3401 37.5389 42.3401 37.5327 42.0039C37.5235 40.0122 37.8491 38.1483 39.1563 36.5783C40.294 35.5205 41.3407 35.0455 42.8916 34.9548C43.6815 34.9025 43.6815 34.9025 44.2588 34.3688C44.4401 34.109 44.4401 34.109 44.625 33.8439C48.2154 31.3236 52.8574 32.3018 56.6116 33.6982ZM46.1875 35.9924C45.9411 36.3348 45.9411 36.3348 45.7603 36.7126C45.4063 37.3595 45.4063 37.3595 44.8936 37.5426C44.5178 37.5496 44.1415 37.5509 43.7659 37.535C42.6376 37.4977 41.9796 37.5281 41.1094 38.3361C40.0986 39.737 40.0973 40.9939 40.0962 42.6574C40.0938 42.8555 40.0914 43.0537 40.089 43.2578C40.0886 43.4469 40.0882 43.636 40.0878 43.8308C40.087 44.0038 40.0862 44.1768 40.0854 44.355C40.0925 44.8224 40.0925 44.8224 40.5235 45.172C40.6613 44.9251 40.6613 44.9251 40.8019 44.6731C40.9843 44.3521 40.9843 44.3521 41.1704 44.0246C41.2905 43.8116 41.4106 43.5986 41.5344 43.3791C41.8906 42.8283 41.8906 42.8283 42.4766 42.4377C43.4439 42.5036 44.2627 42.7599 45.1621 43.1091C49.1548 44.5541 53.7391 44.4427 57.6621 42.7673C57.7981 42.6995 57.934 42.6318 58.0741 42.562C58.6819 42.3812 59.0616 42.4425 59.6641 42.633C60.057 43.0946 60.057 43.0946 60.3843 43.6706C60.768 44.3313 61.1445 44.9614 61.6172 45.5627C62.1074 42.7224 62.5758 39.0815 61.2266 36.383C61.005 36.4474 60.7835 36.5119 60.5552 36.5783C58.0925 37.1651 55.9182 36.2402 53.6338 35.3576C51.3823 34.5346 48.1988 34.5231 46.1875 35.9924ZM16.6953 39.3127C16.5986 39.5141 16.502 39.7155 16.4024 39.923C16.1094 40.4845 16.1094 40.4845 15.5967 40.6554C15.233 40.6689 14.8685 40.6768 14.5049 40.6608C13.753 40.632 13.2975 40.6184 12.6182 40.9728C11.6216 42.1453 11.5339 43.4084 11.5806 44.8791C11.5832 45.0397 11.5859 45.2003 11.5886 45.3658C11.5954 45.757 11.6059 46.1481 11.6172 46.5392C12.1426 45.9039 12.5205 45.3696 12.7891 44.5861C14.2333 44.4616 15.2875 44.8009 16.6305 45.33C19.6154 46.3973 23.3221 45.9362 26.2046 44.7631C26.8809 44.4981 27.3036 44.4598 28.0235 44.5861C28.4939 45.0587 28.8338 45.5913 29.1953 46.1486C29.3242 46.2775 29.4531 46.4064 29.586 46.5392C29.8876 45.6342 29.8254 44.7285 29.8301 43.7804C29.8341 43.5836 29.8382 43.3867 29.8423 43.1838C29.8489 41.9143 29.6852 40.877 29.1953 39.7033C29.002 39.7677 28.8086 39.8322 28.6094 39.8986C26.7509 40.1611 25.2917 39.7078 23.579 39.035C21.4727 38.2181 18.636 37.8827 16.6953 39.3127ZM77.2422 39.3127C77.1455 39.5141 77.0488 39.7155 76.9492 39.923C76.6563 40.4845 76.6563 40.4845 76.1314 40.6554C75.7862 40.6685 75.4405 40.6785 75.0953 40.6676C74.1904 40.6403 73.6438 40.6671 72.9453 41.2658C72.2311 42.4646 72.1361 43.4583 72.1519 44.8302C72.1527 44.9758 72.1536 45.1213 72.1545 45.2712C72.1568 45.6288 72.1603 45.9864 72.1641 46.3439C72.6029 45.9187 72.9615 45.5381 73.2993 45.0256C73.7266 44.5861 73.7266 44.5861 74.3247 44.4762C75.1642 44.5962 75.8662 44.8392 76.6486 45.1583C78.1291 45.6797 79.5353 45.8282 81.0996 45.819C81.288 45.8183 81.4763 45.8177 81.6703 45.817C83.3922 45.7908 84.9942 45.5887 86.5684 44.8425C87.3871 44.5118 88.0902 44.5328 88.961 44.5861C89.0093 44.7271 89.0576 44.8681 89.1074 45.0133C89.373 45.6109 89.7088 46.0446 90.1328 46.5392C90.5253 45.7543 90.3643 44.753 90.3648 43.8903C90.3671 43.6832 90.3695 43.4761 90.372 43.2628C90.3743 42.0128 90.2584 40.912 89.9375 39.7033C89.8188 39.7341 89.7001 39.765 89.5778 39.7968C87.6016 40.2742 85.957 39.7543 84.1258 39.035C82.0196 38.218 79.1829 37.8827 77.2422 39.3127ZM43.2578 45.172C41.6616 48.1375 41.2786 50.5613 42.2424 53.8482C42.8085 55.5373 43.5679 57.0202 44.625 58.4533C44.7106 58.5736 44.7962 58.694 44.8844 58.818C46.2156 60.5394 48.2385 61.5598 50.3722 61.8346C52.6823 61.9525 54.6523 60.9307 56.3438 59.4299C58.6419 57.1357 60.0333 53.5326 60.1524 50.3112C60.088 48.4409 59.3679 46.7984 58.4922 45.172C58.3734 45.2075 58.2545 45.243 58.1321 45.2796C53.0552 46.7355 48.3168 46.6833 43.2578 45.172ZM14.1563 47.3205C12.9853 49.5089 12.5962 51.5527 13.275 53.9837C13.7097 55.3972 14.2606 56.6619 15.1328 57.8674C15.223 57.993 15.3131 58.1186 15.406 58.2481C16.552 59.7075 18.0037 60.5377 19.8096 60.926C21.6647 61.1324 23.2255 60.4392 24.7153 59.4054C26.7341 57.6062 27.9954 54.6673 28.2813 52.0133C28.3489 50.268 27.8355 48.8551 27.0469 47.3205C26.1839 47.4313 25.3713 47.5954 24.5322 47.821C21.582 48.4577 18.4094 48.3739 15.5257 47.4914C14.9146 47.2842 14.9146 47.2842 14.1563 47.3205ZM74.7031 47.3205C74.5436 47.6619 74.3851 48.0038 74.2271 48.3459C74.0945 48.6314 74.0945 48.6314 73.9593 48.9227C72.9892 51.2 73.6276 53.5231 74.5078 55.7189C75.5098 57.9323 76.8441 59.7215 79.1679 60.6231C80.8693 61.1256 82.3204 60.9943 83.9317 60.2599C86.3508 58.9099 87.5275 56.722 88.375 54.1564C88.4234 54.0157 88.4717 53.8749 88.5215 53.7299C89.1227 51.7216 88.7946 49.7959 87.9844 47.9064C87.791 47.6164 87.791 47.6164 87.5938 47.3205C86.9579 47.3944 86.3573 47.4771 85.7421 47.6592C82.875 48.4795 79.5041 48.4356 76.6303 47.663C75.9919 47.4952 75.3574 47.4045 74.7031 47.3205ZM17.6719 62.9455C17.6623 63.0656 17.6528 63.1857 17.6429 63.3094C17.6283 63.4673 17.6137 63.6251 17.5986 63.7878C17.5851 63.9441 17.5715 64.1005 17.5575 64.2615C17.4766 64.7033 17.4766 64.7033 17.086 65.2892C16.8926 65.4181 16.6992 65.547 16.5 65.6799C18.0309 67.0614 19.1665 67.3561 21.2379 67.311C22.5332 67.1893 23.5288 66.8729 24.4346 65.924C24.5232 65.779 24.6118 65.634 24.7031 65.4845C24.5783 65.4281 24.4534 65.3717 24.3247 65.3136C23.9219 65.0939 23.9219 65.0939 23.7266 64.7033C23.6827 64.4032 23.6469 64.1018 23.6167 63.8C23.6004 63.6403 23.584 63.4807 23.5671 63.3163C23.5553 63.1939 23.5435 63.0715 23.5313 62.9455C23.3374 62.9782 23.1435 63.0109 22.9438 63.0447C21.0861 63.3321 19.5292 63.3227 17.6719 62.9455ZM78.2188 62.9455C78.2092 63.0656 78.1996 63.1857 78.1898 63.3094C78.1752 63.4673 78.1606 63.6251 78.1455 63.7878C78.1319 63.9441 78.1183 64.1005 78.1043 64.2615C78.0235 64.7033 78.0235 64.7033 77.6328 65.2892C77.4395 65.4181 77.2461 65.547 77.0469 65.6799C78.57 67.0887 79.9292 67.3658 81.9862 67.3247C83.183 67.1887 84.2363 66.792 85.0089 65.8416C85.0885 65.7238 85.168 65.6059 85.25 65.4845C85.1251 65.4281 85.0003 65.3717 84.8716 65.3136C84.4688 65.0939 84.4688 65.0939 84.2735 64.7033C84.2296 64.4032 84.1938 64.1018 84.1636 63.8C84.1472 63.6403 84.1309 63.4807 84.114 63.3163C84.1022 63.1939 84.0903 63.0715 84.0781 62.9455C83.8843 62.9782 83.6904 63.0109 83.4907 63.0447C81.6329 63.3321 80.0761 63.3227 78.2188 62.9455ZM47.1641 63.5314C47.0996 64.4982 47.0352 65.465 46.9688 66.4611C46.5176 66.59 46.0664 66.7189 45.6016 66.8517C46.4941 68.131 47.6536 68.7076 49.1172 69.1955C51.5669 69.346 53.546 69.3451 55.4893 67.6818C55.7115 67.4728 55.9322 67.2621 56.1485 67.047C55.5647 66.6104 55.5647 66.6104 54.7813 66.4611C54.6846 65.0109 54.6846 65.0109 54.586 63.5314C54.03 63.6764 54.03 63.6764 53.4629 63.8244C51.2053 64.3375 49.3914 64.1125 47.1641 63.5314ZM13.5703 66.0705C10.0182 67.1672 6.70948 68.5362 4.78127 71.9299C3.82179 73.8346 3.97276 75.9931 3.98094 78.0708C3.98131 78.3397 3.98159 78.6087 3.98178 78.8777C3.98252 79.5799 3.98443 80.2821 3.98661 80.9843C3.98862 81.7032 3.98951 82.422 3.99048 83.1409C3.99246 84.5471 3.99628 85.9533 4.00002 87.3595C5.93361 87.3595 7.8672 87.3595 9.85939 87.3595C9.86669 86.6896 9.87399 86.0196 9.88152 85.3294C9.89054 84.6817 9.90055 84.034 9.91065 83.3863C9.91715 82.9356 9.92263 82.4849 9.92706 82.0342C9.93359 81.3869 9.94381 80.7398 9.95476 80.0925C9.95601 79.8905 9.95726 79.6885 9.95854 79.4803C9.96241 79.2926 9.96627 79.105 9.97026 78.9117C9.97243 78.7464 9.97459 78.5812 9.97683 78.4109C10.0728 77.8855 10.2054 77.7038 10.6406 77.3986C11.3486 77.4352 11.3486 77.4352 12.0078 77.5939C12.2419 78.062 12.2337 78.3667 12.2432 78.8895C12.2472 79.0798 12.2511 79.2701 12.2552 79.4661C12.2584 79.6665 12.2616 79.867 12.2649 80.0735C12.2686 80.2574 12.2722 80.4413 12.276 80.6307C12.2893 81.3193 12.3011 82.0079 12.313 82.6964C12.3412 84.2353 12.3694 85.7741 12.3985 87.3595C17.8125 87.3595 23.2266 87.3595 28.8047 87.3595C28.8456 83.8656 28.8456 83.8656 28.8805 80.3716C28.8868 79.9289 28.8933 79.4862 28.9001 79.0435C28.9019 78.7072 28.9019 78.7072 28.9038 78.3642C28.9645 74.9063 30.1642 72.3046 32.5156 69.7814C32.6947 69.6402 32.8737 69.4989 33.0581 69.3534C33.2013 69.2368 33.3446 69.1203 33.4922 69.0002C33.4922 68.8713 33.4922 68.7424 33.4922 68.6095C31.5113 67.4872 29.6731 66.5771 27.4375 66.0705C27.3592 66.1838 27.2809 66.2971 27.2002 66.4138C26.0944 67.9334 24.8174 69.0111 22.9705 69.4938C20.3592 69.8883 17.8446 69.7928 15.6333 68.2311C15.0535 67.7625 14.597 67.2604 14.1563 66.6564C13.9633 66.4588 13.7684 66.263 13.5703 66.0705ZM68.2578 68.6095C68.5175 69.3107 68.9414 69.6441 69.5165 70.1015C71.4094 71.7579 72.6143 74.5221 72.7913 77.0005C72.8135 77.6626 72.8244 78.3239 72.8309 78.9863C72.8343 79.1995 72.8378 79.4128 72.8413 79.6325C72.8536 80.4218 72.8626 81.2112 72.8721 82.0007C72.8963 83.7691 72.9204 85.5375 72.9453 87.3595C78.3594 87.3595 83.7735 87.3595 89.3516 87.3595C89.3926 84.3006 89.3926 84.3006 89.4273 81.2417C89.4336 80.8586 89.4402 80.4756 89.4469 80.0925C89.4488 79.7934 89.4488 79.7934 89.4506 79.4882C89.4545 79.298 89.4584 79.1077 89.4624 78.9117C89.4646 78.7464 89.4668 78.5812 89.469 78.4109C89.565 77.8855 89.6975 77.7038 90.1328 77.3986C90.8408 77.4352 90.8408 77.4352 91.5 77.5939C91.734 78.062 91.7258 78.3667 91.7354 78.8895C91.7393 79.0771 91.7432 79.2648 91.7472 79.4582C91.7505 79.6612 91.7538 79.8643 91.7571 80.0735C91.7612 80.281 91.7652 80.4885 91.7694 80.7024C91.7822 81.367 91.7937 82.0317 91.8052 82.6964C91.8136 83.1463 91.8221 83.5962 91.8307 84.0461C91.8519 85.1506 91.8712 86.255 91.8906 87.3595C93.8242 87.3595 95.7578 87.3595 97.75 87.3595C97.7582 85.8225 97.7661 84.2856 97.7702 82.7486C97.7723 82.0326 97.775 81.3166 97.7795 80.6007C97.7838 79.9092 97.7861 79.2178 97.7871 78.5263C97.7881 78.1382 97.7912 77.7501 97.7943 77.362C97.7946 74.4549 97.454 71.9497 95.4063 69.7562C93.3033 67.7888 90.7307 66.7611 87.9844 66.0705C87.9179 66.1697 87.8515 66.2689 87.783 66.3711C86.5968 68.0556 85.149 69.1653 83.1016 69.5861C80.6562 69.844 78.2731 69.6965 76.1924 68.2677C75.5198 67.7201 75.0227 67.0835 74.533 66.3711C74.4239 66.2223 74.4239 66.2223 74.3125 66.0705C72.2973 66.0705 69.9491 67.6428 68.2578 68.6095ZM40.7432 67.9382C40.523 68.0171 40.523 68.0171 40.2983 68.0977C36.7911 69.3886 33.6053 71.2744 31.9312 74.7512C31.4599 75.9459 31.2873 76.9924 31.2994 78.2607C31.2994 78.419 31.2993 78.5773 31.2992 78.7404C31.2995 79.2593 31.3025 79.7781 31.3056 80.297C31.3063 80.6585 31.3069 81.02 31.3073 81.3815C31.3088 82.3297 31.3126 83.2778 31.3169 84.226C31.3217 85.3654 31.3234 86.5048 31.3257 87.6442C31.3295 89.3723 31.337 91.1003 31.3438 92.8283C33.7285 92.8283 36.1133 92.8283 38.5703 92.8283C38.5799 92.0151 38.5895 91.2019 38.5993 90.364C38.608 89.7165 38.6171 89.069 38.6264 88.4216C38.6362 87.7376 38.6453 87.0536 38.6527 86.3695C38.6613 85.5851 38.6729 84.8007 38.6848 84.0163C38.687 83.7706 38.6893 83.5248 38.6916 83.2716C38.6955 83.0448 38.6994 82.818 38.7034 82.5844C38.706 82.384 38.7086 82.1836 38.7113 81.9772C38.7656 81.5002 38.7656 81.5002 39.1563 81.1095C40.1742 81.0012 40.1742 81.0012 40.6532 81.3383C41.0136 81.8317 40.9918 82.1758 40.9985 82.784C41.0024 83.0099 41.0063 83.2359 41.0103 83.4687C41.0115 83.706 41.0128 83.9434 41.014 84.188C41.0173 84.4063 41.0205 84.6245 41.0239 84.8494C41.0352 85.6657 41.0415 86.4821 41.0484 87.2985C41.0786 90.0357 41.0786 90.0357 41.1094 92.8283C47.5547 92.8283 54 92.8283 60.6406 92.8283C60.6817 89.1909 60.6817 89.1909 60.7164 85.5534C60.7227 85.0983 60.7292 84.6431 60.736 84.188C60.7372 83.9506 60.7384 83.7132 60.7397 83.4687C60.7436 83.2427 60.7475 83.0168 60.7515 82.784C60.7548 82.4892 60.7548 82.4892 60.7581 82.1886C60.836 81.6955 60.836 81.6955 61.0968 81.3383C61.596 80.987 62.0019 81.0466 62.5938 81.1095C63.109 81.6248 63.0373 81.8651 63.0467 82.5844C63.0525 82.9245 63.0525 82.9245 63.0584 83.2716C63.0618 83.6402 63.0618 83.6402 63.0653 84.0163C63.0709 84.3927 63.0709 84.3927 63.0767 84.7766C63.0868 85.4438 63.0945 86.111 63.1017 86.7783C63.1096 87.4591 63.1195 88.1398 63.1293 88.8206C63.1485 90.1565 63.164 91.4923 63.1797 92.8283C65.5645 92.8283 67.9492 92.8283 70.4063 92.8283C70.429 90.0043 70.429 90.0043 70.4444 87.1802C70.4491 86.0269 70.4545 84.8736 70.4652 83.7202C70.4737 82.7894 70.4784 81.8587 70.4804 80.9278C70.4818 80.5743 70.4846 80.2208 70.4889 79.8674C70.5273 76.537 69.9516 74.1131 67.6231 71.6003C65.5077 69.5932 61.6826 67.4377 58.6875 67.4377C58.3599 67.8241 58.3599 67.8241 58.0772 68.3288C56.9686 69.9893 55.49 70.8872 53.5743 71.4103C50.7216 71.9032 47.8236 71.7247 45.333 70.1476C44.4639 69.5 43.9191 68.7438 43.3692 67.8168C43.2174 67.6292 43.2174 67.6292 43.0625 67.4377C42.2029 67.4377 41.5395 67.6524 40.7432 67.9382Z" fill="black"></path></g><defs><clipPath id="clip0_1646_101"><rect width="100" height="100" fill="white" transform="translate(0.875 0.25)"></rect></clipPath></defs></svg>