<svg xmlns="http://www.w3.org/2000/svg" width="35" height="35" viewBox="0 0 35 35" fill="none"><rect x="0.5" y="0.5" width="34" height="34" rx="17" stroke="black"></rect><g clip-path="url(#clip0_1703_130)"><path d="M24.5019 10.2052C24.7265 10.3462 24.9171 10.5342 25 10.7911C25.0613 11.2968 24.8163 11.6066 24.5219 11.9866C24.4367 12.0977 24.354 12.2108 24.2712 12.3237C24.2364 12.371 24.2016 12.4182 24.1668 12.4655C24.0984 12.5586 24.03 12.6517 23.9618 12.7449C23.7827 12.989 23.6018 13.2314 23.4179 13.4718C23.1174 13.8648 22.825 14.2635 22.5359 14.6651C22.4208 14.8247 22.3044 14.9834 22.1875 15.1417C21.702 15.7993 21.2304 16.4655 20.7812 17.1485C20.7673 17.1697 20.7534 17.1908 20.739 17.2126C20.6446 17.3566 20.5515 17.5014 20.4589 17.6466C20.4342 17.6852 20.4342 17.6852 20.409 17.7247C20.0128 18.3451 19.6528 18.9841 19.3164 19.6388C19.3068 19.6572 19.2973 19.6757 19.2874 19.6947C18.5859 21.0542 18.0241 22.5143 17.7888 24.0317C17.7414 24.3171 17.654 24.5684 17.4199 24.7519C17.1427 24.932 16.8258 24.9544 16.5039 24.9122C16.2435 24.8435 16.0628 24.722 15.8907 24.5189C15.7587 24.3674 15.6164 24.2265 15.4739 24.0851C15.4243 24.0359 15.3748 23.9865 15.3253 23.9372C15.2202 23.8324 15.115 23.7278 15.0097 23.6231C14.8876 23.5017 14.7656 23.3803 14.6437 23.2587C14.5953 23.2105 14.5468 23.1623 14.4983 23.1142C14.3574 22.974 14.2199 22.8326 14.0906 22.6815C14.0027 22.5811 13.9077 22.4876 13.8132 22.3935C13.792 22.3722 13.7707 22.3509 13.7488 22.3289C13.7042 22.2843 13.6595 22.2396 13.6148 22.195C13.5469 22.1273 13.4792 22.0595 13.4115 21.9916C13.3678 21.9479 13.3241 21.9043 13.2804 21.8606C13.2505 21.8306 13.2505 21.8306 13.22 21.8C13.1058 21.6864 12.9888 21.578 12.8663 21.4733C12.7705 21.3889 12.6821 21.2972 12.5927 21.2061C12.4618 21.0737 12.3304 20.9446 12.1881 20.8244C12.1348 20.778 12.0855 20.7291 12.0361 20.6788C11.9486 20.5899 11.8571 20.5077 11.7627 20.4263C11.6919 20.3649 11.6223 20.3022 11.5527 20.2393C11.25 19.9665 10.941 19.7012 10.6244 19.4447C10.0929 19.0094 10.0929 19.0094 9.99996 18.7305C9.98042 18.4813 9.98356 18.2721 10.1171 18.0567C10.1353 18.0266 10.1353 18.0266 10.1538 17.9958C10.3469 17.7083 10.6347 17.5698 10.9668 17.5001C11.2653 17.4639 11.5684 17.5592 11.8057 17.7421C11.9124 17.8297 12.0154 17.9214 12.1184 18.0132C12.1894 18.0756 12.2628 18.1348 12.3364 18.194C12.4645 18.298 12.5869 18.4068 12.7088 18.518C12.7866 18.5872 12.8668 18.6525 12.948 18.7177C13.0651 18.8125 13.1733 18.9108 13.277 19.0201C13.3524 19.0945 13.432 19.1631 13.5119 19.2325C13.6103 19.3189 13.7059 19.4081 13.8012 19.4978C13.8222 19.5175 13.8432 19.5372 13.8649 19.5575C14.0655 19.7474 14.2606 19.9425 14.4545 20.1393C14.5556 20.2415 14.6564 20.3421 14.766 20.4353C14.9402 20.5849 15.0999 20.75 15.2619 20.9125C15.319 20.9698 15.3763 21.0269 15.4336 21.084C15.595 21.2453 15.7552 21.4059 15.9028 21.5801C15.9813 21.6699 16.0668 21.7529 16.1523 21.836C16.1625 21.8066 16.1726 21.7771 16.1831 21.7467C16.5645 20.6423 16.5645 20.6423 16.7968 20.1075C16.8162 20.0624 16.8162 20.0624 16.836 20.0164C17.1404 19.3104 17.4791 18.6271 17.8638 17.9615C17.9096 17.8818 17.9548 17.8019 17.9998 17.7218C18.1797 17.4023 18.3685 17.0902 18.5667 16.7819C18.6159 16.705 18.6645 16.6278 18.7131 16.5506C18.9197 16.2228 19.1319 15.8999 19.353 15.5817C19.4084 15.5019 19.4637 15.4219 19.5189 15.342C19.842 14.875 20.1734 14.4147 20.5109 13.9581C20.6255 13.803 20.7385 13.6468 20.8508 13.4901C21.0115 13.2662 21.178 13.047 21.3457 12.8283C21.4654 12.6718 21.5822 12.5139 21.6956 12.3528C21.8011 12.2036 21.9108 12.0576 22.0208 11.9117C22.1633 11.7227 22.304 11.5327 22.442 11.3404C22.6051 11.1133 22.7708 10.8884 22.9403 10.6659C22.9749 10.6201 23.0086 10.5737 23.0422 10.5272C23.3784 10.0759 24.0007 9.93156 24.5019 10.2052Z" fill="black"></path></g><defs><clipPath id="clip0_1703_130"><rect width="15" height="15" fill="white" transform="translate(10 10)"></rect></clipPath></defs></svg>