<svg xmlns="http://www.w3.org/2000/svg" width="26" height="26" viewBox="0 0 26 26" fill="none"><g clip-path="url(#clip0_1686_483)"><path d="M22.565 9.87545C22.9432 10.1999 23.2752 10.5472 23.5743 10.9497C23.6028 10.9876 23.6312 11.0255 23.6605 11.0645C24.0775 11.6442 24.3949 12.2769 24.6318 12.9516C24.65 13.0031 24.6682 13.0546 24.687 13.1076C24.9484 13.9042 24.9896 14.6975 24.9869 15.5294C24.9871 15.633 24.9874 15.7367 24.9877 15.8403C24.9883 16.1189 24.9881 16.3975 24.9876 16.6761C24.9872 16.9686 24.9876 17.2611 24.9878 17.5535C24.9881 18.0438 24.9877 18.534 24.987 19.0243C24.9862 19.591 24.9865 20.1577 24.9873 20.7245C24.988 21.2121 24.988 21.6998 24.9877 22.1875C24.9874 22.4783 24.9874 22.7691 24.9879 23.06C24.9883 23.3328 24.988 23.6056 24.9872 23.8784C24.987 23.9786 24.987 24.0787 24.9874 24.1788C24.9878 24.3153 24.9873 24.4518 24.9865 24.5883C24.9869 24.628 24.9872 24.6678 24.9875 24.7087C24.9843 25.0204 24.9047 25.1666 24.7024 25.3917C24.4992 25.5533 24.2792 25.5343 24.031 25.5313C23.9808 25.5316 23.9305 25.532 23.8788 25.5323C23.7132 25.5331 23.5477 25.5322 23.3821 25.5312C23.2668 25.5312 23.1515 25.5313 23.0362 25.5315C22.7948 25.5317 22.5533 25.5309 22.3119 25.5296C22.0025 25.5279 21.6932 25.5282 21.3838 25.5291C21.1458 25.5297 20.9078 25.5292 20.6698 25.5285C20.5558 25.5282 20.4417 25.5283 20.3276 25.5286C20.1682 25.5288 20.0088 25.5278 19.8493 25.5265C19.7787 25.527 19.7787 25.527 19.7067 25.5275C19.4266 25.5235 19.2712 25.4914 19.0562 25.3051C18.866 25.0852 18.857 24.8852 18.8576 24.603C18.8575 24.5475 18.8575 24.5475 18.8573 24.4909C18.8571 24.3665 18.8571 24.2422 18.8571 24.1178C18.857 24.0288 18.8568 23.9398 18.8566 23.8507C18.8563 23.6587 18.856 23.4668 18.8559 23.2748C18.8556 22.9708 18.8548 22.6669 18.8539 22.3629C18.8536 22.2589 18.8533 22.1548 18.853 22.0507C18.8528 21.9986 18.8526 21.9464 18.8525 21.8927C18.8505 21.1851 18.8489 20.4774 18.8483 19.7698C18.8479 19.2926 18.8468 18.8154 18.845 18.3382C18.844 18.0858 18.8434 17.8334 18.8437 17.581C18.8439 17.3432 18.8432 17.1054 18.8419 16.8676C18.8415 16.7807 18.8415 16.6938 18.8419 16.6069C18.8443 15.9426 18.7826 15.3319 18.3352 14.8071C17.9207 14.3918 17.4951 14.2051 16.9173 14.1967C16.344 14.2038 15.9146 14.3952 15.5039 14.7997C15.1515 15.1811 15.0113 15.5861 15.0121 16.1027C15.012 16.1399 15.0118 16.1771 15.0117 16.2154C15.0113 16.3402 15.0112 16.465 15.0112 16.5898C15.0109 16.6792 15.0107 16.7686 15.0104 16.8581C15.0099 17.0507 15.0095 17.2434 15.0092 17.436C15.0087 17.7407 15.0077 18.0454 15.0066 18.3501C15.0036 19.2166 15.001 20.083 14.9995 20.9495C14.9986 21.428 14.9972 21.9065 14.9952 22.385C14.9942 22.6382 14.9935 22.8913 14.9934 23.1445C14.9933 23.3827 14.9925 23.6209 14.9912 23.8591C14.9909 23.9464 14.9908 24.0337 14.9909 24.1211C14.9911 24.2405 14.9904 24.3598 14.9895 24.4793C14.9898 24.5137 14.9901 24.5481 14.9903 24.5835C14.9862 24.895 14.9085 25.114 14.7033 25.3479C14.5508 25.4829 14.4802 25.5065 14.2833 25.5076C14.2399 25.508 14.1965 25.5083 14.1518 25.5087C14.1041 25.5088 14.0564 25.509 14.0072 25.5091C13.957 25.5094 13.9068 25.5097 13.8551 25.5101C13.6885 25.511 13.5219 25.5116 13.3552 25.5121C13.27 25.5124 13.27 25.5124 13.1831 25.5127C12.8823 25.5137 12.5815 25.5144 12.2808 25.5149C11.9699 25.5154 11.659 25.5171 11.3482 25.519C11.1093 25.5203 10.8705 25.5207 10.6317 25.5209C10.5171 25.5211 10.4025 25.5217 10.2879 25.5226C10.1275 25.5238 9.96713 25.5237 9.80672 25.5234C9.7357 25.5243 9.7357 25.5243 9.66323 25.5253C9.38173 25.5231 9.22656 25.4926 9.0106 25.3051C8.82702 25.0994 8.81235 24.912 8.81202 24.6412C8.81183 24.5852 8.81165 24.5292 8.81146 24.4715C8.8115 24.4099 8.81154 24.3484 8.81159 24.285C8.81146 24.219 8.81132 24.1529 8.81115 24.0869C8.81077 23.9053 8.81068 23.7237 8.81064 23.5421C8.81056 23.3463 8.81019 23.1506 8.80987 22.9548C8.80922 22.5266 8.80893 22.0985 8.80871 21.6703C8.80858 21.4031 8.80838 21.1358 8.80816 20.8685C8.80758 20.1287 8.80708 19.3889 8.80692 18.6491C8.80691 18.6018 8.8069 18.5544 8.80689 18.5056C8.80688 18.4582 8.80687 18.4107 8.80685 18.3618C8.80683 18.2656 8.80681 18.1694 8.80679 18.0733C8.80678 18.0255 8.80677 17.9778 8.80676 17.9287C8.80657 17.1553 8.80573 16.3819 8.80461 15.6086C8.80347 14.8148 8.80287 14.021 8.80281 13.2272C8.80277 12.7815 8.80249 12.3357 8.80162 11.8899C8.80088 11.5104 8.80063 11.1309 8.80103 10.7514C8.80122 10.5577 8.80117 10.3641 8.8005 10.1704C8.79989 9.99311 8.79994 9.81584 8.80053 9.63856C8.80067 9.54403 8.8001 9.4495 8.7995 9.35497C8.80134 9.02869 8.80793 8.7781 9.03463 8.52562C9.2266 8.37377 9.3587 8.30706 9.60029 8.30609C9.64213 8.30581 9.68398 8.30553 9.72709 8.30525C9.77286 8.30519 9.81863 8.30514 9.86578 8.30508C9.93826 8.30472 9.93826 8.30472 10.0122 8.30435C10.1723 8.30363 10.3324 8.3033 10.4925 8.30303C10.6037 8.30275 10.7149 8.30247 10.8261 8.30219C11.0593 8.30167 11.2926 8.30139 11.5259 8.30122C11.8247 8.30095 12.1236 8.29978 12.4224 8.29839C12.6521 8.29748 12.8818 8.29722 13.1115 8.29715C13.2217 8.297 13.3319 8.29661 13.4421 8.29597C13.5962 8.29514 13.7504 8.29523 13.9046 8.29554C13.9501 8.2951 13.9955 8.29465 14.0424 8.29418C14.2923 8.29579 14.4663 8.3172 14.6823 8.45943C14.8353 8.6191 14.8866 8.7313 14.9226 8.94772C14.9721 8.92587 15.0216 8.90403 15.0726 8.88153C17.6051 7.78152 20.4209 8.0512 22.565 9.87545ZM14.6588 10.9113C14.4311 11.0758 14.2359 11.0782 13.9613 11.0473C13.7223 10.9281 13.6704 10.8477 13.5287 10.6079C13.5129 10.3501 13.497 10.0922 13.4807 9.82662C12.4338 9.82662 11.3869 9.82662 10.3084 9.82662C10.3084 14.5156 10.3084 19.2046 10.3084 24.0356C11.3552 24.0356 12.4021 24.0356 13.4807 24.0356C13.481 23.6561 13.481 23.6561 13.4813 23.2689C13.4821 22.431 13.4842 21.5932 13.487 20.7554C13.4887 20.2476 13.4899 19.7398 13.4901 19.2321C13.4902 18.7891 13.4912 18.3462 13.4932 17.9033C13.4942 17.6691 13.4948 17.4349 13.4944 17.2007C13.494 16.9796 13.4948 16.7585 13.4964 16.5374C13.4968 16.4569 13.4968 16.3764 13.4964 16.2959C13.4923 15.4979 13.6518 14.7908 14.1055 14.1235C14.1341 14.0809 14.1628 14.0384 14.1922 13.9946C14.6613 13.35 15.4325 12.8749 16.2083 12.7228C17.1962 12.5831 18.1836 12.7412 18.9934 13.3551C19.7436 13.9679 20.2112 14.8132 20.3171 15.7888C20.3342 16.0394 20.333 16.2901 20.3322 16.5412C20.3326 16.6235 20.3331 16.7059 20.3337 16.7883C20.335 17.0093 20.3352 17.2302 20.3351 17.4512C20.3353 17.6832 20.3365 17.9151 20.3376 18.147C20.3396 18.585 20.3405 19.023 20.3412 19.461C20.3419 19.9602 20.3438 20.4593 20.3457 20.9585C20.3497 21.9842 20.3521 23.0099 20.354 24.0356C21.385 24.0356 22.416 24.0356 23.4782 24.0356C23.4826 22.8165 23.4861 21.5975 23.4882 20.3784C23.4892 19.8123 23.4905 19.2462 23.4927 18.6801C23.4946 18.1863 23.4959 17.6925 23.4963 17.1987C23.4966 16.9376 23.4971 16.6765 23.4985 16.4153C23.4999 16.1688 23.5002 15.9223 23.5 15.6758C23.5 15.586 23.5004 15.4963 23.5011 15.4065C23.5123 13.9907 23.0877 12.6401 22.1324 11.5844C22.0986 11.5466 22.0986 11.5466 22.0641 11.508C21.0887 10.4273 19.732 9.78309 18.2876 9.71504C16.9379 9.67788 15.7468 10.1188 14.6588 10.9113Z" fill="#141515"></path><path d="M2.14912 8.28812C2.19746 8.28786 2.2458 8.28759 2.29561 8.28732C2.45469 8.28671 2.61374 8.28752 2.77282 8.2884C2.88373 8.28839 2.99463 8.28832 3.10553 8.28818C3.33765 8.28811 3.56976 8.28873 3.80187 8.28984C4.09921 8.29122 4.39653 8.29109 4.69387 8.29047C4.92276 8.29013 5.15165 8.29051 5.38054 8.29112C5.49017 8.29134 5.59981 8.29135 5.70944 8.29116C5.86268 8.29102 6.01589 8.29183 6.16913 8.29289C6.21431 8.29267 6.25948 8.29245 6.30603 8.29222C6.58918 8.29549 6.80488 8.33039 7.02284 8.53235C7.19112 8.7519 7.23815 8.89212 7.23864 9.16651C7.23885 9.22255 7.23906 9.27859 7.23929 9.33633C7.23928 9.39817 7.23927 9.46002 7.23926 9.52374C7.23942 9.58989 7.2396 9.65603 7.23979 9.72218C7.24028 9.90435 7.24045 10.0865 7.24058 10.2687C7.24077 10.465 7.24123 10.6613 7.24165 10.8576C7.2426 11.3319 7.24308 11.8062 7.24351 12.2805C7.24372 12.5038 7.24398 12.727 7.24423 12.9503C7.24505 13.6924 7.24575 14.4344 7.24609 15.1765C7.24619 15.3691 7.24628 15.5617 7.24637 15.7543C7.2464 15.8022 7.24642 15.85 7.24644 15.8994C7.24684 16.6751 7.24806 17.4508 7.24962 18.2265C7.25121 19.0226 7.25208 19.8188 7.25223 20.6149C7.25233 21.0621 7.25276 21.5092 7.25398 21.9563C7.25502 22.337 7.25541 22.7177 7.25494 23.0985C7.25473 23.2927 7.25482 23.487 7.25575 23.6812C7.2566 23.8591 7.25655 24.037 7.2558 24.2149C7.25563 24.3096 7.25641 24.4044 7.25723 24.4991C7.25483 24.8275 7.2372 25.0398 7.03992 25.3048C6.79445 25.536 6.56441 25.5281 6.24685 25.5254C6.17153 25.5259 6.17153 25.5259 6.0947 25.5264C5.92911 25.5273 5.76356 25.5267 5.59797 25.5261C5.48269 25.5262 5.36741 25.5264 5.25212 25.5266C5.01067 25.5269 4.76922 25.5265 4.52777 25.5256C4.21841 25.5245 3.90908 25.5251 3.59972 25.5263C3.36171 25.527 3.12372 25.5268 2.88571 25.5263C2.77165 25.5261 2.65759 25.5263 2.54353 25.5267C2.38406 25.5272 2.22464 25.5265 2.06518 25.5254C2.01813 25.5258 1.97108 25.5262 1.9226 25.5266C1.65088 25.5232 1.48247 25.4973 1.2721 25.3048C1.14411 25.1234 1.10985 24.9995 1.10963 24.7775C1.10922 24.7206 1.10882 24.6636 1.1084 24.6049C1.10869 24.5426 1.10897 24.4802 1.10927 24.416C1.10907 24.3489 1.10881 24.2819 1.10849 24.2148C1.10779 24.0305 1.108 23.8462 1.10835 23.662C1.10858 23.4632 1.10798 23.2645 1.10749 23.0657C1.10666 22.6764 1.10662 22.2871 1.10687 21.8977C1.10707 21.5813 1.107 21.2649 1.10674 20.9485C1.1067 20.9035 1.10667 20.8585 1.10663 20.8121C1.10656 20.7207 1.10648 20.6292 1.10641 20.5378C1.10575 19.6801 1.10601 18.8224 1.10656 17.9647C1.10704 17.1798 1.10642 16.3949 1.10527 15.61C1.1041 14.8043 1.10363 13.9986 1.10395 13.1929C1.10412 12.7405 1.10401 12.2881 1.10317 11.8357C1.10246 11.4505 1.10243 11.0654 1.10327 10.6802C1.10368 10.4837 1.10378 10.2872 1.10305 10.0906C1.10238 9.91074 1.10261 9.73086 1.10354 9.55095C1.10381 9.45502 1.10313 9.35908 1.10242 9.26315C1.10674 8.73981 1.10674 8.73981 1.32017 8.50793C1.59291 8.2991 1.81426 8.28461 2.14912 8.28812ZM2.56986 9.82629C2.56986 14.5153 2.56986 19.2042 2.56986 24.0353C3.61672 24.0353 4.66358 24.0353 5.74216 24.0353C5.74216 19.3463 5.74216 14.6573 5.74216 9.82629C4.6953 9.82629 3.64844 9.82629 2.56986 9.82629Z" fill="#141515"></path><path d="M5.98248 1.03695C6.64667 1.53162 7.08235 2.28094 7.21866 3.10509C7.31068 3.98414 7.12596 4.85151 6.57766 5.55031C5.98687 6.25319 5.23064 6.63121 4.32705 6.71665C3.48406 6.74588 2.70325 6.44973 2.06667 5.89039C1.53122 5.37498 1.14391 4.66173 1.11175 3.90217C1.09697 2.93873 1.25796 2.16546 1.92682 1.44146C3.03124 0.295624 4.67359 0.184944 5.98248 1.03695ZM2.90631 2.59945C2.61004 3.0369 2.58067 3.44551 2.61792 3.96663C2.72829 4.43404 3.07994 4.7844 3.47089 5.0317C3.79844 5.20701 4.16942 5.24529 4.52776 5.15377C5.02321 4.98692 5.35147 4.72999 5.59796 4.2596C5.78776 3.83831 5.79106 3.44783 5.64771 3.01029C5.48173 2.61706 5.13766 2.2464 4.75381 2.06539C4.05204 1.84041 3.38312 2.05584 2.90631 2.59945Z" fill="#141515"></path></g><defs><clipPath id="clip0_1686_483"><rect width="24.6094" height="25" fill="white" transform="translate(0.695312 0.5)"></rect></clipPath></defs></svg>