<svg xmlns="http://www.w3.org/2000/svg" width="30" height="31" viewBox="0 0 30 31" fill="none"><path d="M27.5 15.5C27.4993 12.185 26.1822 9.00596 23.8381 6.6619C21.494 4.31784 18.315 3.00066 15 3V5.5C16.9776 5.50045 18.9107 6.08704 20.5551 7.18567C22.1995 8.2843 23.4814 9.84566 24.2388 11.6725C24.7414 12.886 25.0001 14.1866 25 15.5H27.5ZM2.5 13V6.75C2.5 6.41848 2.6317 6.10054 2.86612 5.86612C3.10054 5.6317 3.41848 5.5 3.75 5.5H10C10.3315 5.5 10.6495 5.6317 10.8839 5.86612C11.1183 6.10054 11.25 6.41848 11.25 6.75V11.75C11.25 12.0815 11.1183 12.3995 10.8839 12.6339C10.6495 12.8683 10.3315 13 10 13H7.5C7.5 15.6522 8.55357 18.1957 10.4289 20.0711C12.3043 21.9464 14.8478 23 17.5 23V20.5C17.5 20.1685 17.6317 19.8505 17.8661 19.6161C18.1005 19.3817 18.4185 19.25 18.75 19.25H23.75C24.0815 19.25 24.3995 19.3817 24.6339 19.6161C24.8683 19.8505 25 20.1685 25 20.5V26.75C25 27.0815 24.8683 27.3995 24.6339 27.6339C24.3995 27.8683 24.0815 28 23.75 28H17.5C9.21625 28 2.5 21.2838 2.5 13Z" fill="white"></path><path d="M21.9287 12.63C22.3061 13.5398 22.5002 14.5151 22.5 15.5H20.25C20.2502 14.8105 20.1145 14.1278 19.8507 13.4907C19.5869 12.8537 19.2002 12.2749 18.7127 11.7873C18.2251 11.2998 17.6463 10.9131 17.0093 10.6493C16.3722 10.3855 15.6895 10.2498 15 10.25V8C16.4833 8.00008 17.9333 8.44 19.1666 9.26413C20.3999 10.0883 21.3611 11.2596 21.9287 12.63Z" fill="white"></path></svg>