<svg xmlns="http://www.w3.org/2000/svg" width="60" height="60" viewBox="0 0 60 60" fill="none"><g clip-path="url(#clip0_1622_1556)"><path d="M4.35472 -0.0305839C4.47799 -0.0312529 4.47799 -0.0312529 4.60374 -0.0319353C4.87906 -0.033143 5.15436 -0.0326867 5.42968 -0.0322354C5.62909 -0.0327572 5.82849 -0.0333799 6.0279 -0.034095C6.57587 -0.0357571 7.12383 -0.0359516 7.6718 -0.0359C8.26279 -0.0360931 8.85377 -0.0376243 9.44476 -0.0389695C10.737 -0.0416473 12.0292 -0.0425754 13.3214 -0.0431679C14.1282 -0.0435496 14.9351 -0.0443139 15.7419 -0.0451603C17.9759 -0.0474531 20.2098 -0.0493755 22.4438 -0.0497161C22.5867 -0.0497381 22.7297 -0.0497601 22.877 -0.0497827C23.1668 -0.0498256 23.4566 -0.0498682 23.7464 -0.0499106C23.8903 -0.049932 24.0341 -0.0499534 24.1823 -0.0499755C24.3264 -0.0499966 24.4704 -0.0500178 24.6188 -0.0500396C26.9531 -0.0504547 29.2874 -0.0536218 31.6217 -0.0580026C34.0184 -0.0624643 36.415 -0.0647345 38.8116 -0.0647699C40.1572 -0.0648385 41.5028 -0.0658351 42.8485 -0.0692228C43.9942 -0.072094 45.1399 -0.07295 46.2856 -0.071186C46.8701 -0.0703453 47.4545 -0.0704488 48.039 -0.0731091C48.5744 -0.0755225 49.1097 -0.0752167 49.645 -0.0727722C49.8384 -0.0723627 50.0318 -0.0729376 50.2251 -0.0746126C51.3873 -0.0840288 52.3695 -0.0255143 53.2949 0.764162C54.2272 1.73984 54.3264 2.9121 54.3173 4.2025C54.3179 4.36471 54.3186 4.52692 54.3195 4.68913C54.3215 5.13208 54.3205 5.57499 54.3191 6.01794C54.318 6.49667 54.3197 6.97539 54.3209 7.45412C54.323 8.39062 54.3226 9.3271 54.3212 10.2636C54.3202 11.0244 54.32 11.7852 54.3205 12.5461C54.3206 12.6544 54.3207 12.7628 54.3208 12.8745C54.3209 13.0946 54.3211 13.3148 54.3212 13.5349C54.3225 15.5974 54.321 17.6598 54.3185 19.7222C54.3164 21.4928 54.3168 23.2633 54.3189 25.0338C54.3214 27.0902 54.3224 29.1467 54.321 31.2031C54.3208 31.4222 54.3207 31.6413 54.3205 31.8604C54.3204 32.022 54.3204 32.0221 54.3203 32.187C54.3199 32.9475 54.3206 33.7081 54.3217 34.4686C54.323 35.3945 54.3227 36.3203 54.3202 37.2462C54.3189 37.7188 54.3184 38.1914 54.32 38.664C54.3214 39.0962 54.3206 39.5283 54.3181 39.9604C54.3174 40.1917 54.3189 40.423 54.3205 40.6543C54.3187 40.8588 54.3187 40.8588 54.3168 41.0674C54.3167 41.1855 54.3166 41.3036 54.3166 41.4254C54.2578 41.7186 54.2578 41.7186 54.0426 41.936C53.6822 42.1268 53.4689 42.0696 53.0859 41.953C52.8373 41.58 52.8223 41.4908 52.8227 41.0641C52.8223 40.9531 52.8218 40.8422 52.8213 40.7278C52.8223 40.5448 52.8223 40.5448 52.8234 40.358C52.8231 40.1642 52.8231 40.1642 52.8228 39.9665C52.8224 39.53 52.8237 39.0935 52.8249 38.657C52.8251 38.3402 52.825 38.0234 52.8249 37.7065C52.8247 36.9422 52.8258 36.1779 52.8273 35.4135C52.829 34.5297 52.8292 33.6458 52.8294 32.762C52.8306 30.4277 52.8339 28.0934 52.8369 25.7592C52.8417 20.5457 52.8466 15.3323 52.8516 9.96083C36.2227 9.96083 19.5937 9.96083 2.46093 9.96083C2.47302 17.0595 2.4851 24.1582 2.49756 31.4721C2.50047 33.716 2.50339 35.96 2.5064 38.2719C2.51068 40.2781 2.51068 40.2781 2.51543 42.2842C2.51754 43.1799 2.51869 44.0755 2.51919 44.9712C2.51978 46.0037 2.52157 47.0362 2.52486 48.0687C2.5265 48.5971 2.5276 49.1254 2.52715 49.6538C2.52675 50.1315 2.52796 50.6091 2.53046 51.0868C2.53107 51.2596 2.5311 51.4324 2.53047 51.6052C2.5121 52.9929 2.5121 52.993 3.15674 54.1771C3.60408 54.5432 3.93147 54.6386 4.50921 54.6386C4.64048 54.6392 4.77175 54.6398 4.907 54.6404C5.05122 54.6399 5.19545 54.6393 5.34404 54.6388C5.49725 54.6391 5.65045 54.6395 5.8083 54.6398C6.23389 54.6408 6.65948 54.6402 7.08508 54.6395C7.54393 54.639 8.00278 54.6398 8.46163 54.6405C9.25684 54.6415 10.0521 54.6417 10.8473 54.6414C11.9975 54.6411 13.1478 54.6424 14.298 54.6443C16.1649 54.6474 18.0317 54.6497 19.8985 54.6513C20.0103 54.6514 20.122 54.6515 20.2372 54.6516C21.8239 54.6529 23.4105 54.6535 24.9972 54.6538C25.1089 54.6539 25.2207 54.6539 25.3358 54.6539C25.4475 54.6539 25.5591 54.654 25.6741 54.654C27.5339 54.6544 29.3936 54.6566 31.2534 54.6604C32.4011 54.6626 33.5488 54.6633 34.6964 54.662C35.4825 54.6613 36.2685 54.6622 37.0545 54.6645C37.5084 54.6657 37.9622 54.6662 38.416 54.6647C38.9075 54.663 39.3989 54.6649 39.8903 54.6672C40.1067 54.6656 40.1067 54.6656 40.3274 54.664C40.4586 54.6652 40.5899 54.6664 40.7252 54.6676C40.8386 54.6677 40.9521 54.6677 41.0691 54.6678C41.4562 54.744 41.5989 54.885 41.8359 55.1952C41.8286 55.5614 41.8286 55.5614 41.7187 55.8983C41.3254 56.1606 41.1989 56.1621 40.7394 56.1625C40.5428 56.1636 40.5428 56.1636 40.3422 56.1646C40.1975 56.1642 40.0529 56.1637 39.9039 56.1633C39.6742 56.1639 39.6742 56.1639 39.4398 56.1646C39.0137 56.1658 38.5876 56.1656 38.1616 56.1651C37.7024 56.1648 37.2432 56.1658 36.784 56.1667C35.8839 56.1682 34.9838 56.1684 34.0837 56.1681C33.352 56.1679 32.6203 56.1681 31.8885 56.1686C31.7845 56.1687 31.6804 56.1688 31.5732 56.1688C31.3619 56.169 31.1505 56.1691 30.9391 56.1693C28.9552 56.1706 26.9713 56.1703 24.9873 56.1696C23.1728 56.169 21.3582 56.1703 19.5436 56.1725C17.6808 56.1748 15.818 56.1758 13.9552 56.1753C12.9092 56.1751 11.8633 56.1754 10.8173 56.177C9.92648 56.1784 9.03565 56.1786 8.14482 56.1772C7.69042 56.1765 7.23603 56.1764 6.78163 56.1778C6.28859 56.1793 5.7956 56.1781 5.30256 56.1766C5.1595 56.1774 5.01645 56.1783 4.86906 56.1792C3.72231 56.1719 2.81989 56.0076 1.96792 55.2067C1.23928 54.3542 1.04033 53.4415 1.03928 52.3472C1.03904 52.2618 1.0388 52.1764 1.03855 52.0884C1.03789 51.8014 1.03806 51.5144 1.03823 51.2274C1.03792 51.0199 1.03757 50.8124 1.03717 50.6049C1.03623 50.0339 1.03602 49.463 1.03593 48.892C1.03571 48.2765 1.03483 47.661 1.03404 47.0455C1.03245 45.6993 1.03174 44.3531 1.03122 43.0069C1.0309 42.1664 1.0304 41.3259 1.02988 40.4855C1.02845 38.1587 1.02724 35.832 1.02684 33.5052C1.02682 33.3563 1.02679 33.2074 1.02677 33.0539C1.02674 32.9047 1.02672 32.7554 1.02669 32.6016C1.02664 32.299 1.02658 31.9965 1.02653 31.694C1.02649 31.4689 1.02649 31.4689 1.02645 31.2393C1.02599 28.8076 1.02395 26.3759 1.02122 23.9442C1.01844 21.448 1.01698 18.9518 1.01684 16.4556C1.01673 15.0539 1.01606 13.6522 1.01393 12.2505C1.01213 11.057 1.01153 9.86347 1.01249 8.66994C1.01295 8.06102 1.01284 7.45212 1.0112 6.8432C1.00971 6.28549 1.00985 5.72781 1.01127 5.17011C1.0115 4.96862 1.01114 4.76713 1.01011 4.56564C1.00368 3.21032 1.00439 1.86391 1.99218 0.820205C2.70606 0.191592 3.39982 -0.0290898 4.35472 -0.0305839ZM2.94433 1.97743C1.62437 3.91856 2.46093 6.0369 2.46093 8.55458C19.0898 8.55458 35.7187 8.55458 52.8516 8.55458C53.1163 5.09692 53.1163 5.09692 52.3828 1.87489C51.7145 1.32035 51.137 1.27442 50.2922 1.27355C50.1729 1.27319 50.1729 1.27319 50.0512 1.27282C49.7841 1.27216 49.5171 1.27233 49.25 1.2725C49.0568 1.27219 48.8637 1.27184 48.6705 1.27144C48.1392 1.2705 47.6078 1.27029 47.0765 1.2702C46.5037 1.26998 45.9308 1.2691 45.358 1.26831C44.1052 1.26672 42.8525 1.26601 41.5998 1.2655C40.8177 1.26517 40.0357 1.26467 39.2536 1.26415C37.0887 1.26272 34.9239 1.26151 32.759 1.26111C32.5511 1.26108 32.5511 1.26108 32.3391 1.26104C32.2002 1.26101 32.0613 1.26099 31.9182 1.26096C31.6368 1.26091 31.3553 1.26085 31.0739 1.2608C30.8645 1.26076 30.8645 1.26076 30.6508 1.26072C28.388 1.26026 26.1251 1.25821 23.8622 1.25549C21.5395 1.25271 19.2168 1.25125 16.894 1.25111C15.5897 1.251 14.2854 1.25033 12.981 1.2482C11.8705 1.2464 10.76 1.2458 9.64951 1.24677C9.08286 1.24722 8.51623 1.24711 7.94959 1.24547C7.43079 1.24398 6.91201 1.24411 6.3932 1.24554C6.2056 1.24577 6.01799 1.2454 5.83038 1.24439C4.24504 1.18938 4.24504 1.18938 2.94433 1.97743Z" fill="#EBDCF9"></path><path d="M26.9531 20.625C27.107 20.6916 27.107 20.6916 27.2639 20.7596C28.8049 21.5073 29.7403 22.6984 30.3516 24.2578C30.4583 24.6134 30.5289 24.9448 30.5859 25.3125C31.0242 25.3125 31.1777 25.1806 31.5454 24.9463C34.1865 23.3744 37.6243 22.9043 40.6128 23.6352C40.908 23.716 41.1938 23.8084 41.4844 23.9062C41.6824 23.9699 41.6824 23.9699 41.8845 24.0349C42.568 24.2755 43.1349 24.5745 43.7375 24.9756C44.733 25.5821 45.7039 25.5462 46.8384 25.5176C47.1247 25.513 47.4109 25.5098 47.6972 25.5093C47.8736 25.5087 48.05 25.5057 48.2262 25.4999C48.612 25.4964 48.8119 25.4953 49.1006 25.7644C49.2559 26.0945 49.2182 26.2607 49.1016 26.6015C48.8157 26.8874 48.7249 26.8695 48.3316 26.8844C48.1741 26.8912 48.1741 26.8912 48.0135 26.8982C47.9036 26.9018 47.7938 26.9054 47.6807 26.9092C47.5699 26.9137 47.4592 26.9182 47.3451 26.9229C47.0713 26.934 46.7974 26.944 46.5234 26.9531C46.5958 27.0271 46.6682 27.1011 46.7427 27.1774C49.3989 29.9831 50.2777 33.2866 50.1778 37.0961C50.0992 38.5708 49.6435 40.0489 48.9844 41.3672C49.1076 41.3823 49.1076 41.3823 49.2334 41.3978C50.1283 41.5304 50.8142 41.7244 51.4165 42.4273C52.0338 43.2901 52.2197 44.0296 52.0894 45.0787C52.013 45.4372 51.8489 45.7316 51.6797 46.0547C51.7143 46.523 51.9667 46.7173 52.3096 47.0141C52.4156 47.1064 52.5217 47.1987 52.6309 47.2938C53.063 47.6574 53.5002 48.014 53.9392 48.3691C54.2486 48.6252 54.547 48.8896 54.8438 49.1601C55.2467 49.5274 55.6581 49.8788 56.0815 50.2221C56.1885 50.3095 56.2954 50.3968 56.4056 50.4867C56.6064 50.6505 56.8078 50.8135 57.0099 50.9756C57.6653 51.5233 58.0938 52.0885 58.4766 52.8515C58.5151 52.9259 58.5536 53.0002 58.5933 53.0768C59.1328 54.2848 59.0537 55.8037 58.5974 57.0218C58.0148 58.3011 57.0498 59.2852 55.7446 59.8022C54.3578 60.2285 52.7527 60.1769 51.4453 59.5312C50.1796 58.8007 49.4052 57.568 48.6987 56.3305C48.5785 56.1232 48.4578 55.9161 48.3371 55.7091C48.2534 55.5654 48.1698 55.4217 48.0863 55.2779C47.5963 54.4354 47.0893 53.6032 46.582 52.771C46.4935 52.6254 46.4049 52.4799 46.3163 52.3344C46.1121 51.9988 45.9077 51.6634 45.7031 51.3281C45.5821 51.366 45.4611 51.4039 45.3365 51.443C44.4079 51.7071 43.3931 51.685 42.5391 51.2109C41.8519 50.7528 41.4232 50.1264 41.1763 49.3336C41.0909 48.878 41.0403 48.3491 41.25 47.9297C41.1438 47.9537 41.0376 47.9777 40.9282 48.0025C37.4691 48.7675 34.0973 48.3508 31.0323 46.5014C30.544 46.1864 30.0921 45.8435 29.6484 45.4687C29.5519 45.3879 29.4554 45.3071 29.3559 45.2238C27.031 43.2103 25.4425 40.1652 25.2063 37.0775C25.2027 36.9849 25.199 36.8923 25.1953 36.7969C25.1893 36.6644 25.1832 36.5319 25.177 36.3954C25.142 34.9213 25.2695 33.3851 25.7813 31.9922C25.6862 32.0033 25.5912 32.0145 25.4933 32.026C23.8132 32.1942 22.3075 31.8898 20.9399 30.8496C19.8254 29.894 18.9265 28.5598 18.75 27.0703C18.6143 25.1498 19.0714 23.715 20.1782 22.1338C21.7721 20.3355 24.7336 19.6136 26.9531 20.625ZM21.6417 22.7051C20.8155 23.4604 20.2156 24.5482 20.1283 25.6718C20.096 27.1946 20.4793 28.2987 21.5186 29.4214C22.3693 30.2469 23.4483 30.7041 24.6336 30.7026C25.3605 30.6636 25.9559 30.5954 26.6016 30.2344C26.7992 29.9593 26.9481 29.7188 27.0996 29.4214C27.6551 28.4125 28.3697 27.6459 29.1797 26.8359C29.3413 25.5093 29.0287 24.4182 28.2367 23.3583C27.3365 22.2871 26.3818 21.761 24.9957 21.5854C23.7533 21.5118 22.6287 21.9619 21.6417 22.7051ZM30.2344 27.6562C30.1362 27.7437 30.038 27.8312 29.9368 27.9213C27.9426 29.789 26.6815 32.5447 26.5778 35.2803C26.5252 38.2029 27.3548 41.0829 29.4118 43.238C29.4899 43.3167 29.568 43.3955 29.6484 43.4765C29.7451 43.5781 29.8418 43.6796 29.9414 43.7842C30.0381 43.876 30.1348 43.9678 30.2344 44.0625C30.3016 44.1305 30.3688 44.1984 30.4381 44.2685C32.4094 46.1619 35.252 47.043 37.9427 47.0274C40.7276 46.9531 43.1464 45.8912 45.2344 44.0625C45.322 43.986 45.4096 43.9096 45.4999 43.8309C47.577 41.8917 48.7032 39.065 48.8603 36.2599C48.9356 33.1765 47.7527 30.2933 45.6499 28.0613C43.5715 25.9377 40.7031 24.7756 37.7417 24.6972C34.9388 24.775 32.3035 25.7405 30.2344 27.6562ZM47.2339 43.9819C47.172 44.039 47.1101 44.0961 47.0464 44.1549C46.7267 44.4516 46.4187 44.755 46.1206 45.0732C45.7172 45.4854 45.2481 45.7938 44.7728 46.1153C44.3239 46.4202 43.8882 46.7363 43.4619 47.0727C43.3092 47.1931 43.3092 47.1931 43.1534 47.3158C42.7151 47.7533 42.5415 48.1247 42.5317 48.7427C42.6262 49.2947 42.9406 49.6797 43.3594 50.039C43.8403 50.1994 44.2843 50.2636 44.7629 50.0555C45.1385 49.8444 45.1385 49.8444 45.4688 49.5703C45.8423 49.497 45.8423 49.497 46.2891 49.5703C46.4523 49.75 46.4523 49.75 46.6077 49.9988C46.668 50.0947 46.7284 50.1907 46.7906 50.2896C47.1433 50.8763 47.4926 51.4646 47.8364 52.0566C48.013 52.3606 48.1904 52.6642 48.3678 52.9678C48.455 53.1172 48.5423 53.2666 48.6295 53.416C49.0923 54.2089 49.5595 54.9984 50.0391 55.7812C50.0825 55.8532 50.1258 55.9251 50.1706 55.9992C50.9019 57.2079 51.5667 58.1509 52.9688 58.5937C54.1438 58.8473 55.0923 58.6226 56.098 57.9808C56.8403 57.409 57.2573 56.6142 57.5024 55.7226C57.6234 54.7548 57.4518 53.9268 56.9897 53.0713C56.3533 52.28 55.6086 51.644 54.819 51.01C54.5058 50.7533 54.2053 50.4877 53.9062 50.2148C53.5058 49.8498 53.097 49.5009 52.6758 49.1601C52.1474 48.7324 51.6394 48.2875 51.1368 47.8299C50.7943 47.519 50.4462 47.215 50.0972 46.9116C49.9973 46.8239 49.8987 46.7346 49.8047 46.6406C49.8319 45.933 50.0229 45.7192 50.5078 45.2344C50.7465 44.7346 50.769 44.3913 50.6177 43.8574C50.3414 43.394 50.0505 43.1307 49.5703 42.8906C48.5094 42.8022 47.9947 43.269 47.2339 43.9819Z" fill="#EBDCF9"></path><path d="M13.8429 13.692C14.0606 13.6904 14.0606 13.6904 14.2827 13.6886C14.4408 13.6881 14.5988 13.6876 14.7569 13.6871C14.9198 13.6865 15.0827 13.6858 15.2456 13.6851C15.5869 13.6839 15.9282 13.6832 16.2696 13.6828C16.7054 13.6821 17.1411 13.6793 17.5769 13.676C17.9134 13.6738 18.2499 13.6732 18.5864 13.673C18.747 13.6727 18.9076 13.6717 19.0681 13.6702C20.8622 13.6541 20.8622 13.6541 21.5579 14.2639C21.6399 14.3672 21.6399 14.3672 21.7236 14.4727C21.8084 14.576 21.8084 14.576 21.8948 14.6814C22.398 15.4243 22.1484 16.1473 22.1484 17.1094C23.8887 17.1094 25.6289 17.1094 27.4219 17.1094C27.4219 16.3359 27.4219 15.5625 27.4219 14.7656C27.7734 14.5312 27.7734 14.5312 28.1982 14.5679C28.5938 14.6484 28.5938 14.6484 28.7109 14.7656C28.7211 14.9401 28.7235 15.115 28.7224 15.2898C28.722 15.3951 28.7216 15.5005 28.7212 15.609C28.7203 15.7199 28.7193 15.8307 28.7183 15.9448C28.7177 16.0561 28.7172 16.1673 28.7167 16.282C28.7153 16.5578 28.7133 16.8336 28.7109 17.1094C28.7983 17.1069 28.8857 17.1045 28.9758 17.1019C29.3757 17.0921 29.7757 17.0861 30.1758 17.0801C30.3132 17.0761 30.4507 17.0722 30.5923 17.0682C31.5436 17.0575 32.1888 17.1602 32.9283 17.7704C32.9795 17.8326 33.0307 17.8949 33.0835 17.959C33.1626 18.0505 33.1626 18.0505 33.2433 18.1439C33.7989 19.0552 33.8074 19.9026 33.8013 20.9473C33.8036 21.09 33.806 21.2328 33.8084 21.3798C33.8083 21.5854 33.8083 21.5854 33.8081 21.795C33.8084 21.9192 33.8086 22.0433 33.8088 22.1712C33.7356 22.5803 33.6111 22.7224 33.2812 22.9687C32.8478 22.9514 32.6534 22.9268 32.3438 22.6172C32.312 22.322 32.312 22.322 32.3076 21.9525C32.3046 21.819 32.3017 21.6854 32.2987 21.5478C32.2946 21.2665 32.2909 20.9851 32.2877 20.7037C32.2806 19.7318 32.2806 19.7318 31.875 18.8672C31.4442 18.58 31.234 18.6026 30.7199 18.6007C30.5966 18.5998 30.5966 18.5998 30.4708 18.5988C30.1947 18.5971 29.9186 18.597 29.6425 18.5969C29.4449 18.596 29.2472 18.595 29.0495 18.5939C28.512 18.5914 27.9745 18.5903 27.437 18.5897C27.1013 18.5893 26.7656 18.5886 26.4299 18.5878C25.259 18.5849 24.0882 18.5834 22.9174 18.5829C21.8255 18.5825 20.7336 18.579 19.6417 18.5741C18.7047 18.57 17.7677 18.5682 16.8307 18.5681C16.2709 18.5681 15.7111 18.567 15.1512 18.5637C14.6247 18.5606 14.0982 18.5604 13.5717 18.5622C13.3784 18.5625 13.1852 18.5617 12.9919 18.5598C12.728 18.5574 12.4644 18.5586 12.2005 18.5608C11.979 18.5604 11.979 18.5604 11.7531 18.5601C11.2626 18.6525 11.0907 18.8359 10.7812 19.2187C10.6646 19.4997 10.6646 19.4997 10.6274 19.7827C10.611 19.8753 10.5945 19.9679 10.5775 20.0633C10.5674 20.1327 10.5573 20.202 10.5469 20.2734C10.6389 20.268 10.7309 20.2626 10.8257 20.257C11.6347 20.2292 12.1284 20.239 12.7734 20.7422C13.3981 21.3277 13.6787 21.8792 13.7337 22.7391C13.7439 23.1816 13.7467 23.6238 13.7462 24.0665C13.7466 24.2309 13.7471 24.3954 13.7477 24.5598C13.7486 24.9036 13.7485 25.2473 13.7479 25.5911C13.7473 26.0291 13.7492 26.4671 13.752 26.905C13.7537 27.2445 13.7538 27.5839 13.7534 27.9233C13.7535 28.0847 13.7541 28.246 13.7553 28.4074C13.7684 30.44 13.7684 30.44 13.0884 31.2671C12.2115 31.9808 11.6464 32.128 10.5469 32.1094C10.6764 32.804 10.7959 33.173 11.3672 33.6328C11.7728 33.768 12.0889 33.7654 12.5169 33.7666C12.5975 33.767 12.6781 33.7674 12.7612 33.7678C12.9362 33.7687 13.1111 33.7693 13.2861 33.7698C13.5628 33.7706 13.8396 33.7724 14.1164 33.7746C14.9033 33.7808 15.6901 33.7864 16.477 33.7882C16.9584 33.7894 17.4398 33.7928 17.9212 33.7977C18.1047 33.7992 18.2882 33.7998 18.4717 33.7995C18.7282 33.7992 18.9845 33.8018 19.241 33.8051C19.4599 33.8061 19.4599 33.8061 19.6833 33.8072C20.0391 33.8672 20.0391 33.8672 20.2652 34.0867C20.3906 34.3359 20.3906 34.3359 20.3833 34.6362C20.2461 34.9928 20.1338 35.0821 19.8047 35.2734C19.4477 35.3173 19.4477 35.3173 19.0241 35.3171C18.9079 35.3177 18.9079 35.3177 18.7895 35.3184C18.534 35.3193 18.2786 35.3177 18.0231 35.316C17.8447 35.3159 17.6663 35.316 17.488 35.3162C17.114 35.3162 16.7401 35.3149 16.3661 35.3128C15.8888 35.3102 15.4116 35.3101 14.9343 35.3109C14.5657 35.3113 14.1971 35.3105 13.8286 35.3094C13.6527 35.3089 13.4769 35.3088 13.301 35.309C11.0019 35.3094 11.0019 35.3094 10.0781 34.5703C9.486 33.9644 9.12211 33.3172 9.11865 32.4609C9.1259 32.3449 9.13315 32.2289 9.14063 32.1094C9.06691 32.1077 8.99319 32.106 8.91724 32.1043C8.15465 32.0618 7.61331 31.9133 7.03125 31.4062C6.48671 30.7886 6.31411 30.2834 6.30738 29.4689C6.30661 29.3917 6.30584 29.3145 6.30505 29.2349C6.30274 28.9794 6.30137 28.7239 6.3002 28.4683C6.29972 28.3807 6.29925 28.2932 6.29875 28.203C6.29631 27.739 6.29463 27.2751 6.29354 26.8111C6.29224 26.3339 6.28821 25.8568 6.28355 25.3797C6.28048 25.0111 6.27951 24.6425 6.27909 24.2739C6.27852 24.0982 6.27717 23.9224 6.27498 23.7467C6.26243 22.6696 6.2563 21.6665 7.03537 20.8411C7.11377 20.7891 7.19217 20.7371 7.27295 20.6836C7.35165 20.6292 7.43036 20.5748 7.51144 20.5188C7.8948 20.2984 8.2025 20.2598 8.63525 20.2661C8.77733 20.2677 8.77733 20.2677 8.92227 20.2693C8.99433 20.2707 9.06639 20.272 9.14063 20.2734C9.13096 20.1429 9.12129 20.0124 9.11133 19.8779C9.11655 19.1397 9.33695 18.4729 9.82864 17.9155C10.3322 17.4577 10.7824 17.1094 11.4844 17.1094C11.4783 16.9333 11.4783 16.9333 11.472 16.7537C11.4272 14.9626 11.4272 14.9626 12.0255 14.3312C12.6187 13.7876 13.0397 13.6971 13.8429 13.692ZM12.8906 15.5859C12.8906 16.0887 12.8906 16.5914 12.8906 17.1094C15.4816 17.1094 18.0727 17.1094 20.7422 17.1094C20.7422 16.568 20.7422 16.0266 20.7422 15.4687C20.2502 15.0997 20.1687 15.0729 19.593 15.0698C19.4561 15.0683 19.3192 15.0669 19.1782 15.0653C19.0308 15.0657 18.8835 15.066 18.7317 15.0664C18.58 15.0658 18.4283 15.0651 18.272 15.0645C17.9513 15.0635 17.6306 15.0637 17.3098 15.0649C16.8992 15.0663 16.4887 15.0639 16.078 15.0605C15.6857 15.0578 15.2934 15.0586 14.9011 15.059C14.6801 15.0571 14.6801 15.0571 14.4546 15.0551C14.2493 15.0567 14.2493 15.0567 14.0398 15.0584C13.9195 15.0584 13.7991 15.0584 13.6751 15.0584C13.2886 15.0995 13.2886 15.0995 12.8906 15.5859ZM7.95683 22.0527C7.69092 22.4473 7.67565 22.6566 7.67558 23.1285C7.67448 23.2767 7.67338 23.4249 7.67225 23.5777C7.67348 23.7385 7.67481 23.8993 7.67624 24.0601C7.67622 24.226 7.67605 24.3919 7.67572 24.5578C7.67556 24.9049 7.67703 25.252 7.6797 25.5992C7.68303 26.0433 7.68271 26.4873 7.68121 26.9314C7.6804 27.2738 7.68131 27.6162 7.68277 27.9587C7.6833 28.1224 7.68334 28.2861 7.68288 28.4498C7.68253 28.6789 7.68473 28.908 7.68703 29.1371C7.68766 29.2673 7.68829 29.3974 7.68894 29.5316C7.74028 29.9284 7.84856 30.1492 8.08594 30.4687C8.69534 30.8037 9.34253 30.7419 10.0195 30.7397C10.201 30.7426 10.201 30.7426 10.3862 30.7455C11.2366 30.7617 11.2366 30.7617 11.9531 30.3516C12.2749 29.903 12.3493 29.592 12.352 29.0433C12.3543 28.8286 12.3543 28.8286 12.3565 28.6095C12.3562 28.4558 12.3559 28.3021 12.3555 28.1438C12.356 27.9834 12.3567 27.823 12.3574 27.6626C12.3584 27.327 12.3581 26.9914 12.357 26.6558C12.3556 26.227 12.358 25.7982 12.3614 25.3693C12.3636 25.0383 12.3635 24.7072 12.3629 24.3761C12.3628 24.1416 12.3648 23.907 12.3668 23.6724C12.3711 22.6359 12.3711 22.6359 11.8359 21.7969C11.2431 21.4894 10.6065 21.5275 9.95361 21.5332C9.79806 21.5318 9.79806 21.5318 9.63936 21.5305C8.95611 21.5325 8.45399 21.5363 7.95683 22.0527Z" fill="#EBDCF9"></path><path d="M24.009 4.18749C24.1557 4.18649 24.3025 4.18549 24.4537 4.18446C24.6172 4.18454 24.7807 4.18465 24.9442 4.18478C25.1157 4.18408 25.2872 4.18328 25.4587 4.18239C25.9252 4.18032 26.3918 4.17977 26.8584 4.17963C27.2475 4.1794 27.6365 4.17854 28.0256 4.17771C28.9434 4.1758 29.8611 4.17523 30.7788 4.1754C31.7265 4.17554 32.6741 4.17306 33.6217 4.16936C34.4345 4.1663 35.2473 4.16504 36.0601 4.16519C36.546 4.16525 37.0317 4.16458 37.5175 4.1621C37.9744 4.15984 38.4311 4.15981 38.8879 4.16152C39.0558 4.16177 39.2236 4.16121 39.3914 4.15979C39.6202 4.15799 39.8489 4.15935 40.0777 4.16088C40.2058 4.16075 40.3339 4.16062 40.466 4.16049C40.7812 4.21883 40.7812 4.21883 41.0024 4.4376C41.1328 4.68758 41.1328 4.68758 41.1108 4.99519C41.0156 5.27351 41.0156 5.27351 40.7812 5.50789C40.4804 5.53738 40.4804 5.53738 40.0918 5.53765C39.8714 5.53864 39.8714 5.53864 39.6466 5.53965C39.4829 5.5392 39.3192 5.53872 39.1555 5.53822C38.9838 5.53853 38.8121 5.53895 38.6405 5.53946C38.1734 5.54053 37.7064 5.54011 37.2393 5.53937C36.7513 5.53878 36.2633 5.53933 35.7753 5.5397C34.9556 5.54012 34.136 5.53956 33.3163 5.53844C32.3677 5.53717 31.4192 5.53758 30.4706 5.53887C29.6572 5.53993 28.8438 5.54009 28.0304 5.53947C27.5441 5.53911 27.0579 5.53906 26.5716 5.53983C26.1145 5.54051 25.6575 5.54004 25.2004 5.53869C25.0323 5.53838 24.8642 5.53847 24.6961 5.53898C24.4674 5.53962 24.2386 5.53868 24.0098 5.53765C23.8174 5.53752 23.8174 5.53752 23.6212 5.53738C23.3203 5.50789 23.3203 5.50789 23.0859 5.27351C23.0566 4.86336 23.0566 4.86336 23.0859 4.4532C23.4027 4.13648 23.5658 4.18885 24.009 4.18749Z" fill="#EBDCF9"></path><path d="M7.47367 49.4225C7.58587 49.4217 7.69808 49.4209 7.81368 49.42C7.936 49.4203 8.05831 49.4206 8.18433 49.4209C8.31376 49.4203 8.44319 49.4197 8.57654 49.4191C9.0049 49.4175 9.43324 49.4176 9.86161 49.4178C10.1591 49.4174 10.4565 49.4169 10.7539 49.4163C11.3776 49.4154 12.0013 49.4155 12.625 49.4161C13.3454 49.4168 14.0657 49.4154 14.7861 49.4129C15.4798 49.4105 16.1734 49.4102 16.8671 49.4106C17.162 49.4105 17.4568 49.4099 17.7517 49.4087C18.1638 49.4073 18.5759 49.4081 18.988 49.4095C19.1101 49.4086 19.2322 49.4077 19.3579 49.4067C20.4098 49.4144 20.4098 49.4144 20.8594 49.8046C20.9766 50.0903 20.9766 50.0903 20.9766 50.3906C20.8364 50.6401 20.8364 50.6401 20.625 50.8593C20.3649 50.918 20.3649 50.918 20.0557 50.9181C19.9384 50.9192 19.821 50.9204 19.7002 50.9216C19.5716 50.9204 19.443 50.9193 19.3105 50.9181C19.1073 50.9191 19.1073 50.9191 18.8999 50.92C18.4507 50.9215 18.0017 50.9196 17.5525 50.9175C17.2412 50.9175 16.9299 50.9177 16.6186 50.918C15.9656 50.9183 15.3127 50.9167 14.6597 50.914C13.9046 50.9109 13.1496 50.9107 12.3945 50.9121C11.6684 50.9133 10.9422 50.9126 10.2161 50.9109C9.90699 50.9104 9.59786 50.9104 9.28873 50.9108C8.85718 50.9112 8.4257 50.9092 7.99416 50.9067C7.80128 50.9075 7.80128 50.9075 7.60451 50.9083C7.4872 50.9071 7.36989 50.906 7.24902 50.9048C7.09593 50.9043 7.09593 50.9043 6.93976 50.9039C6.67969 50.8593 6.67969 50.8593 6.46787 50.7068C6.32813 50.5078 6.32813 50.5078 6.33545 50.0903C6.44532 49.6875 6.44532 49.6875 6.65158 49.547C6.94285 49.4428 7.16465 49.4233 7.47367 49.4225Z" fill="#EBDCF9"></path><path d="M7.14669 44.253C7.24133 44.2522 7.33596 44.2513 7.43346 44.2505C7.53684 44.2514 7.64022 44.2523 7.74673 44.2532C7.85595 44.2528 7.96516 44.2523 8.07769 44.2519C8.43935 44.251 8.80094 44.2526 9.1626 44.2543C9.41348 44.2543 9.66436 44.2543 9.91525 44.2541C10.4413 44.2541 10.9674 44.2553 11.4934 44.2574C12.1685 44.2601 12.8435 44.2602 13.5186 44.2594C14.0367 44.259 14.5548 44.2598 15.073 44.2609C15.3219 44.2614 15.5709 44.2615 15.8198 44.2613C16.1674 44.2613 16.515 44.2627 16.8626 44.2646C16.966 44.2644 17.0694 44.2641 17.1759 44.2638C17.8895 44.27 17.8895 44.27 18.2812 44.5312C18.3325 44.934 18.3325 44.934 18.2812 45.3515C18.0762 45.5895 17.9071 45.6893 17.5948 45.7349C17.3145 45.7491 17.0362 45.7506 16.7555 45.7486C16.5954 45.7495 16.5954 45.7495 16.432 45.7504C16.0792 45.752 15.7264 45.751 15.3735 45.7498C15.1284 45.75 14.8832 45.7504 14.638 45.7508C14.1242 45.7513 13.6103 45.7506 13.0965 45.7489C12.4376 45.7469 11.7788 45.7481 11.1199 45.7502C10.6136 45.7514 10.1073 45.751 9.60104 45.7501C9.35808 45.7499 9.11512 45.7502 8.87216 45.751C8.53269 45.7519 8.19331 45.7505 7.85385 45.7486C7.70298 45.7496 7.70298 45.7496 7.54906 45.7507C7.13822 45.7463 6.8673 45.7402 6.49964 45.5464C6.32812 45.3515 6.32812 45.3515 6.27686 45C6.35737 44.4479 6.5957 44.2528 7.14669 44.253Z" fill="#EBDCF9"></path><path d="M24.7705 45.1903C24.9146 45.2148 25.0587 45.2392 25.2072 45.2645C25.358 45.2932 25.5087 45.3219 25.6641 45.3514C25.7793 45.3729 25.7793 45.3729 25.897 45.3948C27.2519 45.6503 27.2519 45.6503 27.5391 45.9374C27.5684 46.3475 27.5684 46.3475 27.5391 46.7577C27.3047 46.9921 27.3047 46.9921 27.0255 47.015C26.9194 47.0122 26.8134 47.0095 26.7041 47.0067C26.5975 47.0046 26.4908 47.0025 26.3809 47.0003C26.299 46.9976 26.2172 46.9949 26.1328 46.9921C26.1967 47.0617 26.2606 47.1313 26.3264 47.2031C26.9906 47.9331 27.6278 48.6806 28.2422 49.453C28.3109 49.5337 28.3797 49.6143 28.4505 49.6974C28.6764 50.0512 28.5599 50.348 28.4766 50.7421C28.1616 50.8812 28.1616 50.8812 27.7734 50.9764C27.248 50.7397 26.9211 50.3529 26.5649 49.9144C26.5095 49.8475 26.454 49.7805 26.3968 49.7116C25.911 49.1234 25.433 48.5288 24.9609 47.9296C24.9579 48.0016 24.9549 48.0737 24.9518 48.1479C24.8979 48.9161 24.8979 48.9161 24.646 49.2333C24.2747 49.3738 24.0484 49.3332 23.6719 49.2186C23.289 48.6444 23.4163 48.0169 23.4375 47.3436C23.4391 47.2615 23.4408 47.1793 23.4425 47.0947C23.448 46.8406 23.4569 46.5868 23.4668 46.3329C23.4684 46.2524 23.4701 46.1719 23.4717 46.089C23.4897 45.7316 23.5172 45.5141 23.7479 45.2343C24.1261 45.0734 24.3668 45.121 24.7705 45.1903Z" fill="#EBDCF9"></path><path d="M39.855 20.2261C39.9516 20.2253 40.0482 20.2245 40.1478 20.2236C40.4676 20.2215 40.7874 20.2219 41.1072 20.2226C41.3292 20.2221 41.5511 20.2214 41.7731 20.2207C42.2385 20.2197 42.7039 20.22 43.1692 20.2211C43.7663 20.2225 44.3633 20.2201 44.9603 20.2167C45.4187 20.2145 45.8771 20.2146 46.3356 20.2152C46.5557 20.2153 46.7759 20.2146 46.996 20.2131C47.3036 20.2114 47.6109 20.2126 47.9185 20.2146C48.0555 20.2129 48.0555 20.2129 48.1952 20.2112C48.8082 20.2196 48.8082 20.2196 49.1032 20.4886C49.2678 20.8498 49.2154 21.0711 49.1016 21.4453C48.6628 21.7378 48.3201 21.7135 47.812 21.7118C47.7165 21.7124 47.621 21.713 47.5227 21.7137C47.2067 21.7153 46.8907 21.7152 46.5747 21.7149C46.3554 21.7154 46.136 21.7159 45.9166 21.7164C45.4568 21.7173 44.9969 21.7173 44.5371 21.7167C43.9471 21.716 43.3572 21.718 42.7673 21.7207C42.3143 21.7224 41.8613 21.7225 41.4083 21.7221C41.1908 21.7222 40.9732 21.7228 40.7557 21.724C40.4518 21.7254 40.1481 21.7247 39.8442 21.7233C39.754 21.7242 39.6637 21.7251 39.5708 21.726C38.966 21.72 38.966 21.72 38.6746 21.5231C38.4853 21.2152 38.5107 20.9769 38.5547 20.625C38.8511 20.1407 39.3475 20.2231 39.855 20.2261Z" fill="#EBDCF9"></path><path d="M39.9513 14.9563C40.0444 14.9558 40.1374 14.9554 40.2333 14.955C40.5405 14.954 40.8476 14.9556 41.1548 14.9573C41.3684 14.9574 41.5821 14.9573 41.7957 14.9572C42.2434 14.9572 42.691 14.9584 43.1386 14.9605C43.7124 14.9632 44.2861 14.9632 44.8599 14.9624C45.301 14.9621 45.7421 14.9628 46.1833 14.964C46.3948 14.9644 46.6064 14.9646 46.818 14.9644C47.1136 14.9643 47.4093 14.9658 47.7049 14.9677C47.8361 14.9673 47.8361 14.9673 47.9699 14.9668C48.7526 14.9749 48.7526 14.9749 49.1016 15.2343C49.2241 15.6101 49.2692 15.8265 49.1035 16.191C48.7443 16.518 48.3674 16.4706 47.9059 16.465C47.7589 16.4659 47.7589 16.4659 47.609 16.4669C47.2848 16.4683 46.9607 16.4664 46.6365 16.4643C46.4116 16.4643 46.1867 16.4645 45.9618 16.4648C45.4904 16.465 45.0191 16.4635 44.5477 16.4608C43.9425 16.4575 43.3374 16.4578 42.7322 16.4593C42.2678 16.4601 41.8035 16.4592 41.3391 16.4578C41.1159 16.4572 40.8927 16.4572 40.6695 16.4577C40.3581 16.458 40.0467 16.4561 39.7352 16.4535C39.6424 16.454 39.5495 16.4546 39.4539 16.4551C39.1975 16.4516 39.1975 16.4516 38.7891 16.4062C38.5179 15.9995 38.4949 15.8298 38.5547 15.3515C38.9512 14.9197 39.4027 14.9507 39.9513 14.9563Z" fill="#EBDCF9"></path><path d="M7.61719 38.978C7.6988 38.9774 7.78041 38.9768 7.86449 38.9762C8.13365 38.9746 8.40272 38.9757 8.67187 38.9768C8.85925 38.9766 9.04663 38.9763 9.23401 38.9758C9.62647 38.9753 10.0189 38.9761 10.4114 38.9777C10.9142 38.9797 11.417 38.9786 11.9198 38.9764C12.3067 38.9752 12.6935 38.9756 13.0804 38.9765C13.2658 38.9767 13.4512 38.9764 13.6365 38.9756C13.8958 38.9747 14.1549 38.9761 14.4141 38.978C14.6352 38.9785 14.6352 38.9785 14.8608 38.9789C15.2598 39.0266 15.4274 39.0866 15.7031 39.3751C15.7555 39.7341 15.7781 39.9633 15.576 40.2731C15.232 40.5132 14.9368 40.4745 14.5212 40.4753C14.3951 40.4762 14.3951 40.4762 14.2664 40.4771C13.9885 40.4787 13.7106 40.4777 13.4326 40.4765C13.2395 40.4767 13.0465 40.4771 12.8534 40.4775C12.4487 40.478 12.044 40.4773 11.6393 40.4756C11.1203 40.4736 10.6014 40.4748 10.0824 40.4769C9.68365 40.4781 9.28495 40.4777 8.88624 40.4768C8.69486 40.4766 8.50348 40.4769 8.31211 40.4777C8.04472 40.4786 7.77744 40.4772 7.51007 40.4753C7.28175 40.4749 7.28175 40.4749 7.04881 40.4744C6.67969 40.4298 6.67969 40.4298 6.45521 40.2731C6.25317 39.9633 6.27577 39.7341 6.32812 39.3751C6.71755 38.9677 7.07212 38.9791 7.61719 38.978Z" fill="#EBDCF9"></path><path d="M24.7852 23.1519C25.5799 23.1702 26.2203 23.4583 26.819 23.9777C27.3713 24.5723 27.6645 25.2407 27.7002 26.0522C27.6562 26.4844 27.6562 26.4844 27.5244 26.7187C27.1994 26.8921 26.9635 26.8812 26.6016 26.8359C26.2697 26.5819 26.2043 26.3775 26.1475 25.9717C26.0369 25.4311 25.8936 25.1723 25.4297 24.8437C25.1277 24.7348 24.8283 24.6476 24.5164 24.5714C24.2578 24.4922 24.2578 24.4922 24.0234 24.2578C23.9941 23.8477 23.9941 23.8477 24.0234 23.4375C24.3068 23.1541 24.3947 23.1624 24.7852 23.1519Z" fill="#EBDCF9"></path><path d="M8.67187 3.63278C9.00824 3.843 9.1982 3.98231 9.375 4.3359C9.41605 4.96197 9.42845 5.34932 9.02344 5.85934C8.55098 6.17431 8.17216 6.17272 7.61719 6.09372C7.24777 5.8815 7.08206 5.71273 6.87012 5.34665C6.7776 4.95809 6.80217 4.71953 6.91406 4.3359C7.4066 3.62093 7.83169 3.52395 8.67187 3.63278Z" fill="#EBDCF9"></path><path d="M19.2188 3.63275C19.5551 3.84298 19.7451 3.98228 19.9219 4.33588C19.9869 4.8787 19.9965 5.27123 19.7022 5.74213C19.2881 6.13181 18.9789 6.13245 18.4291 6.12802C18.0405 6.07769 17.8418 5.9051 17.5781 5.62494C17.3755 5.21977 17.4036 4.77887 17.4609 4.33588C17.9177 3.60506 18.3996 3.52665 19.2188 3.63275Z" fill="#EBDCF9"></path><path d="M13.9453 3.63275C14.2817 3.84298 14.4716 3.98228 14.6484 4.33588C14.7135 4.8787 14.723 5.27123 14.4287 5.74213C14.0147 6.13181 13.7055 6.13245 13.1557 6.12802C12.7671 6.07769 12.5684 5.9051 12.3047 5.62494C12.1021 5.21977 12.1301 4.77887 12.1875 4.33588C12.6443 3.60506 13.1262 3.52665 13.9453 3.63275Z" fill="#EBDCF9"></path><path d="M44.8389 54.3677C45.2762 54.5053 45.4558 54.575 45.7031 54.9609C45.7954 55.5421 45.7954 55.5421 45.7031 55.8984C45.4028 56.2573 45.4028 56.2573 45 56.4844C44.5366 56.4924 44.2833 56.4336 43.894 56.1841C43.6817 55.8529 43.6296 55.5862 43.651 55.1926C43.7109 54.9609 43.7109 54.9609 44.0112 54.6021C44.4141 54.375 44.4141 54.375 44.8389 54.3677Z" fill="#EBDCF9"></path><path d="M23.5547 33.5157C23.9423 33.8217 24.1192 34.0578 24.1846 34.5484C24.1406 34.922 24.1406 34.922 23.9062 35.2589C23.4204 35.603 23.2039 35.5917 22.6172 35.5079C22.3242 35.3394 22.3242 35.3394 22.1484 35.0391C22.0778 34.6723 22.0718 34.3507 22.1484 33.9845C22.5508 33.4846 22.9326 33.4252 23.5547 33.5157Z" fill="#EBDCF9"></path></g><defs><clipPath id="clip0_1622_1556"><rect width="60" height="60" fill="white"></rect></clipPath></defs></svg>