<svg xmlns="http://www.w3.org/2000/svg" width="101" height="101" viewBox="0 0 101 101" fill="none"><g clip-path="url(#clip0_1646_77)"><path d="M4.97655 23.2111C5.42832 23.8887 5.41617 24.1442 5.41665 24.9435C5.41775 25.1843 5.41885 25.4251 5.41998 25.6732C5.41922 25.9418 5.41844 26.2105 5.41762 26.4792C5.41818 26.7635 5.41891 27.0478 5.4198 27.3321C5.42175 28.1153 5.42128 28.8985 5.42044 29.6818C5.41995 30.5258 5.42172 31.3697 5.42324 32.2137C5.4256 33.6771 5.42659 35.1405 5.42674 36.6038C5.427 38.7218 5.42994 40.8397 5.43367 42.9576C5.4397 46.3964 5.44442 49.8352 5.4479 53.274C5.44811 53.4799 5.44832 53.6859 5.44854 53.898C5.45085 56.1943 5.45284 58.4905 5.45448 60.7867C5.45508 61.6186 5.45569 62.4505 5.4563 63.2824C5.45644 63.4877 5.45659 63.693 5.45675 63.9044C5.4593 67.3285 5.46412 70.7525 5.4707 74.1766C5.47466 76.2887 5.47667 78.4007 5.47617 80.5128C5.47597 81.9609 5.47785 83.409 5.48137 84.8571C5.48333 85.6924 5.48434 86.5276 5.48278 87.3629C5.48138 88.1284 5.48268 88.8938 5.48608 89.6592C5.48684 89.9354 5.48662 90.2115 5.48529 90.4877C5.47522 92.7672 5.64439 94.5865 7.273 96.2747C8.33074 97.1777 9.63865 97.6466 11.0312 97.6251C12.8085 97.4499 14.1018 96.631 15.2648 95.3081C16.3025 93.6337 16.1941 91.9523 16.1952 90.0419C16.2246 88.2406 16.4485 86.5144 17.7085 85.1374C19.071 83.9641 20.4379 83.6414 22.2019 83.664C22.3948 83.6633 22.5877 83.6627 22.7865 83.662C23.4289 83.6607 24.0711 83.665 24.7135 83.6693C25.1755 83.6695 25.6376 83.6694 26.0997 83.6689C27.3513 83.6687 28.6029 83.6733 29.8546 83.6787C31.0309 83.6835 32.2073 83.6839 33.3837 83.6847C35.7127 83.6864 38.0417 83.6916 40.3707 83.699C42.6322 83.7062 44.8938 83.7117 47.1553 83.715C47.2949 83.7152 47.4344 83.7155 47.5782 83.7157C48.2784 83.7167 48.9785 83.7177 49.6786 83.7186C55.4811 83.7267 61.2835 83.7405 67.0859 83.758C67.0263 83.1834 67.0263 83.1834 66.8906 82.5861C66.3995 82.2177 66.3995 82.2177 65.7798 81.9757C64.4516 81.3793 64.4516 81.3793 63.8755 80.9381C63.4049 80.5917 63.4049 80.5917 62.8989 80.633C62.3613 80.8239 62.3613 80.8239 61.7881 81.2189C60.7743 81.8219 59.5985 81.9347 58.4456 81.7255C56.6382 81.1359 55.6821 79.7547 54.8057 78.1549C54.711 77.9881 54.6163 77.8213 54.5188 77.6495C53.6194 76.0505 53.2963 74.5872 53.7154 72.7449C54.2116 71.5591 55.2479 70.8873 56.3437 70.2814C56.7954 70.1464 56.7954 70.1464 57.125 70.0861C57.1109 69.8786 57.0968 69.6712 57.0823 69.4574C57.0639 69.1787 57.0456 68.9 57.0273 68.6212C57.018 68.4853 57.0087 68.3493 56.9991 68.2093C56.9903 68.0733 56.9815 67.9373 56.9724 67.7973C56.9629 67.6595 56.9534 67.5218 56.9436 67.3798C56.9297 66.9611 56.9297 66.9611 56.9631 66.537C57.0089 66.0733 57.0089 66.0733 56.9297 65.3986C56.4525 64.916 56.4525 64.916 55.8066 64.5929C54.6716 63.9541 54.0278 63.3335 53.6094 62.0783C53.3888 60.1375 53.78 58.8451 54.7812 57.1955C54.8915 57.0031 55.0018 56.8108 55.1154 56.6126C55.9191 55.267 56.6972 54.2371 58.1504 53.5944C59.769 53.3516 61.0279 53.535 62.3847 54.4687C62.937 54.7251 63.1921 54.6526 63.7656 54.4611C64.3069 54.1594 64.3069 54.1594 64.8398 53.7897C65.5092 53.3394 66.1305 52.9773 66.8906 52.7033C66.8979 52.5381 66.9052 52.373 66.9127 52.2028C67.014 50.4551 67.1548 48.9235 68.4531 47.6252C69.9329 46.5798 71.3586 46.6082 73.104 46.5998C73.4131 46.5937 73.4131 46.5937 73.7285 46.5876C75.2587 46.5799 76.5947 46.7269 77.7915 47.7838C77.8975 47.8737 78.0035 47.9636 78.1127 48.0562C78.9738 49.0569 79.081 49.9548 79.0366 51.214C79.034 51.3578 79.0313 51.5015 79.0286 51.6497C79.0218 52.0009 79.0112 52.3521 79 52.7033C79.149 52.7436 79.2981 52.7838 79.4516 52.8253C80.4646 53.2031 81.3809 53.7342 82.3203 54.2658C82.3126 53.9895 82.3126 53.9895 82.3048 53.7075C82.2881 53.0214 82.2759 52.3354 82.2667 51.6491C82.2618 51.3526 82.2551 51.0562 82.2466 50.7597C82.2347 50.3325 82.2292 49.9057 82.2249 49.4783C82.2198 49.2216 82.2147 48.9649 82.2094 48.7004C82.3474 47.8482 82.6295 47.5674 83.2969 47.0392C83.7134 46.9522 83.7134 46.9522 84.1025 47.0148C84.2966 47.0382 84.2966 47.0382 84.4947 47.0621C85.0449 47.3222 85.1801 47.6703 85.4453 48.2111C85.5118 48.824 85.5118 48.824 85.5025 49.5027C85.5006 49.7463 85.4987 49.9899 85.4968 50.2409C85.4919 50.4935 85.487 50.7462 85.4819 51.0065C85.4793 51.2629 85.4766 51.5194 85.4739 51.7836C85.467 52.4157 85.4574 53.0477 85.4453 53.6798C85.5616 53.6632 85.6778 53.6465 85.7976 53.6294C87.3536 53.4274 87.3536 53.4274 88.1186 53.7043C88.2523 53.7491 88.386 53.7939 88.5238 53.8401C89.9718 54.6032 90.5969 55.7113 91.3657 57.11C91.4706 57.2947 91.5754 57.4794 91.6835 57.6696C92.5239 59.1692 92.9146 60.3723 92.5956 62.1012C92.0846 63.7849 90.6097 64.5911 89.1562 65.3986C88.8047 68.0266 88.8047 68.0266 89.5499 70.4019C90.0595 70.672 90.5692 70.8627 91.1094 71.0626C92.0464 71.8669 92.5866 72.7708 92.7138 74.0106C92.8152 76.3791 91.2944 78.5913 89.9375 80.4376C88.9377 81.4926 87.9221 81.7432 86.4966 81.8224C86.0312 81.8048 86.0312 81.8048 85.4453 81.6095C85.4453 82.3185 85.4453 83.0275 85.4453 83.758C85.7438 83.7539 86.0422 83.7498 86.3497 83.7456C87.4624 83.7314 88.5752 83.7224 89.688 83.715C90.1686 83.7111 90.6492 83.7058 91.1297 83.699C91.8226 83.6895 92.5153 83.6851 93.2082 83.6817C93.4213 83.6776 93.6344 83.6736 93.8539 83.6694C95.5492 83.669 96.8062 84.0252 98.104 85.1374C99.5257 86.6908 99.6284 88.6719 99.5932 90.6793C99.5946 90.9015 99.596 91.1237 99.5974 91.3526C99.5763 94.2014 98.8483 96.4025 96.9565 98.5529C95.3166 100.103 93.1622 100.78 90.9654 100.778C90.7913 100.778 90.6172 100.779 90.4378 100.779C89.8532 100.781 89.2685 100.781 88.6839 100.782C88.2653 100.783 87.8466 100.784 87.428 100.785C86.2901 100.787 85.1521 100.788 84.0142 100.789C83.3038 100.79 82.5935 100.791 81.8831 100.791C79.6622 100.794 77.4412 100.796 75.2203 100.797C72.6534 100.798 70.0864 100.801 67.5195 100.807C65.537 100.811 63.5545 100.813 61.572 100.813C60.387 100.813 59.2021 100.815 58.0171 100.818C56.9034 100.821 55.7898 100.822 54.6761 100.82C54.2666 100.82 53.8571 100.821 53.4476 100.823C52.8901 100.825 52.3328 100.824 51.7754 100.822C51.6119 100.823 51.4485 100.825 51.2801 100.827C50.1776 100.817 50.1776 100.817 49.7655 100.488C49.3764 99.9992 49.3372 99.6101 49.3125 98.9923C49.5347 98.5378 49.736 98.1782 50.0937 97.8205C50.6154 97.7998 51.132 97.7919 51.6538 97.7922C51.8193 97.7915 51.9847 97.7908 52.1552 97.7901C52.7142 97.788 53.2731 97.7873 53.8321 97.7866C54.2311 97.7853 54.6301 97.784 55.0292 97.7826C55.8909 97.7797 56.7527 97.7774 57.6144 97.7756C58.9777 97.7726 60.341 97.7679 61.7043 97.7629C65.5819 97.749 69.4595 97.7373 73.3371 97.7273C75.4768 97.7218 77.6165 97.7149 79.7562 97.7065C81.1106 97.7013 82.4649 97.6978 83.8193 97.6956C84.664 97.6938 85.5087 97.6904 86.3534 97.6865C86.744 97.6851 87.1347 97.6843 87.5254 97.6842C91.418 97.7889 91.418 97.7889 94.7226 95.9749C96.1461 94.3608 96.2293 92.749 96.2485 90.7038C96.257 90.4037 96.257 90.4037 96.2657 90.0976C96.2754 88.9433 96.2571 88.1414 95.4062 87.2736C94.5702 86.9274 93.8598 86.834 92.9593 86.8333C92.7047 86.8321 92.4501 86.831 92.1878 86.8298C91.9067 86.8305 91.6255 86.8313 91.3443 86.832C91.0446 86.8315 90.7449 86.8307 90.4451 86.8298C89.622 86.8278 88.7989 86.8282 87.9758 86.829C87.0879 86.8295 86.2 86.8278 85.3121 86.8263C83.5728 86.8238 81.8336 86.8235 80.0943 86.8239C78.6808 86.8243 77.2673 86.8239 75.8538 86.8231C75.6527 86.823 75.4516 86.8228 75.2444 86.8227C74.8359 86.8225 74.4274 86.8223 74.0189 86.822C70.1871 86.8199 66.3554 86.8203 62.5236 86.8215C59.0173 86.8225 55.5109 86.8203 52.0046 86.8166C48.4051 86.8128 44.8055 86.8112 41.206 86.8119C39.1848 86.8123 37.1637 86.8118 35.1425 86.8091C33.422 86.8067 31.7014 86.8065 29.9809 86.8088C29.103 86.81 28.2251 86.8102 27.3471 86.8079C26.5434 86.8057 25.7398 86.8063 24.9361 86.8091C24.6454 86.8096 24.3546 86.8091 24.0639 86.8076C22.0496 86.7663 22.0496 86.7663 20.2109 87.4689C19.6325 88.1682 19.5531 88.7192 19.5525 89.612C19.5491 89.8362 19.5457 90.0604 19.5422 90.2914C19.5404 90.7563 19.5394 91.2212 19.5392 91.686C19.508 93.6132 19.1825 95.238 18.1437 96.8795C18.0555 97.0194 17.9672 97.1593 17.8763 97.3034C17.8088 97.4096 17.7414 97.5157 17.6719 97.6251C17.8824 97.6256 17.8824 97.6256 18.0973 97.626C21.5105 97.6332 24.9238 97.6448 28.337 97.6611C29.9877 97.6688 31.6383 97.6752 33.2889 97.6781C34.7273 97.6806 36.1657 97.6859 37.6041 97.6944C38.366 97.6988 39.1278 97.7019 39.8897 97.7017C40.6065 97.7015 41.3232 97.705 42.0399 97.7113C42.4291 97.7138 42.8183 97.7124 43.2074 97.7109C43.4383 97.7136 43.6692 97.7163 43.9071 97.7191C44.1082 97.7198 44.3093 97.7205 44.5165 97.7213C45.0156 97.8205 45.0156 97.8205 45.3725 98.1747C45.7113 98.8063 45.6896 99.2648 45.6016 99.9689C45.2954 100.396 45.2954 100.396 44.8203 100.75C44.3138 100.827 43.89 100.856 43.3839 100.849C43.1662 100.851 43.1662 100.851 42.9442 100.853C42.4576 100.856 41.9712 100.854 41.4847 100.851C41.1359 100.852 40.7872 100.854 40.4384 100.855C39.4904 100.859 38.5424 100.858 37.5944 100.855C36.6015 100.853 35.6086 100.855 34.6157 100.856C32.9467 100.858 31.2777 100.856 29.6087 100.852C27.6825 100.848 25.7563 100.849 23.8301 100.853C22.1748 100.857 20.5196 100.857 18.8643 100.855C17.8764 100.854 16.8886 100.854 15.9007 100.857C14.9704 100.859 14.0401 100.857 13.1098 100.853C12.7697 100.852 12.4295 100.852 12.0893 100.854C9.23885 100.867 6.89132 100.417 4.74996 98.3995C2.54583 96.0636 2.18242 93.5969 2.18994 90.4912C2.18921 90.2044 2.18831 89.9176 2.18726 89.6307C2.18488 88.8461 2.18492 88.0614 2.18538 87.2767C2.18546 86.4291 2.18331 85.5816 2.18145 84.7341C2.17822 83.0753 2.17714 81.4165 2.17692 79.7578C2.17673 78.4099 2.17593 77.0621 2.17469 75.7142C2.17125 71.8927 2.16945 68.0712 2.16974 64.2496C2.16976 64.0438 2.16977 63.8379 2.16979 63.6258C2.16981 63.4197 2.16982 63.2136 2.16984 63.0012C2.17 59.657 2.16625 56.3127 2.16075 52.9684C2.15515 49.5344 2.15244 46.1004 2.15278 42.6664C2.15291 40.7384 2.15183 38.8105 2.14763 36.8826C2.14408 35.2422 2.14322 33.6018 2.14588 31.9614C2.14716 31.1242 2.14716 30.2871 2.14379 29.45C2.14073 28.684 2.14126 27.9182 2.14468 27.1522C2.14528 26.8748 2.14456 26.5973 2.14239 26.3199C2.13964 25.9434 2.14216 25.5669 2.14495 25.1904C2.14487 24.9811 2.14478 24.7718 2.14469 24.5562C2.2671 23.8482 2.52218 23.5223 3.02342 23.0158C3.80375 22.7557 4.21455 22.934 4.97655 23.2111ZM70.584 50.0467C70.011 50.8271 70.0808 51.5759 70.0889 52.5202C70.0889 52.8724 70.0864 53.2246 70.0812 53.5768C70.0823 53.7325 70.0834 53.8881 70.0846 54.0484C69.9972 54.5711 69.844 54.725 69.4297 55.047C69.0894 55.2322 69.0894 55.2322 68.7148 55.3911C68.5768 55.4518 68.4388 55.5125 68.2967 55.575C68.1509 55.6384 68.0051 55.7019 67.855 55.7672C66.6072 56.3244 65.6044 56.9168 64.6193 57.8852C63.9512 58.299 63.3466 58.3085 62.5937 58.172C61.9225 57.9006 61.3273 57.5132 60.715 57.1306C60.1597 56.804 59.7962 56.5942 59.1445 56.6698C58.4909 57.1422 58.1571 57.7116 57.7598 58.404C57.682 58.5305 57.6042 58.657 57.524 58.7873C57.0383 59.6114 56.7487 60.3187 56.7344 61.297C57.1347 61.953 57.9491 62.2893 58.602 62.6764C59.8095 63.3956 59.8095 63.3956 60.25 63.8361C60.2733 64.2432 60.2733 64.2432 60.2385 64.747C60.2276 64.9326 60.2166 65.1182 60.2053 65.3094C60.1919 65.508 60.1784 65.7066 60.1645 65.9113C60.0758 67.338 60.066 68.6803 60.2378 70.0983C60.3347 71.3238 60.3347 71.3238 59.9776 71.8698C59.5623 72.1959 59.1692 72.4097 58.6875 72.6251C58.3644 72.7804 58.0428 72.9391 57.7231 73.1012C57.5764 73.1654 57.4296 73.2296 57.2783 73.2958C56.8726 73.5991 56.8726 73.5991 56.7313 74.2159C56.7353 75.1987 57.0515 75.7557 57.5522 76.5802C57.6304 76.7182 57.7086 76.8562 57.7891 76.9983C58.369 77.9915 58.369 77.9915 59.2734 78.6798C60.1122 78.5366 60.7698 78.1012 61.4951 77.6789C62.9132 76.9057 62.9132 76.9057 63.7687 76.9792C64.4572 77.2246 64.942 77.7388 65.4838 78.2167C66.4396 78.9243 67.4993 79.3766 68.5827 79.8574C68.7396 79.9275 68.8965 79.9977 69.0581 80.0699C69.2001 80.1316 69.3421 80.1932 69.4885 80.2567C69.8203 80.4376 69.8203 80.4376 70.0156 80.8283C70.0609 81.3259 70.0974 81.819 70.1255 82.3175C70.1678 83.0305 70.1678 83.0305 70.2109 83.758C72.0801 83.758 73.9492 83.758 75.875 83.758C75.9717 82.5011 75.9717 82.5011 76.0703 81.2189C76.6967 80.175 77.0826 79.9835 78.1455 79.5832C79.4504 79.056 80.4732 78.4366 81.539 77.508C82.2663 77.0231 82.8446 76.9886 83.6875 77.1173C84.1947 77.3261 84.6361 77.6068 85.0913 77.9108C85.946 78.4851 85.946 78.4851 86.9361 78.7195C87.6594 78.3519 87.9319 77.752 88.3139 77.0563C88.3901 76.924 88.4663 76.7917 88.5447 76.6554C88.6904 76.4007 88.8337 76.1446 88.9742 75.887C89.1144 75.6311 89.2636 75.3801 89.4164 75.1314C89.6056 74.6125 89.5373 74.3121 89.3515 73.797C89.0061 73.462 89.0061 73.462 88.5581 73.2111C88.3221 73.063 88.3221 73.063 88.0813 72.912C87.7691 72.7283 87.4544 72.5489 87.1367 72.3749C86.0767 71.7768 86.0767 71.7768 85.8237 71.0626C85.8359 70.4767 85.8359 70.4767 85.9328 70.0594C86.0671 69.2964 86.0595 68.5521 86.0556 67.779C86.0564 67.6288 86.0572 67.4786 86.0579 67.3239C86.0567 66.5852 86.0238 65.8822 85.9076 65.1522C85.8327 64.3889 85.804 64.0782 86.2265 63.4455C86.6877 63.089 87.1811 62.8099 87.6914 62.5299C88.6791 61.9969 88.6791 61.9969 89.5469 61.297C89.5131 60.1839 88.9745 59.3374 88.4238 58.404C88.2977 58.1768 88.2977 58.1768 88.169 57.945C87.6891 57.1119 87.6891 57.1119 86.9292 56.5592C86.0762 56.6438 85.4445 57.1427 84.7491 57.6071C83.8833 58.1495 83.1465 58.3979 82.125 58.172C81.6385 57.8851 81.2583 57.6236 80.831 57.2687C79.6834 56.3744 78.5816 55.8205 77.2155 55.3301C76.5287 54.9825 76.3474 54.788 76.0703 54.0705C75.9765 53.2764 75.9851 52.481 75.9845 51.6825C75.9779 50.7649 75.9779 50.7649 75.5988 49.9575C74.7908 49.6633 74.0058 49.6814 73.1528 49.6881C72.9782 49.6842 72.8036 49.6803 72.6237 49.6763C71.8472 49.6769 71.2972 49.7239 70.584 50.0467ZM80.4404 81.8048C80.3024 81.8794 80.1645 81.9539 80.0223 82.0307C79.6812 82.2151 79.3405 82.4005 79 82.5861C79 82.9728 79 83.3595 79 83.758C80.0957 83.758 81.1914 83.758 82.3203 83.758C82.3203 82.8556 82.3203 81.9533 82.3203 81.0236C81.6266 81.0236 81.0387 81.4781 80.4404 81.8048Z" fill="black"></path><path d="M9.21011 0.650614C9.52135 0.649713 9.83259 0.648471 10.1438 0.64692C10.9961 0.643667 11.8482 0.645268 12.7004 0.647691C13.6207 0.649461 14.541 0.646729 15.4612 0.644582C17.2628 0.64111 19.0644 0.641857 20.866 0.644123C22.3303 0.645888 23.7946 0.646126 25.2589 0.645276C25.4674 0.645156 25.6759 0.645037 25.8907 0.644913C26.3143 0.644663 26.7378 0.64441 27.1614 0.644153C31.1322 0.641926 35.1029 0.644486 39.0737 0.648685C42.48 0.652175 45.8863 0.651569 49.2927 0.647967C53.2493 0.643785 57.206 0.642141 61.1626 0.644539C61.5846 0.644788 62.0066 0.645034 62.4286 0.645276C62.6362 0.645397 62.8438 0.645517 63.0577 0.645641C64.5201 0.646316 65.9825 0.645178 67.4449 0.643339C69.2273 0.641147 71.0097 0.641743 72.7921 0.645902C73.7014 0.647954 74.6106 0.648762 75.5198 0.646176C76.3525 0.643844 77.1852 0.645134 78.0179 0.649284C78.3188 0.650154 78.6196 0.649716 78.9204 0.647818C80.9285 0.636122 82.4723 0.793066 84.0415 2.12921C85.7143 3.97693 85.5588 6.36921 85.5495 8.69955C85.5509 9.06582 85.5526 9.43208 85.5546 9.79834C85.559 10.7873 85.5584 11.7763 85.5567 12.7653C85.5557 13.592 85.5571 14.4186 85.5585 15.2453C85.5619 17.1947 85.5612 19.144 85.5579 21.0934C85.5546 23.1041 85.5577 25.1147 85.564 27.1254C85.5692 28.8539 85.5706 30.5823 85.569 32.3107C85.568 33.3422 85.5684 34.3736 85.5724 35.4051C85.576 36.3738 85.5749 37.3423 85.5701 38.311C85.5691 38.6664 85.5698 39.0219 85.5722 39.3774C85.5753 39.8625 85.5724 40.3471 85.568 40.8322C85.5703 40.973 85.5726 41.1139 85.575 41.259C85.5611 42.0078 85.4609 42.3315 84.9929 42.9277C84.4688 43.3279 84.4688 43.3279 83.7729 43.4378C82.9784 43.3078 82.7949 43.1851 82.3203 42.5467C82.2441 42.0212 82.2158 41.5756 82.2229 41.0505C82.2213 40.8232 82.2213 40.8232 82.2197 40.5914C82.2171 40.0832 82.2201 39.5752 82.223 39.067C82.2222 38.7028 82.2211 38.3387 82.2197 37.9746C82.2174 37.1902 82.2175 36.4058 82.2195 35.6214C82.2225 34.3814 82.2198 33.1414 82.2163 31.9014C82.2103 29.493 82.21 27.0845 82.2104 24.6761C82.2107 21.6111 82.2086 18.5461 82.2009 15.4811C82.198 14.2481 82.198 13.0152 82.2004 11.7823C82.2013 11.0155 82.1999 10.2488 82.1978 9.48198C82.1973 9.12617 82.1978 8.77037 82.1994 8.41457C82.2015 7.9291 82.2 7.44378 82.1976 6.95831C82.1991 6.8173 82.2006 6.67629 82.2021 6.531C82.1932 5.67622 82.1062 5.11275 81.5391 4.46076C80.2461 3.62133 78.749 3.79313 77.2584 3.80042C76.9585 3.79974 76.6586 3.79881 76.3587 3.79765C75.536 3.7952 74.7133 3.79641 73.8907 3.79822C73.0029 3.79955 72.1151 3.7975 71.2273 3.79589C69.4888 3.79329 67.7502 3.79385 66.0116 3.79555C64.5987 3.79687 63.1857 3.79705 61.7728 3.79641C61.5717 3.79632 61.3707 3.79623 61.1635 3.79614C60.755 3.79595 60.3466 3.79576 59.9381 3.79557C56.1077 3.7939 52.2772 3.79582 48.4467 3.79897C45.1597 3.80159 41.8728 3.80113 38.5858 3.79843C34.769 3.7953 30.9523 3.79406 27.1356 3.79586C26.7286 3.79605 26.3217 3.79623 25.9147 3.79641C25.7145 3.7965 25.5142 3.79659 25.3079 3.79669C23.8966 3.79719 22.4853 3.79634 21.074 3.79496C19.3542 3.79332 17.6344 3.79376 15.9146 3.79688C15.0371 3.79842 14.1595 3.79902 13.282 3.79709C12.4787 3.79534 11.6754 3.7963 10.8721 3.79942C10.5815 3.80007 10.2909 3.79974 10.0003 3.79832C7.98678 3.75852 7.98678 3.75852 6.14844 4.46076C5.53659 5.18858 5.48967 5.78599 5.49045 6.71911C5.48911 6.97459 5.48776 7.23007 5.48638 7.4933C5.487 7.62883 5.48762 7.76435 5.48826 7.90398C5.49004 8.33014 5.48803 8.75613 5.48501 9.18228C5.47719 10.3932 5.47695 11.6042 5.47739 12.8152C5.4774 13.5572 5.47365 14.2991 5.46775 15.0411C5.46564 15.4605 5.468 15.8797 5.47045 16.2991C5.46849 16.554 5.46653 16.8088 5.46451 17.0714C5.46454 17.2958 5.46458 17.5201 5.46461 17.7512C5.34647 18.4506 5.13803 18.6785 4.58594 19.1092C4.19531 19.2198 4.19531 19.2198 3.80469 19.2191C3.61133 19.2255 3.61133 19.2255 3.41406 19.232C2.7988 19.0386 2.59338 18.661 2.24219 18.1326C2.14298 17.5329 2.14298 17.5329 2.1411 16.8546C2.13741 16.4721 2.13741 16.4721 2.13364 16.0819C2.13504 15.8047 2.13664 15.5275 2.13843 15.2502C2.1379 14.9634 2.13714 14.6766 2.13616 14.3897C2.13501 13.7885 2.13668 13.1873 2.14034 12.5861C2.14476 11.821 2.14224 11.0562 2.13755 10.2911C2.1347 9.69825 2.13563 9.10542 2.13764 8.51254C2.13816 8.23085 2.13754 7.94915 2.13571 7.66746C2.1255 5.65972 2.22907 3.68405 3.646 2.12921C5.34251 0.685406 7.06732 0.637093 9.21011 0.650614Z" fill="black"></path><path d="M16.9271 32.5576C17.2822 32.5566 17.2822 32.5566 17.6446 32.5556C18.2911 32.554 18.9376 32.5534 19.5841 32.5533C19.9891 32.5531 20.394 32.5527 20.799 32.5522C22.2147 32.5504 23.6305 32.5496 25.0463 32.5497C26.3611 32.5499 27.6758 32.5478 28.9906 32.5447C30.1234 32.5421 31.2562 32.5411 32.389 32.5412C33.0638 32.5413 33.7386 32.5407 34.4133 32.5387C35.1672 32.5364 35.9211 32.5373 36.675 32.5385C36.8952 32.5374 37.1155 32.5363 37.3424 32.5352C39.7527 32.5446 41.5909 32.8024 43.4112 34.4673C45.0822 36.2328 44.9102 38.4861 44.905 40.7517C44.9059 41.0904 44.9069 41.4292 44.9081 41.7679C44.9098 42.4756 44.9094 43.1833 44.9074 43.891C44.9052 44.7935 44.9091 45.6959 44.9148 46.5984C44.9184 47.2974 44.9184 47.9962 44.9173 48.6952C44.9172 49.0277 44.9184 49.3603 44.9208 49.6928C44.9351 51.9573 44.8345 53.9798 43.2143 55.7236C42.0199 56.7553 40.7844 57.2174 39.2241 57.224C38.999 57.2254 38.774 57.2268 38.5421 57.2283C38.296 57.2288 38.0498 57.2293 37.7962 57.2299C37.5337 57.2311 37.2712 57.2324 37.0088 57.2338C36.1473 57.2379 35.2859 57.2399 34.4245 57.2418C34.1273 57.2426 33.8301 57.2434 33.533 57.2443C32.1362 57.248 30.7394 57.2508 29.3426 57.2524C27.7335 57.2543 26.1245 57.2594 24.5155 57.2673C23.2697 57.2732 22.024 57.2761 20.7783 57.2768C20.0352 57.2772 19.2923 57.2789 18.5492 57.2839C17.8493 57.2884 17.1494 57.2892 16.4495 57.2872C16.0729 57.2871 15.6964 57.2908 15.3198 57.2947C13.6566 57.2848 12.2935 57.0289 10.9168 56.0578C9.39425 54.472 8.86107 52.9093 8.85445 50.7254C8.85379 50.589 8.85314 50.4526 8.85246 50.3121C8.85061 49.863 8.85023 49.4138 8.85002 48.9647C8.84939 48.6507 8.84873 48.3366 8.84805 48.0225C8.84688 47.3645 8.84651 46.7065 8.84663 46.0485C8.84665 45.209 8.84399 44.3696 8.84062 43.5301C8.83844 42.8813 8.83805 42.2325 8.83816 41.5837C8.83793 41.2744 8.83707 40.9651 8.83555 40.6559C8.82504 38.2933 8.83576 36.2298 10.4453 34.3437C12.3413 32.5762 14.4646 32.5566 16.9271 32.5576ZM12.5083 36.8706C12.0361 37.7962 11.9823 38.515 11.9764 39.5541C11.9754 39.6835 11.9744 39.8128 11.9734 39.9461C11.9706 40.3728 11.9692 40.7995 11.9681 41.2262C11.967 41.524 11.9659 41.8217 11.9648 42.1195C11.9627 42.7435 11.9616 43.3676 11.9609 43.9916C11.9598 44.7889 11.9551 45.5861 11.9496 46.3834C11.9459 46.9985 11.9449 47.6136 11.9446 48.2287C11.944 48.5225 11.9425 48.8163 11.9399 49.1101C11.9365 49.5223 11.9369 49.9344 11.9382 50.3466C11.9375 50.5807 11.9368 50.8147 11.936 51.0558C12.0587 52.2016 12.4614 53.1327 13.375 53.875C13.9734 54.0745 14.383 54.0963 15.0097 54.099C15.3362 54.1011 15.3362 54.1011 15.6693 54.1033C15.9083 54.1038 16.1472 54.1043 16.3934 54.1049C16.7708 54.1068 16.7708 54.1068 17.1558 54.1088C17.9903 54.1129 18.8248 54.1149 19.6593 54.1168C19.9468 54.1176 20.2343 54.1184 20.5217 54.1193C21.8722 54.123 23.2227 54.1258 24.5732 54.1274C26.1314 54.1293 27.6896 54.1344 29.2478 54.1423C30.4527 54.1482 31.6576 54.1511 32.8625 54.1518C33.582 54.1522 34.3013 54.154 35.0208 54.1589C35.8236 54.1643 36.6263 54.1635 37.4292 54.1621C37.667 54.1646 37.9047 54.1671 38.1497 54.1697C39.7782 54.1671 39.7782 54.1671 41.1094 53.2891C41.6854 52.4193 41.7692 51.7253 41.7711 50.6939C41.7722 50.5566 41.7732 50.4192 41.7743 50.2777C41.7768 49.8268 41.7751 49.376 41.7731 48.925C41.7735 48.6099 41.7741 48.2947 41.7748 47.9795C41.7757 47.3202 41.7745 46.6609 41.7717 46.0016C41.7684 45.1583 41.7703 44.3151 41.7738 43.4719C41.7759 42.8214 41.7752 42.1709 41.7737 41.5205C41.7733 41.2096 41.7738 40.8988 41.7752 40.5879C41.7767 40.1528 41.7744 39.7178 41.7711 39.2826C41.7704 38.9119 41.7704 38.9119 41.7697 38.5337C41.6619 37.5569 41.347 36.9189 40.6455 36.2358C39.8374 35.7163 39.0593 35.6866 38.1151 35.6835C37.8058 35.6818 37.8058 35.6818 37.4904 35.6801C37.1541 35.6798 37.1541 35.6798 36.8111 35.6795C36.5735 35.6785 36.3358 35.6775 36.0909 35.6765C35.4404 35.6742 34.7899 35.6727 34.1393 35.6718C33.7324 35.6713 33.3254 35.6705 32.9184 35.6696C31.6434 35.6669 30.3684 35.665 29.0935 35.6643C27.6247 35.6634 26.1559 35.66 24.6871 35.6543C23.5497 35.6501 22.4123 35.6481 21.2749 35.6479C20.5965 35.6477 19.9182 35.6465 19.2398 35.643C18.4825 35.6392 17.7252 35.64 16.9678 35.6413C16.6334 35.6386 16.6334 35.6386 16.2922 35.6359C14.8297 35.6435 13.5026 35.6724 12.5083 36.8706Z" fill="black"></path><path d="M13.4511 26.0671C13.671 26.0656 13.8908 26.0641 14.1174 26.0625C14.36 26.0638 14.6026 26.0651 14.8525 26.0665C15.1094 26.0655 15.3663 26.0646 15.631 26.0637C16.3456 26.0612 17.0602 26.0624 17.7748 26.0643C18.5449 26.0656 19.315 26.0635 20.085 26.0619C21.5942 26.0593 23.1034 26.0599 24.6126 26.0616C25.8387 26.0629 27.0649 26.0631 28.2911 26.0624C28.4654 26.0624 28.6397 26.0623 28.8193 26.0622C29.1733 26.062 29.5274 26.0618 29.8814 26.0616C33.2038 26.0599 36.5263 26.0619 39.8487 26.065C42.7016 26.0676 45.5544 26.0672 48.4073 26.0645C51.7176 26.0613 55.0278 26.0601 58.3381 26.0619C58.6909 26.0621 59.0436 26.0623 59.3964 26.0624C59.6568 26.0626 59.6568 26.0626 59.9224 26.0627C61.1476 26.0632 62.3728 26.0624 63.5979 26.061C65.0903 26.0594 66.5827 26.0598 68.0751 26.0629C68.8371 26.0645 69.599 26.0651 70.3609 26.0631C71.1856 26.0611 72.0103 26.0635 72.835 26.0665C73.1989 26.0645 73.1989 26.0645 73.5701 26.0625C73.8999 26.0648 73.8999 26.0648 74.2364 26.0671C74.5222 26.0673 74.5222 26.0673 74.8137 26.0674C75.3739 26.154 75.5428 26.2751 75.875 26.7268C76.0849 27.4164 76.1254 27.7639 75.8506 28.4358C75.3278 29.0632 74.8014 29.2379 73.9944 29.3148C73.7163 29.3149 73.7163 29.3149 73.4326 29.315C73.2176 29.316 73.0026 29.3171 72.7812 29.3181C72.4285 29.3168 72.4285 29.3168 72.0687 29.3155C71.8181 29.3161 71.5675 29.3167 71.3094 29.3173C70.6142 29.3189 69.9191 29.3181 69.2239 29.3169C68.4741 29.316 67.7242 29.3174 66.9744 29.3185C65.5056 29.3202 64.0368 29.3198 62.5681 29.3187C61.3745 29.3178 60.1809 29.3177 58.9873 29.3181C58.8175 29.3182 58.6478 29.3182 58.4728 29.3183C58.1279 29.3184 57.783 29.3186 57.4381 29.3187C54.2028 29.3198 50.9675 29.3185 47.7323 29.3164C44.9555 29.3147 42.1787 29.315 39.4019 29.3168C36.1783 29.3189 32.9547 29.3197 29.7311 29.3185C29.3875 29.3184 29.0438 29.3182 28.7002 29.3181C28.4465 29.318 28.4465 29.318 28.1878 29.3179C26.9954 29.3176 25.8031 29.3182 24.6108 29.3191C23.158 29.3202 21.7053 29.3199 20.2525 29.3178C19.5111 29.3168 18.7697 29.3164 18.0282 29.3177C17.2251 29.3191 16.422 29.3174 15.6188 29.3155C15.3837 29.3163 15.1486 29.3172 14.9063 29.3181C14.6914 29.3171 14.4764 29.3161 14.2549 29.315C13.9768 29.3149 13.9768 29.3149 13.6931 29.3148C12.8861 29.2379 12.3597 29.0632 11.8369 28.4358C11.5621 27.7639 11.6026 27.4164 11.8125 26.7268C12.2865 26.0822 12.6741 26.0675 13.4511 26.0671Z" fill="black"></path><path d="M11.7733 66.3214C11.9488 66.3204 12.1242 66.3194 12.305 66.3183C12.8941 66.3154 13.4832 66.3152 14.0723 66.3151C14.4941 66.3136 14.916 66.312 15.3379 66.3102C16.4847 66.3059 17.6315 66.3042 18.7784 66.3032C19.4945 66.3025 20.2106 66.3013 20.9267 66.2999C23.4239 66.2951 25.921 66.2925 28.4182 66.2918C30.7478 66.2911 33.0774 66.2853 35.4071 66.2771C37.4058 66.2703 39.4046 66.2673 41.4033 66.2672C42.5977 66.267 43.792 66.2653 44.9864 66.2598C46.1094 66.2547 47.2323 66.2542 48.3553 66.2573C48.7678 66.2577 49.1803 66.2564 49.5928 66.2533C50.1553 66.2493 50.7175 66.2513 51.28 66.2549C51.5257 66.251 51.5257 66.251 51.7764 66.2471C52.6126 66.2592 52.9307 66.3027 53.6131 66.8341C54 67.3515 54 67.3515 54.1221 67.9374C53.9541 68.7436 53.6713 68.9956 53.0234 69.4999C52.4393 69.6407 51.8712 69.631 51.2726 69.6226C51.096 69.624 50.9195 69.6254 50.7376 69.6268C50.1459 69.6303 49.5544 69.6267 48.9626 69.6232C48.5385 69.6242 48.1144 69.6256 47.6902 69.6274C46.5382 69.6311 45.3862 69.6285 44.2341 69.6247C43.0294 69.6215 41.8247 69.6232 40.62 69.6242C38.597 69.6251 36.574 69.622 34.551 69.6165C32.2106 69.6103 29.8703 69.6103 27.5299 69.6136C25.2801 69.6167 23.0304 69.6154 20.7807 69.6121C19.8224 69.6108 18.8642 69.611 17.9059 69.6124C16.7781 69.6139 15.6504 69.6115 14.5226 69.6062C14.1081 69.6048 13.6937 69.6048 13.2792 69.6062C12.7145 69.6079 12.1501 69.6048 11.5854 69.6005C11.3379 69.6029 11.3379 69.6029 11.0854 69.6053C10.3725 69.5952 9.94995 69.5681 9.37155 69.1328C9.0248 68.6434 8.91205 68.3415 8.88281 67.7421C9.02065 67.2033 9.11888 66.8793 9.57267 66.5454C10.2962 66.2895 11.015 66.3192 11.7733 66.3214Z" fill="black"></path><path d="M11.4421 72.009C11.6904 72.0077 11.6904 72.0077 11.9437 72.0064C12.5016 72.0038 13.0595 72.0026 13.6175 72.0014C14.0162 71.9999 14.4149 71.9982 14.8136 71.9966C16.1257 71.9914 17.4378 71.9885 18.7499 71.9857C19.201 71.9846 19.6522 71.9836 20.1033 71.9825C21.9793 71.9783 23.8554 71.9746 25.7314 71.9724C28.423 71.9693 31.1145 71.9628 33.8061 71.9517C35.6971 71.9441 37.588 71.9403 39.4789 71.9392C40.6091 71.9385 41.7393 71.9362 42.8695 71.9299C43.9325 71.924 44.9955 71.9227 46.0585 71.925C46.449 71.9251 46.8394 71.9235 47.2298 71.92C47.7624 71.9156 48.2947 71.9172 48.8273 71.9203C48.9822 71.9176 49.1372 71.9149 49.2969 71.9121C50.0826 71.9234 50.4431 72.0066 51.0686 72.4982C51.4609 73.0156 51.4609 73.0156 51.583 73.6016C51.4157 74.4044 51.1264 74.6592 50.4844 75.1641C49.8956 75.2598 49.4178 75.2956 48.8299 75.2868C48.5806 75.2888 48.5807 75.2888 48.3263 75.291C47.7697 75.2944 47.2133 75.2909 46.6567 75.2873C46.2575 75.2883 45.8584 75.2898 45.4593 75.2916C44.3754 75.2952 43.2916 75.2927 42.2077 75.2888C41.0742 75.2856 39.9406 75.2873 38.8071 75.2883C36.9036 75.2892 35.0002 75.2861 33.0967 75.2807C30.8948 75.2744 28.6929 75.2744 26.491 75.2778C24.3741 75.2809 22.2572 75.2796 20.1404 75.2762C19.2388 75.2749 18.3373 75.2751 17.4357 75.2765C16.3746 75.278 15.3135 75.2757 14.2524 75.2703C13.8625 75.269 13.4726 75.2689 13.0827 75.2703C12.5514 75.272 12.0203 75.2689 11.489 75.2646C11.3339 75.2662 11.1788 75.2678 11.0189 75.2695C10.326 75.259 9.93668 75.2232 9.37834 74.7962C9.01743 74.2993 8.89748 74.0223 8.88281 73.4063C9.46428 71.9664 10.0011 72.0099 11.4421 72.009Z" fill="black"></path><path d="M11.6769 60.6573C11.842 60.6563 12.0071 60.6553 12.1772 60.6542C12.7312 60.6513 13.2852 60.6512 13.8392 60.651C14.236 60.6496 14.6329 60.6479 15.0297 60.6461C16.1084 60.6418 17.187 60.6401 18.2657 60.6391C18.9393 60.6384 19.6128 60.6372 20.2864 60.6358C22.6354 60.631 24.9844 60.6285 27.3334 60.6278C29.5246 60.6271 31.7157 60.6212 33.9069 60.613C35.787 60.6063 37.6672 60.6033 39.5473 60.6031C40.6708 60.603 41.7942 60.6012 42.9176 60.5957C43.9739 60.5906 45.0301 60.5901 46.0864 60.5933C46.4744 60.5936 46.8623 60.5923 47.2502 60.5892C47.7794 60.5852 48.3082 60.5873 48.8373 60.5908C48.9913 60.5882 49.1452 60.5857 49.3038 60.583C50.0871 60.595 50.4447 60.6797 51.068 61.17C51.4609 61.6874 51.4609 61.6874 51.583 62.2734C51.4157 63.0763 51.1264 63.331 50.4844 63.8359C49.8956 63.9316 49.4178 63.9674 48.8299 63.9586C48.5806 63.9607 48.5807 63.9607 48.3263 63.9628C47.7697 63.9662 47.2133 63.9627 46.6567 63.9591C46.2575 63.9602 45.8584 63.9616 45.4593 63.9634C44.3754 63.967 43.2916 63.9645 42.2077 63.9606C41.0742 63.9574 39.9406 63.9592 38.8071 63.9601C36.9036 63.961 35.0002 63.9579 33.0967 63.9525C30.8948 63.9462 28.6929 63.9462 26.491 63.9496C24.3741 63.9527 22.2572 63.9514 20.1404 63.948C19.2388 63.9467 18.3373 63.9469 17.4357 63.9483C16.3746 63.9498 15.3135 63.9475 14.2524 63.9421C13.8625 63.9408 13.4726 63.9408 13.0827 63.9422C12.5514 63.9438 12.0203 63.9408 11.489 63.9364C11.3339 63.938 11.1788 63.9396 11.0189 63.9413C10.3263 63.9308 9.93634 63.8945 9.37758 63.4687C9.02383 62.9796 8.91223 62.6812 8.88281 62.0781C9.0216 61.5355 9.1185 61.2133 9.57869 60.8813C10.2713 60.6333 10.9504 60.6551 11.6769 60.6573Z" fill="black"></path><path d="M29.4585 38.1491C29.7714 38.1454 29.7714 38.1454 30.0906 38.1416C30.4269 38.144 30.4269 38.144 30.77 38.1464C31.0012 38.1456 31.2323 38.1449 31.4704 38.1441C31.959 38.1436 32.4476 38.145 32.9362 38.1483C33.6847 38.1525 34.4328 38.1483 35.1813 38.1433C35.6559 38.1439 36.1304 38.1449 36.605 38.1464C36.8292 38.1448 37.0534 38.1432 37.2844 38.1416C37.493 38.1441 37.7016 38.1465 37.9165 38.1491C38.1914 38.15 38.1914 38.15 38.4718 38.1509C39.1287 38.2842 39.3528 38.4892 39.7422 39.0314C39.8414 39.6021 39.8414 39.6021 39.8433 40.2731C39.8457 40.5247 39.8482 40.7763 39.8507 41.0355C39.8493 41.3094 39.8477 41.5834 39.8459 41.8573C39.8465 42.139 39.8472 42.4206 39.8482 42.7023C39.8494 43.292 39.8477 43.8817 39.844 44.4714C39.8396 45.2268 39.8422 45.9819 39.8468 46.7372C39.8497 47.3187 39.8488 47.9001 39.8467 48.4815C39.8462 48.7599 39.8468 49.0384 39.8487 49.3169C39.8507 49.7063 39.8471 50.0957 39.8433 50.485C39.8423 50.8172 39.8423 50.8172 39.8414 51.1561C39.7183 51.8642 39.5437 52.0941 38.9609 52.508C38.4718 52.6072 38.4718 52.6072 37.9165 52.6091C37.6036 52.6127 37.6036 52.6127 37.2844 52.6165C37.0602 52.6149 36.836 52.6134 36.605 52.6117C36.2583 52.6128 36.2583 52.6128 35.9046 52.614C35.416 52.6145 34.9274 52.6131 34.4388 52.6098C33.6903 52.6056 32.9422 52.6098 32.1937 52.6148C31.7191 52.6143 31.2446 52.6133 30.77 52.6117C30.4337 52.6141 30.4337 52.6141 30.0906 52.6165C29.882 52.6141 29.6734 52.6116 29.4585 52.6091C29.2753 52.6084 29.092 52.6078 28.9032 52.6072C28.2463 52.4739 28.0222 52.269 27.6328 51.7267C27.5336 51.1561 27.5336 51.1561 27.5317 50.485C27.5293 50.2334 27.5268 49.9819 27.5243 49.7226C27.5257 49.4487 27.5273 49.1747 27.5291 48.9008C27.5285 48.6191 27.5278 48.3375 27.5268 48.0559C27.5256 47.4661 27.5273 46.8764 27.531 46.2867C27.5354 45.5313 27.5328 44.7762 27.5282 44.0209C27.5253 43.4394 27.5262 42.8581 27.5283 42.2766C27.5288 41.9982 27.5282 41.7197 27.5263 41.4412C27.5243 41.0519 27.5279 40.6625 27.5317 40.2731C27.5323 40.0516 27.533 39.8302 27.5336 39.6021C27.731 38.4665 28.3691 38.1528 29.4585 38.1491ZM30.7578 41.3752C30.7578 44.0177 30.7578 46.6603 30.7578 49.383C32.6914 49.383 34.625 49.383 36.6172 49.383C36.6172 46.7404 36.6172 44.0978 36.6172 41.3752C34.6836 41.3752 32.75 41.3752 30.7578 41.3752Z" fill="black"></path><path d="M77.7724 61.352C79.3219 62.5174 80.4063 64.2591 80.7578 66.1799C80.946 68.774 80.5273 70.9862 78.8047 73.0158C77.082 74.6856 74.9972 75.4419 72.6249 75.413C70.287 75.2227 68.5849 74.2394 67.0249 72.5397C65.5561 70.7088 65.1829 68.718 65.4189 66.4095C65.7674 64.3412 66.863 62.6683 68.4829 61.3581C71.3267 59.338 74.8812 59.4826 77.7724 61.352ZM69.3145 64.9683C68.5963 66.0903 68.3192 67.1644 68.5378 68.4855C68.8985 69.8834 69.5861 70.857 70.7969 71.6486C71.7834 72.1725 72.8044 72.4257 73.9219 72.2346C75.3643 71.7626 76.4455 71.1211 77.2056 69.781C77.7904 68.5165 77.8861 67.3757 77.4665 66.0418C76.8347 64.6085 75.914 63.8214 74.5078 63.1769C72.4438 62.7469 70.6349 63.2827 69.3145 64.9683Z" fill="black"></path><path d="M38.9609 10.3203C40.5989 11.5165 41.9189 12.9657 42.2812 15.0078C42.4747 17.4186 42.1057 19.3713 40.5349 21.2563C38.945 22.8069 37.1137 23.2961 34.9509 23.2811C32.9496 23.2296 31.6529 22.5456 30.2108 21.1556C28.9432 19.7281 28.5026 18.0648 28.4141 16.1797C28.5402 14.2071 29.2833 12.4412 30.7578 11.1016C33.1966 9.37377 36.2433 8.77742 38.9609 10.3203ZM32.5561 13.8405C31.9273 14.7157 31.5194 15.4679 31.5391 16.5703C31.7823 17.7736 32.2253 18.6441 33.1016 19.5C34.1504 20.1471 34.996 20.3526 36.2144 20.1592C37.3712 19.823 38.2434 19.2492 38.8511 18.1938C39.2514 17.2696 39.3373 16.3886 39.1562 15.3984C38.7029 14.2931 37.9658 13.5466 37.0078 12.8594C35.4011 12.3238 33.7057 12.5431 32.5561 13.8405Z" fill="black"></path><path d="M22.0908 9.47791C22.2995 9.47225 22.5083 9.46658 22.7233 9.46074C24.3484 9.44775 25.3892 9.72991 26.6196 10.7963C27.5547 11.8916 27.898 12.7548 27.8686 14.1982C27.7406 15.524 27.1642 16.3658 26.2298 17.2835C25.8486 17.5663 25.5576 17.6615 25.0937 17.7421C25.1929 17.8649 25.2921 17.9878 25.3943 18.1144C25.6742 18.4624 25.9526 18.8117 26.2298 19.1619C26.4901 19.4875 26.7551 19.8095 27.0278 20.1247C27.5943 20.8033 27.8254 21.0923 27.8403 22.0023C27.5249 22.9487 27.5249 22.9487 27.0469 23.2108C25.9792 23.3486 25.9792 23.3486 25.4844 23.2108C25.0228 22.7996 25.0228 22.7996 24.5078 22.2343C24.3052 22.0173 24.1025 21.8003 23.8997 21.5835C23.6913 21.3571 23.483 21.1305 23.2749 20.9037C23.1675 20.787 23.0601 20.6703 22.9495 20.5501C22.6875 20.2653 22.4258 19.9803 22.1641 19.6952C22.159 19.8835 22.154 20.0718 22.1488 20.2659C22.1377 20.5126 22.1266 20.7593 22.1152 21.0136C22.1016 21.3806 22.1016 21.3806 22.0878 21.7551C21.953 22.5191 21.8112 22.7629 21.1875 23.2108C20.7969 23.3214 20.7969 23.3214 20.4062 23.3207C20.2129 23.3271 20.2129 23.3271 20.0156 23.3337C19.4042 23.1414 19.1956 22.7565 18.8437 22.2343C18.7459 21.6859 18.7459 21.6859 18.7458 21.0811C18.7439 20.8536 18.7421 20.6261 18.7402 20.3917C18.7435 20.0258 18.7435 20.0258 18.7469 19.6525C18.7466 19.4004 18.7463 19.1483 18.746 18.8886C18.7457 18.356 18.7482 17.8235 18.7526 17.2909C18.7582 16.6098 18.7576 15.9289 18.7551 15.2478C18.7535 14.5961 18.7564 13.9444 18.7591 13.2926C18.7585 13.0487 18.7579 12.8047 18.7573 12.5533C18.7598 12.3259 18.7623 12.0984 18.7648 11.864C18.7659 11.6644 18.7669 11.4648 18.768 11.2592C18.856 10.6219 19.0526 10.2513 19.4297 9.73426C20.2202 9.33899 21.2219 9.4856 22.0908 9.47791ZM21.9687 12.6639C21.9687 13.4374 21.9687 14.2108 21.9687 15.0077C22.9505 15.075 22.9505 15.075 23.9219 15.0077C24.445 14.5588 24.445 14.5588 24.7031 14.0311C24.4934 13.4618 24.3558 13.0979 23.9219 12.6639C23.4453 12.6165 23.4453 12.6165 22.9209 12.6395C22.6067 12.6476 22.2925 12.6556 21.9687 12.6639Z" fill="black"></path><path d="M50.8199 38.2224C51.0527 38.2213 51.2854 38.2202 51.5252 38.2191C51.7809 38.2188 52.0366 38.2186 52.3001 38.2184C52.5718 38.2175 52.8436 38.2165 53.1153 38.2155C53.8538 38.2129 54.5923 38.2116 55.3308 38.2108C55.7921 38.2102 56.2535 38.2094 56.7148 38.2085C58.1582 38.2059 59.6016 38.204 61.045 38.2032C62.7113 38.2023 64.3777 38.1989 66.044 38.1933C67.332 38.189 68.62 38.1871 69.908 38.1868C70.6773 38.1866 71.4466 38.1854 72.2159 38.182C72.9395 38.1787 73.6631 38.1783 74.3868 38.18C74.7787 38.1803 75.1706 38.1776 75.5624 38.1748C75.7963 38.1759 76.0302 38.177 76.2711 38.1781C76.474 38.1778 76.6768 38.1775 76.8858 38.1772C77.531 38.2622 77.8951 38.4479 78.4141 38.8358C78.7409 39.4895 78.8487 39.8315 78.6704 40.5448C78.4141 40.9843 78.4141 40.9843 77.8281 41.3749C77.3098 41.4251 77.3098 41.4251 76.6729 41.4271C76.4317 41.4288 76.1904 41.4304 75.9419 41.4322C75.6741 41.432 75.4062 41.4318 75.1384 41.4316C74.8567 41.4328 74.5751 41.4341 74.2934 41.4356C73.5279 41.439 72.7624 41.44 71.9969 41.4402C71.3581 41.4406 70.7193 41.442 70.0806 41.4434C68.5738 41.4466 67.067 41.4475 65.5602 41.4473C64.0051 41.447 62.45 41.4511 60.8949 41.4573C59.5603 41.4624 58.2257 41.4645 56.8911 41.4643C56.0937 41.4642 55.2964 41.4653 54.499 41.4694C53.7492 41.4732 52.9995 41.4732 52.2497 41.4704C51.9745 41.47 51.6992 41.4709 51.424 41.4733C51.0484 41.4763 50.6728 41.474 50.2972 41.4715C49.9818 41.4718 49.9818 41.4718 49.6601 41.4721C48.9794 41.3502 48.7489 41.14 48.3359 40.5936C48.2383 39.91 48.2383 39.91 48.3359 39.2264C49.0375 38.3072 49.7136 38.2256 50.8199 38.2224Z" fill="black"></path><path d="M16.1235 43.473C16.3203 43.4717 16.5172 43.4705 16.72 43.4692C16.9314 43.47 17.1428 43.4708 17.3606 43.4716C17.5787 43.4713 17.7969 43.4709 18.0216 43.4705C18.4826 43.4702 18.9436 43.471 19.4046 43.4726C20.1106 43.4747 20.8165 43.4726 21.5224 43.4701C21.9703 43.4704 22.4181 43.4709 22.866 43.4716C23.0774 43.4708 23.2888 43.4701 23.5066 43.4692C23.7034 43.4705 23.9003 43.4717 24.1031 43.473C24.2759 43.4733 24.4488 43.4736 24.6269 43.4739C25.1313 43.5275 25.4453 43.649 25.875 43.9141C26.3924 44.6029 26.332 45.406 26.3381 46.2327C26.3408 46.4552 26.3408 46.4552 26.3435 46.6821C26.3463 46.9952 26.348 47.3082 26.3487 47.6213C26.3511 48.099 26.3607 48.5761 26.3705 49.0537C26.3724 49.3585 26.3738 49.6633 26.3747 49.9681C26.3785 50.1101 26.3824 50.2521 26.3863 50.3985C26.3802 51.0907 26.276 51.514 25.919 52.1092C24.9505 52.7222 24.0381 52.6475 22.914 52.6376C22.6832 52.6385 22.4523 52.6395 22.2144 52.6404C21.727 52.6411 21.2396 52.6393 20.7522 52.6352C20.0054 52.63 19.2591 52.6352 18.5123 52.6414C18.0386 52.6408 17.5649 52.6395 17.0913 52.6376C16.8677 52.6396 16.6441 52.6415 16.4137 52.6436C14.8932 52.6211 14.8932 52.6211 14.2104 52.1092C13.897 51.3832 13.8556 50.7451 13.8709 49.9681C13.8711 49.8196 13.8713 49.6711 13.8715 49.5181C13.8726 49.2054 13.8757 48.8926 13.8805 48.5799C13.8877 48.102 13.8886 47.6243 13.8885 47.1463C13.8904 46.8418 13.8927 46.5372 13.8953 46.2327C13.896 46.0191 13.896 46.0191 13.8966 45.8011C13.9212 44.486 13.9212 44.486 14.3516 43.9141C14.9564 43.5409 15.4185 43.4742 16.1235 43.473ZM17.0859 46.6485C17.0859 47.5509 17.0859 48.4532 17.0859 49.3829C19.084 49.3829 21.082 49.3829 23.1406 49.3829C23.1406 48.4805 23.1406 47.5782 23.1406 46.6485C21.1426 46.6485 19.1445 46.6485 17.0859 46.6485Z" fill="black"></path><path d="M69.8203 10.3201C70.3954 10.8149 70.5809 11.0305 70.7969 11.7727C70.7969 12.4685 70.7969 12.4685 70.5161 13.0423C69.9433 13.5033 69.5733 13.5613 68.8437 13.5184C68.4531 13.4451 68.4531 13.4451 67.8916 13.1521C66.912 12.6819 65.919 12.671 64.8826 13.0011C63.7844 13.5051 63.1856 14.1186 62.728 15.2518C62.5141 16.4186 62.5729 17.3329 63.1308 18.389C63.928 19.3412 64.6134 19.8318 65.8339 20.0621C66.6507 20.1031 67.3426 19.8751 68.0625 19.4998C68.1995 19.3588 68.3364 19.2178 68.4775 19.0726C68.8437 18.7185 68.8437 18.7185 69.5151 18.6087C70.2109 18.7185 70.2109 18.7185 70.7847 19.1336C71.1875 19.6951 71.1875 19.6951 71.3096 20.2688C71.0956 21.3171 70.4515 21.8546 69.6372 22.4783C67.9325 23.4524 65.8647 23.4681 63.9647 23.0971C62.1627 22.4696 60.8139 21.1328 59.9448 19.4632C59.0156 17.4968 59.128 15.6974 59.7968 13.677C60.4831 12.0203 61.6265 10.9735 63.1797 10.1248C63.2973 10.0583 63.4148 9.99186 63.536 9.92338C65.4359 9.03316 68.0217 9.3171 69.8203 10.3201Z" fill="black"></path><path d="M11.6416 9.42935C11.9611 9.42236 11.9611 9.42236 12.2871 9.41523C13.9102 9.41814 15.2765 9.73463 16.4883 10.8712C17.3949 11.8841 17.6443 13.0889 17.6719 14.422C17.5258 15.6892 17.0196 16.6893 16.1376 17.6065C14.8092 18.6567 13.2594 18.8471 11.6172 18.7189C11.6217 18.9332 11.6263 19.1474 11.6309 19.3682C11.6346 19.6522 11.6382 19.9363 11.6416 20.2204C11.6449 20.3612 11.6482 20.5021 11.6515 20.6472C11.659 21.4615 11.6107 22.0965 11.2266 22.8205C10.7571 23.2899 10.6135 23.2737 9.96925 23.2843C9.81642 23.2899 9.6636 23.2954 9.50614 23.3011C9.07814 23.2111 9.07814 23.2111 8.76335 22.8891C8.41859 22.3052 8.41666 21.9183 8.41328 21.2419C8.4108 21.0021 8.40833 20.7622 8.40577 20.5151C8.40618 20.2541 8.40676 19.9931 8.40751 19.7321C8.40662 19.4636 8.40558 19.1951 8.40441 18.9266C8.40267 18.3644 8.40314 17.8023 8.40508 17.2401C8.40733 16.5203 8.40337 15.8006 8.39767 15.0807C8.39409 14.5265 8.39414 13.9722 8.39526 13.4179C8.39529 13.1525 8.39411 12.8872 8.39169 12.6218C8.38878 12.2507 8.39137 11.8795 8.39421 11.5084C8.39424 11.2973 8.39427 11.0863 8.39431 10.8689C8.69939 9.15974 10.2692 9.41584 11.6416 9.42935ZM11.6172 12.6642C11.6172 13.631 11.6172 14.5978 11.6172 15.5939C12.9898 15.6751 12.9898 15.6751 14.1563 15.008C14.4633 14.5577 14.4633 14.5577 14.5469 14.0314C14.3554 13.2828 14.2268 13.1019 13.5703 12.6642C13.0789 12.617 13.0789 12.617 12.5571 12.6398C12.247 12.6479 11.9368 12.6559 11.6172 12.6642Z" fill="black"></path><path d="M55.062 9.50245C55.3044 9.50006 55.5467 9.49767 55.7964 9.4952C56.1455 9.49463 56.1455 9.49463 56.5017 9.49406C56.7148 9.49325 56.9279 9.49245 57.1475 9.49162C57.7075 9.53877 58.0238 9.62819 58.4922 9.9297C58.8988 10.4524 58.882 10.7339 58.8584 11.4067C58.6875 12.0781 58.6875 12.0781 58.3991 12.4108C57.6467 12.7975 56.9317 12.726 56.0996 12.7007C55.9355 12.698 55.7713 12.6954 55.6022 12.6927C55.1983 12.6858 54.7945 12.6753 54.3907 12.6641C54.3907 13.3731 54.3907 14.082 54.3907 14.8125C54.6663 14.8023 54.6663 14.8023 54.9476 14.7919C55.3124 14.784 55.3124 14.784 55.6846 14.7759C55.9248 14.7691 56.165 14.7623 56.4124 14.7553C57.1833 14.8172 57.6433 14.9931 58.2969 15.3984C58.5988 16.0023 58.5496 16.4911 58.4922 17.1563C58.2046 17.5881 58.2046 17.5881 57.711 17.9375C57.1379 18.0317 56.5807 18.0113 56.002 17.9863C55.8471 17.9828 55.6923 17.9793 55.5328 17.9757C55.152 17.9665 54.7713 17.9525 54.3907 17.9375C54.3907 18.7109 54.3907 19.4844 54.3907 20.2813C54.7789 20.2643 54.7789 20.2643 55.175 20.2469C55.5157 20.2378 55.8565 20.2289 56.1973 20.2202C56.3677 20.212 56.5382 20.2039 56.7138 20.1954C57.9763 20.1713 57.9763 20.1713 58.612 20.7291C58.9804 21.4482 58.901 21.8565 58.6875 22.625C58.4678 22.9539 58.4678 22.9539 58.1016 23.2109C57.4917 23.2899 57.4917 23.2899 56.7474 23.2956C56.6157 23.2967 56.484 23.2977 56.3483 23.2987C56.07 23.3 55.7917 23.2997 55.5135 23.2981C55.0885 23.2964 54.6641 23.302 54.2392 23.3082C53.9685 23.3085 53.6978 23.3084 53.4271 23.3078C53.0583 23.3084 53.0583 23.3084 52.6821 23.3089C51.9166 23.1908 51.7359 23.0323 51.2657 22.4297C51.1678 21.8887 51.1678 21.8887 51.1677 21.2597C51.1658 21.0238 51.164 20.7878 51.1621 20.5447C51.1643 20.2906 51.1665 20.0365 51.1688 19.7747C51.1687 19.5105 51.1684 19.2464 51.1679 18.9823C51.1676 18.4293 51.1701 17.8764 51.1745 17.3234C51.1801 16.6154 51.1795 15.9076 51.177 15.1995C51.1757 14.6543 51.1772 14.1091 51.1796 13.5638C51.1809 13.1761 51.1801 12.7883 51.1792 12.4006C51.1817 12.1646 51.1842 11.9287 51.1867 11.6856C51.1878 11.478 51.1888 11.2705 51.1899 11.0566C51.2761 10.4408 51.4181 10.1746 51.8516 9.73438C52.8825 9.39074 53.9831 9.50301 55.062 9.50245Z" fill="black"></path><path d="M10.6722 77.8695C10.8426 77.8681 11.0129 77.8667 11.1884 77.8652C11.3757 77.8647 11.563 77.8642 11.7559 77.8636C11.9529 77.8623 12.1498 77.8611 12.3527 77.8597C13.0063 77.8559 13.6598 77.8536 14.3134 77.8517C14.5362 77.8509 14.7589 77.8501 14.9885 77.8492C16.1671 77.8452 17.3457 77.8424 18.5244 77.8406C19.7438 77.8384 20.9632 77.8317 22.1827 77.8239C23.1186 77.8188 24.0546 77.8172 24.9905 77.8165C25.4402 77.8155 25.8898 77.8132 26.3394 77.8096C26.9679 77.8049 27.5962 77.805 28.2248 77.8064C28.5045 77.8027 28.5045 77.8027 28.79 77.7988C30.0436 77.8087 30.0436 77.8087 30.6789 78.2518C31.0801 78.8774 31.044 79.3196 30.9531 80.0466C30.6093 80.6687 30.4651 80.7953 29.7812 81.0232C29.5108 81.042 29.2396 81.0504 28.9685 81.0519C28.8031 81.0533 28.6377 81.0547 28.4673 81.0562C28.2865 81.0567 28.1057 81.0572 27.9194 81.0578C27.633 81.0597 27.633 81.0597 27.3408 81.0617C26.7083 81.0655 26.0757 81.0678 25.4432 81.0697C25.2273 81.0705 25.0114 81.0713 24.789 81.0722C23.6469 81.0762 22.5047 81.079 21.3626 81.0809C20.1819 81.083 19.0013 81.0897 17.8206 81.0975C16.9135 81.1026 16.0064 81.1042 15.0992 81.1049C14.6639 81.1059 14.2286 81.1082 13.7933 81.1118C13.1845 81.1165 12.5759 81.1164 11.9671 81.115C11.7871 81.1175 11.607 81.12 11.4216 81.1226C10.6089 81.116 10.1675 81.0915 9.45909 80.6627C8.96795 80.1203 8.88281 79.7992 8.88281 79.0701C9.32624 78.1199 9.64878 77.8752 10.6722 77.8695Z" fill="black"></path><path d="M51.1725 43.8793C51.3424 43.878 51.5124 43.8767 51.6875 43.8754C52.2503 43.8715 52.8131 43.8692 53.3759 43.8673C53.6642 43.8661 53.6642 43.8661 53.9583 43.8649C54.9751 43.8608 55.9918 43.858 57.0086 43.8562C58.0592 43.854 59.1098 43.8473 60.1604 43.8395C60.968 43.8344 61.7756 43.8328 62.5832 43.8321C62.9706 43.8311 63.3579 43.8289 63.7452 43.8253C64.2871 43.8205 64.8288 43.8207 65.3708 43.822C65.5307 43.8195 65.6907 43.817 65.8554 43.8145C66.6224 43.8215 67.0011 43.8614 67.6692 44.2743C68.1746 44.8149 68.2578 45.1301 68.2578 45.867C67.8417 46.7586 67.8417 46.7586 67.2813 47.0388C66.7134 47.0611 66.15 47.0716 65.5819 47.0734C65.406 47.0747 65.23 47.076 65.0487 47.0773C64.4649 47.0811 63.881 47.0834 63.2972 47.0854C62.9986 47.0866 62.9986 47.0866 62.694 47.0878C61.6407 47.0919 60.5875 47.0946 59.5342 47.0965C58.4448 47.0986 57.3554 47.1054 56.266 47.1131C55.4296 47.1182 54.5932 47.1199 53.7568 47.1206C53.3551 47.1215 52.9534 47.1238 52.5518 47.1274C51.9902 47.1321 51.4287 47.132 50.8671 47.1306C50.6175 47.1344 50.6175 47.1344 50.3628 47.1382C49.6201 47.1316 49.2392 47.126 48.6226 46.6852C48.2046 46.0616 48.2442 45.6241 48.336 44.8904C48.9774 43.7296 49.9788 43.8832 51.1725 43.8793Z" fill="black"></path><path d="M74.3797 9.4544C74.5371 9.45338 74.6945 9.45236 74.8568 9.4513C75.189 9.45005 75.5213 9.45031 75.8536 9.45197C76.3616 9.45363 76.8692 9.44801 77.3772 9.44181C77.7005 9.4415 78.0237 9.44161 78.3469 9.4422C78.4985 9.44 78.6501 9.43781 78.8063 9.43555C79.5064 9.44457 79.8986 9.47928 80.4621 9.91136C80.8706 10.4763 80.8843 10.8318 80.8425 11.5105C80.7578 11.8828 80.7578 11.8828 80.3916 12.3711C79.7548 12.6768 79.4565 12.6959 78.7666 12.6824C78.5029 12.6784 78.5029 12.6784 78.2339 12.6744C78.0331 12.6693 78.0331 12.6693 77.8281 12.6641C77.8299 12.7847 77.8316 12.9053 77.8334 13.0296C77.8507 14.2842 77.8625 15.5388 77.8711 16.7935C77.875 17.2618 77.8803 17.7302 77.8871 18.1985C77.8966 18.8714 77.901 19.5442 77.9044 20.2172C77.9085 20.4268 77.9125 20.6363 77.9167 20.8523C77.9167 21.0477 77.9168 21.2432 77.9168 21.4446C77.9186 21.6163 77.9203 21.7881 77.9221 21.965C77.7971 22.5832 77.5272 22.8169 77.0469 23.211C76.6563 23.3216 76.6563 23.3216 76.2656 23.3208C76.0723 23.3272 76.0723 23.3272 75.875 23.3338C75.2255 23.1296 75.0531 22.8169 74.7031 22.2344C74.5943 21.5042 74.6123 20.7824 74.6269 20.0455C74.628 19.8345 74.6291 19.6234 74.6302 19.406C74.6346 18.7333 74.6444 18.0608 74.6543 17.3882C74.6582 16.9316 74.6618 16.475 74.665 16.0184C74.6736 14.9002 74.6867 13.7822 74.7031 12.6641C74.5853 12.6686 74.4675 12.6732 74.3461 12.6778C74.1119 12.6831 74.1119 12.6831 73.8731 12.6885C73.6419 12.6953 73.6419 12.6953 73.4061 12.7022C72.8981 12.6602 72.596 12.5391 72.1641 12.2735C71.7575 11.7507 71.7743 11.4693 71.7979 10.7964C71.9688 10.125 71.9688 10.125 72.2682 9.79539C72.9571 9.42893 73.6178 9.45152 74.3797 9.4544Z" fill="black"></path><path d="M47.6401 9.4292C48.5494 9.57277 48.7695 9.77336 49.3125 10.5156C49.4538 11.2437 49.4401 11.9595 49.4285 12.6992C49.4285 12.9113 49.4285 13.1234 49.4285 13.342C49.4274 13.7902 49.424 14.2384 49.4184 14.6865C49.4102 15.3703 49.4103 16.0536 49.4117 16.7374C49.4096 17.1735 49.4071 17.6097 49.404 18.0458C49.404 18.2493 49.404 18.4528 49.4039 18.6625C49.3782 20.2561 49.0944 21.443 47.9453 22.625C46.8909 23.3894 45.6814 23.3912 44.4297 23.2109C43.6547 22.8819 43.0686 22.4358 42.4766 21.8438C42.3456 20.4907 42.3456 20.4907 42.7817 19.793C43.4465 19.3839 43.8538 19.4085 44.625 19.5C45.0925 19.6728 45.5373 19.881 45.9922 20.0859C45.9929 19.9653 45.9936 19.8447 45.9943 19.7205C46.0025 18.4657 46.016 17.2112 46.0327 15.9565C46.0382 15.4882 46.0424 15.0199 46.0451 14.5516C46.0493 13.8786 46.0584 13.2058 46.0685 12.5328C46.0688 12.2185 46.0688 12.2185 46.0692 11.8977C46.0731 11.7023 46.0769 11.5068 46.0809 11.3055C46.0826 11.1337 46.0843 10.962 46.0861 10.785C46.2806 9.89343 46.7728 9.57113 47.6401 9.4292Z" fill="black"></path></g><defs><clipPath id="clip0_1646_77"><rect width="100" height="100" fill="white" transform="translate(0.875 0.75)"></rect></clipPath></defs></svg>