<svg xmlns="http://www.w3.org/2000/svg" width="60" height="60" viewBox="0 0 60 60" fill="none"><path d="M33.2486 15.9167C33.3636 15.9152 33.4787 15.9137 33.5972 15.9122C33.7219 15.9113 33.8467 15.9104 33.9752 15.9095C34.1673 15.9081 34.1673 15.9081 34.3633 15.9067C34.6348 15.905 34.9063 15.9038 35.1778 15.9029C35.5924 15.9009 36.0069 15.8957 36.4215 15.8905C36.6852 15.8894 36.9488 15.8884 37.2125 15.8876C37.3363 15.8855 37.4601 15.8835 37.5877 15.8813C38.3018 15.8834 38.7147 15.9291 39.2578 16.4062C39.6975 16.8934 39.8593 17.2381 39.8552 17.8907C39.8548 17.9953 39.8544 18.1 39.854 18.2077C39.8531 18.3166 39.8521 18.4254 39.8511 18.5376C39.8505 18.6478 39.85 18.758 39.8495 18.8715C39.8481 19.1435 39.8462 19.4155 39.8437 19.6875C39.9767 19.6994 40.1096 19.7113 40.2466 19.7236C40.808 19.7945 41.3085 19.9637 41.8359 20.1635C41.9318 20.1992 42.0276 20.2349 42.1264 20.2716C42.871 20.556 43.5831 20.8888 44.2879 21.2604C44.4847 21.364 44.6836 21.4635 44.8828 21.5625C45.0054 21.6236 45.0054 21.6236 45.1305 21.6861C45.3891 21.702 45.3891 21.702 45.6464 21.4215C45.7541 21.3033 45.8609 21.1842 45.9668 21.0644C46.5598 20.4379 46.9909 20.0739 47.8633 20.0221C49.2138 20.0653 50.0957 21.2302 50.9906 22.1319C51.1897 22.3323 51.3901 22.5314 51.5906 22.7304C51.7188 22.8588 51.8469 22.9872 51.9749 23.1157C52.0343 23.1745 52.0936 23.2334 52.1547 23.294C52.7592 23.9065 53.0377 24.3962 53.0905 25.2493C53.077 26.1249 52.6765 26.5847 52.0679 27.1875C51.8625 27.3854 51.6548 27.5799 51.4453 27.7734C51.5849 28.2377 51.7632 28.6531 51.9921 29.0802C52.4399 29.918 52.7863 30.7685 53.0859 31.6699C53.1214 31.7759 53.1568 31.882 53.1934 31.9913C53.3422 32.4531 53.4375 32.7894 53.4375 33.2812C53.5385 33.2785 53.5385 33.2785 53.6415 33.2756C53.9494 33.2683 54.2574 33.2637 54.5654 33.2592C54.6713 33.2563 54.7772 33.2533 54.8863 33.2503C55.6015 33.2425 56.1304 33.3024 56.6771 33.8127C57.0412 34.2889 57.2015 34.5293 57.2082 35.1236C57.2097 35.2386 57.2112 35.3536 57.2128 35.4721C57.2141 35.6593 57.2141 35.6593 57.2154 35.8502C57.2164 35.9782 57.2173 36.1063 57.2183 36.2382C57.2199 36.5097 57.2212 36.7812 57.2221 37.0527C57.2241 37.4674 57.2292 37.8819 57.2344 38.2965C57.2356 38.5601 57.2366 38.8238 57.2374 39.0875C57.2394 39.2113 57.2415 39.3351 57.2436 39.4626C57.2415 40.1767 57.1958 40.5897 56.7187 41.1328C56.2316 41.5724 55.8868 41.7343 55.2342 41.7302C55.1296 41.7298 55.025 41.7294 54.9172 41.729C54.754 41.7275 54.754 41.7275 54.5874 41.726C54.4772 41.7255 54.367 41.725 54.2535 41.7244C53.9815 41.7231 53.7095 41.7211 53.4375 41.7187C53.4268 41.8479 53.416 41.977 53.405 42.1101C53.3259 42.7364 53.1211 43.3041 52.9028 43.894C52.8619 44.0067 52.821 44.1194 52.7788 44.2354C52.4871 45.0156 52.1472 45.747 51.7105 46.4568C51.4833 46.8259 51.4833 46.8259 51.5053 47.2421C51.717 47.5077 51.9488 47.7299 52.1997 47.9589C52.7653 48.5172 53.054 48.9413 53.1038 49.7392C53.0564 51.0898 51.8957 51.9697 50.9931 52.8656C50.7927 53.0647 50.5935 53.2651 50.3945 53.4656C50.2662 53.5938 50.1378 53.7219 50.0093 53.8499C49.9504 53.9092 49.8916 53.9686 49.831 54.0297C49.2185 54.6341 48.7287 54.9126 47.8757 54.9655C47.0001 54.952 46.5402 54.5514 45.9375 53.9428C45.7396 53.7375 45.5451 53.5298 45.3516 53.3203C44.8872 53.4599 44.4719 53.6381 44.0448 53.8671C43.2069 54.3149 42.3564 54.6613 41.4551 54.9609C41.349 54.9963 41.243 55.0318 41.1337 55.0683C40.6719 55.2171 40.3356 55.3125 39.8437 55.3125C39.8465 55.4134 39.8465 55.4134 39.8493 55.5164C39.8567 55.8244 39.8612 56.1324 39.8657 56.4404C39.8687 56.5463 39.8716 56.6522 39.8746 56.7613C39.8825 57.4765 39.8226 58.0054 39.3123 58.5521C38.8361 58.9162 38.5956 59.0764 38.0014 59.0832C37.8863 59.0847 37.7713 59.0862 37.6528 59.0878C37.4657 59.0891 37.4657 59.0891 37.2748 59.0904C37.0827 59.0918 37.0827 59.0918 36.8867 59.0933C36.6152 59.0949 36.3437 59.0961 36.0722 59.097C35.6576 59.0991 35.2431 59.1042 34.8285 59.1094C34.5648 59.1106 34.3011 59.1116 34.0375 59.1124C33.8518 59.1154 33.8518 59.1154 33.6623 59.1186C32.9482 59.1165 32.5353 59.0708 31.9922 58.5937C31.5525 58.1065 31.3906 57.7618 31.3948 57.1092C31.3952 57.0046 31.3956 56.9 31.3959 56.7922C31.3969 56.6833 31.3979 56.5745 31.3989 56.4624C31.3994 56.3522 31.4 56.242 31.4005 56.1284C31.4019 55.8564 31.4038 55.5844 31.4062 55.3125C31.2771 55.3017 31.1479 55.291 31.0149 55.28C30.3885 55.2008 29.8208 54.996 29.2309 54.7778C29.0619 54.7164 29.0619 54.7164 28.8895 54.6538C28.1093 54.3621 27.3779 54.0222 26.6681 53.5855C26.2991 53.3582 26.2991 53.3582 25.8829 53.3802C25.6172 53.592 25.3951 53.8238 25.166 54.0747C24.6077 54.6403 24.1837 54.929 23.3858 54.9787C22.0351 54.9313 21.1552 53.7707 20.2594 52.868C20.0602 52.6676 19.8599 52.4685 19.6593 52.2695C19.5312 52.1411 19.4031 52.0127 19.275 51.8843C19.2157 51.8254 19.1564 51.7666 19.0953 51.7059C18.5019 51.1047 18.2074 50.6073 18.1274 49.7753C18.2231 48.6269 18.9955 47.9801 19.8047 47.2265C19.665 46.7622 19.4868 46.3468 19.2579 45.9197C18.8101 45.0819 18.4637 44.2314 18.1641 43.33C18.1109 43.171 18.1109 43.171 18.0566 43.0087C17.9078 42.5469 17.8125 42.2106 17.8125 41.7187C17.7115 41.7215 17.7115 41.7215 17.6085 41.7243C17.3005 41.7316 16.9926 41.7362 16.6846 41.7407C16.5787 41.7436 16.4728 41.7466 16.3637 41.7496C15.6485 41.7574 15.1196 41.6975 14.5729 41.1872C14.2087 40.711 14.0485 40.4706 14.0417 39.8763C14.0402 39.7613 14.0387 39.6463 14.0372 39.5278C14.0363 39.403 14.0355 39.2783 14.0346 39.1497C14.0336 39.0217 14.0327 38.8936 14.0317 38.7617C14.0301 38.4902 14.0288 38.2187 14.0279 37.9472C14.0259 37.5326 14.0207 37.1181 14.0156 36.7035C14.0144 36.4398 14.0134 36.1761 14.0126 35.9124C14.0105 35.7886 14.0085 35.6648 14.0064 35.5373C14.0085 34.8232 14.0542 34.4102 14.5312 33.8671C15.0184 33.4275 15.3632 33.2656 16.0158 33.2698C16.1204 33.2701 16.225 33.2705 16.3328 33.2709C16.4416 33.2719 16.5505 33.2729 16.6626 33.2739C16.7728 33.2744 16.883 33.2749 16.9965 33.2755C17.2685 33.2769 17.5405 33.2788 17.8125 33.2812C17.8232 33.1521 17.8339 33.0229 17.845 32.8898C17.9241 32.2635 18.1289 31.6958 18.3472 31.1059C18.3881 30.9932 18.429 30.8806 18.4712 30.7645C18.7629 29.9843 19.1028 29.2529 19.5394 28.5431C19.7667 28.1741 19.7667 28.1741 19.7447 27.7578C19.533 27.4922 19.3012 27.27 19.0503 27.041C18.4847 26.4827 18.196 26.0587 18.1462 25.2607C18.1936 23.9101 19.3543 23.0302 20.2569 22.1344C20.4573 21.9352 20.6564 21.7348 20.8555 21.5343C20.9838 21.4061 21.1122 21.278 21.2407 21.15C21.2995 21.0907 21.3584 21.0314 21.419 20.9702C22.0315 20.3658 22.5213 20.0873 23.3743 20.0344C24.2499 20.0479 24.7098 20.4485 25.3125 21.0571C25.5104 21.2624 25.7049 21.4701 25.8984 21.6796C26.3627 21.54 26.7781 21.3618 27.2052 21.1329C28.043 20.685 28.8935 20.3386 29.7949 20.039C29.954 19.9858 29.954 19.9858 30.1163 19.9316C30.5781 19.7828 30.9144 19.6875 31.4062 19.6875C31.4035 19.5865 31.4035 19.5865 31.4007 19.4835C31.3933 19.1755 31.3888 18.8676 31.3843 18.5595C31.3813 18.4536 31.3784 18.3477 31.3753 18.2386C31.3675 17.5234 31.4274 16.9945 31.9377 16.4479C32.4139 16.0837 32.6544 15.9235 33.2486 15.9167ZM33.3984 17.9296C33.3871 18.1314 33.383 18.3336 33.382 18.5357C33.3797 18.6596 33.3774 18.7835 33.3751 18.9111C33.3711 19.1729 33.369 19.4348 33.3687 19.6966C33.347 20.6357 33.347 20.6357 33.0574 21.1042C32.5595 21.4121 32.0685 21.5285 31.5015 21.6577C29.809 22.0831 28.2831 22.7252 26.8293 23.696C26.3838 23.9843 26.0767 24.1043 25.5469 24.0234C25.3143 23.8852 25.3143 23.8852 25.1074 23.6865C25.0295 23.6129 24.9515 23.5394 24.8712 23.4636C24.7848 23.3776 24.6984 23.2916 24.6094 23.2031C24.5036 23.099 24.3979 22.9949 24.2889 22.8877C24.0032 22.604 23.7196 22.3185 23.4375 22.0312C22.6915 22.6458 22.0153 23.3227 21.3354 24.0087C21.2206 24.1241 21.1058 24.2395 20.991 24.3548C20.7125 24.6347 20.4342 24.9149 20.1562 25.1953C20.5782 25.6993 21.0109 26.1786 21.4819 26.6381C22.1311 27.2718 22.1311 27.2718 22.1851 27.7386C22.1394 28.2204 21.9415 28.5241 21.6797 28.916C20.7465 30.3975 20.124 31.9384 19.6999 33.6341C19.3927 34.8059 19.3927 34.8059 18.8672 35.1562C18.5709 35.1917 18.5709 35.1917 18.2217 35.2006C18.0965 35.2046 17.9713 35.2086 17.8422 35.2127C17.7116 35.2158 17.5809 35.2189 17.4463 35.2221C17.1872 35.2291 16.9281 35.2366 16.669 35.2446C16.554 35.2474 16.439 35.2502 16.3206 35.2531C16.0586 35.2441 16.0586 35.2441 15.9375 35.3906C15.9257 35.7017 15.9211 36.0096 15.9219 36.3208C15.9218 36.414 15.9217 36.5072 15.9216 36.6032C15.9215 36.8006 15.9217 36.998 15.9222 37.1954C15.9228 37.4987 15.9222 37.8019 15.9215 38.1051C15.9215 38.2965 15.9217 38.4878 15.9219 38.6792C15.9217 38.7705 15.9215 38.8618 15.9212 38.9559C15.8838 39.3759 15.8838 39.3759 16.0547 39.7265C16.2565 39.7379 16.4587 39.742 16.6608 39.743C16.7846 39.7453 16.9085 39.7475 17.0361 39.7499C17.2979 39.7538 17.5598 39.756 17.8216 39.7563C18.7651 39.778 18.7651 39.778 19.2329 40.079C19.5124 40.5241 19.617 40.9302 19.7241 41.4404C20.1895 43.3988 21.033 45.2018 22.1484 46.875C22.2143 47.1899 22.2143 47.1899 22.1484 47.5781C21.9141 47.9284 21.6246 48.2175 21.3281 48.5156C21.224 48.6213 21.12 48.7271 21.0127 48.836C20.729 49.1217 20.4435 49.4054 20.1562 49.6875C20.7708 50.4335 21.4478 51.1096 22.1338 51.7895C22.2492 51.9043 22.3645 52.0191 22.4798 52.134C22.7597 52.4125 23.0399 52.6907 23.3203 52.9687C23.9299 52.4624 24.4715 51.9237 25.0049 51.3368C25.3924 51.0305 25.6419 50.9842 26.1328 50.9765C26.429 51.0859 26.429 51.0859 26.7114 51.2622C28.1801 52.1285 29.7166 52.9144 31.3715 53.3523C31.4669 53.3776 31.5623 53.4029 31.6606 53.4289C31.8487 53.4776 32.0372 53.5245 32.2263 53.5694C32.8756 53.7342 32.8756 53.7342 33.1296 53.9919C33.316 54.3187 33.3295 54.5397 33.3371 54.9147C33.3425 55.1019 33.3425 55.1019 33.3481 55.293C33.3502 55.4227 33.3523 55.5524 33.3545 55.686C33.3604 55.944 33.3668 56.2021 33.3737 56.4601C33.3758 56.5743 33.3778 56.6885 33.3799 56.8062C33.3692 57.0666 33.3692 57.0666 33.5156 57.1875C33.8267 57.1993 34.1347 57.2038 34.4458 57.203C34.5856 57.2032 34.5856 57.2032 34.7282 57.2034C34.9256 57.2034 35.123 57.2032 35.3205 57.2027C35.6237 57.2021 35.9269 57.2027 36.2302 57.2035C36.4215 57.2034 36.6128 57.2033 36.8042 57.203C36.8955 57.2033 36.9868 57.2035 37.0809 57.2037C37.5009 57.2412 37.5009 57.2412 37.8516 57.0703C37.8629 56.8685 37.867 56.6663 37.868 56.4642C37.8703 56.3403 37.8726 56.2164 37.8749 56.0888C37.8788 55.827 37.881 55.5652 37.8813 55.3033C37.903 54.3604 37.903 54.3604 38.2022 53.8929C38.6552 53.6088 39.076 53.4979 39.5947 53.3862C41.3252 52.9698 43.0137 52.3029 44.5015 51.3085C44.8497 51.0826 45.1012 50.9777 45.5168 50.9468C46.1348 51.1626 46.4859 51.5668 46.9263 52.0385C47.012 52.1274 47.0977 52.2163 47.186 52.3079C47.3965 52.5267 47.6052 52.7469 47.8125 52.9687C48.5585 52.3541 49.2346 51.6772 49.9145 50.9912C50.0293 50.8758 50.1442 50.7604 50.259 50.6451C50.5375 50.3652 50.8158 50.0851 51.0937 49.8046C50.5875 49.1951 50.0487 48.6534 49.4618 48.1201C49.1555 47.7324 49.1092 47.4832 49.1016 46.9921C49.211 46.6919 49.211 46.6919 49.3872 46.4062C49.4525 46.2947 49.5177 46.1832 49.5849 46.0684C49.6575 45.9478 49.73 45.8273 49.8047 45.7031C50.7703 44.056 51.4236 42.296 51.8202 40.4251C51.9477 40.1129 52.0962 40.0191 52.3828 39.8437C52.6923 39.7949 52.6923 39.7949 53.0397 39.7879C53.227 39.7824 53.227 39.7824 53.418 39.7769C53.5477 39.7748 53.6774 39.7726 53.811 39.7705C54.0691 39.7645 54.3271 39.7581 54.5851 39.7512C54.6993 39.7492 54.8136 39.7471 54.9313 39.745C55.1917 39.7558 55.1917 39.7558 55.3125 39.6093C55.3243 39.2983 55.3289 38.9903 55.3281 38.6792C55.3282 38.586 55.3283 38.4928 55.3284 38.3967C55.3285 38.1993 55.3283 38.0019 55.3278 37.8045C55.3271 37.5013 55.3278 37.198 55.3285 36.8948C55.3284 36.7035 55.3283 36.5121 55.3281 36.3208C55.3284 36.1838 55.3284 36.1838 55.3288 36.0441C55.3662 35.624 55.3662 35.624 55.1953 35.2734C54.9935 35.262 54.7913 35.2579 54.5892 35.2569C54.4654 35.2547 54.3415 35.2524 54.2139 35.2501C53.952 35.2461 53.6902 35.244 53.4283 35.2436C52.4855 35.2219 52.4855 35.2219 52.018 34.9228C51.7338 34.4698 51.623 34.049 51.5112 33.5302C51.0753 31.7187 50.3594 29.9956 49.3126 28.4468C49.1016 28.125 49.1016 28.125 49.021 27.788C49.1477 27.2121 49.5138 26.8946 49.9219 26.4843C50.0259 26.3786 50.13 26.2728 50.2373 26.1639C50.521 25.8782 50.8064 25.5945 51.0937 25.3125C50.4791 24.5665 49.8022 23.8903 49.1162 23.2104C49.0008 23.0956 48.8855 22.9808 48.7701 22.8659C48.4902 22.5874 48.2101 22.3092 47.9297 22.0312C47.4257 22.4532 46.9464 22.8859 46.4868 23.3569C45.8532 24.0061 45.8532 24.0061 45.3863 24.06C44.9046 24.0144 44.6009 23.8165 44.209 23.5546C42.7275 22.6215 41.1866 21.999 39.4908 21.5748C38.3191 21.2677 38.3191 21.2677 37.9687 20.7421C37.9332 20.4459 37.9332 20.4459 37.9243 20.0967C37.9203 19.9715 37.9163 19.8462 37.9122 19.7172C37.9076 19.5212 37.9076 19.5212 37.9028 19.3213C37.8958 19.0621 37.8884 18.803 37.8804 18.544C37.8776 18.429 37.8748 18.314 37.8719 18.1956C37.8809 17.9335 37.8809 17.9335 37.7344 17.8125C37.4233 17.8006 37.1153 17.7961 36.8042 17.7969C36.6644 17.7967 36.6644 17.7967 36.5218 17.7966C36.3244 17.7965 36.1269 17.7967 35.9295 17.7972C35.6263 17.7978 35.3231 17.7972 35.0198 17.7964C34.8285 17.7965 34.6371 17.7967 34.4458 17.7969C34.3545 17.7967 34.2632 17.7964 34.1691 17.7962C33.7491 17.7587 33.7491 17.7587 33.3984 17.9296Z" fill="#EBDCF9"></path><path d="M5.38569 2.78243C5.52353 2.78167 5.66137 2.78092 5.80338 2.78014C6.02892 2.78068 6.02892 2.78068 6.25901 2.78124C6.4212 2.7808 6.58338 2.78026 6.74557 2.77963C7.19066 2.7782 7.63574 2.77823 8.08083 2.7785C8.56109 2.77855 9.04136 2.77726 9.52163 2.77614C10.4624 2.7742 11.4031 2.77355 12.3439 2.77342C13.1087 2.77331 13.8735 2.77283 14.6383 2.77209C16.8071 2.77002 18.9759 2.76894 21.1447 2.76912C21.3201 2.76913 21.3201 2.76913 21.499 2.76915C21.6161 2.76916 21.7331 2.76916 21.8537 2.76917C23.7504 2.76927 25.6471 2.76703 27.5438 2.76372C29.4917 2.76036 31.4397 2.75874 33.3877 2.75894C34.4811 2.75902 35.5746 2.75838 36.668 2.75585C37.5991 2.75372 38.5301 2.75321 39.4612 2.7548C39.936 2.75556 40.4108 2.75558 40.8856 2.75354C41.3208 2.7517 41.756 2.75204 42.1911 2.75408C42.4221 2.75461 42.653 2.75284 42.884 2.75098C44.0393 2.75993 45.0122 2.97881 45.8753 3.78487C46.7345 4.74054 46.9101 5.69388 46.9072 6.94532C46.9081 7.14323 46.9081 7.14323 46.909 7.34513C46.9106 7.78039 46.9105 8.21563 46.9103 8.65089C46.9107 8.95354 46.9112 9.25619 46.9118 9.55884C46.9127 10.1926 46.9126 10.8264 46.912 11.4602C46.9113 12.1926 46.9128 12.925 46.9152 13.6574C46.9176 14.3628 46.9179 15.0682 46.9175 15.7736C46.9176 16.0735 46.9182 16.3734 46.9193 16.6732C46.9208 17.0918 46.92 17.5103 46.9186 17.9289C46.9195 18.0532 46.9204 18.1775 46.9214 18.3056C46.9205 18.4196 46.9197 18.5337 46.9189 18.6511C46.9189 18.7995 46.9189 18.7995 46.9189 18.9508C46.8641 19.2854 46.7572 19.4443 46.5235 19.6876C46.0578 19.8169 45.8098 19.8534 45.3662 19.651C45.1172 19.4532 45.1172 19.4532 45 19.2188C44.9878 19.0006 44.9829 18.782 44.9815 18.5635C44.9797 18.3575 44.9797 18.3575 44.9779 18.1473C44.9766 17.9234 44.9766 17.9234 44.9753 17.6949C44.9729 17.4608 44.9704 17.2266 44.9678 16.9924C44.9616 16.4144 44.9564 15.8364 44.953 15.2583C44.951 14.9346 44.9481 14.6109 44.9442 14.2871C44.9406 13.9825 44.9383 13.6778 44.9375 13.3731C44.9196 12.0043 44.9196 12.0043 44.2676 10.8472C43.4128 10.3616 42.5702 10.3962 41.6098 10.3992C41.4567 10.3988 41.3036 10.3983 41.1459 10.3979C40.7222 10.3967 40.2986 10.3969 39.8749 10.3974C39.4175 10.3977 38.9601 10.3966 38.5027 10.3958C37.607 10.3943 36.7114 10.3941 35.8157 10.3943C35.0876 10.3945 34.3595 10.3943 33.6314 10.3938C33.5278 10.3938 33.4241 10.3937 33.3173 10.3936C33.1067 10.3935 32.8961 10.3933 32.6855 10.3932C30.7109 10.3919 28.7363 10.3922 26.7617 10.3929C24.9559 10.3935 23.1501 10.3922 21.3443 10.39C19.4894 10.3877 17.6345 10.3867 15.7796 10.3872C14.7385 10.3874 13.6974 10.3871 12.6563 10.3854C11.77 10.384 10.8837 10.3839 9.99735 10.3853C9.54532 10.386 9.09331 10.3861 8.64128 10.3847C8.15083 10.3832 7.66042 10.3844 7.16997 10.3859C7.02769 10.385 6.88541 10.3842 6.73882 10.3833C5.84822 10.389 4.96718 10.415 4.28468 11.045C3.89879 11.7242 3.83279 12.4015 3.83665 13.1689C3.8362 13.2646 3.83576 13.3602 3.83529 13.4588C3.83409 13.7777 3.83455 14.0966 3.83502 14.4155C3.83451 14.6448 3.8339 14.8741 3.8332 15.1034C3.83163 15.7252 3.83156 16.347 3.83186 16.9687C3.83199 17.4883 3.83141 18.0078 3.83085 18.5273C3.82955 19.7533 3.8295 20.9792 3.83021 22.2051C3.83092 23.4687 3.82947 24.7324 3.82698 25.996C3.82491 27.0819 3.82421 28.1678 3.82459 29.2537C3.82481 29.9019 3.8245 30.55 3.82287 31.1981C3.82139 31.8077 3.82162 32.4174 3.82315 33.027C3.82343 33.2503 3.82311 33.4736 3.82214 33.6969C3.82091 34.0026 3.82187 34.3083 3.82335 34.614C3.82248 34.7015 3.82162 34.7891 3.82073 34.8793C3.8284 35.6356 3.9577 36.3969 4.48244 36.9654C5.36096 37.4646 6.23983 37.4157 7.22673 37.4149C7.46169 37.4167 7.69664 37.4185 7.9316 37.4204C8.50835 37.4248 9.08512 37.4268 9.66189 37.4275C9.98669 37.428 10.3114 37.4297 10.6362 37.4327C10.9415 37.4355 11.2469 37.4363 11.5522 37.4351C11.6903 37.4367 11.8283 37.4382 11.9706 37.4398C12.1527 37.4403 12.1527 37.4403 12.3385 37.4408C12.737 37.5151 12.8757 37.6559 13.125 37.9688C13.1873 38.2032 13.1873 38.2032 13.1836 38.4376C13.1848 38.5149 13.186 38.5923 13.1873 38.672C13.0953 39.0182 12.9341 39.152 12.6563 39.3751C12.3053 39.4346 12.3053 39.4346 11.8901 39.4357C11.7763 39.437 11.7763 39.437 11.6601 39.4382C11.4095 39.4403 11.1591 39.4389 10.9085 39.4373C10.7333 39.4376 10.5582 39.4381 10.383 39.4387C10.0155 39.4394 9.64811 39.4384 9.28066 39.4362C8.81255 39.4335 8.34457 39.435 7.87646 39.4379C7.51431 39.4396 7.15218 39.439 6.79002 39.4378C6.61764 39.4375 6.44525 39.4379 6.27287 39.439C4.97769 39.4454 3.85698 39.3201 2.87477 38.4028C2.0361 37.47 1.8399 36.535 1.84368 35.3114C1.84315 35.1853 1.84261 35.0592 1.84207 34.9293C1.84058 34.5066 1.84078 34.084 1.84097 33.6614C1.84027 33.3584 1.83947 33.0554 1.83858 32.7524C1.83664 32.0147 1.83599 31.277 1.83586 30.5392C1.83575 29.9394 1.83527 29.3395 1.83453 28.7396C1.83246 27.0377 1.83138 25.3358 1.83156 23.6339C1.83157 23.5422 1.83158 23.4505 1.83158 23.356C1.83159 23.2642 1.8316 23.1723 1.83161 23.0777C1.83171 21.5903 1.82947 20.1028 1.82616 18.6153C1.82279 17.0869 1.82118 15.5584 1.82138 14.0299C1.82146 13.1723 1.82082 12.3146 1.81829 11.457C1.81593 10.6502 1.816 9.84338 1.81771 9.03656C1.81795 8.74074 1.8174 8.44492 1.81598 8.14911C1.81417 7.74463 1.81526 7.34025 1.81707 6.93577C1.81586 6.81929 1.81466 6.70281 1.81342 6.5828C1.82381 5.52534 2.11572 4.59565 2.84731 3.81233C3.57983 3.15373 4.39288 2.78381 5.38569 2.78243ZM4.22609 5.3614C3.72574 6.14984 3.71836 6.87736 3.73537 7.78572C3.73642 7.89381 3.73748 8.00189 3.73857 8.11325C3.74131 8.37764 3.74536 8.64196 3.75002 8.90633C3.87168 8.84922 3.99334 8.79212 4.11869 8.73329C4.82774 8.46985 5.54125 8.5066 6.28877 8.51091C6.45133 8.51059 6.61388 8.51011 6.77644 8.5095C7.22146 8.50826 7.66645 8.50921 8.11146 8.51052C8.59204 8.51156 9.07262 8.51057 9.5532 8.50984C10.494 8.50873 11.4348 8.5095 12.3756 8.51092C13.4714 8.51252 14.5673 8.51233 15.6632 8.51208C17.6186 8.5117 19.5741 8.51307 21.5296 8.51537C23.4265 8.51759 25.3235 8.51842 27.2205 8.51777C29.2867 8.51706 31.353 8.51708 33.4193 8.51841C33.6396 8.51856 33.86 8.5187 34.0804 8.51884C34.243 8.51894 34.243 8.51894 34.409 8.51905C35.1726 8.51951 35.9363 8.51946 36.7 8.51924C37.6308 8.51899 38.5615 8.5196 39.4923 8.5213C39.9671 8.52215 40.4419 8.52263 40.9167 8.52209C41.3516 8.52161 41.7864 8.52222 42.2213 8.52369C42.4526 8.52419 42.684 8.52355 42.9153 8.52287C43.6519 8.52651 44.2956 8.56887 45 8.78914C45.0096 8.43995 45.0165 8.09103 45.022 7.74178C45.0249 7.64442 45.0279 7.54706 45.0309 7.44675C45.0395 6.7091 44.9775 5.91885 44.499 5.32118C43.6755 4.57039 42.6521 4.65379 41.6098 4.65703C41.4567 4.65658 41.3036 4.65613 41.1459 4.65567C40.7222 4.65446 40.2986 4.65472 39.8749 4.65522C39.4175 4.65551 38.9601 4.65445 38.5027 4.65357C37.607 4.65208 36.7114 4.65187 35.8157 4.65215C35.0876 4.65235 34.3595 4.65215 33.6314 4.65165C33.5278 4.65158 33.4241 4.65151 33.3173 4.65144C33.1067 4.6513 32.8961 4.65115 32.6855 4.65101C30.7109 4.64974 28.7363 4.64999 26.7617 4.65071C24.9559 4.65131 23.1501 4.64999 21.3443 4.64776C19.4894 4.64549 17.6345 4.64453 15.7796 4.64497C14.7385 4.64519 13.6974 4.6449 12.6563 4.64324C11.77 4.64185 10.8837 4.64168 9.99735 4.6431C9.54532 4.64379 9.09331 4.64392 8.64128 4.64251C8.15083 4.64101 7.66042 4.64223 7.16997 4.64372C7.02769 4.64286 6.88541 4.64199 6.73882 4.6411C5.84571 4.64681 4.8711 4.65996 4.22609 5.3614Z" fill="#EBDCF9"></path><path d="M44.0336 26.0537C44.4901 26.4135 44.9227 26.7953 45.3516 27.1874C45.4921 27.3134 45.4921 27.3134 45.6354 27.4419C46.9634 28.6946 47.8952 30.2195 48.6328 31.8749C48.7176 32.0603 48.7176 32.0603 48.804 32.2494C49.9341 34.9272 50.0422 38.0962 49.336 40.8984C49.3165 40.9795 49.297 41.0606 49.2769 41.1441C48.4278 44.6042 46.264 47.615 43.2555 49.5208C39.9536 51.5202 35.8379 52.0912 32.097 51.1889C30.7634 50.8443 29.5529 50.3739 28.3594 49.6874C28.2417 49.6198 28.124 49.5521 28.0028 49.4823C27.2048 48.9961 26.4852 48.4256 25.7813 47.8124C25.7094 47.7505 25.6375 47.6886 25.5634 47.6247C24.3016 46.4531 23.4239 44.9178 22.7344 43.3593C22.6779 43.2317 22.6214 43.104 22.5632 42.9725C21.1128 39.4433 21.1411 35.4122 22.5857 31.8998C23.2636 30.3326 24.1635 29.0299 25.3125 27.7734C25.3965 27.6797 25.4805 27.586 25.567 27.4896C30.2245 22.5519 38.6583 21.9897 44.0336 26.0537ZM27.4219 28.4765C27.3196 28.5708 27.2174 28.665 27.112 28.7621C25.5157 30.2938 24.4952 32.2187 23.9063 34.3359C23.8688 34.4659 23.8313 34.596 23.7927 34.73C23.0546 37.7475 23.5891 40.9378 25.1093 43.6216C25.49 44.2278 25.9234 44.7906 26.3672 45.3515C26.4261 45.4287 26.485 45.5059 26.5457 45.5854C28.344 47.8358 31.3791 49.2345 34.1857 49.5889C37.6497 49.9514 40.7857 48.93 43.4766 46.7577C43.5532 46.6991 43.6298 46.6405 43.7087 46.5801C45.8553 44.8707 47.3765 41.846 47.6953 39.1406C47.8903 35.6356 47.2034 32.3175 44.8975 29.5747C42.7108 27.1348 39.8029 25.6382 36.5123 25.4099C33.2038 25.2553 29.8827 26.1895 27.4219 28.4765Z" fill="#EBDCF9"></path><path d="M6.89438 15.878C7.01508 15.8769 7.01508 15.8769 7.13821 15.8758C7.40777 15.8739 7.67721 15.8754 7.94678 15.8769C8.14005 15.8763 8.33332 15.8754 8.52659 15.8744C9.05152 15.8723 9.5764 15.8731 10.1013 15.8746C10.6504 15.8758 11.1994 15.8747 11.7485 15.8739C12.6706 15.8731 13.5927 15.8742 14.5148 15.8764C15.5812 15.879 16.6476 15.8782 17.714 15.8756C18.6292 15.8735 19.5444 15.8732 20.4596 15.8744C21.0064 15.8751 21.5532 15.8752 22.1 15.8737C22.614 15.8723 23.128 15.8732 23.642 15.876C23.8308 15.8766 24.0196 15.8764 24.2084 15.8754C24.4658 15.8741 24.7231 15.8757 24.9806 15.878C25.1968 15.8783 25.1968 15.8783 25.4174 15.8786C25.8494 15.9486 25.987 16.0635 26.25 16.4063C26.3123 16.6407 26.3123 16.6407 26.3086 16.875C26.3104 16.9911 26.3104 16.9911 26.3123 17.1094C26.2199 17.457 26.0613 17.5895 25.7812 17.8125C25.4174 17.8715 25.4174 17.8715 24.9806 17.8721C24.9002 17.8728 24.8197 17.8735 24.7368 17.8743C24.4672 17.8762 24.1978 17.8747 23.9282 17.8732C23.735 17.8738 23.5417 17.8747 23.3484 17.8757C22.8235 17.8778 22.2986 17.877 21.7737 17.8755C21.2246 17.8743 20.6756 17.8754 20.1265 17.8762C19.2044 17.877 18.2823 17.8759 17.3602 17.8737C16.2938 17.8711 15.2274 17.8719 14.161 17.8745C13.2458 17.8766 12.3306 17.8769 11.4154 17.8757C10.8686 17.875 10.3218 17.8749 9.77503 17.8764C9.26099 17.8778 8.74701 17.8769 8.23297 17.8741C8.0442 17.8735 7.85542 17.8737 7.66665 17.8747C7.40916 17.876 7.15185 17.8744 6.89438 17.8721C6.67817 17.8718 6.67817 17.8718 6.45759 17.8715C6.0256 17.8015 5.88802 17.6866 5.625 17.3438C5.56274 17.1094 5.56274 17.1094 5.56641 16.875C5.56459 16.759 5.56459 16.759 5.56274 16.6407C5.74679 15.9478 6.25693 15.8788 6.89438 15.878Z" fill="#EBDCF9"></path><path d="M44.8828 33.2812C45.4238 33.7776 45.8909 34.3009 45.961 35.0588C45.9724 35.3754 45.9761 35.6912 45.9769 36.0081C45.9777 36.1247 45.9784 36.2413 45.9792 36.3614C45.9804 36.6077 45.981 36.8541 45.9809 37.1004C45.9814 37.4754 45.9857 37.8503 45.9901 38.2252C45.9908 38.4652 45.9913 38.7051 45.9915 38.9451C45.9932 39.0563 45.9949 39.1676 45.9966 39.2822C45.991 40.1086 45.8099 40.728 45.2724 41.3657C44.487 42.0011 43.8004 42.2648 42.7812 42.2355C41.8963 42.1171 41.2377 41.6817 40.6824 40.9972C40.2718 40.3425 40.2749 39.7443 40.2731 38.9918C40.2724 38.8752 40.2716 38.7586 40.2708 38.6384C40.2696 38.3921 40.269 38.1458 40.2691 37.8994C40.2686 37.5244 40.2643 37.1496 40.2599 36.7746C40.2592 36.5346 40.2587 36.2947 40.2585 36.0548C40.256 35.8879 40.256 35.8879 40.2534 35.7177C40.2592 34.8705 40.4507 34.2512 41.0074 33.6043C42.1188 32.6715 43.623 32.4148 44.8828 33.2812ZM42.5024 35.017C42.0217 35.6401 42.1613 36.4644 42.1594 37.215C42.1582 37.4758 42.1546 37.7365 42.1509 37.9973C42.1501 38.1643 42.1495 38.3313 42.1491 38.4983C42.148 38.6495 42.1469 38.8007 42.1457 38.9564C42.191 39.4095 42.3007 39.6925 42.5391 40.078C42.872 40.2445 43.108 40.2321 43.4766 40.1952C43.8103 39.9337 43.9277 39.7792 44.0625 39.3749C44.0893 38.8452 44.0893 38.3152 44.0907 37.7848C44.0918 37.524 44.0954 37.2633 44.0991 37.0026C44.0999 36.8356 44.1005 36.6685 44.101 36.5015C44.1021 36.3504 44.1031 36.1992 44.1043 36.0434C44.0591 35.5903 43.9493 35.3073 43.7109 34.9218C43.2662 34.6994 42.8938 34.7103 42.5024 35.017Z" fill="#EBDCF9"></path><path d="M33.7573 32.7518C33.8958 32.7496 33.8958 32.7496 34.037 32.7473C34.1357 32.7483 34.2343 32.7492 34.3359 32.7502C34.4382 32.7497 34.5405 32.7493 34.6458 32.7488C34.8617 32.7485 35.0777 32.7494 35.2936 32.7513C35.6239 32.7538 35.9539 32.7514 36.2842 32.7484C36.4941 32.7487 36.7041 32.7493 36.9141 32.7502C37.0127 32.7492 37.1113 32.7483 37.213 32.7473C37.8969 32.7583 37.8969 32.7583 38.2651 33.0361C38.4517 33.3014 38.5011 33.429 38.4961 33.7499C38.4973 33.8273 38.4985 33.9046 38.4997 33.9843C38.4077 34.3307 38.2471 34.4648 37.9687 34.6874C37.6143 34.7407 37.6143 34.7407 37.2052 34.7332C37.0587 34.7317 36.9121 34.7302 36.7612 34.7286C36.5323 34.7228 36.5323 34.7228 36.2988 34.7167C36.1444 34.7146 35.99 34.7125 35.831 34.7103C35.4498 34.7048 35.0686 34.6964 34.6875 34.6874C34.6875 35.3062 34.6875 35.9249 34.6875 36.5624C34.8512 36.557 35.015 36.5516 35.1837 36.546C35.3992 36.5416 35.6146 36.5373 35.8301 36.5331C35.9379 36.5292 36.0458 36.5253 36.1569 36.5212C36.9533 36.5097 36.9533 36.5097 37.337 36.7694C37.507 37.0424 37.5636 37.1815 37.5586 37.4999C37.5598 37.5773 37.561 37.6546 37.5622 37.7343C37.4641 38.1038 37.3506 38.2213 37.0312 38.4374C36.6293 38.4948 36.235 38.4815 35.8301 38.4667C35.6656 38.4636 35.6656 38.4636 35.4977 38.4603C35.2276 38.4548 34.9575 38.4464 34.6875 38.4374C34.6875 39.0562 34.6875 39.6749 34.6875 40.3124C34.9189 40.307 35.1503 40.3016 35.3888 40.296C35.6921 40.2916 35.9955 40.2873 36.2988 40.2831C36.4514 40.2792 36.604 40.2753 36.7612 40.2712C36.9077 40.2697 37.0542 40.2682 37.2052 40.2667C37.4077 40.263 37.4077 40.263 37.6143 40.2592C38.0427 40.3236 38.1759 40.4433 38.4375 40.7812C38.4997 41.0156 38.4997 41.0156 38.4961 41.2499C38.4973 41.3273 38.4985 41.4046 38.4997 41.4843C38.4047 41.8422 38.2652 41.9637 37.9687 42.1874C37.6175 42.2579 37.2713 42.2531 36.9141 42.2497C36.8118 42.2501 36.7095 42.2506 36.6041 42.2511C36.3882 42.2514 36.1723 42.2505 35.9564 42.2486C35.6261 42.246 35.2961 42.2485 34.9658 42.2515C34.7559 42.2512 34.5459 42.2506 34.3359 42.2497C34.188 42.2511 34.188 42.2511 34.037 42.2526C33.8986 42.2504 33.8986 42.2504 33.7573 42.2481C33.6765 42.2477 33.5957 42.2474 33.5124 42.247C33.1609 42.1565 33.027 42.0089 32.8125 41.7187C32.753 41.3452 32.753 41.3452 32.7518 40.8984C32.751 40.8168 32.7502 40.7352 32.7493 40.6511C32.7473 40.3819 32.7487 40.1129 32.7502 39.8437C32.7499 39.6563 32.7495 39.4689 32.7489 39.2816C32.7482 38.8891 32.7492 38.4967 32.7514 38.1042C32.7541 37.6013 32.7525 37.0986 32.7497 36.5957C32.748 36.2089 32.7486 35.8221 32.7498 35.4352C32.7501 35.2498 32.7497 35.0644 32.7486 34.879C32.7474 34.6198 32.7492 34.3607 32.7518 34.1015C32.7522 33.9541 32.7526 33.8066 32.753 33.6547C32.8125 33.2812 32.8125 33.2812 33.0209 32.9993C33.3 32.799 33.4195 32.7534 33.7573 32.7518Z" fill="#EBDCF9"></path><path d="M28.894 32.7686C29.0384 32.7657 29.1827 32.7629 29.3314 32.7599C29.5393 32.7592 29.5393 32.7592 29.7514 32.7585C29.8778 32.7576 30.0042 32.7566 30.1344 32.7556C30.5464 32.8258 30.6823 32.9573 30.9375 33.2813C30.9998 33.5157 30.9998 33.5157 30.9961 33.75C30.9973 33.8274 30.9985 33.9047 30.9998 33.9844C30.9023 34.3514 30.7834 34.4702 30.4688 34.6875C30.0812 34.7562 29.6971 34.7585 29.3042 34.7608C28.3892 34.7473 28.3892 34.7473 27.5391 35.0391C27.3751 35.3671 27.3923 35.6139 27.4219 35.9766C27.7036 36.379 28.0484 36.4103 28.5132 36.4966C29.5035 36.7107 30.1289 37.1369 30.7031 37.9688C31.0808 38.7242 31.0695 39.6722 30.8652 40.4819C30.5562 41.1792 29.9538 41.7515 29.2687 42.0785C28.6523 42.2864 28.0005 42.2308 27.356 42.2315C27.2116 42.2344 27.0673 42.2372 26.9186 42.2402C26.7107 42.2409 26.7107 42.2409 26.4986 42.2416C26.3722 42.2425 26.2458 42.2435 26.1156 42.2445C25.7036 42.1743 25.5677 42.0428 25.3125 41.7188C25.2503 41.4844 25.2503 41.4844 25.2539 41.25C25.2521 41.134 25.2521 41.134 25.2503 41.0157C25.3477 40.6487 25.4666 40.5299 25.7813 40.3125C26.1688 40.2439 26.5529 40.2416 26.9458 40.2393C27.8608 40.2528 27.8608 40.2528 28.7109 39.961C28.8749 39.633 28.8577 39.3862 28.8281 39.0235C28.5465 38.6211 28.2016 38.5898 27.7368 38.5035C26.7465 38.2894 26.1211 37.8632 25.5469 37.0313C25.1692 36.2759 25.1805 35.3279 25.3848 34.5182C25.6938 33.8209 26.2962 33.2486 26.9813 32.9216C27.5977 32.7137 28.2495 32.7693 28.894 32.7686Z" fill="#EBDCF9"></path><path d="M6.75201 12.128C6.88608 12.1267 7.02015 12.1254 7.15828 12.124C7.37819 12.1254 7.37819 12.1254 7.60254 12.1269C7.75887 12.1263 7.91519 12.1254 8.07152 12.1244C8.49572 12.1223 8.91988 12.1231 9.34409 12.1246C9.78805 12.1258 10.232 12.1247 10.676 12.1239C11.4215 12.1231 12.167 12.1242 12.9126 12.1264C13.7745 12.129 14.6364 12.1282 15.4983 12.1256C16.2384 12.1235 16.9784 12.1232 17.7185 12.1244C18.1605 12.1251 18.6025 12.1252 19.0445 12.1237C19.46 12.1223 19.8755 12.1232 20.291 12.126C20.5163 12.1269 20.7415 12.1255 20.9667 12.124C21.1678 12.126 21.1678 12.126 21.373 12.128C21.4895 12.1282 21.606 12.1284 21.726 12.1286C22.1153 12.2038 22.2549 12.3513 22.5 12.6563C22.5623 12.8907 22.5623 12.8907 22.5586 13.125C22.5604 13.2411 22.5604 13.2411 22.5623 13.3594C22.4713 13.7019 22.3027 13.8392 22.0312 14.0625C21.726 14.1215 21.726 14.1215 21.373 14.1221C21.2389 14.1234 21.1049 14.1247 20.9667 14.1261C20.8201 14.1251 20.6735 14.1242 20.5225 14.1232C20.3661 14.1238 20.2098 14.1247 20.0535 14.1257C19.6293 14.1278 19.2051 14.127 18.7809 14.1255C18.337 14.1243 17.893 14.1254 17.449 14.1262C16.7035 14.127 15.958 14.1259 15.2124 14.1237C14.3505 14.1211 13.4886 14.1219 12.6267 14.1245C11.8866 14.1266 11.1466 14.1269 10.4065 14.1257C9.96451 14.125 9.52254 14.1249 9.08054 14.1264C8.66499 14.1278 8.24951 14.1269 7.83397 14.1241C7.60874 14.1232 7.3835 14.1246 7.15828 14.1261C6.95718 14.1241 6.95718 14.1241 6.75201 14.1221C6.63553 14.1219 6.51904 14.1217 6.39902 14.1215C6.00965 14.0463 5.87012 13.8988 5.625 13.5938C5.56274 13.3594 5.56274 13.3594 5.56641 13.125C5.56459 13.009 5.56459 13.009 5.56274 12.8907C5.72679 12.2731 6.16694 12.1289 6.75201 12.128Z" fill="#EBDCF9"></path><path d="M7.2583 19.6268C7.37649 19.626 7.49468 19.6251 7.61644 19.6243C8.00735 19.6222 8.39816 19.6236 8.78906 19.6252C9.06052 19.6249 9.33197 19.6244 9.60342 19.6238C10.1724 19.6231 10.7414 19.6241 11.3104 19.6263C12.0403 19.629 12.77 19.6275 13.4999 19.6247C14.0604 19.623 14.621 19.6235 15.1816 19.6247C15.4507 19.625 15.7198 19.6246 15.9889 19.6236C16.3649 19.6224 16.7407 19.6242 17.1167 19.6268C17.284 19.6254 17.284 19.6254 17.4547 19.6239C18.2082 19.6336 18.2082 19.6336 18.5845 19.911C18.7633 20.1758 18.8135 20.3083 18.8086 20.6249C18.8104 20.741 18.8104 20.741 18.8123 20.8593C18.7159 21.2221 18.5856 21.3381 18.2812 21.5624C17.8938 21.634 17.5098 21.6264 17.1167 21.6231C16.9985 21.6239 16.8803 21.6247 16.7586 21.6256C16.3677 21.6277 15.9768 21.6263 15.5859 21.6247C15.3145 21.625 15.043 21.6255 14.7716 21.6261C14.2026 21.6267 13.6336 21.6257 13.0646 21.6236C12.3347 21.6209 11.605 21.6224 10.8751 21.6252C10.3146 21.6269 9.75401 21.6264 9.19344 21.6252C8.92431 21.6249 8.65518 21.6252 8.38606 21.6263C8.01009 21.6275 7.63426 21.6257 7.2583 21.6231C7.14676 21.624 7.03522 21.625 6.9203 21.626C6.16676 21.6163 6.16676 21.6163 5.79048 21.3389C5.61174 21.074 5.56146 20.9416 5.56641 20.6249C5.56459 20.5089 5.56459 20.5089 5.56274 20.3906C5.78951 19.5369 6.53308 19.6206 7.2583 19.6268Z" fill="#EBDCF9"></path><path d="M7.00012 23.3769C7.09088 23.3761 7.18163 23.3753 7.27514 23.3744C7.57474 23.3723 7.87422 23.3737 8.17383 23.3753C8.38223 23.375 8.59062 23.3745 8.79902 23.3739C9.23563 23.3732 9.67219 23.3743 10.1088 23.3764C10.6684 23.3791 11.2279 23.3776 11.7875 23.3748C12.2178 23.3731 12.648 23.3736 13.0783 23.3748C13.2846 23.3751 13.491 23.3748 13.6973 23.3737C13.9857 23.3725 14.274 23.3743 14.5624 23.3769C14.6476 23.376 14.7329 23.375 14.8207 23.374C15.2242 23.3808 15.4332 23.4099 15.7559 23.6611C15.9529 23.9271 16.0012 24.0481 15.9961 24.3751C15.9979 24.4911 15.9979 24.4911 15.9998 24.6094C15.9063 24.9611 15.7554 25.0894 15.4688 25.3126C15.1507 25.3588 14.8802 25.3767 14.5624 25.3732C14.4262 25.3744 14.4262 25.3744 14.2874 25.3757C13.9878 25.3778 13.6883 25.3764 13.3887 25.3748C13.1803 25.3751 12.9719 25.3756 12.7635 25.3762C12.3269 25.3769 11.8903 25.3759 11.4537 25.3737C10.8941 25.371 10.3346 25.3725 9.77501 25.3753C9.34472 25.377 8.91446 25.3765 8.48418 25.3753C8.27785 25.375 8.07152 25.3753 7.8652 25.3764C7.57678 25.3776 7.28853 25.3758 7.00012 25.3732C6.91488 25.3742 6.82964 25.3751 6.74181 25.3761C6.33827 25.3693 6.12931 25.3402 5.80662 25.089C5.60957 24.823 5.5613 24.702 5.56641 24.3751C5.56459 24.259 5.56459 24.259 5.56274 24.1407C5.75798 23.4057 6.34276 23.3696 7.00012 23.3769Z" fill="#EBDCF9"></path><path d="M36.5039 5.55912C36.6376 5.55784 36.7713 5.55655 36.909 5.55523C37.898 5.56395 37.898 5.56395 38.245 5.86356C38.3085 5.93954 38.3721 6.01551 38.4375 6.09379C38.5272 5.9797 38.5272 5.9797 38.6188 5.86331C39.008 5.5407 39.2545 5.56453 39.7559 5.56278C39.8373 5.56234 39.9188 5.56189 40.0027 5.56143C40.1745 5.56111 40.3463 5.56197 40.518 5.56393C40.7805 5.56644 41.0425 5.56395 41.3049 5.56095C41.4722 5.56126 41.6394 5.56186 41.8066 5.56278C42.0341 5.56358 42.0341 5.56358 42.2662 5.56439C42.7159 5.63432 42.8544 5.73553 43.125 6.09379C43.1873 6.32817 43.1873 6.32817 43.1836 6.56254C43.1854 6.67856 43.1854 6.67856 43.1873 6.79692C43.0944 7.14632 42.9392 7.27693 42.6562 7.50004C42.2662 7.56069 42.2662 7.56069 41.8066 7.5623C41.7252 7.56275 41.6437 7.56319 41.5598 7.56366C41.388 7.56397 41.2162 7.56311 41.0445 7.56115C40.782 7.55864 40.52 7.56113 40.2576 7.56413C40.0903 7.56382 39.9231 7.56322 39.7559 7.5623C39.6042 7.56177 39.4525 7.56124 39.2963 7.56069C38.8498 7.49127 38.7122 7.38062 38.4375 7.03129C38.374 7.10727 38.3105 7.18324 38.245 7.26152C37.7485 7.69022 37.1327 7.572 36.5039 7.56596C36.3702 7.56875 36.2365 7.57155 36.0988 7.57443C35.1242 7.57271 35.1242 7.57271 34.7168 7.22492C34.5369 6.84316 34.5008 6.62826 34.5703 6.21098C34.9575 5.38944 35.713 5.54259 36.5039 5.55912Z" fill="#EBDCF9"></path><path d="M31.8164 5.55186C32.0169 5.54846 32.0169 5.54846 32.2215 5.54499C33.1942 5.55071 33.1942 5.55071 33.6035 5.90068C33.7836 6.28221 33.8195 6.49703 33.75 6.91417C33.6035 7.22453 33.6035 7.22453 33.2812 7.5001C32.7924 7.59037 32.3122 7.58175 31.8164 7.57335C31.6827 7.57561 31.549 7.57788 31.4113 7.58021C30.4386 7.5745 30.4386 7.5745 30.0293 7.22453C29.8492 6.84299 29.8133 6.62817 29.8828 6.21104C30.2699 5.39082 31.0255 5.53846 31.8164 5.55186Z" fill="#EBDCF9"></path></svg>