<svg xmlns="http://www.w3.org/2000/svg" width="100" height="100" viewBox="0 0 100 100" fill="none"><path d="M57.0456 5.40699C57.5029 5.95681 57.561 6.29752 57.6462 7.00305C57.6748 7.22823 57.7035 7.45341 57.733 7.68541C57.7592 7.92072 57.7855 8.15603 57.8125 8.39847C57.8403 8.62749 57.868 8.8565 57.8966 9.09246C57.9794 9.79247 58.0555 10.4929 58.1299 11.1939C58.1561 11.4302 58.1823 11.6665 58.2092 11.9099C58.3357 13.0903 58.4309 14.2425 58.3985 15.4297C58.5055 15.4443 58.6125 15.4589 58.7227 15.474C61.3637 15.912 63.8152 17.2108 66.211 18.3594C67.8151 17.1086 69.4072 15.8451 70.9774 14.5518C73.4885 12.495 73.4885 12.495 74.5941 12.5794C75.4716 12.8301 76.0881 13.4686 76.7578 14.0625C76.9789 14.249 77.2004 14.4349 77.4223 14.6202C79.2453 16.1495 80.8985 17.7162 82.3853 19.5824C82.6596 19.9258 82.94 20.2646 83.2276 20.5971C83.7809 21.252 84.1407 21.7191 84.3506 22.5586C84.0926 23.5908 83.4985 24.2029 82.8125 25C82.0634 25.908 81.3247 26.8247 80.5856 27.7408C80.295 28.0985 80.0004 28.4525 79.7051 28.8063C79.5403 29.0104 79.3757 29.2146 79.2114 29.419C79.0667 29.5947 78.9219 29.7705 78.7728 29.9515C78.454 30.4609 78.454 30.4609 78.6278 31.0379C78.9254 31.6821 79.2271 32.3226 79.541 32.959C80.1705 34.2597 80.6412 35.5863 81.0637 36.9673C81.181 37.3434 81.312 37.7152 81.4453 38.086C81.8804 38.3035 82.1918 38.3372 82.6747 38.3869C82.8481 38.4052 83.0215 38.4235 83.2002 38.4423C83.388 38.4614 83.5758 38.4805 83.7692 38.5002C84.165 38.5423 84.5607 38.5844 84.9564 38.6265C85.5817 38.6922 86.207 38.7575 86.8324 38.8219C87.4351 38.8842 88.0375 38.9485 88.6398 39.0129C88.9203 39.041 88.9203 39.041 89.2065 39.0697C89.3811 39.0886 89.5558 39.1075 89.7357 39.127C89.8889 39.1428 90.0422 39.1587 90.2 39.1751C90.8114 39.2941 91.2726 39.4587 91.6369 39.9758C92.3404 41.9714 92.2509 44.3599 92.2384 46.456C92.2363 46.875 92.2384 47.2938 92.2409 47.7127C92.2428 49.1166 92.1883 50.5081 92.038 51.9043C92.0112 52.1531 91.9845 52.4018 91.9569 52.6581C91.7765 53.4048 91.5704 53.7691 91.0156 54.2969C90.5704 54.4554 90.5704 54.4554 90.0803 54.5067C89.898 54.528 89.7157 54.5494 89.528 54.5713C89.3341 54.5895 89.1402 54.6077 88.9404 54.6265C88.7409 54.6486 88.5414 54.6707 88.3358 54.6935C87.9278 54.7383 87.5197 54.7814 87.1114 54.8226C86.5735 54.8777 86.0371 54.9394 85.5004 55.0049C85.1944 55.0417 84.8885 55.0783 84.5825 55.1148C84.377 55.1394 84.377 55.1394 84.1674 55.1645C83.2531 55.2664 82.3635 55.2868 81.4453 55.2735C81.4234 55.3951 81.4015 55.5167 81.379 55.642C80.7762 58.4668 79.5084 61.2201 77.9717 63.6559C77.7016 64.0403 77.7016 64.0403 77.7344 64.4532C77.8834 64.5901 78.0325 64.7271 78.1861 64.8682C79.0483 65.7906 79.3383 66.7148 79.2969 67.9688C79.6005 67.8453 79.6005 67.8453 79.9103 67.7193C80.1778 67.6112 80.4454 67.5031 80.7129 67.3951C80.8461 67.3408 80.9793 67.2865 81.1165 67.2306C82.7012 66.5921 84.3149 66.2845 86.0123 66.7214C87.1529 67.2291 88.1145 68.2211 88.6719 69.336C88.6856 69.702 88.6884 70.0684 88.6841 70.4346C88.6823 70.6305 88.6806 70.8264 88.6788 71.0282C88.6754 71.254 88.6754 71.254 88.6719 71.4844C88.8008 71.42 88.9297 71.3555 89.0625 71.2891C90.6962 71.1688 92.1929 71.1377 93.5349 72.1566C94.8146 73.3202 95.4219 74.7527 95.5254 76.4702C95.4665 78.0904 94.6606 79.3316 93.5547 80.4688C91.8549 81.7976 89.847 82.5392 87.8662 83.3374C87.5152 83.4807 87.1643 83.6241 86.8134 83.7677C86.0656 84.0733 85.3174 84.3777 84.5687 84.6812C83.3842 85.1615 82.2014 85.6461 81.0188 86.1313C76.0288 88.1772 71.0328 90.2089 66.0156 92.1875C65.879 92.2415 65.7424 92.2955 65.6016 92.3511C59.4351 94.784 59.4351 94.784 56.25 95.5079C56.0722 95.5484 55.8945 95.5889 55.7113 95.6306C50.262 96.8031 44.1371 96.7414 38.6719 95.7032C38.4776 95.6685 38.2833 95.6339 38.0832 95.5982C34.4774 94.948 30.9498 94.0119 27.4104 93.0753C25.0589 92.4536 22.7048 91.8527 20.3369 91.2964C20.2069 91.2656 20.0768 91.2348 19.9428 91.203C18.0573 90.7574 16.1639 90.3829 14.2578 90.0391C14.1692 90.2607 14.0806 90.4822 13.9893 90.7105C13.6719 91.4063 13.6719 91.4063 13.2813 91.6016C12.1458 91.6574 11.0101 91.6629 9.8734 91.67C9.49299 91.6732 9.11259 91.6786 8.73224 91.686C8.184 91.6967 7.63605 91.701 7.08772 91.7038C6.91782 91.7083 6.74791 91.7127 6.57286 91.7172C6.41386 91.7167 6.25486 91.7161 6.09104 91.7156C5.95169 91.7171 5.81235 91.7187 5.66878 91.7204C5.00148 91.5199 4.83089 91.2316 4.4922 90.625C4.37706 89.8881 4.38552 89.1586 4.39111 88.414C4.38974 88.1907 4.38837 87.9673 4.38696 87.7372C4.38352 86.9989 4.3858 86.2608 4.38844 85.5225C4.38791 85.0095 4.38716 84.4965 4.38618 83.9836C4.38476 82.9085 4.38662 81.8334 4.39035 80.7583C4.3946 79.5165 4.39322 78.2747 4.38892 77.0329C4.38495 75.8369 4.38537 74.6408 4.38765 73.4448C4.38818 72.9364 4.38754 72.4281 4.38572 71.9198C4.38374 71.2095 4.38676 70.4994 4.39111 69.7892C4.38953 69.5787 4.38795 69.3682 4.38632 69.1514C4.3962 68.2815 4.40825 67.7282 4.83843 66.9594C5.30707 66.574 5.48828 66.4791 6.08484 66.4783C6.24258 66.4759 6.40032 66.4734 6.56284 66.4709C6.73152 66.4735 6.9002 66.4761 7.07399 66.4788C7.24877 66.4783 7.42356 66.4778 7.60364 66.4773C7.97269 66.4775 8.34175 66.4801 8.71078 66.485C9.27545 66.4917 9.83953 66.489 10.4042 66.4853C10.7631 66.4866 11.1219 66.4885 11.4807 66.491C11.6494 66.49 11.8181 66.489 11.9919 66.488C13.1559 66.5109 13.1559 66.5109 13.7797 66.9623C14.1635 67.533 14.1409 67.9227 14.1113 68.6036C14.1043 68.814 14.0972 69.0245 14.09 69.2414C14.0809 69.4015 14.0719 69.5616 14.0625 69.7266C16.6239 69.3293 17.7627 68.0048 19.2531 65.9979C19.6222 65.5031 19.9997 65.015 20.3775 64.5268C20.748 64.0477 21.1162 63.5668 21.4844 63.086C21.4363 62.9809 21.3881 62.8759 21.3385 62.7677C18.7814 57.1742 18.7814 57.1742 18.5547 55.2735C18.3762 55.2662 18.1977 55.2589 18.0138 55.2514C16.1567 55.164 14.3117 54.997 12.4634 54.7974C12.235 54.7735 12.0065 54.7497 11.7712 54.7251C11.5537 54.7008 11.3363 54.6766 11.1122 54.6517C10.9186 54.6304 10.7249 54.6092 10.5254 54.5873C9.77467 54.4609 9.06018 54.297 8.4366 53.8475C6.77526 51.4858 7.56628 45.9151 7.77589 43.1885C7.78961 42.976 7.80334 42.7635 7.81747 42.5446C7.96867 40.5657 7.96867 40.5657 8.59376 39.6485C9.17546 39.2607 9.37949 39.1954 10.0437 39.1239C10.2178 39.1043 10.3918 39.0848 10.5711 39.0647C10.8522 39.0357 10.8522 39.0357 11.1389 39.0061C11.3318 38.985 11.5247 38.9638 11.7234 38.9421C12.3402 38.8749 12.9572 38.8101 13.5742 38.7452C13.99 38.7 14.4059 38.6548 14.8216 38.6093C15.5826 38.527 16.3435 38.4447 17.1047 38.3647C17.2578 38.3486 17.4109 38.3324 17.5686 38.3157C17.9688 38.2813 17.9688 38.2813 18.5547 38.2813C18.6038 38.0315 18.6529 37.7818 18.7035 37.5244C18.9328 36.4953 19.292 35.5447 19.69 34.5703C19.7868 34.3249 19.7868 34.3249 19.8856 34.0744C20.2901 33.0714 20.752 32.1619 21.3377 31.2516C21.5328 30.8579 21.5328 30.8579 21.3406 30.4533C20.9779 29.9021 20.5772 29.3849 20.166 28.8697C20.0275 28.6945 20.0275 28.6945 19.8861 28.5158C18.9756 27.3704 18.0443 26.242 17.1087 25.117C16.9975 24.983 16.8863 24.849 16.7717 24.7109C16.6729 24.5922 16.574 24.4736 16.4722 24.3514C15.9166 23.654 15.6544 23.1225 15.6693 22.213C15.9855 21.0965 16.9243 20.2544 17.7043 19.4244C18.0253 19.08 18.3262 18.7207 18.6279 18.3594C20.448 16.3059 22.4248 14.5449 24.6094 12.8907C24.6738 12.8262 24.7383 12.7618 24.8047 12.6953C25.552 12.5718 26.2644 12.5429 26.9494 12.8932C27.3325 13.1799 27.6858 13.4841 28.0396 13.8062C28.3093 14.0385 28.5791 14.2707 28.849 14.5027C29.0547 14.6833 29.0547 14.6833 29.2646 14.8675C29.9608 15.4714 30.6792 16.0475 31.3965 16.626C31.5268 16.7322 31.6571 16.8383 31.7914 16.9477C32.0297 17.1419 32.2689 17.3349 32.5092 17.5265C32.7578 17.7289 32.9959 17.9442 33.2306 18.1626C33.596 18.4142 33.596 18.4142 34.0485 18.2404C34.3068 18.1059 34.3068 18.1059 34.5703 17.9688C34.7748 17.8711 34.9792 17.7734 35.1898 17.6728C35.4205 17.561 35.6511 17.4492 35.8887 17.334C37.0071 16.8025 38.1392 16.3431 39.3067 15.9302C39.5196 15.8544 39.5196 15.8544 39.7368 15.777C40.3173 15.5768 40.7878 15.4297 41.4063 15.4297C41.4289 15.2082 41.4516 14.9866 41.4749 14.7584C41.5596 13.9295 41.6445 13.1007 41.7293 12.2719C41.7659 11.9144 41.8025 11.557 41.839 11.1996C41.8918 10.6832 41.9447 10.1668 41.9975 9.65045C42.0217 9.41414 42.0217 9.41414 42.0463 9.17305C42.0774 8.86968 42.109 8.56636 42.1411 8.2631C42.1732 7.95143 42.2028 7.6395 42.2303 7.32739C42.2451 7.17138 42.2598 7.01536 42.2749 6.85462C42.2872 6.71471 42.2995 6.5748 42.3122 6.43066C42.3828 6.05472 42.3828 6.05472 42.7368 5.48099C43.6817 4.86963 44.5959 4.79433 45.7031 4.68753C46.0559 4.65166 46.0559 4.65166 46.4157 4.61505C55.2088 3.91541 55.2088 3.91541 57.0456 5.40699ZM44.9219 7.61722C44.7047 8.05165 44.6679 8.36775 44.6148 8.8497C44.5952 9.02375 44.5757 9.19779 44.5556 9.3771C44.5352 9.5655 44.5149 9.7539 44.4939 9.948C44.4725 10.1411 44.4511 10.3343 44.429 10.5333C44.3839 10.9422 44.3391 11.3512 44.2946 11.7602C44.2264 12.387 44.1571 13.0136 44.0876 13.6402C44.0439 14.0371 44.0003 14.434 43.9568 14.8308C43.936 15.0188 43.9153 15.2068 43.8939 15.4005C43.875 15.5752 43.8561 15.7498 43.8366 15.9298C43.8198 16.0834 43.803 16.2371 43.7858 16.3954C43.7414 16.827 43.7414 16.827 43.75 17.3828C43.5608 17.4225 43.5608 17.4225 43.3678 17.463C40.4784 18.123 37.7763 19.1837 35.2184 20.6811C34.5619 21.0525 34.1289 21.2852 33.3656 21.3059C32.6697 21.039 32.1815 20.6385 31.6406 20.1416C31.4185 19.9456 31.196 19.7501 30.9731 19.5549C30.8587 19.4542 30.7443 19.3535 30.6264 19.2497C29.7261 18.4734 28.777 17.7557 27.8362 17.0295C27.5718 16.8225 27.3124 16.6091 27.0538 16.3948C26.9199 16.2858 26.786 16.1768 26.648 16.0645C26.5389 15.9728 26.4299 15.8812 26.3176 15.7868C25.9727 15.5945 25.9727 15.5945 25.5333 15.6174C24.7306 15.9229 24.2162 16.4711 23.6084 17.0655C23.4156 17.2502 23.4156 17.2502 23.219 17.4386C22.8342 17.8087 22.4521 18.1815 22.0703 18.5547C21.8611 18.7562 21.6518 18.9576 21.4424 19.159C19.9019 20.5625 19.9019 20.5625 18.75 22.2657C18.7717 23.2001 19.2999 23.7408 19.8975 24.4019C20.0935 24.6258 20.289 24.8501 20.4842 25.0748C20.5849 25.1904 20.6857 25.3061 20.7894 25.4252C21.5625 26.3298 22.2828 27.2775 23.0096 28.2194C23.2157 28.4819 23.4295 28.7385 23.6443 28.994C23.8078 29.1923 23.8078 29.1923 23.9746 29.3946C24.1121 29.5547 24.1121 29.5547 24.2523 29.7181C24.5113 30.2946 24.3878 30.6461 24.2188 31.25C23.9533 31.7989 23.6445 32.3213 23.3399 32.8492C22.1571 34.9825 20.5078 38.1465 20.5078 40.625C20.1755 40.659 20.1755 40.659 19.8365 40.6936C19.0076 40.7784 18.1788 40.8632 17.35 40.9481C16.9925 40.9847 16.6351 41.0212 16.2777 41.0578C15.7613 41.1105 15.2449 41.1634 14.7286 41.2163C14.571 41.2324 14.4135 41.2485 14.2512 41.265C13.9478 41.2962 13.6444 41.3278 13.3412 41.36C13.0297 41.392 12.7179 41.4211 12.4059 41.4478C12.1721 41.4694 12.1721 41.4694 11.9335 41.4914C11.7937 41.5033 11.654 41.5152 11.51 41.5274C11.071 41.5887 11.071 41.5887 10.5469 41.9922C9.5938 44.4577 9.88304 48.8162 10.4813 51.3253C10.8587 51.951 11.2099 51.9611 11.9141 52.1485C12.5622 52.2558 13.2127 52.3291 13.8657 52.4002C14.0504 52.4214 14.2352 52.4425 14.4255 52.4642C15.0124 52.5311 15.5995 52.5961 16.1865 52.6612C16.5858 52.7063 16.9851 52.7516 17.3844 52.797C18.3603 52.9076 19.3363 53.0168 20.3125 53.125C20.9385 54.777 20.9385 54.777 21.1571 55.4993C21.8338 57.6676 22.6569 59.7464 23.8539 61.6865C24.5807 62.8714 24.5807 62.8714 24.4141 63.6719C24.0791 64.1739 24.0791 64.1739 23.645 64.6729C23.0327 65.3734 23.0327 65.3734 22.6563 66.211C22.8496 66.4043 23.043 66.5977 23.2422 66.7969C23.4205 66.7471 23.4205 66.7471 23.6023 66.6962C24.7324 66.3838 25.8656 66.0845 27.002 65.7959C27.131 65.7626 27.26 65.7293 27.393 65.695C29.1108 65.2626 30.7804 65.1841 32.5417 65.1505C32.8072 65.1414 32.8072 65.1414 33.078 65.1322C33.2381 65.1283 33.3981 65.1244 33.5631 65.1204C34.0702 65.0225 34.2471 64.8459 34.5703 64.4532C34.2591 63.6982 33.7687 63.2152 33.2031 62.6343C28.7462 57.9016 26.9505 51.8933 27.0806 45.4956C27.3103 39.4756 30.0794 33.9663 34.3811 29.8096C39.5978 25.197 45.8741 23.6603 52.7344 24.0235C58.3239 24.5145 63.875 27.5965 67.5102 31.8405C71.561 36.7874 73.3197 42.9496 72.8152 49.2844C72.3897 53.2362 70.9759 57.1142 68.5967 60.3051C68.1019 60.8892 68.1019 60.8892 68.2007 61.5113C68.2531 61.6442 68.3054 61.7771 68.3594 61.9141C68.5527 61.9786 68.7461 62.043 68.9453 62.1094C69.3646 62.951 69.5372 63.869 69.7502 64.7797C69.8069 64.9298 69.8635 65.0798 69.9219 65.2344C70.7144 65.4986 71.0643 65.2707 71.8384 64.9781C73.2397 64.4539 73.2397 64.4539 73.8754 64.2685C75.6971 63.5719 76.7573 60.661 77.5391 58.9844C78.2692 57.2966 78.8304 55.5492 79.3434 53.785C79.4922 53.3203 79.4922 53.3203 79.6875 53.125C79.9443 53.0806 80.203 53.0475 80.462 53.0194C80.6264 53.0011 80.7907 52.9829 80.9601 52.964C81.2286 52.9353 81.2286 52.9353 81.5025 52.9061C81.8793 52.864 82.2561 52.8219 82.6328 52.7798C83.2285 52.7143 83.8243 52.6491 84.4201 52.5844C84.9939 52.5218 85.5676 52.4577 86.1412 52.3934C86.4068 52.3653 86.4068 52.3653 86.6777 52.3366C88.1773 52.2309 88.1772 52.2309 89.4531 51.5625C89.705 50.1585 89.6848 48.7414 89.6846 47.3192C89.6851 46.9018 89.6886 46.4845 89.6923 46.0671C89.7249 43.8983 89.7249 43.8983 89.2578 41.7969C88.8162 41.5761 88.4983 41.5464 88.0074 41.4991C87.8295 41.4814 87.6515 41.4638 87.4682 41.4456C87.2755 41.4271 87.0828 41.4086 86.8843 41.3895C86.4788 41.3484 86.0733 41.3072 85.6678 41.2659C85.0267 41.2013 84.3855 41.1376 83.7441 41.0757C83.1264 41.0158 82.509 40.9527 81.8916 40.889C81.6032 40.8624 81.6032 40.8624 81.309 40.8353C81.1304 40.8164 80.9519 40.7975 80.7679 40.7781C80.6108 40.7626 80.4536 40.7472 80.2917 40.7313C79.8017 40.604 79.6117 40.4294 79.2969 40.0391C79.1569 39.6853 79.1569 39.6853 79.0589 39.2853C78.9989 39.0581 78.9989 39.0581 78.9377 38.8264C78.8951 38.6626 78.8525 38.4988 78.8086 38.3301C78.1083 35.8097 77.0419 33.2386 75.586 31.0547C75.4683 30.446 75.4791 30.056 75.8092 29.5212C76.1325 29.1076 76.4709 28.7134 76.8189 28.3203C77.0701 28.0266 77.3212 27.7326 77.5719 27.4384C77.6979 27.292 77.8238 27.1456 77.9536 26.9947C78.4924 26.3598 79.0059 25.7064 79.5166 25.0489C80.4643 23.8332 80.4643 23.8331 80.9311 23.3124C81.2983 22.8915 81.2983 22.8915 81.2012 22.47C80.9551 21.7986 80.4596 21.3055 79.9927 20.7764C79.887 20.6553 79.7812 20.5341 79.6723 20.4093C77.3698 17.7534 77.3698 17.7534 74.6094 15.625C73.5991 15.5799 72.9051 16.3493 72.1802 16.9678C71.9026 17.1992 71.6249 17.4303 71.3471 17.6613C71.1376 17.8364 71.1376 17.8364 70.924 18.015C70.294 18.5363 69.6512 19.0407 69.0064 19.5435C68.122 20.2319 68.122 20.2319 67.2691 20.9587C66.7969 21.2891 66.7969 21.2891 66.333 21.3868C65.6138 21.2498 65.0656 20.8888 64.4531 20.5078C62.0933 19.1106 59.4583 18.1086 56.7902 17.4752C56.4453 17.3828 56.4453 17.3828 56.25 17.1875C56.2055 16.9308 56.1725 16.6721 56.1444 16.413C56.1261 16.2487 56.1078 16.0843 56.089 15.915C56.0603 15.6465 56.0603 15.6465 56.0311 15.3725C55.989 14.9957 55.9469 14.619 55.9048 14.2422C55.8392 13.6465 55.7741 13.0508 55.7094 12.455C55.6468 11.8811 55.5827 11.3075 55.5184 10.7338C55.4903 10.4683 55.4903 10.4683 55.4616 10.1973C55.3596 9.29356 55.2364 8.46433 54.8828 7.61722C53.0981 6.20757 46.7604 6.6913 44.9219 7.61722ZM34.2201 32.3166C29.9477 37.2318 28.309 42.9515 28.711 49.4141C28.8477 50.6203 29.1292 51.7731 29.4922 52.9297C29.5341 53.064 29.5759 53.1982 29.619 53.3366C31.0897 57.8983 34.0642 61.9 38.0493 64.5874C38.1637 64.6651 38.278 64.7428 38.3958 64.8228C39.9091 65.7929 41.6773 66.1563 43.396 66.6138C43.7692 66.7134 44.1423 66.8134 44.5152 66.9136C44.6888 66.9603 44.8624 67.0069 45.0412 67.0549C45.4161 67.1615 45.7856 67.2871 46.1525 67.4187C47.3598 67.7839 48.2716 67.4716 49.3904 66.9838C49.5382 66.9213 49.686 66.8588 49.8383 66.7944C50.3203 66.5898 50.801 66.3821 51.2818 66.1744C51.616 66.0318 51.9503 65.8895 52.2847 65.7472C54.2081 64.9263 56.1177 64.0776 58.0205 63.2104C63.0054 60.9398 63.0054 60.9398 65.1367 60.8887C65.9214 60.8324 66.264 60.6129 66.8091 60.0464C70.2815 55.6129 71.8651 49.786 71.1922 44.2101C70.5897 39.9642 68.9084 36.0003 66.0156 32.8125C65.8478 32.6018 65.6808 32.3903 65.5152 32.1778C62.2177 28.4575 56.8993 25.8784 51.9419 25.5459C51.3144 25.5268 50.6889 25.5217 50.0611 25.5249C49.838 25.526 49.615 25.5271 49.3852 25.5283C43.5997 25.611 38.2049 28.1323 34.2201 32.3166ZM55.9329 65.925C55.3686 66.1873 54.8034 66.4387 54.2273 66.674C54.0322 66.7546 53.8372 66.8352 53.6362 66.9182C53.4657 66.9853 53.2952 67.0524 53.1196 67.1215C52.6821 67.359 52.6821 67.359 52.5804 67.9002C52.5667 68.0517 52.5531 68.2033 52.5391 68.3594C53.3568 68.7337 54.1679 68.8794 55.0514 69.0018C55.1981 69.0229 55.3447 69.0441 55.4958 69.0658C55.8052 69.1101 56.1146 69.1537 56.4241 69.1967C56.8937 69.2623 57.3628 69.3303 57.832 69.3985C58.1339 69.4414 58.4359 69.4841 58.738 69.5267C58.8764 69.5468 59.0148 69.567 59.1574 69.5877C60.552 69.7787 61.7641 69.906 63.0577 69.2345C63.2598 69.1314 63.4618 69.0283 63.67 68.9221C63.8761 68.8129 64.0821 68.7038 64.2944 68.5913C64.5028 68.4845 64.7111 68.3776 64.9258 68.2675C66.9482 67.353 66.9482 67.353 68.1641 65.625C68.2674 64.6438 68.1901 64.062 67.5781 63.2813C67.1422 62.7609 66.8032 62.5385 66.1339 62.4108C62.6377 62.2051 59.0222 64.4871 55.9329 65.925ZM65.8203 69.7266C65.8578 70.2527 65.9674 70.4615 66.349 70.8283C66.4847 70.932 66.6205 71.0357 66.7603 71.1426C67.5846 71.8248 67.9466 72.4572 68.3594 73.4375C69.2734 73.3188 70.0805 73.0632 70.929 72.7158C71.0589 72.663 71.1889 72.6101 71.3228 72.5557C71.5962 72.4437 71.8693 72.3311 72.1421 72.2178C72.556 72.047 72.9718 71.8817 73.3879 71.7163C74.7843 71.1473 75.9431 70.6702 76.7578 69.336C76.9399 68.6606 76.8947 68.067 76.7578 67.3829C76.3591 66.6993 75.9588 66.249 75.1953 66.0157C72.4191 65.8748 67.7891 67.7578 65.8203 69.7266ZM26.3672 67.5782C26.1779 67.6284 25.9887 67.6787 25.7937 67.7305C20.5964 69.0854 20.5964 69.0854 16.211 72.0704C15.5575 72.1383 14.9082 72.1569 14.2517 72.1795C13.9647 72.2221 13.9647 72.2221 13.6719 72.2657C13.195 72.981 13.2308 73.3288 13.2276 74.1818C13.2266 74.3162 13.2256 74.4506 13.2246 74.5891C13.2219 75.0333 13.2221 75.4774 13.2225 75.9217C13.2218 76.2303 13.2209 76.539 13.22 76.8477C13.2185 77.4946 13.2186 78.1414 13.2196 78.7883C13.2207 79.6179 13.2174 80.4473 13.2129 81.2769C13.21 81.9142 13.2099 82.5516 13.2105 83.1889C13.2104 83.4948 13.2093 83.8007 13.2074 84.1066C13.205 84.534 13.2063 84.9612 13.2085 85.3886C13.2084 85.6319 13.2083 85.8752 13.2082 86.1258C13.2336 86.71 13.2336 86.71 13.533 87.082C14.1291 87.4793 14.8342 87.5631 15.5266 87.6984C15.6929 87.7328 15.8593 87.7673 16.0306 87.8028C16.3882 87.8767 16.746 87.9497 17.1039 88.0218C18.0471 88.2123 18.9886 88.4107 19.9303 88.6086C20.117 88.6477 20.3038 88.6868 20.4962 88.7271C23.4715 89.3533 26.4086 90.125 29.3442 90.9142C33.5261 92.043 33.5261 92.043 37.7564 92.9688C37.9421 93.0046 38.1278 93.0404 38.3191 93.0772C41.259 93.611 44.1477 93.8243 47.1314 93.8111C47.2984 93.8107 47.4654 93.8104 47.6374 93.81C50.0951 93.8012 52.4792 93.7204 54.8828 93.1641C55.0271 93.1327 55.1713 93.1012 55.3199 93.0688C63.595 91.2317 71.6491 87.2921 79.4401 84.0244C80.3501 83.643 81.2612 83.2643 82.1727 82.8862C82.9377 82.5688 83.7025 82.2507 84.4672 81.9324C84.8313 81.781 85.1955 81.6298 85.5598 81.4789C89.4856 80.121 89.4856 80.121 92.5415 77.5757C92.8524 76.7413 92.9597 76.0578 92.6247 75.2091C92.2537 74.5023 91.9498 74.1132 91.211 73.8282C88.8212 73.4497 86.4506 74.6829 84.3526 75.6697C82.0509 76.749 79.7219 77.7586 77.3677 78.7175C77.065 78.8408 76.7626 78.9646 76.4604 79.089C64.6409 83.9453 52.3106 82.8035 40.4297 78.5157C40.4214 78.1251 40.4217 77.7343 40.4297 77.3438C40.625 77.1485 40.625 77.1485 41.0007 77.1311C41.1659 77.1344 41.3311 77.1377 41.5014 77.1411C41.6893 77.1444 41.8772 77.1477 42.0708 77.1511C42.3801 77.1581 42.3801 77.1581 42.6956 77.1653C42.9088 77.1693 43.1219 77.1734 43.3414 77.1776C44.0392 77.1913 44.7369 77.2065 45.4346 77.2217C45.9136 77.2314 46.3927 77.2411 46.8717 77.2507C49.3353 77.3013 51.7978 77.3643 54.2603 77.4537C56.1762 77.5203 58.0918 77.5696 60.0088 77.5843C60.281 77.5867 60.5532 77.59 60.8254 77.5945C62.5893 77.622 64.1931 77.6371 65.6128 76.4893C66.3242 75.5839 66.5166 74.8026 66.4749 73.6618C66.4246 73.1962 66.4246 73.1962 66.0767 72.6807C64.338 71.5653 61.8948 71.5186 59.8718 71.2676C59.3753 71.2057 58.8792 71.1415 58.3831 71.0767C56.9743 70.8927 55.5654 70.71 54.1555 70.5349C50.2912 70.0533 46.6719 69.5314 43.0168 68.1292C42.0801 67.7866 41.1146 67.5849 40.1367 67.3951C39.9567 67.3572 39.7767 67.3193 39.5912 67.2802C35.3064 66.397 30.5914 66.4097 26.3672 67.5782ZM7.03126 69.5313C6.91093 70.1344 6.92466 70.7324 6.93017 71.3456C6.92881 71.5314 6.92744 71.7172 6.92603 71.9087C6.92258 72.5242 6.92487 73.1395 6.9275 73.7549C6.92698 74.1818 6.92622 74.6087 6.92524 75.0356C6.92409 75.9308 6.92576 76.8259 6.92941 77.7211C6.93386 78.8698 6.9313 80.0185 6.92662 81.1673C6.9238 82.0489 6.92469 82.9305 6.92672 83.8122C6.92724 84.2358 6.9266 84.6595 6.92479 85.0831C6.92281 85.6747 6.92582 86.2661 6.93017 86.8576C6.92859 87.0336 6.92701 87.2095 6.92538 87.3908C6.91714 88.3149 6.91714 88.3149 7.382 89.0738C8.03989 89.355 8.68521 89.3347 9.38722 89.3189C9.59814 89.3198 9.59814 89.3198 9.81332 89.3208C10.55 89.3133 10.8972 89.2848 11.5235 88.8672C11.6119 88.5044 11.6119 88.5044 11.5979 88.0814C11.5995 87.9171 11.6012 87.7528 11.6029 87.5835C11.6017 87.4029 11.6005 87.2223 11.5993 87.0362C11.6008 86.7513 11.6008 86.7513 11.6024 86.4606C11.605 85.8305 11.6032 85.2005 11.6013 84.5704C11.6017 84.1339 11.6022 83.6975 11.603 83.2611C11.6038 82.3456 11.6026 81.4301 11.5998 80.5146C11.5965 79.3388 11.5984 78.1632 11.6019 76.9875C11.604 76.0861 11.6034 75.1847 11.6019 74.2833C11.6015 73.8496 11.602 73.416 11.6033 72.9824C11.6048 72.3773 11.6025 71.7722 11.5993 71.167C11.6005 70.9864 11.6016 70.8058 11.6029 70.6197C11.6012 70.4554 11.5996 70.2911 11.5979 70.1218C11.5976 69.9786 11.5974 69.8355 11.5972 69.688C11.5493 69.2543 11.5493 69.2543 10.9375 68.9454C10.4117 68.902 9.91268 68.882 9.38722 68.8843C9.17743 68.8796 9.17743 68.8796 8.96341 68.8748C8.12113 68.874 7.59473 68.8856 7.03126 69.5313ZM81.4209 69.8731C81.2206 69.9553 81.0204 70.0376 80.814 70.1223C77.6851 71.4203 74.5818 72.7823 71.4775 74.1379C71.2181 74.2508 71.2181 74.2508 70.9533 74.3659C68.8594 75.1247 68.8594 75.1247 67.4439 76.6602C66.8534 77.8528 66.1676 78.3203 64.9079 78.7674C64.2003 78.9835 63.48 79.1484 62.7579 79.3084C62.2734 79.4536 62.2734 79.4536 62.0468 79.9019C62.003 80.0245 61.9592 80.1471 61.9141 80.2735C62.4638 80.8232 62.8169 80.7227 63.5864 80.7251C69.5688 80.6809 75.318 77.871 80.7373 75.5982C81.0432 75.4705 81.0432 75.4705 81.3553 75.3402C83.6762 74.4088 83.6762 74.4088 85.5469 72.815C85.6557 72.6833 85.7644 72.5516 85.8765 72.416C86.3617 71.7617 86.3918 71.3191 86.3281 70.5079C86.0849 69.9726 85.8767 69.6359 85.4126 69.2749C83.9471 68.8392 82.7664 69.3055 81.4209 69.8731Z" fill="#6EC1E4"></path><path d="M51.6479 8.47161C51.8465 8.48017 52.045 8.48873 52.2495 8.49755C53.684 8.56672 53.684 8.56672 53.9062 8.78899C53.9507 9.04573 53.9838 9.30447 54.0119 9.56352C54.0301 9.72786 54.0484 9.89221 54.0672 10.0615C54.0959 10.3301 54.0959 10.3301 54.1252 10.604C54.1673 10.9808 54.2094 11.3576 54.2515 11.7343C54.317 12.33 54.3822 12.9258 54.4468 13.5216C54.5094 14.0954 54.5736 14.669 54.6379 15.2427C54.666 15.5083 54.666 15.5083 54.6947 15.7792C54.8402 17.1052 54.8402 17.1052 55.2734 18.3593C55.6218 18.602 55.6218 18.602 56.0539 18.6866C56.2115 18.7298 56.3691 18.773 56.5314 18.8175C56.6964 18.8597 56.8613 18.9018 57.0312 18.9452C57.3516 19.0437 57.6712 19.1441 57.9903 19.2466C58.1537 19.2984 58.3172 19.3502 58.4856 19.4035C60.2592 19.9738 61.9202 20.6313 63.5658 21.5049C63.7353 21.5942 63.7353 21.5942 63.9081 21.6852C64.1542 21.8187 64.397 21.9582 64.6373 22.102C65.4513 22.5638 66.0631 22.7852 66.9973 22.6026C67.7406 22.3293 68.2861 21.833 68.8721 21.3134C69.144 21.0823 69.4161 20.8513 69.6884 20.6207C69.8243 20.504 69.9602 20.3873 70.1002 20.267C70.7272 19.736 71.3732 19.2303 72.0215 18.7255C72.1332 18.6379 72.2449 18.5503 72.3599 18.4601C72.6533 18.2303 72.9477 18.0018 73.2422 17.7734C73.3761 17.649 73.5101 17.5246 73.6481 17.3965C74.0234 17.1874 74.0234 17.1874 74.4744 17.3134C75.0915 17.6241 75.4845 17.9898 75.972 18.4791C76.1512 18.6585 76.3305 18.8379 76.5152 19.0227C76.6531 19.163 76.6531 19.163 76.7939 19.3063C77.074 19.591 77.3567 19.8731 77.6398 20.1549C79.1445 21.6713 79.1445 21.6713 79.6875 22.6562C79.5291 22.85 79.3708 23.0439 79.2076 23.2436C78.1183 24.5793 77.0322 25.9175 75.9644 27.2704C75.8784 27.3787 75.7925 27.487 75.704 27.5986C75.4659 27.9016 75.2328 28.2085 75 28.5156C74.8512 28.7024 74.7024 28.8892 74.5491 29.0817C74.1374 29.8366 74.0449 30.4199 74.2188 31.2499C74.4961 31.9304 74.8529 32.5551 75.2197 33.1908C76.2012 34.9726 76.9347 36.7338 77.5391 38.6718C77.6805 39.1197 77.8228 39.5673 77.9663 40.0146C78.0214 40.1953 78.0766 40.3761 78.1334 40.5624C78.4015 41.2124 78.6833 41.4925 79.3127 41.8001C80.0413 42.0455 80.7639 42.1209 81.5247 42.1943C81.6814 42.2106 81.8381 42.2269 81.9995 42.2438C82.4982 42.2955 82.9971 42.3453 83.4961 42.3949C83.995 42.4456 84.4939 42.4967 84.9927 42.5482C85.3024 42.5801 85.6121 42.6115 85.922 42.6421C86.6531 42.7164 87.3686 42.8075 88.0859 42.9687C88.3189 43.7015 88.3065 44.401 88.3072 45.1659C88.3075 45.3696 88.3075 45.3696 88.3078 45.5774C88.3079 45.8637 88.3075 46.1499 88.3067 46.4362C88.3057 46.8734 88.3067 47.3106 88.308 47.7477C88.3078 48.0265 88.3076 48.3052 88.3072 48.5839C88.307 48.8367 88.3067 49.0895 88.3065 49.3499C88.286 49.8779 88.2237 50.2795 88.0859 50.7812C87.8317 50.8067 87.5776 50.8322 87.3157 50.8584C86.3696 50.9542 85.4241 51.0542 84.4787 51.1555C84.07 51.1987 83.6612 51.2407 83.2522 51.2816C82.6633 51.3406 82.0749 51.4038 81.4865 51.4678C81.2136 51.4938 81.2136 51.4938 80.9352 51.5203C79.8806 51.6399 79.1345 51.8023 78.3203 52.539C78.0308 53.0601 78.0308 53.0601 77.8763 53.659C77.8088 53.8786 77.7412 54.0981 77.6717 54.3244C77.6037 54.557 77.5358 54.7896 77.4658 55.0292C76.8133 57.1197 76.0896 59.0388 75 60.9374C74.8978 61.1215 74.7956 61.3055 74.6902 61.4951C73.9049 62.8019 73.041 63.1355 71.5942 63.5131C71.3646 63.5655 71.135 63.6178 70.8984 63.6718C70.8466 63.5399 70.7947 63.4079 70.7413 63.272C70.6378 63.0107 70.6378 63.0107 70.5322 62.7441C70.4642 62.5719 70.3963 62.3996 70.3262 62.2222C70.1402 61.7212 70.1402 61.7212 69.8479 61.3403C69.7266 60.9374 69.7266 60.9374 70.0249 60.3728C70.1797 60.1526 70.3368 59.934 70.4956 59.7167C73.9602 54.6416 74.9089 48.2024 73.8472 42.2164C72.6277 36.1201 69.0688 30.3651 63.8775 26.8564C58.3214 23.2479 51.738 21.637 45.1538 22.9858C44.5511 23.1214 43.955 23.2738 43.3594 23.4374C43.1638 23.4892 43.1638 23.4892 42.9644 23.542C38.0886 24.8684 33.7024 28.0466 30.6641 32.0312C30.548 32.181 30.4319 32.3308 30.3123 32.4851C28.4584 34.9954 27.1765 37.8163 26.3672 40.8202C26.3151 41.0131 26.3151 41.0131 26.2619 41.2099C24.7273 47.2418 25.9242 53.8793 28.9773 59.2314C29.686 60.4142 30.53 61.4806 31.4087 62.5404C31.8359 63.0859 31.8359 63.0859 32.0312 63.6718C31.9054 63.6875 31.7795 63.7032 31.6499 63.7194C31.0689 63.7923 30.4881 63.8663 29.9072 63.9404C29.6104 63.9774 29.6104 63.9774 29.3076 64.0151C28.0543 64.1758 26.821 64.3816 25.5859 64.6484C25.613 64.5207 25.6402 64.393 25.6681 64.2614C25.9208 62.9648 25.6433 62.2784 24.9756 61.1732C23.5114 58.6688 22.6309 55.9042 21.8026 53.1395C21.7019 52.8074 21.5941 52.4775 21.4844 52.1484C20.4947 51.6985 19.4368 51.6259 18.3678 51.5128C18.1835 51.4922 17.9992 51.4715 17.8093 51.4502C17.2237 51.3847 16.638 51.3208 16.0522 51.2573C15.463 51.1928 14.8738 51.128 14.2847 51.0622C13.9188 51.0213 13.5527 50.9813 13.1866 50.9422C13.0223 50.9239 12.8579 50.9056 12.6886 50.8868C12.4707 50.8632 12.4707 50.8632 12.2485 50.8391C11.9141 50.7812 11.9141 50.7812 11.7188 50.5859C11.642 49.8644 11.6264 49.1378 11.5967 48.413C11.5866 48.2149 11.5765 48.0167 11.5662 47.8126C11.4968 46.1831 11.5856 44.5922 11.7188 42.9687C11.9601 42.9422 12.2014 42.9156 12.4501 42.8883C13.3498 42.7889 14.2491 42.6867 15.1484 42.5836C15.5368 42.5395 15.9254 42.4961 16.314 42.4535C16.8742 42.392 17.4341 42.3277 17.9939 42.263C18.2525 42.2355 18.2525 42.2355 18.5163 42.2074C19.6699 42.0703 20.8672 41.9232 21.6408 40.9751C21.9275 40.3074 22.1192 39.6292 22.3022 38.9282C23.0255 36.3307 24.1648 33.9167 25.5371 31.6009C25.8369 30.9301 25.9092 30.6113 25.7812 29.8827C25.1187 28.6348 24.1723 27.5535 23.2666 26.477C23.0268 26.1876 22.7869 25.8982 22.5472 25.6088C22.149 25.1309 21.7483 24.6556 21.3432 24.1836C21.2005 24.0139 21.0577 23.8442 20.9106 23.6694C20.788 23.5271 20.6654 23.3849 20.5391 23.2383C20.3125 22.8515 20.3125 22.8515 20.3621 22.4772C20.5263 22.0187 20.717 21.7755 21.0495 21.4217C21.1613 21.3019 21.2731 21.1821 21.3883 21.0586C21.5087 20.9332 21.629 20.8078 21.7529 20.6786C21.8755 20.5497 21.9981 20.4208 22.1244 20.288C24.5565 17.7529 24.5565 17.7529 25.3906 17.1874C26.0245 17.2637 26.3867 17.5082 26.8646 17.9176C26.996 18.0284 27.1274 18.1393 27.2628 18.2535C27.4023 18.373 27.5418 18.4925 27.6855 18.6156C28.8468 19.5922 30.0219 20.5399 31.2378 21.4477C31.3705 21.5471 31.5033 21.6465 31.6401 21.7489C32.7891 22.6071 32.7891 22.6071 34.1797 22.6562C34.8491 22.3704 35.4748 22.0123 36.1084 21.6552C38.2865 20.4713 40.4253 19.6114 42.8101 18.933C44.076 18.5528 44.076 18.5528 44.9219 17.5781C44.9991 17.2155 45.0608 16.8495 45.1134 16.4825C45.1459 16.2559 45.1784 16.0293 45.2118 15.7959C45.3951 14.4178 45.5636 13.0381 45.7275 11.6576C45.7634 11.3587 45.7992 11.0597 45.8351 10.7608C45.9218 10.0385 46.0079 9.3161 46.0938 8.59368C47.9553 8.45271 49.7807 8.37115 51.6479 8.47161Z" fill="#6EC1E4"></path><path d="M45.0972 70.147C47.0914 70.9352 49.0573 71.2212 51.1726 71.4928C51.543 71.5428 51.9134 71.593 52.2837 71.6435C53.2497 71.7746 54.2162 71.9024 55.1828 72.0293C56.7358 72.2335 58.2882 72.4423 59.8405 72.6522C60.3805 72.7246 60.9207 72.7953 61.461 72.8657C61.7917 72.9098 62.1224 72.954 62.4531 72.9983C62.677 73.0267 62.677 73.0267 62.9054 73.0558C63.6692 73.1595 64.3385 73.3075 65.0391 73.6329C64.9713 75.25 64.9713 75.25 64.4897 75.7813C63.6945 76.1449 62.9995 76.197 62.1277 76.1979C61.8933 76.1983 61.659 76.1987 61.4175 76.1991C61.1624 76.1982 60.9074 76.1973 60.6445 76.1964C60.5123 76.1961 60.38 76.1959 60.2437 76.1956C57.0422 76.189 53.8435 76.0927 50.6438 75.9909C49.4441 75.9528 48.2444 75.9161 47.0447 75.8798C46.635 75.8673 46.2254 75.8541 45.8158 75.8409C45.0621 75.8177 44.3085 75.799 43.5547 75.7813C43.4233 75.777 43.292 75.7727 43.1566 75.7683C42.7616 75.7557 42.3667 75.7472 41.9716 75.7394C41.7409 75.7333 41.5103 75.7273 41.2726 75.7211C40.5351 75.7897 40.0799 75.9778 39.4531 76.3673C39.0563 76.9624 39.0009 77.1279 38.9893 77.8077C38.9837 77.9542 38.9782 78.1008 38.9725 78.2517C39.0991 78.8979 39.399 79.207 39.8438 79.6876C40.3356 79.9572 40.3356 79.9572 40.8951 80.1263C41.1043 80.1965 41.3136 80.2667 41.5292 80.339C41.7545 80.41 41.9798 80.4811 42.2119 80.5543C42.4465 80.63 42.6812 80.7057 42.9229 80.7837C46.8929 82.0348 50.9557 82.8442 55.0781 83.3985C55.2248 83.4189 55.3715 83.4394 55.5227 83.4604C57.241 83.6673 58.9775 83.6415 60.7056 83.6427C60.8757 83.6428 61.0458 83.6429 61.221 83.6431C63.7737 83.6399 66.2474 83.5549 68.75 83.0079C68.8942 82.9785 69.0383 82.9492 69.1869 82.9189C74.033 81.9068 78.6319 79.6092 83.1573 77.6521C83.2901 77.5947 83.4229 77.5373 83.5597 77.4781C84.247 77.1803 84.9327 76.8795 85.6167 76.5744C85.756 76.5126 85.8953 76.4507 86.0388 76.387C86.3015 76.2703 86.5639 76.1528 86.8259 76.0344C87.9111 75.5528 88.9992 75.1407 90.1978 75.1344C90.344 75.1311 90.4903 75.1278 90.641 75.1244C90.7646 75.1479 90.8883 75.1713 91.0156 75.1954C91.4792 75.8908 91.5507 76.1346 91.4062 76.9532C90.6007 77.875 89.5941 78.3973 88.4781 78.8491C88.3286 78.9121 88.1791 78.975 88.025 79.0398C87.5336 79.246 87.0408 79.4485 86.5479 79.651C86.1973 79.797 85.8469 79.9433 85.4965 80.0897C84.7681 80.3938 84.039 80.6962 83.3094 80.9975C82.2913 81.418 81.2753 81.8435 80.2597 82.2701C75.3224 84.3402 70.3523 86.3262 65.3652 88.2728C64.8755 88.4642 64.3862 88.6564 63.897 88.849C58.4085 91.0053 53.158 92.4714 47.229 92.4561C47.058 92.4559 46.8869 92.4557 46.7107 92.4554C40.6008 92.4327 34.8117 91.0638 28.9459 89.4715C28.7644 89.4223 28.583 89.373 28.396 89.3223C26.8471 88.9016 26.8471 88.9016 26.1644 88.7156C22.3529 87.6805 18.5265 86.8882 14.6484 86.1329C14.6484 82.0079 14.6484 77.8829 14.6484 73.6329C15.2285 73.5684 15.8086 73.504 16.4062 73.4376C17.0616 73.0899 17.0616 73.0899 17.6392 72.6197C17.8589 72.4579 18.0794 72.2972 18.3006 72.1375C18.4092 72.059 18.5178 71.9804 18.6297 71.8995C25.7728 66.9259 37.2821 67.039 45.0972 70.147Z" fill="#6EC1E4"></path><path d="M62.0537 30.854C66.4195 34.2376 69.1213 38.943 69.8601 44.4274C70.2765 49.075 69.3787 53.385 66.9922 57.4218C66.8993 57.6104 66.8064 57.799 66.7107 57.9932C66.2462 58.8312 65.9186 59.2859 64.9811 59.5702C64.5909 59.6329 64.2005 59.6951 63.8088 59.7475C60.8294 60.1602 58.0276 61.7687 55.2978 62.976C54.3111 63.4123 53.3242 63.8484 52.337 64.2836C51.9776 64.4422 51.6184 64.6014 51.2592 64.7606C50.6702 65.0201 50.0793 65.2746 49.4873 65.5273C49.2381 65.6385 49.2381 65.6385 48.9839 65.7519C47.1372 66.5264 45.6011 65.9095 43.7622 65.3564C43.5604 65.297 43.3586 65.2375 43.1507 65.1763C42.5682 65.0037 41.987 64.8268 41.4062 64.6484C41.2408 64.5989 41.0753 64.5494 40.9049 64.4984C37.1526 63.3281 34.0883 59.5798 32.2266 56.2499C29.7954 51.4416 29.3394 45.8819 30.8655 40.7256C31.7195 38.129 32.9727 35.8503 34.7656 33.789C34.9286 33.5816 35.0913 33.3741 35.2539 33.1664C42.0683 25.5002 54.0066 25.0068 62.0537 30.854ZM55.7915 39.4256C55.5446 39.6743 55.2975 39.9228 55.0502 40.171C54.4036 40.8213 53.76 41.4745 53.117 42.1284C52.4588 42.7966 51.7979 43.4619 51.1372 44.1276C49.8439 45.4313 48.5538 46.738 47.2656 48.0468C46.5106 47.6975 46.0063 47.216 45.4376 46.6201C45.2337 46.4113 45.0298 46.2025 44.8257 45.9937C44.5079 45.6662 44.1907 45.3381 43.8745 45.0089C42.0558 43.055 42.0558 43.055 39.624 42.0768C37.3556 42.0799 36.3705 43.0586 34.8045 44.6098C34.0517 45.499 33.7052 46.2689 33.7036 47.4365C33.6998 47.6253 33.6961 47.8141 33.6922 48.0087C33.9072 49.394 34.6715 50.4131 35.6537 51.3705C35.7596 51.4767 35.8654 51.583 35.9745 51.6925C36.3207 52.0391 36.6695 52.3829 37.0186 52.7267C37.2614 52.9686 37.5041 53.2106 37.7467 53.4528C38.2533 53.958 38.7612 54.4618 39.2701 54.9647C39.9224 55.6092 40.5725 56.2559 41.2219 56.9034C41.8424 57.5219 42.4639 58.1395 43.0855 58.7569C43.2038 58.8746 43.3222 58.9923 43.4442 59.1136C43.7788 59.446 44.1141 59.7777 44.4497 60.1092C44.5486 60.2076 44.6475 60.306 44.7495 60.4074C45.6818 61.327 45.6818 61.327 46.9116 61.6332C47.6769 61.605 48.0295 61.4544 48.588 60.9343C48.723 60.8096 48.858 60.685 48.9971 60.5566C49.2035 60.3584 49.2035 60.3584 49.4141 60.1562C49.611 59.9677 49.611 59.9677 49.8118 59.7754C50.2346 59.365 50.6529 58.9504 51.0703 58.5345C51.2277 58.3784 51.3851 58.2223 51.5472 58.0615C52.0628 57.5497 52.5776 57.0372 53.0922 56.5246C53.2689 56.3487 53.4456 56.1728 53.6276 55.9916C54.4651 55.1577 55.3023 54.3234 56.1389 53.4885C57.1008 52.5284 58.0644 51.57 59.0293 50.613C59.8686 49.7803 60.7057 48.9454 61.5421 48.1098C61.897 47.756 62.2524 47.4027 62.6086 47.0502C63.106 46.5576 63.6008 46.0625 64.0952 45.5669C64.2422 45.4223 64.3892 45.2778 64.5407 45.1289C65.604 44.0549 66.2899 43.0868 66.3086 41.516C66.2388 39.6169 64.9483 38.4273 63.6284 37.181C62.7328 36.4177 62.0221 36.1962 60.852 36.0473C58.6129 36.3223 57.2918 37.8923 55.7915 39.4256Z" fill="#6EC1E4"></path><path d="M62.085 37.6831C63.1614 38.3936 64.3785 39.3851 64.8438 40.625C64.9094 41.0874 64.9094 41.0874 64.917 41.5772C64.9225 41.7378 64.9281 41.8984 64.9338 42.0639C64.6935 43.4363 63.4265 44.4462 62.4864 45.3891C62.3281 45.5493 62.1699 45.7095 62.0068 45.8745C61.4851 46.4019 60.962 46.9277 60.4385 47.4533C60.0746 47.8195 59.7107 48.1857 59.3468 48.5518C58.6821 49.2203 58.0167 49.888 57.3506 50.5552C56.3712 51.5364 55.3944 52.5201 54.4197 53.506C53.5738 54.3614 52.7247 55.2136 51.8744 56.0646C51.5135 56.4266 51.1536 56.7897 50.7946 57.1537C50.2935 57.6616 49.7887 58.1656 49.2829 58.6688C49.135 58.8204 48.987 58.972 48.8345 59.1281C47.8365 60.1105 47.8365 60.1105 47.0406 60.3127C46.29 60.1016 45.859 59.6877 45.3325 59.1405C45.224 59.0326 45.1156 58.9246 45.0039 58.8134C44.6469 58.4566 44.2942 58.0958 43.9415 57.7347C43.6943 57.4858 43.4468 57.2372 43.1991 56.9887C42.5483 56.3345 41.9011 55.6768 41.2545 55.0183C40.7253 54.4805 40.1935 53.9453 39.6615 53.4102C39.0284 52.7733 38.3964 52.1353 37.7647 51.4969C37.6438 51.3747 37.5228 51.2525 37.3981 51.1265C37.0572 50.7815 36.717 50.4358 36.3771 50.0898C36.2755 49.9871 36.174 49.8844 36.0693 49.7786C35.3315 49.0251 35.1225 48.6579 35.0952 47.6075C35.1154 46.054 35.9128 45.2949 36.9568 44.2414C37.6375 43.6622 38.2215 43.4843 39.1113 43.4449C39.2856 43.4325 39.4598 43.4202 39.6393 43.4075C41.5319 43.8758 43.1672 46.2876 44.5086 47.6671C44.8169 47.9837 45.1271 48.2985 45.4376 48.613C45.5312 48.7103 45.6248 48.8075 45.7213 48.9077C46.3825 49.5981 46.3825 49.5981 47.2656 49.8047C47.6905 49.4707 48.0399 49.1478 48.4115 48.7605C48.524 48.6471 48.6365 48.5338 48.7525 48.417C49.1253 48.0405 49.4947 47.6607 49.8642 47.2809C50.1228 47.0191 50.3816 46.7574 50.6406 46.4961C51.3236 45.8061 52.0039 45.1134 52.6833 44.4199C53.769 43.3121 54.8574 42.2071 55.9484 41.1044C56.3286 40.719 56.7068 40.3316 57.0849 39.9441C57.3192 39.7064 57.5536 39.4688 57.788 39.2313C57.8921 39.1236 57.9963 39.0158 58.1036 38.9047C59.287 37.714 60.4249 37.1418 62.085 37.6831ZM60.2025 39.4445C60.0926 39.5497 59.9827 39.655 59.8695 39.7633C59.7347 39.8909 59.5998 40.0185 59.4608 40.15C59.225 40.3851 59.225 40.3851 58.9844 40.625C58.8927 40.7157 58.801 40.8063 58.7066 40.8997C58.0372 41.5623 57.3752 42.232 56.7149 42.9037C56.2091 43.4178 55.7014 43.93 55.1938 44.4424C54.2516 45.3935 53.3103 46.3453 52.3721 47.3002C51.7164 47.9675 51.0584 48.6324 50.3988 49.2957C50.1484 49.5483 49.899 49.8018 49.6505 50.0562C49.3042 50.4105 48.9549 50.7617 48.6048 51.1124C48.503 51.218 48.4012 51.3236 48.2964 51.4324C47.8593 51.8646 47.5561 52.1293 46.9461 52.2525C46.3766 52.1242 46.1659 51.942 45.7646 51.521C45.6316 51.3841 45.4986 51.2472 45.3615 51.1062C45.2207 50.9567 45.0799 50.8072 44.9348 50.6531C44.6318 50.3416 44.3288 50.03 44.0258 49.7185C43.551 49.2242 43.0771 48.729 42.6038 48.2332C42.1463 47.7556 41.6853 47.2817 41.2239 46.8079C41.0835 46.6584 40.9431 46.5088 40.7984 46.3548C40.028 45.5419 40.028 45.5419 38.9925 45.2003C38.3518 45.3397 38.0787 45.5535 37.6221 46.0205C37.4876 46.152 37.3532 46.2834 37.2147 46.4188C36.8184 47.0203 36.8295 47.3349 36.9141 48.0469C37.275 48.5851 37.275 48.5851 37.795 49.0795C37.8887 49.1752 37.9824 49.271 38.0789 49.3696C38.3884 49.6842 38.7019 49.9944 39.016 50.3045C39.2327 50.522 39.4493 50.7398 39.6658 50.9577C40.1196 51.4132 40.5754 51.8665 41.0327 52.3184C41.6191 52.8981 42.2001 53.4829 42.7796 54.0695C43.2257 54.5198 43.6746 54.9673 44.1243 55.414C44.3397 55.6286 44.5542 55.8441 44.7679 56.0605C45.0666 56.3622 45.3689 56.6599 45.6724 56.9569C45.8437 57.1272 46.015 57.2976 46.1915 57.4732C46.6462 57.8661 46.6462 57.8661 47.1551 57.7731C47.7045 57.6022 47.9457 57.4267 48.3507 57.0246C48.48 56.8981 48.6092 56.7716 48.7424 56.6413C48.9503 56.4319 48.9503 56.4319 49.1625 56.2183C49.3109 56.0719 49.4593 55.9254 49.6122 55.7746C50.1026 55.2896 50.59 54.8018 51.0773 54.3137C51.4169 53.9756 51.7566 53.6376 52.0964 53.2997C52.8083 52.5907 53.5186 51.8802 54.228 51.1688C55.1374 50.2571 56.0512 49.35 56.9662 48.444C57.669 47.747 58.369 47.0473 59.0683 46.3468C59.4041 46.0112 59.7408 45.6765 60.0785 45.3428C60.5503 44.8757 61.0183 44.4051 61.4855 43.9334C61.6958 43.7276 61.6958 43.7276 61.9104 43.5176C62.5334 42.8811 62.8569 42.5074 63.0941 41.6316C63.1385 41.0114 63.1385 41.0114 62.7975 40.5472C62.6591 40.4198 62.5206 40.2924 62.3779 40.1612C62.2425 40.0308 62.107 39.9003 61.9675 39.766C61.3983 39.365 60.8568 39.0898 60.2025 39.4445Z" fill="#6EC1E4"></path><path d="M60.7422 40.8203C61 41.0137 61.2578 41.207 61.5234 41.4062C61.2687 41.9669 60.9974 42.3725 60.5646 42.8092C60.3905 42.9863 60.3905 42.9863 60.2128 43.1669C60.0858 43.2941 59.9588 43.4212 59.8279 43.5523C59.6938 43.6879 59.5598 43.8236 59.4217 43.9634C58.9784 44.4114 58.5336 44.8578 58.0887 45.3041C57.7802 45.6143 57.4717 45.9246 57.1632 46.2349C56.5167 46.8846 55.8694 47.5335 55.2215 48.1819C54.3899 49.0146 53.5614 49.8504 52.7337 50.687C52.098 51.3285 51.4601 51.9679 50.8216 52.6066C50.515 52.9139 50.2093 53.2221 49.9044 53.5311C49.4789 53.9618 49.0504 54.3894 48.6211 54.8163C48.4948 54.9454 48.3686 55.0746 48.2385 55.2076C48.1213 55.3229 48.0041 55.4382 47.8834 55.557C47.7823 55.6584 47.6813 55.7598 47.5772 55.8643C47.2656 56.0547 47.2656 56.0547 46.8613 56.0083C46.3466 55.8049 46.0508 55.5032 45.6575 55.1145C45.4966 54.9567 45.3357 54.7989 45.1699 54.6364C44.9982 54.4647 44.8264 54.293 44.6495 54.1161C44.3838 53.8526 44.3838 53.8526 44.1128 53.5839C43.7389 53.2121 43.3657 52.8397 42.9934 52.4662C42.5157 51.9874 42.0345 51.5122 41.5523 51.0379C41.0932 50.585 40.6377 50.1287 40.1817 49.6727C40.008 49.5022 39.8343 49.3317 39.6553 49.156C39.4975 48.9964 39.3397 48.8367 39.1771 48.6722C39.0367 48.5323 38.8964 48.3924 38.7518 48.2482C38.4765 47.8516 38.4765 47.8516 38.5304 47.4096C38.6004 47.2417 38.6004 47.2417 38.6719 47.0703C39.0217 46.9373 39.0217 46.9373 39.4531 46.875C39.7799 47.0949 39.7799 47.0949 40.1056 47.4414C40.2289 47.5698 40.3522 47.6982 40.4792 47.8306C40.6107 47.9719 40.7421 48.1133 40.8775 48.259C41.1606 48.5525 41.4438 48.846 41.7271 49.1394C42.1712 49.6053 42.6139 50.0724 43.055 50.5411C43.4813 50.9923 43.9125 51.4385 44.3443 51.8845C44.4738 52.025 44.6032 52.1656 44.7366 52.3105C45.5146 53.1086 46.0957 53.4824 47.2119 53.5997C48.3869 53.3774 49.2452 52.3722 50.0548 51.552C50.1712 51.4357 50.2876 51.3194 50.4075 51.1995C50.7888 50.8179 51.1688 50.4349 51.5488 50.0519C51.8141 49.7858 52.0796 49.5198 52.3451 49.2539C53.0414 48.5561 53.7366 47.8571 54.4315 47.1578C55.1417 46.4436 55.8531 45.7305 56.5643 45.0172C57.958 43.6194 59.3505 42.2202 60.7422 40.8203Z" fill="#6EC1E4"></path><path d="M84.7656 70.5078C84.9121 70.9351 84.9121 70.9351 84.9609 71.4844C84.4012 72.3726 83.6976 72.7828 82.7713 73.2178C82.634 73.2843 82.4966 73.3507 82.3551 73.4192C80.8628 74.1321 79.3398 74.7692 77.8076 75.3907C77.6644 75.4491 77.5212 75.5076 77.3736 75.5678C75.5864 76.2969 73.7949 77.0146 71.9849 77.6856C71.8237 77.7463 71.6625 77.8069 71.4965 77.8694C70.3401 78.2867 69.1822 78.5215 67.9688 78.711C68.4064 77.4736 68.9151 76.5755 70.1272 75.9819C70.8123 75.683 71.5061 75.4123 72.2046 75.1465C72.5065 75.0255 72.8081 74.9038 73.1094 74.7813C73.7396 74.5259 74.371 74.2738 75.0033 74.0237C76.4588 73.444 77.8941 72.8168 79.3313 72.1937C80.0536 71.8808 80.7768 71.5702 81.5002 71.2601C81.6251 71.2063 81.7499 71.1526 81.8785 71.0972C82.9035 70.6577 83.644 70.4867 84.7656 70.5078Z" fill="#6EC1E4"></path><path d="M8.39844 70.5078C8.97852 70.5078 9.55859 70.5078 10.1562 70.5078C10.1562 76.1797 10.1562 81.8516 10.1562 87.6953C9.57617 87.6953 8.99609 87.6953 8.39844 87.6953C8.39844 82.0234 8.39844 76.3516 8.39844 70.5078Z" fill="#6EC1E4"></path><path d="M66.4062 63.8672C66.7969 64.2578 66.7969 64.2578 66.8579 64.8315C66.7878 65.519 66.7199 65.5893 66.2109 66.0156C62.0049 68.7659 62.0049 68.7659 59.6161 68.3143C59.4076 68.2647 59.1992 68.2151 58.9844 68.164C58.476 68.1007 57.9674 68.0397 57.4585 67.9809C56.7711 67.8901 56.7711 67.8901 56.25 67.7734C56.1855 67.6445 56.1211 67.5156 56.0547 67.3828C64.3667 63.4608 64.3667 63.4608 66.4062 63.8672Z" fill="#6EC1E4"></path><path d="M75.3906 67.578C75.4669 68.7415 75.4669 68.7415 75.3906 69.1405C74.7869 69.6807 74.1263 69.9542 73.3795 70.2537C73.1441 70.3487 72.9087 70.4438 72.6662 70.5417C72.4187 70.6403 72.1713 70.7388 71.9238 70.8373C71.6733 70.938 71.4228 71.0389 71.1723 71.1398C70.5606 71.3859 69.9485 71.6309 69.3359 71.8749C68.8333 71.3785 68.3618 70.902 67.9688 70.3124C67.9688 70.1835 67.9688 70.0546 67.9688 69.9218C68.6149 69.6067 69.2622 69.2941 69.9097 68.9818C70.0906 68.8936 70.2715 68.8054 70.4578 68.7144C74.1315 66.9485 74.1315 66.9485 75.3906 67.578Z" fill="#6EC1E4"></path></svg>