<svg xmlns="http://www.w3.org/2000/svg" width="26" height="26" viewBox="0 0 26 26" fill="none"><path d="M23.9289 14.2755C23.9791 13.8522 24.0041 13.4263 24.0039 13C24.0039 10.0816 22.8446 7.2827 20.7809 5.21907C18.7173 3.15545 15.9184 1.99611 13 1.99611C12.5737 1.99588 12.1478 2.02093 11.7245 2.07114C10.3814 1.22831 8.79205 0.866272 7.21642 1.04427C5.64079 1.22227 4.17221 1.92976 3.05099 3.05099C1.92976 4.17221 1.22227 5.64079 1.04427 7.21642C0.866272 8.79205 1.22831 10.3814 2.07114 11.7245C2.02093 12.1478 1.99588 12.5737 1.99611 13C1.99611 15.9184 3.15545 18.7173 5.21907 20.7809C7.2827 22.8446 10.0816 24.0039 13 24.0039C13.4263 24.0041 13.8522 23.9791 14.2755 23.9289C15.6186 24.7717 17.208 25.1337 18.7836 24.9557C20.3592 24.7777 21.8278 24.0702 22.949 22.949C24.0702 21.8278 24.7777 20.3592 24.9557 18.7836C25.1337 17.208 24.7717 15.6186 23.9289 14.2755Z" stroke="black" stroke-width="2"></path><path d="M17 10C17 9 17 7 13 7C11 7 9 7 9 10C9 15 17 11 17 16C17 19 15 19 13 19C9 19 9 17 9 16" stroke="black" stroke-width="2"></path></svg>