<svg xmlns="http://www.w3.org/2000/svg" width="30" height="30" viewBox="0 0 30 30" fill="none"><path d="M23.4872 18.4996C23.3682 18.5315 23.2441 18.5397 23.1219 18.5237C22.9998 18.5076 22.882 18.4677 22.7753 18.4061C22.6686 18.3445 22.5751 18.2624 22.5001 18.1647C22.4251 18.0669 22.3702 17.9553 22.3383 17.8363L19.8365 8.49615L10.6555 24.3982C10.5311 24.6135 10.3264 24.7707 10.0862 24.835C9.84603 24.8994 9.59014 24.8657 9.37481 24.7414C9.15948 24.617 9.00236 24.4123 8.938 24.1721C8.87365 23.9319 8.90734 23.676 9.03166 23.4607L18.2127 7.55865L8.873 10.0621C8.63269 10.1265 8.37666 10.0928 8.16121 9.96837C7.94576 9.84398 7.78855 9.6391 7.72416 9.3988C7.65977 9.1585 7.69348 8.90246 7.81787 8.68701C7.94226 8.47156 8.14714 8.31435 8.38744 8.24996L19.9133 5.16162C20.0323 5.12967 20.1564 5.12148 20.2785 5.13753C20.4007 5.15358 20.5185 5.19354 20.6252 5.25514C20.7319 5.31674 20.8254 5.39877 20.9004 5.49654C20.9753 5.5943 21.0303 5.70588 21.0621 5.8249L24.1505 17.3507C24.1824 17.4697 24.1906 17.5938 24.1746 17.716C24.1585 17.8382 24.1185 17.9559 24.0569 18.0626C23.9953 18.1693 23.9133 18.2628 23.8155 18.3378C23.7178 18.4128 23.6062 18.4678 23.4872 18.4996Z" fill="#141515"></path></svg>