<svg xmlns="http://www.w3.org/2000/svg" width="26" height="26" viewBox="0 0 26 26" fill="none"><path d="M24.2493 19.8062C23.3332 18.8832 21.1145 17.5361 20.038 16.9933C18.6361 16.2871 18.5207 16.2294 17.4189 17.0481C16.6839 17.5944 16.1953 18.0824 15.3351 17.899C14.4749 17.7155 12.6058 16.6811 10.9691 15.0497C9.33247 13.4182 8.2381 11.4948 8.05407 10.6376C7.87004 9.78029 8.36617 9.29743 8.9073 8.56073C9.66996 7.52231 9.61227 7.34924 8.96037 5.94738C8.45213 4.85704 7.06584 2.65906 6.13934 1.74756C5.14823 0.768566 5.14823 0.941635 4.5096 1.20701C3.98966 1.42572 3.49087 1.69163 3.01947 2.0014C2.09644 2.61464 1.58415 3.12404 1.2259 3.88959C0.867644 4.65513 0.706689 6.44986 2.5568 9.81087C4.40691 13.1719 5.70494 14.8905 8.39155 17.5696C11.0782 20.2487 13.144 21.6892 16.1641 23.383C19.9001 25.4754 21.3331 25.0675 22.101 24.7098C22.8688 24.3522 23.3805 23.8445 23.9949 22.9215C24.3055 22.4508 24.572 21.9526 24.791 21.4331C25.057 20.7967 25.2301 20.7967 24.2493 19.8062Z" stroke="white" stroke-miterlimit="10"></path></svg>