<svg xmlns="http://www.w3.org/2000/svg" width="26" height="26" viewBox="0 0 26 26" fill="none"><g clip-path="url(#clip0_1686_480)"><path d="M0.744141 0.499749C1.69616 0.481468 2.64814 0.467707 3.60029 0.45927C4.04244 0.455248 4.48448 0.449769 4.92656 0.440812C5.31206 0.433004 5.69748 0.42798 6.08306 0.426242C6.28712 0.425227 6.49095 0.422856 6.69494 0.417147C7.93521 0.38375 7.93521 0.38375 8.23697 0.576101C8.41932 0.753928 8.5267 0.952419 8.61683 1.18863C8.66881 1.31678 8.74458 1.42219 8.82672 1.53277C8.87505 1.60346 8.92337 1.67416 8.97168 1.74487C9.23405 2.12856 9.49711 2.51177 9.76061 2.89469C9.87203 3.05663 9.98337 3.21862 10.0947 3.38061C10.1395 3.44571 10.1842 3.51082 10.229 3.57592C13.1831 7.8728 13.1831 7.8728 13.2503 7.97056C13.2948 8.03531 13.3394 8.10005 13.3839 8.1648C13.4995 8.33296 13.6151 8.50119 13.7305 8.66949C13.7543 8.70421 13.7782 8.73892 13.8027 8.77468C13.8478 8.84041 13.8929 8.90615 13.9379 8.9719C14.0787 9.17692 14.2221 9.37979 14.3672 9.58178C14.558 9.39589 14.7339 9.20096 14.9073 8.99889C14.935 8.96686 14.9626 8.93483 14.9911 8.90182C15.0762 8.80305 15.1612 8.70415 15.2461 8.60522C15.2715 8.57562 15.297 8.54602 15.3232 8.51552C15.493 8.31776 15.6626 8.11973 15.832 7.92162C16.1586 7.53982 16.4862 7.1589 16.8155 6.77943C17.0913 6.46149 17.3651 6.14184 17.6387 5.82201C17.9653 5.44021 18.2928 5.05929 18.6222 4.67982C18.898 4.36188 19.1717 4.04223 19.4453 3.7224C19.7719 3.3406 20.0995 2.95968 20.4288 2.58021C20.7561 2.2029 21.0807 1.82328 21.4051 1.4435C21.4306 1.41374 21.456 1.38397 21.4823 1.3533C21.5299 1.2976 21.5775 1.24187 21.625 1.1861C21.6707 1.13275 21.7173 1.08021 21.7646 1.02843C21.8428 0.938877 21.8428 0.938877 21.902 0.822031C21.9994 0.668669 22.0708 0.593203 22.2285 0.499749C22.6033 0.424512 22.9964 0.458653 23.376 0.472283C23.4824 0.474489 23.5888 0.476494 23.6953 0.478291C23.9551 0.483117 24.2149 0.490454 24.4746 0.499749C24.4286 0.561842 24.3825 0.62386 24.3363 0.685846C24.2978 0.737663 24.2978 0.737663 24.2585 0.790526C24.1537 0.926686 24.0402 1.0492 23.9222 1.17419C23.7094 1.40211 23.5104 1.63783 23.3148 1.88086C23.2008 2.01863 23.082 2.15043 22.9609 2.28198C22.7601 2.50023 22.5717 2.72584 22.3855 2.9566C22.2449 3.12697 22.0963 3.2893 21.9476 3.45252C21.8349 3.57932 21.7278 3.70942 21.6212 3.84142C21.4328 4.07445 21.2338 4.29521 21.0309 4.51567C20.8737 4.69077 20.7266 4.87314 20.5788 5.05621C20.4382 5.22658 20.2897 5.38891 20.1409 5.55212C20.0282 5.67893 19.9211 5.80903 19.8146 5.94103C19.6261 6.17406 19.4271 6.39482 19.2243 6.61528C19.067 6.79038 18.92 6.97275 18.7722 7.15582C18.6662 7.28427 18.5565 7.40792 18.4443 7.531C18.2923 7.69786 18.1469 7.86817 18.0049 8.04369C17.8285 8.26167 17.6442 8.46996 17.4554 8.67712C17.3427 8.80393 17.2356 8.93403 17.129 9.06603C16.9406 9.29906 16.7416 9.51982 16.5387 9.74028C16.3819 9.91496 16.2351 10.0968 16.088 10.2797C15.9421 10.4559 15.7867 10.6224 15.6293 10.7884C15.5319 10.909 15.4741 10.9922 15.4414 11.1443C15.4966 11.2757 15.4966 11.2757 15.597 11.4037C15.652 11.4808 15.652 11.4808 15.7081 11.5595C15.7282 11.5871 15.7483 11.6147 15.769 11.6431C15.8565 11.7641 15.9404 11.8873 16.0245 12.0106C16.0926 12.1104 16.1611 12.2099 16.2297 12.3093C16.3659 12.5067 16.5018 12.7044 16.6377 12.9021C16.6825 12.9672 16.7272 13.0323 16.772 13.0974C17.7567 14.5297 18.7414 15.962 19.7261 17.3943C19.7482 17.4265 19.7704 17.4587 19.7932 17.4919C19.838 17.5571 19.8829 17.6223 19.9277 17.6876C20.0384 17.8485 20.149 18.0095 20.2598 18.1704C20.5286 18.5611 20.7967 18.9523 21.0644 19.3438C21.2998 19.688 21.536 20.0316 21.7723 20.3752C21.8837 20.5371 21.9951 20.6991 22.1064 20.8611C22.1512 20.9262 22.196 20.9913 22.2407 21.0564C22.8673 21.9678 23.494 22.8793 24.1206 23.7908C24.1428 23.823 24.165 23.8553 24.1878 23.8885C24.2323 23.9533 24.2768 24.018 24.3213 24.0828C24.437 24.2513 24.5531 24.4196 24.6697 24.5875C24.6938 24.6222 24.7178 24.6569 24.7426 24.6927C24.7882 24.7585 24.8339 24.8242 24.8797 24.8899C24.9006 24.92 24.9214 24.9501 24.9429 24.9811C24.9609 25.0071 24.979 25.0331 24.9976 25.0598C25.0896 25.2032 25.1717 25.3517 25.2559 25.4997C24.3055 25.5215 23.3553 25.5378 22.4048 25.5478C21.9634 25.5526 21.5221 25.5591 21.0808 25.5697C20.6959 25.579 20.3111 25.585 19.9261 25.587C19.7224 25.5882 19.519 25.591 19.3154 25.5978C18.081 25.6374 18.081 25.6374 17.7546 25.4107C17.5478 25.1982 17.4192 24.9602 17.3027 24.6898C17.2154 24.5016 17.095 24.3394 16.9734 24.1722C16.9294 24.1086 16.8855 24.0448 16.8418 23.9809C16.8202 23.9496 16.7987 23.9183 16.7765 23.8861C16.6651 23.7241 16.5537 23.5621 16.4424 23.4001C16.3976 23.335 16.3529 23.2699 16.3081 23.2048C15.3234 21.7725 14.3387 20.3402 13.354 18.908C13.3319 18.8757 13.3097 18.8435 13.2869 18.8103C13.242 18.7451 13.1972 18.6799 13.1524 18.6147C13.0417 18.4537 12.9311 18.2928 12.8203 18.1319C12.6848 17.9349 12.5494 17.7378 12.4141 17.5408C12.3885 17.5035 12.3629 17.4663 12.3366 17.4279C11.9841 16.9147 11.6347 16.3997 11.291 15.8806C10.9721 16.22 10.6621 16.5616 10.3703 16.9249C10.2657 17.0524 10.157 17.1747 10.0459 17.2966C9.89475 17.4624 9.75041 17.6317 9.6095 17.8063C9.42104 18.0393 9.22207 18.2601 9.01917 18.4805C8.86196 18.6556 8.71489 18.838 8.56713 19.0211C8.42652 19.1914 8.27798 19.3538 8.1292 19.517C8.01651 19.6438 7.9094 19.7739 7.80286 19.9059C7.6144 20.1389 7.41543 20.3597 7.21253 20.5801C7.05532 20.7552 6.90825 20.9376 6.76049 21.1207C6.61988 21.291 6.47134 21.4534 6.32256 21.6166C6.20987 21.7434 6.10276 21.8735 5.99622 22.0055C5.80776 22.2385 5.60879 22.4593 5.40589 22.6797C5.24868 22.8548 5.10161 23.0372 4.95385 23.2203C4.81324 23.3906 4.6647 23.553 4.51592 23.7162C4.40323 23.843 4.29612 23.9731 4.18958 24.1051C4.0016 24.3375 3.8032 24.5578 3.60078 24.7776C3.43482 24.9625 3.27869 25.1541 3.1228 25.3475C3.03906 25.4509 3.03906 25.4509 2.99023 25.4997C2.91978 25.5043 2.84911 25.5055 2.77851 25.5053C2.71106 25.5053 2.71106 25.5053 2.64225 25.5053C2.59337 25.505 2.54449 25.5048 2.49413 25.5045C2.44435 25.5044 2.39456 25.5044 2.34327 25.5043C2.18356 25.504 2.02385 25.5034 1.86414 25.5028C1.75615 25.5026 1.64816 25.5023 1.54017 25.5021C1.27483 25.5016 1.00948 25.5008 0.744141 25.4997C0.790632 25.4372 0.837198 25.3748 0.883794 25.3123C0.909718 25.2775 0.935641 25.2427 0.96235 25.2069C1.05167 25.0901 1.14757 24.9818 1.24768 24.8741C1.40297 24.7043 1.55163 24.5313 1.69629 24.3523C1.87263 24.1343 2.05696 23.926 2.2458 23.7189C2.35849 23.5921 2.4656 23.462 2.57214 23.3299C2.7606 23.0969 2.95957 22.8762 3.16247 22.6557C3.31968 22.4806 3.46675 22.2982 3.61451 22.1152C3.75512 21.9448 3.90366 21.7825 4.05244 21.6192C4.16513 21.4924 4.27224 21.3623 4.37878 21.2303C4.56724 20.9973 4.76621 20.7766 4.96911 20.5561C5.12632 20.381 5.27339 20.1986 5.42115 20.0155C5.56176 19.8452 5.7103 19.6829 5.85908 19.5196C5.97177 19.3928 6.07888 19.2627 6.18542 19.1307C6.37388 18.8977 6.57285 18.6769 6.77575 18.4565C6.93296 18.2814 7.08003 18.099 7.22779 17.9159C7.3684 17.7456 7.51694 17.5832 7.66572 17.42C7.77841 17.2932 7.88553 17.1631 7.99207 17.0311C8.18052 16.7981 8.37949 16.5773 8.58239 16.3569C8.7396 16.1818 8.88667 15.9994 9.03443 15.8163C9.17467 15.6464 9.32278 15.4845 9.47121 15.3218C9.62751 15.1458 9.77471 14.963 9.92173 14.7793C10.0215 14.6599 10.0215 14.6599 10.135 14.5588C10.162 14.5277 10.189 14.4966 10.2168 14.4646C10.187 14.2478 10.0534 14.0894 9.92993 13.9153C9.88071 13.8448 9.8315 13.7744 9.7823 13.7039C9.75708 13.668 9.73185 13.6321 9.70587 13.5951C9.59021 13.43 9.4763 13.2637 9.3623 13.0974C9.31756 13.0323 9.2728 12.9672 9.22803 12.9021C8.78044 12.2511 8.33285 11.6 7.88525 10.949C7.86311 10.9168 7.84096 10.8845 7.81814 10.8513C7.7733 10.7861 7.72846 10.7209 7.68362 10.6557C7.57297 10.4947 7.4623 10.3338 7.35158 10.1729C7.08275 9.78214 6.81463 9.39093 6.54692 8.99944C6.31151 8.65527 6.07538 8.3116 5.839 7.96809C5.72758 7.80615 5.61624 7.64416 5.50488 7.48217C5.46012 7.41707 5.41536 7.35196 5.37061 7.28686C4.38591 5.85457 3.4012 4.42228 2.4165 2.98998C2.38328 2.94166 2.38328 2.94166 2.34939 2.89236C2.30455 2.82714 2.25971 2.76192 2.21487 2.69669C2.10422 2.53573 1.99355 2.37479 1.88283 2.21388C1.79484 2.08601 1.70691 1.95808 1.61904 1.83012C1.51459 1.67803 1.40988 1.52613 1.30509 1.37427C1.24729 1.29028 1.1895 1.2063 1.13171 1.12231C1.10434 1.08273 1.07697 1.04315 1.04877 1.00237C1.01042 0.946555 1.01042 0.946555 0.971306 0.889611C0.948643 0.856739 0.925979 0.823867 0.902629 0.789999C0.842315 0.69587 0.79336 0.600013 0.744141 0.499749ZM3.77148 2.15991C3.82554 2.24529 3.87965 2.33064 3.93379 2.41598C3.96392 2.46351 3.99404 2.51105 4.02508 2.56002C4.14005 2.7386 4.26121 2.91198 4.38489 3.08459C4.43596 3.15642 4.48701 3.22826 4.53805 3.30012C4.56438 3.33714 4.59071 3.37417 4.61785 3.41232C4.75776 3.60966 4.89631 3.80795 5.03491 4.00622C5.07773 4.06744 5.07773 4.06744 5.12142 4.1299C5.17955 4.213 5.23767 4.29611 5.29579 4.37922C5.43866 4.58351 5.58164 4.78772 5.72461 4.99194C5.78158 5.07332 5.83854 5.1547 5.89551 5.23608C5.93781 5.2965 5.93781 5.2965 5.98096 5.35815C6.06641 5.48022 6.15186 5.60229 6.2373 5.72436C6.2655 5.76463 6.29369 5.8049 6.32273 5.84639C6.37978 5.92789 6.43682 6.00939 6.49387 6.09089C6.63502 6.29255 6.7762 6.49419 6.91747 6.69577C7.25377 7.17577 7.58901 7.65651 7.92354 8.13775C8.21963 8.56356 8.51692 8.98852 8.81456 9.41324C8.95652 9.61586 9.09837 9.81855 9.24023 10.0212C9.2972 10.1026 9.35417 10.184 9.41113 10.2654C9.52507 10.4281 9.639 10.5909 9.75293 10.7537C9.78112 10.7939 9.80931 10.8342 9.83836 10.8757C9.8954 10.9572 9.95245 11.0387 10.0095 11.1202C10.1506 11.3218 10.2918 11.5235 10.4331 11.7251C10.7694 12.2051 11.1046 12.6858 11.4392 13.167C11.7353 13.5929 12.0325 14.0178 12.3302 14.4425C12.4721 14.6452 12.614 14.8478 12.7559 15.0505C12.8128 15.1319 12.8698 15.2133 12.9268 15.2947C13.0407 15.4574 13.1546 15.6202 13.2686 15.783C13.2967 15.8232 13.3249 15.8635 13.354 15.905C13.411 15.9865 13.4681 16.068 13.5251 16.1495C13.6663 16.3511 13.8075 16.5528 13.9487 16.7544C14.285 17.2344 14.6203 17.7151 14.9548 18.1963C15.2509 18.6222 15.5482 19.0471 15.8458 19.4718C15.9878 19.6744 16.1296 19.8771 16.2715 20.0798C16.3285 20.1612 16.3854 20.2426 16.4424 20.324C16.7842 20.8122 17.126 21.3005 17.4678 21.7888C17.496 21.8291 17.5242 21.8695 17.5533 21.911C17.61 21.992 17.6666 22.0729 17.7233 22.1538C17.8704 22.3641 18.0176 22.5742 18.1651 22.7843C18.2107 22.8493 18.2107 22.8493 18.2572 22.9156C18.3148 22.9976 18.3724 23.0796 18.43 23.1616C18.4564 23.1992 18.4828 23.2368 18.5099 23.2756C18.5441 23.3242 18.5441 23.3242 18.5789 23.3738C18.6641 23.4978 18.6641 23.4978 18.7127 23.608C18.7819 23.7451 18.8413 23.8355 18.957 23.9372C19.2048 23.9996 19.4482 23.9885 19.7013 23.9802C19.7742 23.9793 19.8471 23.9787 19.9201 23.9783C20.1113 23.9766 20.3025 23.9723 20.4937 23.9674C20.6891 23.9629 20.8845 23.9609 21.0799 23.9587C21.4628 23.954 21.8457 23.9465 22.2285 23.9372C22.1739 23.8511 22.1193 23.765 22.0647 23.6789C22.0342 23.6309 22.0038 23.5829 21.9725 23.5335C21.876 23.3834 21.7751 23.2392 21.67 23.095C21.4498 22.7902 21.2344 22.4822 21.02 22.1733C20.7704 21.8138 20.5204 21.4545 20.2693 21.0961C20.2276 21.0365 20.2276 21.0365 20.185 20.9758C20.1292 20.8961 20.0733 20.8164 20.0175 20.7366C19.8755 20.534 19.7337 20.3313 19.5918 20.1287C19.5348 20.0473 19.4779 19.9659 19.4209 19.8845C19.307 19.7218 19.193 19.559 19.0791 19.3962C19.0509 19.356 19.0227 19.3157 18.9937 19.2742C18.9366 19.1927 18.8796 19.1112 18.8225 19.0297C18.6814 18.828 18.5402 18.6264 18.3989 18.4248C18.0626 17.9448 17.7274 17.4641 17.3929 16.9828C17.0968 16.557 16.7995 16.1321 16.5018 15.7073C16.3599 15.5047 16.218 15.302 16.0762 15.0994C16.0192 15.018 15.9622 14.9366 15.9053 14.8552C15.7913 14.6925 15.6774 14.5297 15.5635 14.3669C15.5353 14.3267 15.5071 14.2864 15.4781 14.2449C15.421 14.1634 15.364 14.0819 15.3069 14.0004C15.1658 13.7987 15.0246 13.5971 14.8833 13.3955C14.547 12.9155 14.2118 12.4348 13.8772 11.9535C13.5812 11.5277 13.2839 11.1028 12.9862 10.6781C12.8443 10.4754 12.7024 10.2727 12.5605 10.0701C12.5036 9.98868 12.4466 9.9073 12.3896 9.82592C12.0479 9.33764 11.7061 8.84936 11.3643 8.36108C11.322 8.30067 11.322 8.30067 11.2788 8.23904C11.2218 8.15754 11.1647 8.07605 11.1077 7.99454C10.9665 7.79288 10.8254 7.59125 10.6841 7.38966C10.3478 6.90966 10.0126 6.42893 9.67802 5.94768C9.38193 5.52187 9.08464 5.09692 8.787 4.67219C8.61681 4.42929 8.44675 4.18629 8.27671 3.94328C8.12959 3.73304 7.98235 3.5229 7.8349 3.3129C7.7893 3.24789 7.7893 3.24789 7.74277 3.18158C7.68521 3.09953 7.62762 3.01751 7.56997 2.93553C7.53041 2.87912 7.53041 2.87912 7.49005 2.82156C7.4673 2.78917 7.44454 2.75677 7.4211 2.7234C7.33594 2.59936 7.33594 2.59936 7.28727 2.48917C7.21808 2.35207 7.15872 2.2617 7.04297 2.15991C6.79524 2.09754 6.5518 2.10863 6.29872 2.11699C6.22579 2.11781 6.15286 2.11844 6.07994 2.11887C5.88866 2.12055 5.69753 2.12486 5.50632 2.12973C5.31093 2.13424 5.11552 2.13624 4.92009 2.13845C4.53715 2.14315 4.15434 2.15064 3.77148 2.15991Z" fill="#141515"></path></g><defs><clipPath id="clip0_1686_480"><rect width="25" height="25" fill="white" transform="translate(0.5 0.5)"></rect></clipPath></defs></svg>