<svg xmlns="http://www.w3.org/2000/svg" width="40" height="40" viewBox="0 0 40 40" fill="none"><path d="M27.0183 18.51L16.2283 13.1133C15.9233 12.9607 15.5843 12.8886 15.2436 12.9039C14.9028 12.9192 14.5717 13.0214 14.2815 13.2008C13.9914 13.3801 13.752 13.6307 13.5861 13.9287C13.4201 14.2267 13.3331 14.5622 13.3333 14.9033V25.0966C13.3331 25.4377 13.4201 25.7732 13.5861 26.0712C13.752 26.3692 13.9914 26.6198 14.2815 26.7991C14.5717 26.9785 14.9028 27.0807 15.2436 27.096C15.5843 27.1113 15.9233 27.0393 16.2283 26.8866L27.0183 21.49C27.2948 21.3514 27.5273 21.1386 27.6897 20.8755C27.8522 20.6124 27.9382 20.3092 27.9382 20C27.9382 19.6907 27.8522 19.3876 27.6897 19.1244C27.5273 18.8613 27.2948 18.6485 27.0183 18.51Z" stroke="#E2F3FA" stroke-width="2" stroke-linecap="round" stroke-linejoin="round"></path><path d="M20 35C28.2843 35 35 28.2843 35 20C35 11.7157 28.2843 5 20 5C11.7157 5 5 11.7157 5 20C5 28.2843 11.7157 35 20 35Z" stroke="#E2F3FA" stroke-width="2"></path></svg>